<svg width="535" height="577" viewBox="0 0 535 577" fill="none" xmlns="http://www.w3.org/2000/svg">
<g opacity="0.05">
<path d="M532.63 16.1365C532.63 23.7914 525.921 29.9792 517.589 29.9792H417.319C408.987 29.9792 402.278 23.7914 402.278 16.1365C402.278 8.48164 408.987 2.29395 417.319 2.29395H517.589C525.921 2.29395 532.63 8.48164 532.63 16.1365Z" fill="#33B3D4"/>
<path d="M535 85.094C535 93.642 527.445 100.595 518.194 100.595H406.132C396.811 100.595 389.326 93.642 389.326 85.094C389.326 76.546 396.882 69.5928 406.132 69.5928H518.265C527.515 69.5928 535 76.546 535 85.094Z" fill="#0897D2"/>
<path d="M471.3 152.966C471.3 161.514 463.744 168.467 454.494 168.467H342.361C333.04 168.467 325.555 161.514 325.555 152.966C325.555 144.418 333.11 137.465 342.361 137.465H454.494C463.744 137.465 471.3 144.418 471.3 152.966Z" fill="#30B3D3"/>
<path d="M370.985 85.094C370.985 93.642 363.43 100.595 354.179 100.595H308.14C298.819 100.595 291.334 93.642 291.334 85.094C291.334 76.546 298.89 69.5928 308.14 69.5928H354.179C363.43 69.5928 370.985 76.546 370.985 85.094Z" fill="#1BACE3"/>
<path d="M301.985 152.966C301.985 161.514 294.43 168.467 285.179 168.467H253.333C244.012 168.467 236.527 161.514 236.527 152.966C236.527 144.418 244.083 137.465 253.333 137.465H285.179C294.43 137.465 301.985 144.418 301.985 152.966Z" fill="#075DAA"/>
<path d="M402.194 220.522C402.194 228.049 395.557 234.11 387.436 234.11H308.986C300.865 234.11 294.228 228.049 294.228 220.522C294.228 212.995 300.865 206.935 308.986 206.935H387.436C395.628 206.935 402.194 213.059 402.194 220.522Z" fill="#055CA9"/>
<path d="M352.1 287.31C352.1 295.731 344.686 302.492 335.577 302.492H252.96C243.851 302.492 236.437 295.667 236.437 287.31C236.437 278.89 243.851 272.128 252.96 272.128H335.577C344.757 272.128 352.1 278.89 352.1 287.31Z" fill="#317FB8"/>
<path d="M406.416 353.843C406.416 362.391 398.86 369.344 389.61 369.344H342.441C333.12 369.344 325.635 362.391 325.635 353.843C325.635 345.295 333.19 338.342 342.441 338.342H389.61C398.86 338.342 406.416 345.295 406.416 353.843Z" fill="#26ADE4"/>
<path d="M474.823 423.313C474.823 431.861 467.267 438.814 458.017 438.814H429.701C420.38 438.814 412.896 431.861 412.896 423.313C412.896 414.765 420.451 407.812 429.701 407.812H458.017C467.338 407.875 474.823 414.765 474.823 423.313Z" fill="#34B3D1"/>
<path d="M387.561 423.313C387.561 431.861 380.005 438.814 370.755 438.814H326.481C317.16 438.814 309.675 431.861 309.675 423.313C309.675 414.765 317.23 407.812 326.481 407.812H370.755C380.005 407.875 387.561 414.765 387.561 423.313Z" fill="#0897D2"/>
<path d="M532.652 490.356C532.652 498.776 525.238 505.538 516.129 505.538H269.478C260.369 505.538 252.955 498.713 252.955 490.356C252.955 481.936 260.369 475.174 269.478 475.174H516.129C525.238 475.174 532.652 481.999 532.652 490.356Z" fill="#125FAD"/>
<path d="M532.641 558.487C532.641 567.035 525.086 573.989 515.835 573.989H360.064C350.743 573.989 343.258 567.035 343.258 558.487C343.258 549.939 350.813 542.986 360.064 542.986H515.835C525.086 543.05 532.641 549.939 532.641 558.487Z" fill="#0897D2"/>
<path d="M238.785 236.724C238.785 236.724 270.772 239.467 269.289 221.861C267.807 204.255 252.978 200.938 234.831 205.467C216.683 209.996 176.857 238.192 176.857 289.416C176.857 322.14 201.572 372.79 243.728 372.79C285.883 372.79 283.553 372.79 283.553 372.79C283.553 372.79 305.938 374.64 305.938 357.034C305.938 339.428 295.699 338.343 282.847 338.343C269.996 338.343 241.327 338.343 241.327 338.343C241.327 338.343 203.478 326.733 205.103 285.78C205.173 252.736 228.546 236.788 238.785 236.724Z" fill="#1D94D2"/>
<path d="M176.819 164.386C176.819 164.386 179.291 161.005 184.728 159.857C190.165 158.708 210.572 169.808 195.038 188.754C179.503 207.7 149.422 234.237 149.422 298.155C149.422 362.073 201.958 407.875 258.66 407.875C288.882 407.875 284.998 418.783 284.998 427.012C284.998 435.241 281.609 438.814 245.243 438.814C208.807 438.814 121.459 391.417 121.459 295.603C121.388 199.662 176.819 164.386 176.819 164.386Z" fill="#33B3D4"/>
<path d="M236.519 100.531C236.519 100.531 268.718 103.146 269.283 85.0296C269.777 66.913 256.078 66.8492 229.457 69.5285C202.836 72.2715 133.283 82.4141 86.1839 168.34C50.3127 234.172 58.1507 283.355 58.1507 312.38C58.1507 341.341 62.3874 340.958 71.9907 340.576C81.6646 340.193 82.0885 336.302 82.9358 318.185C83.7832 300.005 74.533 250.12 107.721 180.588C118.595 157.815 157.785 104.358 236.519 100.531Z" fill="#347FB9"/>
<path d="M348.305 1.46443C348.305 1.46443 381.281 -1.7889 381.846 18.3052C381.846 33.7426 371.184 35.8477 344.351 35.8477C317.447 35.8477 218.872 35.8477 218.872 35.8477C218.872 35.8477 100.102 48.4783 46.3653 179.887C22.8512 245.592 22.2863 350.209 46.3653 394.543C54.7682 407.429 55.333 419.167 44.1056 423.377C32.8782 427.587 18.8967 417.189 8.23421 372.918C-2.42831 328.647 -13.0201 215.738 47.4244 116.288C87.1794 56.0056 142.61 7.01423 218.801 2.3575C295.063 -2.36302 348.305 1.46443 348.305 1.46443Z" fill="#0897D2"/>
<path d="M78.3986 394.734C78.3986 394.734 67.1712 377.128 81.3644 369.282C95.5575 361.435 102.407 373.619 108.762 387.079C115.117 400.603 147.882 448.255 194.274 465.351C228.945 477.024 229.439 484.679 228.945 496.863C228.451 509.047 205.643 510.833 190.885 503.625C176.197 496.417 104.313 459.546 78.3986 394.734Z" fill="#1BACE3"/>
<path d="M117.024 527.929C117.024 527.929 111.163 521.167 117.024 513.066C122.885 504.964 133.618 506.75 143.927 515.745C154.166 524.739 205.643 546.492 253.024 543.047C299.417 539.603 313.045 541.899 312.55 558.548C312.056 575.198 293.344 576.538 269.265 576.984C245.115 577.367 155.649 571.115 117.024 527.929Z" fill="#317FB8"/>
<path d="M54.247 468.095C54.247 468.095 44.9967 454.252 54.247 446.278C63.4972 438.304 76.9136 450.169 82.2096 457.186C87.5055 464.203 115.68 485.063 101.981 502.988C96.1908 508.793 86.0226 505.412 77.9728 496.928C69.7817 488.508 54.247 468.095 54.247 468.095Z" fill="#31B3D6"/>
</g>
</svg>
