<svg width="96" height="77" viewBox="0 0 96 77" fill="none" xmlns="http://www.w3.org/2000/svg">
<g clip-path="url(#clip0_761_20967)">
<g clip-path="url(#clip1_761_20967)">
<g clip-path="url(#clip2_761_20967)">
<path d="M44.7162 4.82134C44.7162 10.804 43.8021 17.1189 41.9742 23.7664C40.063 30.4137 37.6117 36.521 34.6205 42.0883C31.6292 47.7386 28.9287 52.4747 26.5189 56.2971C24.0262 60.2024 21.658 63.5676 19.4146 66.3928L17.0465 69.1348C15.5508 70.9629 13.6397 72.7908 11.3131 74.619C8.90338 76.4469 6.90917 77.3609 5.3304 77.3609C1.59125 77.3609 -0.27832 75.5745 -0.27832 72.0015C-0.27832 67.4314 0.80188 60.9918 2.96229 52.6825C5.0396 44.3733 6.28599 38.8892 6.70143 36.2303C8.36329 24.265 9.1942 15.2494 9.1942 9.18369C9.1942 8.0204 9.56813 7.10638 10.316 6.44164C10.9807 5.7769 11.6454 5.31989 12.3102 5.07062C12.8918 4.90443 13.972 4.65516 15.5508 4.32278L38.6089 -0.53811C42.6804 -1.28594 44.7162 0.500547 44.7162 4.82134ZM95.6933 4.82134C95.6933 10.804 94.7794 17.1189 92.9513 23.7664C91.0401 30.4137 88.589 36.521 85.5976 42.0883C82.6063 47.7386 79.9058 52.4747 77.4962 56.2971C75.0033 60.2024 72.6351 63.5676 70.3917 66.3928L68.0236 69.1348C66.5279 70.9629 64.6168 72.7908 62.2901 74.619C59.8805 76.4469 57.8862 77.3609 56.3076 77.3609C52.5685 77.3609 50.6989 75.5745 50.6989 72.0015C50.6989 67.4314 51.779 60.9918 53.9394 52.6825C56.0167 44.3733 57.2631 38.8892 57.6786 36.2303C59.3405 24.265 60.1713 15.2494 60.1713 9.18369C60.1713 8.0204 60.5453 7.10638 61.2932 6.44164C61.9578 5.7769 62.6225 5.31989 63.2873 5.07062C63.869 4.90443 64.9492 4.65516 66.5279 4.32278L89.586 -0.53811C93.6575 -1.28594 95.6933 0.500547 95.6933 4.82134Z" fill="#76ADD3"/>
</g>
</g>
</g>
<defs>
<clipPath id="clip0_761_20967">
<rect width="95.4127" height="76.6598" fill="white"/>
</clipPath>
<clipPath id="clip1_761_20967">
<rect width="95.4127" height="76.6598" fill="white" transform="translate(0 0.000488281)"/>
</clipPath>
<clipPath id="clip2_761_20967">
<rect width="97.1475" height="78.0649" fill="white" transform="translate(-0.867676 -0.703125)"/>
</clipPath>
</defs>
</svg>
