<svg width="217" height="225" viewBox="0 0 217 225" fill="none" xmlns="http://www.w3.org/2000/svg">
<path d="M178.804 192.274L124.831 224.5L30.5234 166.351L84.4967 134.125L178.804 192.274Z" fill="#8B9BA6"/>
<path d="M123.82 10.1931L140.386 0.5L156.953 10.1931L140.391 19.8906L123.82 10.1931Z" fill="#3D84BB" stroke="#19374E" stroke-linecap="round" stroke-linejoin="round"/>
<path d="M95.3906 43.1633L111.957 33.4702L128.527 43.1633L111.961 52.8563L95.3906 43.1633Z" fill="#E7EBEE" stroke="#19374E" stroke-linecap="round" stroke-linejoin="round"/>
<path d="M95.2031 43.1724V110.226L111.934 120.013V52.9646L95.2031 43.1724Z" fill="#E7EBEE" stroke="#19374E" stroke-linecap="round" stroke-linejoin="round"/>
<path d="M111.934 52.9558L128.664 43.1636V110.235L111.934 120.027V52.9558Z" fill="#E7EBEE" stroke="#19374E" stroke-linecap="round" stroke-linejoin="round"/>
<path d="M123.691 10.2158V126.654L140.422 136.442V20.0035L123.691 10.2158Z" fill="#3D84BB" stroke="#19374E" stroke-linecap="round" stroke-linejoin="round"/>
<path d="M140.422 19.9851L157.153 10.1929V126.672L140.422 136.46V19.9851Z" fill="#3D84BB" stroke="#19374E" stroke-linecap="round" stroke-linejoin="round"/>
<path d="M153.764 51.6385L170.33 41.9409L186.9 51.6385L170.334 61.3315L153.764 51.6385Z" fill="#E7EBEE" stroke="#19374E" stroke-linecap="round" stroke-linejoin="round"/>
<path d="M153.535 51.7656V144.197L170.266 153.985V61.5534L153.535 51.7656Z" fill="#E7EBEE" stroke="#19374E" stroke-linecap="round" stroke-linejoin="round"/>
<path d="M170.268 61.5393L186.998 51.7471V144.21L170.268 154.002V61.5393Z" fill="#E7EBEE" stroke="#19374E" stroke-linecap="round" stroke-linejoin="round"/>
<path d="M183.367 87.3044L199.933 77.6113L216.499 87.3044L199.938 96.9974L183.367 87.3044Z" fill="#3D84BB" stroke="#19374E" stroke-linecap="round" stroke-linejoin="round"/>
<path d="M183.381 87.3184V161.279L200.112 171.066V97.1061L183.381 87.3184Z" fill="#3D84BB" stroke="#19374E" stroke-linecap="round" stroke-linejoin="round"/>
<path d="M199.663 97.0964L216.389 87.3042V161.292L199.658 171.079L199.663 97.0964Z" fill="#3D84BB" stroke="#19374E" stroke-linecap="round" stroke-linejoin="round"/>
<path d="M85.2434 120.302L177.296 175.94C179.311 177.13 179.302 180.083 177.282 181.265L127.41 210.447C126.472 210.998 125.315 210.998 124.372 210.447L31.7817 155.125C29.7577 153.939 29.7577 150.977 31.7817 149.796L82.1918 120.293C83.1348 119.739 84.3004 119.743 85.239 120.298L85.2434 120.302Z" fill="white" stroke="#19374E" stroke-linecap="round" stroke-linejoin="round"/>
<path d="M72.4402 152.37C72.4402 153.502 72.8406 154.579 73.5568 155.553L58.0272 160.043C56.2255 157.712 55.2246 155.111 55.2246 152.37C55.2246 147.794 58.0138 143.606 62.6269 140.409L75.7677 147.127C73.6991 148.515 72.4357 150.355 72.4357 152.374L72.4402 152.37Z" fill="#E7EBEE" stroke="#19374E" stroke-linecap="round" stroke-linejoin="round"/>
<path d="M115.639 152.37C115.639 157.234 112.481 161.657 107.339 164.926L95.6346 157.225C97.3828 155.891 98.4238 154.205 98.4238 152.374C98.4238 148.037 92.6052 144.525 85.4298 144.525C81.5997 144.525 78.1566 145.526 75.7722 147.122C75.7722 147.122 75.7677 147.122 75.7677 147.127L62.627 140.409C68.1653 136.559 76.3282 134.129 85.4298 134.129C102.112 134.129 115.635 142.294 115.635 152.37H115.639Z" fill="#3D84BB" stroke="#19374E" stroke-linecap="round" stroke-linejoin="round"/>
<path d="M84.5091 170.421C72.7651 170.209 62.6982 165.944 58.0273 159.871L73.557 155.381H73.5614C75.4164 157.906 79.4156 159.727 84.1755 160.002L84.5091 170.425V170.421Z" fill="#8B9BA6" stroke="#19374E" stroke-miterlimit="10"/>
<path d="M107.339 164.921C101.841 168.424 94.0603 170.602 85.4347 170.602C85.1277 170.602 84.8164 170.597 84.5094 170.593L84.1758 160.169C84.5895 160.196 85.0121 160.205 85.4347 160.205C89.5762 160.205 93.264 159.038 95.6395 157.216L107.343 164.917L107.339 164.921Z" fill="#3D84BB" stroke="#19374E" stroke-linecap="round" stroke-linejoin="round"/>
<path d="M98.4235 152.199C98.4235 154.029 97.3826 155.715 95.6343 157.05C93.2588 158.871 89.5711 160.039 85.4295 160.039C80.1314 160.039 75.5762 158.127 73.5566 155.382H73.5521C72.8359 154.408 72.4355 153.33 72.4355 152.199C72.4355 150.179 73.6989 148.335 75.7719 146.946C78.1518 145.35 81.595 144.35 85.4295 144.35C92.6049 144.35 98.4235 147.862 98.4235 152.199Z" stroke="#19374E" stroke-linecap="round" stroke-linejoin="round"/>
<path d="M98.4235 152.199C98.4235 154.029 97.3826 155.715 95.6343 157.05C93.2588 158.871 89.5711 160.039 85.4295 160.039C85.0025 160.039 84.5843 160.03 84.1706 160.003C79.4152 159.728 75.4116 157.906 73.5566 155.382H73.5521C72.8359 154.408 72.4355 153.33 72.4355 152.199C72.4355 150.179 73.6989 148.335 75.7719 146.946C78.1518 145.35 81.595 144.35 85.4295 144.35C92.6049 144.35 98.4235 147.862 98.4235 152.199Z" stroke="#19374E" stroke-linecap="round" stroke-linejoin="round"/>
<path d="M131.689 165.561L106.471 180.317C105.452 180.912 104.202 180.912 103.184 180.317L101.791 179.501C100.817 178.929 100.817 177.504 101.791 176.931L126.396 162.541C127.592 161.842 129.065 161.842 130.257 162.541L131.685 163.375C132.517 163.862 132.517 165.074 131.685 165.561H131.689Z" fill="#3D84BB" stroke="#19374E" stroke-linecap="round" stroke-linejoin="round"/>
<path d="M142.584 172.004L117.366 186.76C116.347 187.355 115.097 187.355 114.078 186.76L112.686 185.944C111.712 185.371 111.712 183.946 112.686 183.374L137.29 168.983C138.487 168.284 139.959 168.284 141.152 168.983L142.579 169.817C143.411 170.304 143.411 171.517 142.579 172.004H142.584Z" fill="#8B9BA6" stroke="#19374E" stroke-miterlimit="10"/>
<path d="M154.75 179.073L129.532 193.829C128.513 194.424 127.263 194.424 126.244 193.829L124.852 193.013C123.878 192.44 123.878 191.015 124.852 190.443L149.456 176.052C150.653 175.353 152.125 175.353 153.318 176.052L154.745 176.886C155.577 177.373 155.577 178.586 154.745 179.073H154.75Z" stroke="#19374E" stroke-linecap="round" stroke-linejoin="round"/>
<path d="M46.1955 109.17L35.4258 104.955L43.7489 95.4644L46.8717 100.843L46.1955 109.17Z" fill="#3D84BB" stroke="#19374E" stroke-linecap="round" stroke-linejoin="round"/>
<path d="M34.4906 109.328C33.9701 109.171 16.7012 99.473 16.7012 99.473L21.381 86.5068L38.1294 89.4598L34.4906 109.333V109.328Z" fill="#3D84BB" stroke="#19374E" stroke-linecap="round" stroke-linejoin="round"/>
<path d="M23.2531 93.2018L12.123 87.7692L12.3321 76.8048L22.0075 68.054L17.1187 59.6233L23.1508 48.8708L32.7195 49.8175L35.2195 36.9551L44.4768 31.8966L52.484 35.7964L56.0206 31.5811L66.7903 37.2211L49.9884 59.8352L37.6083 69.5327L38.3379 85.6638L23.2531 93.2018Z" fill="#3D84BB" stroke="#19374E" stroke-linecap="round" stroke-linejoin="round"/>
<path d="M41.5645 82.6028C41.5645 82.6028 56.5425 77.7517 53.5264 60.3583L62.9927 58.7759L68.2998 66.1561L64.8655 79.2305L59.4562 86.1869L50.8217 90.0867L43.1259 84.1807" fill="#3D84BB"/>
<path d="M41.5645 82.6028C41.5645 82.6028 56.5425 77.7517 53.5264 60.3583L62.9927 58.7759L68.2998 66.1561L64.8655 79.2305L59.4562 86.1869L50.8217 90.0867L43.1259 84.1807" stroke="#19374E" stroke-linecap="round" stroke-linejoin="round"/>
<path d="M77.1154 64.7625L76.9597 54.5194L68.8723 55.3084L72.1375 41.9094L66.8483 37.3379L58.2939 47.7388L55.3401 37.8068L46.1629 42.2205L43.9876 55.3039L34.499 54.3571C34.499 54.3571 28.587 65.2313 28.4357 65.7047L33.2579 73.4276L23.3066 82.4129L23.4623 93.1293L33.1066 91.5514L27.9731 104.95L34.6591 109.206L43.5249 99.121L46.323 109.053L53.7876 104.639L58.454 91.0825L66.2299 92.1871L71.8306 81.3128L67.4755 73.2743L77.1198 64.7625H77.1154ZM58.0981 77.4626C54.9442 83.5986 49.0544 86.813 44.9485 84.6445C40.8425 82.476 40.0685 75.7449 43.2269 69.609C46.3809 63.4731 52.2706 60.2586 56.3766 62.4271C60.4825 64.5957 61.2566 71.3267 58.0981 77.4626Z" fill="white" stroke="#19374E" stroke-linecap="round" stroke-linejoin="round"/>
<path d="M21.6651 61.5973L14.9746 58.9779L20.1437 53.0854L22.0833 56.4262L21.6651 61.5973Z" fill="#3D84BB" stroke="#19374E" stroke-linecap="round" stroke-linejoin="round"/>
<path d="M14.3977 61.697C14.0729 61.5978 3.34766 55.5746 3.34766 55.5746L6.25696 47.5181L16.6619 49.353L14.4021 61.7015L14.3977 61.697Z" fill="#3D84BB" stroke="#19374E" stroke-linecap="round" stroke-linejoin="round"/>
<path d="M7.41293 51.6748L0.5 48.3026L0.629009 41.4904L6.63888 36.0532L3.60058 30.8145L7.35064 24.133L13.2982 24.7236L14.8463 16.7348L20.5982 13.5879L25.576 16.0134L27.7736 13.394L34.4596 16.8971L24.0235 30.9452L16.3321 36.973L16.7858 46.9951L7.41293 51.6748Z" fill="#3D84BB" stroke="#19374E" stroke-linecap="round" stroke-linejoin="round"/>
<path d="M18.7871 45.0926C18.7871 45.0926 28.0933 42.081 26.2205 31.2743L32.1014 30.2915L35.3977 34.8766L33.2669 42.9962L29.9083 47.3197L24.5434 49.7452L19.7613 46.0754" fill="#3D84BB"/>
<path d="M18.7871 45.0926C18.7871 45.0926 28.0933 42.081 26.2205 31.2743L32.1014 30.2915L35.3977 34.8765L33.2669 42.9962L29.9083 47.3197L24.5434 49.7452L19.7613 46.0754" stroke="#19374E" stroke-linecap="round" stroke-linejoin="round"/>
<path d="M40.9419 34.0068L40.844 27.6364L35.8128 28.1279L37.8457 19.7963L34.5583 16.9561L29.2379 23.4256L27.4007 17.2491L21.6933 19.9947L20.341 28.1279L14.4423 27.5418C14.4423 27.5418 10.7679 34.3044 10.67 34.5974L13.6683 39.3989L7.48047 44.9848L7.57834 51.6482L13.5749 50.6698L10.3853 59.0014L14.5446 61.6478L20.0563 55.3766L21.7956 61.5531L26.4398 58.8075L29.3402 50.3768L34.1757 51.0621L37.6589 44.2995L34.9498 39.2997L40.9463 34.0068H40.9419ZM29.0644 41.901C27.1027 45.7106 23.446 47.7123 20.8971 46.3643C18.3436 45.0163 17.8676 40.8325 19.825 37.0229C21.7868 33.2133 25.4434 31.2116 27.9924 32.5596C30.5458 33.9076 31.0218 38.0914 29.0644 41.901Z" fill="white" stroke="#19374E" stroke-linecap="round" stroke-linejoin="round"/>
</svg>
