<svg width="60" height="66" viewBox="0 0 60 66" fill="none" xmlns="http://www.w3.org/2000/svg">
<path d="M60 30.3052V20.725C60 15.313 60 12.607 58.653 10.8415C57.306 9.076 54.2603 8.21886 48.169 6.50464C44.0073 5.33347 40.3387 3.92248 37.4077 2.63436C33.4113 0.878131 31.4133 0 30 0C28.5867 0 26.5887 0.878131 22.5924 2.63436C19.6613 3.92248 15.9928 5.33347 11.8311 6.50464C5.73977 8.21886 2.69407 9.076 1.34703 10.8415C-2.38419e-07 12.607 0 15.313 0 20.725V30.3052C0 48.868 16.8759 60.0056 25.3133 64.414C27.337 65.4713 28.3487 66 30 66C31.6513 66 32.663 65.4713 34.6867 64.414C43.124 60.0056 60 48.868 60 30.3052Z" fill="#2E78AC"/>
<g clip-path="url(#clip0_1343_35614)">
<path d="M28.8 24.6C29.0209 24.7657 29.0657 25.0791 28.9 25.3L27.4 27.3C27.2463 27.505 26.9625 27.5606 26.7428 27.4287L25.9215 26.936L25.4287 27.7572C25.3082 27.9582 25.0642 28.0484 24.8419 27.9743L23.5739 27.5517L22.2773 28.416C22.0476 28.5692 21.7372 28.5071 21.584 28.2773C21.4308 28.0476 21.4929 27.7372 21.7226 27.584L23.2226 26.584C23.351 26.4984 23.5117 26.4769 23.6581 26.5257L24.7776 26.8988L25.3213 25.9928C25.4633 25.756 25.7705 25.6792 26.0072 25.8213L26.8706 26.3392L28.1 24.7C28.2657 24.4791 28.5791 24.4343 28.8 24.6Z" fill="white"/>
<path d="M34.5 36.5C34.5 36.2239 34.2761 36 34 36C33.7239 36 33.5 36.2239 33.5 36.5V39C33.5 39.2761 33.7239 39.5 34 39.5C34.2761 39.5 34.5 39.2761 34.5 39V36.5Z" fill="white"/>
<path d="M37.5 36.5C37.5 36.2239 37.2761 36 37 36C36.7239 36 36.5 36.2239 36.5 36.5V39C36.5 39.2761 36.7239 39.5 37 39.5C37.2761 39.5 37.5 39.2761 37.5 39V36.5Z" fill="white"/>
<path d="M36 37.5C36 37.2239 35.7761 37 35.5 37C35.2239 37 35 37.2239 35 37.5V39C35 39.2761 35.2239 39.5 35.5 39.5C35.7761 39.5 36 39.2761 36 39V37.5Z" fill="white"/>
<path d="M33 38C33 37.7239 32.7761 37.5 32.5 37.5C32.2239 37.5 32 37.7239 32 38V39C32 39.2761 32.2239 39.5 32.5 39.5C32.7761 39.5 33 39.2761 33 39V38Z" fill="white"/>
<path fill-rule="evenodd" clip-rule="evenodd" d="M23.5 30.5H20.5C19.9477 30.5 19.5 30.0523 19.5 29.5V23.5C19.5 22.9477 19.9477 22.5 20.5 22.5H30C30.5523 22.5 31 22.9477 31 23.5V25.25H33.5C33.6327 25.25 33.7598 25.3027 33.8536 25.3965L34.1195 25.6624C34.634 25.248 35.288 25 36 25C36.2761 25 36.5 25.2239 36.5 25.5C36.5 25.7761 36.2761 26 36 26C34.8954 26 34 26.8954 34 28C34 29.1046 34.8954 30 36 30C37.1046 30 38 29.1046 38 28C38 27.7239 38.2239 27.5 38.5 27.5C38.7761 27.5 39 27.7239 39 28C39 28.712 38.752 29.366 38.3376 29.8805L38.8536 30.3964C38.9474 30.4902 39 30.6174 39 30.75V33.5H39.5C40.0523 33.5 40.5 33.9477 40.5 34.5V40.5C40.5 41.0523 40.0523 41.5 39.5 41.5H36V42.5H37C37.2761 42.5 37.5 42.7239 37.5 43C37.5 43.2761 37.2761 43.5 37 43.5H32C31.7239 43.5 31.5 43.2761 31.5 43C31.5 42.7239 31.7239 42.5 32 42.5H33V41.5H30C29.4477 41.5 29 41.0523 29 40.5V40H26.2071L24.8538 41.3533C24.9475 41.5491 25 41.7684 25 42C25 42.8284 24.3284 43.5 23.5 43.5C22.6716 43.5 22 42.8284 22 42C22 41.1716 22.6716 40.5 23.5 40.5C23.7316 40.5 23.9509 40.5525 24.1467 40.6462L25.6465 39.1464C25.7403 39.0527 25.8674 39 26 39H29V37.5H26.4146C26.2087 38.0826 25.6531 38.5 25 38.5C24.1716 38.5 23.5 37.8284 23.5 37C23.5 36.1716 24.1716 35.5 25 35.5C25.6531 35.5 26.2087 35.9174 26.4146 36.5H29V34.5C29 33.9477 29.4477 33.5 30 33.5H32V32.9147C31.4174 32.7088 31 32.1531 31 31.5C31 30.6716 31.6716 30 32.5 30C33.3284 30 34 30.6716 34 31.5C34 32.1531 33.5826 32.7087 33 32.9146V33.5H38V30.9571L37.5884 30.5455C37.1278 30.8335 36.5833 31 36 31C34.3431 31 33 29.6569 33 28C33 27.4167 33.1665 26.8722 33.4545 26.4116L33.2929 26.25H31V29.5C31 30.0523 30.5523 30.5 30 30.5H26.5V31.5H27.5C27.7761 31.5 28 31.7239 28 32C28 32.2761 27.7761 32.5 27.5 32.5H22.5C22.2239 32.5 22 32.2761 22 32C22 31.7239 22.2239 31.5 22.5 31.5H23.5V30.5ZM20.5 23.5H30V29.5H20.5L20.5 23.5ZM24.5 30.5V31.5H25.5V30.5H24.5ZM30 40.5V39.5062L30 39.5L30 39.4938V34.5H39.5V40.5H30ZM33 31.5C33 31.7761 32.7761 32 32.5 32C32.2239 32 32 31.7761 32 31.5C32 31.2239 32.2239 31 32.5 31C32.7761 31 33 31.2239 33 31.5ZM35 42.5H34V41.5H35V42.5ZM25 37.5C25.2761 37.5 25.5 37.2761 25.5 37C25.5 36.7239 25.2761 36.5 25 36.5C24.7239 36.5 24.5 36.7239 24.5 37C24.5 37.2761 24.7239 37.5 25 37.5ZM24 42C24 42.2761 23.7761 42.5 23.5 42.5C23.2239 42.5 23 42.2761 23 42C23 41.7239 23.2239 41.5 23.5 41.5C23.7761 41.5 24 41.7239 24 42Z" fill="white"/>
<path d="M40.8536 23.6464C41.0488 23.8417 41.0488 24.1583 40.8536 24.3536L36.3536 28.8536C36.1583 29.0488 35.8417 29.0488 35.6464 28.8536L34.6464 27.8536C34.4512 27.6583 34.4512 27.3417 34.6464 27.1464C34.8417 26.9512 35.1583 26.9512 35.3536 27.1464L36 27.7929L40.1464 23.6464C40.3417 23.4512 40.6583 23.4512 40.8536 23.6464Z" fill="white"/>
</g>
<defs>
<clipPath id="clip0_1343_35614">
<rect width="24" height="24" fill="white" transform="translate(18 21)"/>
</clipPath>
</defs>
</svg>
