<svg width="833" height="802" viewBox="0 0 833 802" fill="none" xmlns="http://www.w3.org/2000/svg">
<g opacity="0.2">
<path d="M829.38 22.4292C829.38 33.0691 818.934 41.6698 805.96 41.6698H649.825C636.85 41.6698 626.404 33.0691 626.404 22.4292C626.404 11.7893 636.85 3.18872 649.825 3.18872H805.96C818.934 3.18872 829.38 11.7893 829.38 22.4292Z" fill="#E7E7E7"/>
<path d="M833.086 118.278C833.086 130.159 821.321 139.823 806.917 139.823H632.419C617.905 139.823 606.25 130.159 606.25 118.278C606.25 106.396 618.015 96.7317 632.419 96.7317H807.027C821.431 96.7317 833.086 106.396 833.086 118.278Z" fill="#E7E7E7"/>
<path d="M733.897 212.616C733.897 224.498 722.132 234.162 707.728 234.162H533.12C518.606 234.162 506.951 224.498 506.951 212.616C506.951 200.735 518.716 191.071 533.12 191.071H707.728C722.132 191.071 733.897 200.735 733.897 212.616Z" fill="#E7E7E7"/>
<path d="M577.687 118.278C577.687 130.159 565.922 139.823 551.518 139.823H479.827C465.313 139.823 453.658 130.159 453.658 118.278C453.658 106.396 465.423 96.7317 479.827 96.7317H551.518C565.922 96.7317 577.687 106.396 577.687 118.278Z" fill="#E7E7E7"/>
<path d="M470.238 212.616C470.238 224.497 458.473 234.162 444.069 234.162H394.48C379.966 234.162 368.311 224.497 368.311 212.616C368.311 200.735 380.076 191.07 394.48 191.07H444.069C458.473 191.07 470.238 200.735 470.238 212.616Z" fill="#E7E7E7"/>
<path d="M626.275 306.516C626.275 316.979 615.939 325.402 603.294 325.402H481.135C468.49 325.402 458.154 316.979 458.154 306.516C458.154 296.054 468.49 287.63 481.135 287.63H603.294C616.049 287.63 626.275 296.142 626.275 306.516Z" fill="#E7E7E7"/>
<path d="M548.285 399.35C548.285 411.054 536.74 420.452 522.556 420.452H393.909C379.725 420.452 368.18 410.965 368.18 399.35C368.18 387.646 379.725 378.247 393.909 378.247H522.556C536.85 378.247 548.285 387.646 548.285 399.35Z" fill="#E7E7E7"/>
<path d="M632.854 491.827C632.854 503.708 621.089 513.373 606.685 513.373H533.236C518.722 513.373 507.066 503.708 507.066 491.827C507.066 479.946 518.832 470.281 533.236 470.281H606.685C621.089 470.281 632.854 479.946 632.854 491.827Z" fill="#E7E7E7"/>
<path d="M739.368 588.378C739.368 600.259 727.603 609.924 713.198 609.924H669.107C654.593 609.924 642.938 600.259 642.938 588.378C642.938 576.497 654.703 566.833 669.107 566.833H713.198C727.712 566.921 739.368 576.497 739.368 588.378Z" fill="#E7E7E7"/>
<path d="M603.496 588.378C603.496 600.259 591.732 609.924 577.328 609.924H508.386C493.872 609.924 482.217 600.259 482.217 588.378C482.217 576.497 493.982 566.833 508.386 566.833H577.328C591.732 566.921 603.496 576.497 603.496 588.378Z" fill="#E7E7E7"/>
<path d="M829.43 681.568C829.43 693.272 817.885 702.671 803.7 702.671H419.63C405.446 702.671 393.9 693.184 393.9 681.568C393.9 669.864 405.446 660.466 419.63 660.466H803.7C817.885 660.466 829.43 669.953 829.43 681.568Z" fill="#E7E7E7"/>
<path d="M829.415 776.269C829.415 788.15 817.65 797.815 803.246 797.815H560.687C546.173 797.815 534.518 788.15 534.518 776.269C534.518 764.388 546.283 754.723 560.687 754.723H803.246C817.65 754.812 829.415 764.388 829.415 776.269Z" fill="#E7E7E7"/>
<path d="M371.844 329.036C371.844 329.036 421.653 332.848 419.344 308.377C417.035 283.905 393.945 279.294 365.687 285.59C337.429 291.885 275.414 331.075 275.414 402.274C275.414 447.759 313.898 518.16 379.541 518.16C445.184 518.16 441.555 518.16 441.555 518.16C441.555 518.16 476.411 520.731 476.411 496.259C476.411 471.788 460.467 470.28 440.456 470.28C420.444 470.28 375.802 470.28 375.802 470.28C375.802 470.28 316.867 454.143 319.396 397.22C319.506 351.291 355.901 329.124 371.844 329.036Z" fill="#E7E7E7"/>
<path d="M275.347 228.487C275.347 228.487 279.195 223.788 287.662 222.192C296.128 220.596 327.905 236.024 303.715 262.358C279.525 288.691 232.685 325.576 232.685 414.419C232.685 503.262 314.491 566.924 402.784 566.924C449.844 566.924 443.797 582.086 443.797 593.524C443.797 604.962 438.519 609.927 381.893 609.927C325.156 609.927 189.143 544.049 189.143 410.873C189.033 277.52 275.347 228.487 275.347 228.487Z" fill="#E7E7E7"/>
<path d="M368.311 139.736C368.311 139.736 418.45 143.371 419.33 118.19C420.099 93.009 398.768 92.9204 357.316 96.6444C315.863 100.457 207.558 114.555 134.218 233.988C78.3613 325.491 90.5662 393.852 90.5662 434.195C90.5662 474.449 97.1634 473.917 112.117 473.385C127.181 472.853 127.841 467.444 129.16 442.263C130.48 416.994 116.076 347.657 167.754 251.011C184.687 219.358 245.712 145.056 368.311 139.736Z" fill="#E7E7E7"/>
<path d="M542.362 2.03548C542.362 2.03548 593.711 -2.48648 594.59 25.4432C594.59 46.9003 577.987 49.8263 536.204 49.8263C494.312 49.8263 340.816 49.8263 340.816 49.8263C340.816 49.8263 155.873 67.3821 72.1975 250.034C35.5827 341.359 34.703 486.771 72.1975 548.394C85.282 566.304 86.1616 582.619 68.6788 588.471C51.1961 594.323 29.425 579.87 12.8219 518.336C-3.78124 456.802 -20.2742 299.864 73.8467 161.634C135.751 77.8447 222.065 9.74939 340.706 3.2768C459.456 -3.28447 542.362 2.03548 542.362 2.03548Z" fill="#E7E7E7"/>
<path d="M122.085 548.66C122.085 548.66 104.602 524.188 126.703 513.282C148.804 502.376 159.469 519.312 169.365 538.02C179.261 556.817 230.28 623.051 302.52 646.813C356.507 663.039 357.277 673.679 356.508 690.614C355.738 707.549 320.223 710.032 297.242 700.012C274.372 689.993 162.438 638.744 122.085 548.66Z" fill="#E7E7E7"/>
<path d="M182.236 733.794C182.236 733.794 173.11 724.395 182.236 713.135C191.362 701.874 208.075 704.357 224.128 716.859C240.072 729.361 320.229 759.596 394.008 754.808C466.248 750.02 487.469 753.212 486.699 776.353C485.93 799.495 456.792 801.357 419.297 801.978C381.693 802.51 242.381 793.821 182.236 733.794Z" fill="#E7E7E7"/>
<path d="M84.4721 650.627C84.4721 650.627 70.0681 631.387 84.4721 620.304C98.8761 609.221 119.767 625.712 128.014 635.466C136.261 645.219 180.132 674.213 158.801 699.128C149.785 707.196 133.951 702.497 121.417 690.704C108.662 679.001 84.4721 650.627 84.4721 650.627Z" fill="#E7E7E7"/>
</g>
</svg>
