<svg width="60" height="66" viewBox="0 0 60 66" fill="none" xmlns="http://www.w3.org/2000/svg">
<path d="M60 30.3052V20.725C60 15.313 60 12.607 58.653 10.8415C57.306 9.076 54.2603 8.21886 48.169 6.50464C44.0073 5.33347 40.3387 3.92248 37.4077 2.63436C33.4113 0.878131 31.4133 0 30 0C28.5867 0 26.5887 0.878131 22.5924 2.63436C19.6613 3.92248 15.9928 5.33347 11.8311 6.50464C5.73977 8.21886 2.69407 9.076 1.34703 10.8415C-2.38419e-07 12.607 0 15.313 0 20.725V30.3052C0 48.868 16.8759 60.0056 25.3133 64.414C27.337 65.4713 28.3487 66 30 66C31.6513 66 32.663 65.4713 34.6867 64.414C43.124 60.0056 60 48.868 60 30.3052Z" fill="#2E78AC"/>
<path fill-rule="evenodd" clip-rule="evenodd" d="M28.5 26C28.5 25.1716 29.1716 24.5 30 24.5C30.8284 24.5 31.5 25.1716 31.5 26C31.5 26.8284 30.8284 27.5 30 27.5C29.1716 27.5 28.5 26.8284 28.5 26ZM30.5 26C30.5 25.7239 30.2761 25.5 30 25.5C29.7239 25.5 29.5 25.7239 29.5 26C29.5 26.2761 29.7239 26.5 30 26.5C30.2761 26.5 30.5 26.2761 30.5 26Z" fill="white"/>
<path d="M33.5 28C33.5 27.7239 33.2761 27.5 33 27.5C32.7239 27.5 32.5 27.7239 32.5 28C32.5 29.3807 31.3807 30.5 30 30.5C28.6193 30.5 27.5 29.3807 27.5 28C27.5 27.7239 27.2761 27.5 27 27.5C26.7239 27.5 26.5 27.7239 26.5 28C26.5 29.933 28.067 31.5 30 31.5C31.933 31.5 33.5 29.933 33.5 28Z" fill="white"/>
<path fill-rule="evenodd" clip-rule="evenodd" d="M24.5 28C24.5 24.9624 26.9624 22.5 30 22.5C33.0376 22.5 35.5 24.9624 35.5 28C35.5 30.0532 34.3644 31.8983 32.6058 32.8448L32.4995 32.9L32.5 34.9999C32.5 35.0908 32.4753 35.1795 32.4291 35.2567L32.3904 35.3123L31.64 36.2495L32.3904 37.1877C32.5363 37.37 32.5351 37.6262 32.3952 37.8064L32.3536 37.8536L31.7075 38.5L32.3536 39.1464C32.4317 39.2246 32.4813 39.3259 32.4957 39.4343L32.5 39.5V41C32.5 41.1574 32.4259 41.3056 32.3 41.4L30.3 42.9C30.1222 43.0333 29.8778 43.0333 29.7 42.9L27.7 41.4C27.5741 41.3056 27.5 41.1574 27.5 41L27.4995 32.8995L27.3937 32.8445C25.6793 31.9216 24.5572 30.1447 24.5021 28.1536L24.5 28ZM34.5 28C34.5 25.5147 32.4853 23.5 30 23.5C27.5147 23.5 25.5 25.5147 25.5 28C25.5 29.8059 26.5735 31.415 28.2 32.1257C28.3821 32.2053 28.4998 32.3851 28.4998 32.5839L28.4995 40.75L29.9995 41.875L31.4995 40.75V39.707L30.6464 38.8536C30.4662 38.6733 30.4523 38.3897 30.6049 38.1936L30.6464 38.1464L31.3295 37.4625L30.6096 36.5623C30.4768 36.3963 30.4647 36.1668 30.5733 35.9892L30.6096 35.9377L31.5 34.8245L31.4997 32.5841C31.4997 32.4075 31.5927 32.2457 31.7413 32.156L31.7995 32.1259C33.4263 31.4153 34.5 29.8061 34.5 28Z" fill="white"/>
<path fill-rule="evenodd" clip-rule="evenodd" d="M38.3533 33.3538C38.5491 33.4475 38.7684 33.5 39 33.5C39.8284 33.5 40.5 32.8284 40.5 32C40.5 31.1716 39.8284 30.5 39 30.5C38.1716 30.5 37.5 31.1716 37.5 32C37.5 32.2315 37.5525 32.4508 37.6461 32.6466L36.292 34H34L33.9417 34.0034C33.693 34.0322 33.5 34.2436 33.5 34.5C33.5 34.7761 33.7239 35 34 35H36.5L36.5657 34.9957C36.6741 34.9813 36.7754 34.9317 36.8536 34.8536L38.3533 33.3538ZM39 31.5C39.2761 31.5 39.5 31.7239 39.5 32C39.5 32.2761 39.2761 32.5 39 32.5C38.7239 32.5 38.5 32.2761 38.5 32C38.5 31.7239 38.7239 31.5 39 31.5Z" fill="white"/>
<path fill-rule="evenodd" clip-rule="evenodd" d="M37.063 36.5C37.285 35.6374 38.0681 35 39 35C40.1046 35 41 35.8954 41 37C41 38.1046 40.1046 39 39 39C38.0681 39 37.285 38.3626 37.063 37.5H34C33.7239 37.5 33.5 37.2761 33.5 37C33.5 36.7436 33.693 36.5322 33.9417 36.5034L34 36.5H37.063ZM38 37C38 37.5523 38.4477 38 39 38C39.5523 38 40 37.5523 40 37C40 36.4477 39.5523 36 39 36C38.4477 36 38 36.4477 38 37Z" fill="white"/>
<path fill-rule="evenodd" clip-rule="evenodd" d="M39 40C38.3443 40 37.7869 40.4207 37.583 41.0069C37.556 41.0023 37.5283 41 37.5 41H36.2075L34.3536 39.1464L34.3064 39.1049C34.1103 38.9523 33.8267 38.9662 33.6464 39.1464C33.4512 39.3417 33.4512 39.6583 33.6464 39.8536L35.6464 41.8536L35.696 41.897C35.7828 41.9634 35.8895 42 36 42H37.5L37.5583 41.9966C37.5666 41.9957 37.5748 41.9945 37.583 41.9931C37.7869 42.5793 38.3443 43 39 43C39.8284 43 40.5 42.3284 40.5 41.5C40.5 40.6716 39.8284 40 39 40ZM39 41C39.2761 41 39.5 41.2239 39.5 41.5C39.5 41.7761 39.2761 42 39 42C38.7239 42 38.5 41.7761 38.5 41.5C38.5 41.2239 38.7239 41 39 41Z" fill="white"/>
<path fill-rule="evenodd" clip-rule="evenodd" d="M22.3539 41.3534L23.708 40H26L26.0583 39.9966C26.307 39.9678 26.5 39.7564 26.5 39.5C26.5 39.2239 26.2761 39 26 39H23.5L23.4343 39.0043C23.3259 39.0187 23.2246 39.0683 23.1464 39.1464L21.6467 40.6462C21.4509 40.5525 21.2316 40.5 21 40.5C20.1716 40.5 19.5 41.1716 19.5 42C19.5 42.8284 20.1716 43.5 21 43.5C21.8284 43.5 22.5 42.8284 22.5 42C22.5 41.7685 22.4475 41.5492 22.3539 41.3534ZM21 42.5C20.7239 42.5 20.5 42.2761 20.5 42C20.5 41.7239 20.7239 41.5 21 41.5C21.2761 41.5 21.5 41.7239 21.5 42C21.5 42.2761 21.2761 42.5 21 42.5Z" fill="white"/>
<path fill-rule="evenodd" clip-rule="evenodd" d="M22.937 37.5C22.715 38.3626 21.9319 39 21 39C19.8954 39 19 38.1046 19 37C19 35.8954 19.8954 35 21 35C21.9319 35 22.715 35.6374 22.937 36.5H26C26.2761 36.5 26.5 36.7239 26.5 37C26.5 37.2564 26.307 37.4678 26.0583 37.4966L26 37.5H22.937ZM20 37C20 37.5523 20.4477 38 21 38C21.5523 38 22 37.5523 22 37C22 36.4477 21.5523 36 21 36C20.4477 36 20 36.4477 20 37Z" fill="white"/>
<path fill-rule="evenodd" clip-rule="evenodd" d="M21 34C21.6557 34 22.2131 33.5793 22.417 32.9931C22.444 32.9977 22.4717 33 22.5 33H23.7925L25.6464 34.8536L25.6936 34.8951C25.8897 35.0477 26.1733 35.0338 26.3536 34.8536C26.5488 34.6583 26.5488 34.3417 26.3536 34.1464L24.3536 32.1464L24.304 32.103C24.2172 32.0366 24.1105 32 24 32H22.5L22.4417 32.0034C22.4334 32.0043 22.4252 32.0055 22.417 32.0069C22.2131 31.4207 21.6557 31 21 31C20.1716 31 19.5 31.6716 19.5 32.5C19.5 33.3284 20.1716 34 21 34ZM21 33C20.7239 33 20.5 32.7761 20.5 32.5C20.5 32.2239 20.7239 32 21 32C21.2761 32 21.5 32.2239 21.5 32.5C21.5 32.7761 21.2761 33 21 33Z" fill="white"/>
</svg>
