<svg width="60" height="66" viewBox="0 0 60 66" fill="none" xmlns="http://www.w3.org/2000/svg">
<path d="M60 30.3052V20.725C60 15.313 60 12.607 58.653 10.8415C57.306 9.076 54.2603 8.21886 48.169 6.50464C44.0073 5.33347 40.3387 3.92248 37.4077 2.63436C33.4113 0.878131 31.4133 0 30 0C28.5867 0 26.5887 0.878131 22.5924 2.63436C19.6613 3.92248 15.9928 5.33347 11.8311 6.50464C5.73977 8.21886 2.69407 9.076 1.34703 10.8415C-1.98682e-07 12.607 0 15.313 0 20.725V30.3052C0 48.868 16.8759 60.0056 25.3133 64.414C27.337 65.4713 28.3487 66 30 66C31.6513 66 32.663 65.4713 34.6867 64.414C43.124 60.0056 60 48.868 60 30.3052Z" fill="white"/>
<path fill-rule="evenodd" clip-rule="evenodd" d="M37.5 16.6928C37.5 15.7282 36.6027 15.0143 35.6626 15.2312L17.6627 19.385C16.9821 19.5421 16.5 20.1481 16.5 20.8466V43.5H15.75C15.3358 43.5 15 43.8358 15 44.25C15 44.6641 15.3358 45 15.75 45H17.247H17.25H17.253H24V40.5C24 39.6715 24.6716 39 25.5 39H28.5C29.3285 39 30 39.6715 30 40.5V45H36.747H36.75H36.753H37.5V16.6928ZM21.75 24C21.3358 24 21 24.3358 21 24.75V26.25C21 26.6642 21.3358 27 21.75 27H23.25C23.6642 27 24 26.6642 24 26.25V24.75C24 24.3358 23.6642 24 23.25 24H21.75ZM21 29.25C21 28.8358 21.3358 28.5 21.75 28.5H23.25C23.6642 28.5 24 28.8358 24 29.25V30.75C24 31.1641 23.6642 31.5 23.25 31.5H21.75C21.3358 31.5 21 31.1641 21 30.75V29.25ZM21.75 33C21.3358 33 21 33.3358 21 33.75V35.25C21 35.6641 21.3358 36 21.75 36H23.25C23.6642 36 24 35.6641 24 35.25V33.75C24 33.3358 23.6642 33 23.25 33H21.75ZM25.5 24.75C25.5 24.3358 25.8358 24 26.25 24H27.75C28.1642 24 28.5 24.3358 28.5 24.75V26.25C28.5 26.6642 28.1642 27 27.75 27H26.25C25.8358 27 25.5 26.6642 25.5 26.25V24.75ZM26.25 28.5C25.8358 28.5 25.5 28.8358 25.5 29.25V30.75C25.5 31.1641 25.8358 31.5 26.25 31.5H27.75C28.1642 31.5 28.5 31.1641 28.5 30.75V29.25C28.5 28.8358 28.1642 28.5 27.75 28.5H26.25ZM25.5 33.75C25.5 33.3358 25.8358 33 26.25 33H27.75C28.1642 33 28.5 33.3358 28.5 33.75V35.25C28.5 35.6641 28.1642 36 27.75 36H26.25C25.8358 36 25.5 35.6641 25.5 35.25V33.75ZM30.75 24C30.3358 24 30 24.3358 30 24.75V26.25C30 26.6642 30.3358 27 30.75 27H32.25C32.6642 27 33 26.6642 33 26.25V24.75C33 24.3358 32.6642 24 32.25 24H30.75ZM30 29.25C30 28.8358 30.3358 28.5 30.75 28.5H32.25C32.6642 28.5 33 28.8358 33 29.25V30.75C33 31.1641 32.6642 31.5 32.25 31.5H30.75C30.3358 31.5 30 31.1641 30 30.75V29.25ZM30.75 33C30.3358 33 30 33.3358 30 33.75V35.25C30 35.6641 30.3358 36 30.75 36H32.25C32.6642 36 33 35.6641 33 35.25V33.75C33 33.3358 32.6642 33 32.25 33H30.75Z" fill="#3384BD"/>
<path d="M39 20.5364V44.9999H42.7479H42.75H42.7521H44.25C44.6642 44.9999 45 44.664 45 44.2499C45 43.8357 44.6642 43.4999 44.25 43.4999H43.5V23.7134C43.5 23.1453 43.179 22.6259 42.6708 22.3718L39 20.5364Z" fill="#3384BD"/>
<path d="M28.5 45H25.5V40.5H28.5V45Z" fill="white"/>
</svg>
