<svg width="60" height="66" viewBox="0 0 60 66" fill="none" xmlns="http://www.w3.org/2000/svg">
<path d="M60 30.3052V20.725C60 15.313 60 12.607 58.653 10.8415C57.306 9.076 54.2603 8.21886 48.169 6.50464C44.0073 5.33347 40.3387 3.92248 37.4077 2.63436C33.4113 0.878131 31.4133 0 30 0C28.5867 0 26.5887 0.878131 22.5924 2.63436C19.6613 3.92248 15.9928 5.33347 11.8311 6.50464C5.73977 8.21886 2.69407 9.076 1.34703 10.8415C-2.38419e-07 12.607 0 15.313 0 20.725V30.3052C0 48.868 16.8759 60.0056 25.3133 64.414C27.337 65.4713 28.3487 66 30 66C31.6513 66 32.663 65.4713 34.6867 64.414C43.124 60.0056 60 48.868 60 30.3052Z" fill="#2E78AC"/>
<g clip-path="url(#clip0_1343_35609)">
<path fill-rule="evenodd" clip-rule="evenodd" d="M19.6083 29.1111V28.2934C19.6083 28.1447 19.6635 28.0131 19.7708 27.9099L20.9256 26.799V26.4032C20.5698 26.3451 20.202 26.1934 19.9609 25.9376H18.9064C18.6102 25.9376 18.373 25.6976 18.373 25.4055V24.8711C18.373 24.3027 18.6844 23.8146 19.2004 23.5754C19.2025 23.5744 19.2047 23.5734 19.2068 23.5725L20.9738 22.7933V21.9242C20.9738 21.5988 21.24 21.3293 21.5686 21.3293C22.485 21.3293 23.246 22.0264 23.3493 22.9163C23.745 23.0942 24.1262 23.4135 24.4482 23.8301C25.0024 24.5472 25.3842 25.551 25.3842 26.5274V29.1111H25.6821C25.89 29.1111 26.0586 29.2797 26.0586 29.4876V30.6396C26.0586 30.8476 25.89 31.0161 25.6821 31.0161H19.3105C19.1026 31.0161 18.934 30.8476 18.934 30.6396V29.4876C18.934 29.2797 19.1026 29.1111 19.3105 29.1111H19.6083ZM24.6313 29.1111V26.5274C24.6313 25.7174 24.3122 24.8854 23.8524 24.2905C23.5688 23.9236 23.2338 23.6448 22.8816 23.5444C22.7199 23.4983 22.6083 23.3505 22.6083 23.1823V23.1232C22.6083 22.6047 22.2245 22.1712 21.7267 22.0944V23.0388C21.7267 23.1879 21.6387 23.323 21.5022 23.3832C21.5022 23.3832 19.5141 24.2598 19.513 24.2604C19.2715 24.3741 19.126 24.6038 19.126 24.8711V25.1846H20.1452C20.2785 25.1846 20.4018 25.2551 20.4695 25.3699C20.5358 25.4824 20.6573 25.5504 20.786 25.598C20.9509 25.659 21.1337 25.6822 21.2896 25.677C21.3915 25.6737 21.4905 25.7118 21.5638 25.7827C21.6371 25.8536 21.6785 25.9513 21.6785 26.0533V26.9592C21.6785 27.0616 21.6368 27.1596 21.563 27.2305L20.3612 28.3867V29.1111H24.6313ZM19.6869 30.2631H25.3056V29.8641H19.6869V30.2631ZM32.0921 29.6149C32.3733 29.6968 32.6444 29.8091 32.9014 29.9502L33.4203 29.7195C33.5627 29.6562 33.7293 29.6871 33.8395 29.7973L34.6578 30.6156C34.7678 30.7256 34.7988 30.892 34.7358 31.0342C34.7358 31.0342 34.5058 31.5533 34.5058 31.5533C34.6471 31.8106 34.7596 32.0822 34.8416 32.3643L35.3707 32.5679C35.5161 32.6239 35.6119 32.7636 35.6119 32.9193V34.0767C35.6119 34.2325 35.5161 34.3722 35.3707 34.4281C35.3707 34.4281 34.8413 34.6318 34.8414 34.6318C34.7593 34.913 34.6464 35.1842 34.5057 35.4412L34.7358 35.9606C34.7988 36.1029 34.7678 36.2693 34.6578 36.3793L33.8395 37.1975C33.7295 37.3076 33.5631 37.3386 33.4208 37.2756C33.4208 37.2756 32.9019 37.0457 32.902 37.0457C32.6452 37.1869 32.3735 37.2993 32.092 37.3813L31.8883 37.9105C31.8323 38.0558 31.6927 38.1517 31.537 38.1517H30.3795C30.2237 38.1517 30.0841 38.0558 30.0282 37.9105L29.8245 37.3813C29.5425 37.2992 29.2711 37.1863 29.0139 37.0454L28.4945 37.2756C28.3522 37.3386 28.1858 37.3076 28.0758 37.1975L27.2575 36.3793C27.1474 36.2691 27.1164 36.1025 27.1797 35.9601C27.1797 35.9601 27.4103 35.4414 27.4103 35.4415C27.2693 35.1849 27.1568 34.9133 27.0744 34.632L26.5446 34.4281C26.3992 34.3722 26.3034 34.2325 26.3034 34.0767V32.9193C26.3034 32.7636 26.3992 32.6239 26.5446 32.5679C26.5446 32.5679 27.0742 32.3641 27.0742 32.3641C27.1567 32.0821 27.2692 31.8108 27.4104 31.5536L27.1797 31.0347C27.1164 30.8924 27.1474 30.7257 27.2575 30.6156L28.0758 29.7973C28.1859 29.6871 28.3526 29.6562 28.4949 29.7195C28.4949 29.7195 29.0138 29.9502 29.0138 29.9502C29.2709 29.8091 29.5422 29.6967 29.8235 29.6148L30.0282 29.0841C30.0843 28.9389 30.2239 28.8431 30.3795 28.8431H31.537C31.6928 28.8431 31.8325 28.9391 31.8884 29.0845L32.0921 29.6149ZM31.4583 30.0645L31.2783 29.5961H30.6378L30.4568 30.065C30.4122 30.1807 30.3133 30.267 30.1926 30.2957C29.854 30.3762 29.531 30.51 29.2342 30.6929C29.1284 30.7581 28.9973 30.7669 28.8837 30.7164L28.4253 30.5125L27.9728 30.9651L28.1766 31.4235C28.2271 31.5371 28.2183 31.6682 28.1531 31.774C27.97 32.0711 27.8362 32.3944 27.7546 32.7344C27.7257 32.8549 27.6394 32.9534 27.5237 32.9979L27.0563 33.1778V33.8182L27.5237 33.9981C27.6393 34.0426 27.7255 34.141 27.7545 34.2614C27.8361 34.6002 27.9698 34.9245 28.1528 35.2204C28.2183 35.3262 28.2272 35.4576 28.1766 35.5713L27.9728 36.0297L28.4256 36.4826L28.8842 36.2794C28.9973 36.2293 29.1279 36.238 29.2334 36.3026C29.5304 36.4846 29.8536 36.6197 30.1935 36.7002C30.3145 36.7289 30.4134 36.8154 30.4581 36.9313L30.638 37.3988H31.2785L31.4584 36.9313C31.503 36.8155 31.6018 36.729 31.7226 36.7003C32.0611 36.6198 32.385 36.4862 32.6806 36.3034C32.7863 36.2381 32.9174 36.2291 33.0311 36.2794L33.4897 36.4826L33.9428 36.0294L33.7396 35.5709C33.6895 35.4577 33.6982 35.3272 33.7628 35.2217C33.9449 34.9246 34.08 34.6014 34.1605 34.2624C34.1892 34.1416 34.2756 34.0428 34.3915 33.9981L34.859 33.8182V33.1778L34.3915 32.9979C34.2756 32.9533 34.1891 32.8542 34.1604 32.7333C34.08 32.3937 33.9462 32.0708 33.7633 31.774C33.6982 31.6684 33.6894 31.5374 33.7396 31.424L33.9428 30.9654L33.4899 30.5125L33.0315 30.7164C32.918 30.7669 32.7869 30.7581 32.6811 30.6929C32.3842 30.51 32.0613 30.3762 31.7226 30.2957C31.6018 30.267 31.5028 30.1805 31.4583 30.0645ZM30.9576 31.1021C32.2811 31.1021 33.3541 32.174 33.3541 33.4974C33.3541 34.8208 32.281 35.8939 30.9576 35.8939C29.6342 35.8939 28.5623 34.8209 28.5623 33.4974C28.5623 32.1739 29.6341 31.1021 30.9576 31.1021ZM30.9576 31.855C30.0501 31.855 29.3153 32.59 29.3153 33.4974C29.3153 34.405 30.0501 35.141 30.9576 35.141C31.8652 35.141 32.6012 34.405 32.6012 33.4974C32.6012 32.5899 31.8652 31.855 30.9576 31.855ZM37.5074 44.6705C35.239 44.6705 33.3885 42.8211 33.3885 40.5527C33.3885 38.2844 35.239 36.4338 37.5074 36.4338C39.7758 36.4338 41.6252 38.2844 41.6252 40.5527C41.6252 42.8212 39.7758 44.6705 37.5074 44.6705ZM37.5074 43.9176C39.361 43.9176 40.8722 42.4064 40.8722 40.5527C40.8722 38.6991 39.361 37.1868 37.5074 37.1868C35.6537 37.1868 34.1414 38.699 34.1414 40.5527C34.1414 42.4064 35.6538 43.9176 37.5074 43.9176ZM37.0147 40.3483L38.5673 38.7796L38.568 38.7789C38.9298 38.4151 39.5204 38.4134 39.8842 38.7752C40.2477 39.1369 40.2501 39.7253 39.8885 40.0907L39.8883 40.0909C39.1499 40.836 38.4171 41.5855 37.6754 42.3273C37.3118 42.6908 36.7216 42.6908 36.358 42.3273L35.1288 41.0969C34.7655 40.7336 34.7648 40.1455 35.1281 39.7803L35.1288 39.7797C35.4923 39.4161 36.0826 39.4161 36.4461 39.7797L37.0147 40.3483ZM36.7499 41.1483L35.9137 40.3121C35.8442 40.2425 35.7313 40.2424 35.6614 40.3119C35.5921 40.3822 35.5915 40.4949 35.6612 40.5645L36.8905 41.7949C36.9602 41.8645 37.0733 41.8645 37.1429 41.7949C37.8838 41.054 38.6158 40.3053 39.3533 39.5611C39.4226 39.491 39.4228 39.3783 39.3531 39.309C39.2837 39.24 39.1711 39.2404 39.1019 39.3097L37.2837 41.1469C37.2132 41.2181 37.1173 41.2583 37.0171 41.2586C36.917 41.2588 36.8208 41.2191 36.7499 41.1483ZM26.7479 26.5492C26.5401 26.5492 26.3714 26.3805 26.3714 26.1727C26.3714 25.9649 26.5401 25.7963 26.7479 25.7963H40.3114C40.5193 25.7963 40.6879 25.9648 40.6879 26.1727V33.4974C40.6879 33.7053 40.5193 33.8739 40.3114 33.8739H36.52C36.3122 33.8739 36.1435 33.7052 36.1435 33.4974C36.1435 33.2896 36.3122 33.121 36.52 33.121H39.9349C39.9349 31.6738 39.9349 26.5492 39.9349 26.5492H26.7479ZM32.3741 40.6826C32.5819 40.6826 32.7506 40.8513 32.7506 41.0591C32.7506 41.2669 32.5819 41.4356 32.3741 41.4356H19.9954C19.7875 41.4356 19.619 41.267 19.619 41.0591V33.4974C19.619 33.2895 19.7875 33.121 19.9954 33.121H25.2087C25.4165 33.121 25.5851 33.2896 25.5851 33.4974C25.5851 33.7052 25.4165 33.8739 25.2087 33.8739H20.3719V40.6826H32.3741Z" fill="white"/>
</g>
<defs>
<clipPath id="clip0_1343_35609">
<rect width="24" height="24" fill="white" transform="translate(18 21)"/>
</clipPath>
</defs>
</svg>
