<svg width="60" height="66" viewBox="0 0 60 66" fill="none" xmlns="http://www.w3.org/2000/svg">
<path d="M60 30.3052V20.725C60 15.313 60 12.607 58.653 10.8415C57.306 9.076 54.2603 8.21886 48.169 6.50464C44.0073 5.33347 40.3387 3.92248 37.4077 2.63436C33.4113 0.878131 31.4133 0 30 0C28.5867 0 26.5887 0.878131 22.5924 2.63436C19.6613 3.92248 15.9928 5.33347 11.8311 6.50464C5.73977 8.21886 2.69407 9.076 1.34703 10.8415C-2.38419e-07 12.607 0 15.313 0 20.725V30.3052C0 48.868 16.8759 60.0056 25.3133 64.414C27.337 65.4713 28.3487 66 30 66C31.6513 66 32.663 65.4713 34.6867 64.414C43.124 60.0056 60 48.868 60 30.3052Z" fill="#2E78AC"/>
<path fill-rule="evenodd" clip-rule="evenodd" d="M30 22.5C24.201 22.5 19.5 27.201 19.5 33C19.5 38.799 24.201 43.5 30 43.5C35.799 43.5 40.5 38.799 40.5 33C40.5 27.201 35.799 22.5 30 22.5ZM36.937 32.5H39.4227C39.0636 31.3403 37.4799 30.2891 35.2206 29.648C35.2985 30.0998 35.361 30.5651 35.4069 31.0414C36.1537 31.1958 36.7482 31.7664 36.937 32.5ZM35.8662 33.5C35.9513 33.3529 36 33.1821 36 33C36 32.8179 35.9513 32.6471 35.8662 32.5C35.7749 32.3421 35.6416 32.2115 35.4816 32.1234C35.3387 32.0447 35.1746 32 35 32C34.8101 32 34.6326 32.0529 34.4814 32.1448C34.3379 32.232 34.218 32.3544 34.1338 32.5C34.0487 32.6471 34 32.8179 34 33C34 33.1821 34.0487 33.3529 34.1338 33.5C34.218 33.6456 34.3379 33.768 34.4814 33.8552C34.6326 33.9471 34.8101 34 35 34C35.1746 34 35.3387 33.9553 35.4816 33.8766C35.6416 33.7885 35.7749 33.6579 35.8662 33.5ZM35.4069 34.9586C36.1537 34.8042 36.7482 34.2336 36.937 33.5H39.4227C39.0636 34.6597 37.4799 35.7109 35.2206 36.352C35.2985 35.9002 35.361 35.4349 35.4069 34.9586ZM34.4062 34.9104C33.7482 34.7061 33.2358 34.1712 33.063 33.5H30.5V36.0854C30.9154 36.2322 31.2469 36.5569 31.4029 36.9679C32.376 36.9133 33.3006 36.7909 34.1534 36.6132C34.2621 36.0696 34.3474 35.5003 34.4062 34.9104ZM29.5 33.5V36.0854C29.0958 36.2282 28.7711 36.5394 28.6102 36.9346C27.6158 36.8545 26.6782 36.7033 25.8235 36.4952C25.6438 35.562 25.5331 34.5548 25.5063 33.5H29.5ZM26.0718 37.5803C26.8562 37.7467 27.6921 37.8669 28.564 37.935C28.7022 38.3917 29.0523 38.7564 29.5 38.9146V42.4384C28.0611 42.0833 26.7772 40.2202 26.0718 37.5803ZM30.5 42.4384V38.9146C30.9366 38.7603 31.2804 38.4096 31.4253 37.9686C32.2863 37.9223 33.1159 37.8256 33.9001 37.6839C33.1891 40.2689 31.92 42.088 30.5 42.4384ZM33.063 32.5C33.2358 31.8288 33.7482 31.2939 34.4062 31.0896C34.3474 30.4997 34.2621 29.9304 34.1534 29.3868C33.0406 29.155 31.8057 29.0172 30.5 29.0015V32.5H33.063ZM32.7973 23.9185C35.8895 24.8699 38.3088 27.3571 39.1648 30.4898C38.1905 29.6547 36.7384 28.9841 34.9949 28.5502C34.5288 26.6124 33.7636 24.9929 32.7973 23.9185ZM30.5 23.5616C31.92 23.912 33.1891 25.7311 33.9001 28.3161C32.8383 28.1243 31.6932 28.0148 30.5 28.0014V23.5616ZM29.5 23.5616V28.0127C28.9351 28.0319 28.3825 28.0728 27.8458 28.1337C27.6265 27.54 27.1882 27.0524 26.629 26.7688C27.3609 25.0199 28.3838 23.837 29.5 23.5616ZM26.2788 27.7177C26.0518 27.5796 25.7852 27.5 25.5 27.5C25.4295 27.5 25.3601 27.5049 25.2922 27.5143C24.5621 27.6155 24 28.2421 24 29C24 29.0033 24 29.0066 24 29.0099C24.0023 29.3674 24.1297 29.6953 24.3407 29.9519C24.4387 30.0711 24.5547 30.1749 24.6846 30.2592C24.9193 30.4115 25.1993 30.5 25.5 30.5C25.5552 30.5 25.6097 30.497 25.6634 30.4912C26.3261 30.4194 26.8592 29.9161 26.9761 29.268C26.9918 29.181 27 29.0915 27 29C27 28.7385 26.9331 28.4926 26.8154 28.2785C26.6886 28.0479 26.503 27.8542 26.2788 27.7177ZM25.5576 31.4993C26.8702 31.4697 27.933 30.4284 27.997 29.1245C28.4834 29.0698 28.9855 29.0322 29.5 29.0135V32.5H25.5063C25.5149 32.1612 25.5322 31.8274 25.5576 31.4993ZM24.5682 31.3206C24.5364 31.7073 24.5155 32.1009 24.506 32.5H21.0773C21.3255 31.6984 22.1588 30.9487 23.3957 30.3504C23.6746 30.7841 24.0839 31.1259 24.5682 31.3206ZM23.0343 29.4153C22.0121 29.9029 21.201 30.4985 20.6755 31.1731C21.3478 27.7216 23.8888 24.9381 27.2027 23.9185C26.601 24.5875 26.0773 25.4678 25.6552 26.5047C25.6039 26.5016 25.5521 26.5 25.5 26.5C24.1193 26.5 23 27.6193 23 29C23 29.1415 23.0118 29.2802 23.0343 29.4153ZM27.2027 42.0815C23.8888 41.0619 21.3478 38.2784 20.6755 34.8269C21.5001 35.8856 23.0281 36.7495 24.9715 37.307C25.4338 39.308 26.2128 40.9808 27.2027 42.0815ZM21.0773 33.5C21.4078 34.5673 22.7755 35.5427 24.7524 36.1911C24.6128 35.3353 24.5283 34.4328 24.506 33.5H21.0773ZM29.9489 37.9974C29.6968 37.9718 29.5 37.7589 29.5 37.5L29.9555 37.998L29.9489 37.9974ZM32.7973 42.0815C33.7636 41.0071 34.5288 39.3876 34.9949 37.4498C36.7384 37.0159 38.1905 36.3453 39.1648 35.5102C38.3088 38.6429 35.8895 41.1301 32.7973 42.0815Z" fill="white"/>
</svg>
