<svg width="60" height="66" viewBox="0 0 60 66" fill="none" xmlns="http://www.w3.org/2000/svg">
<path d="M60 30.3052V20.725C60 15.313 60 12.607 58.653 10.8415C57.306 9.076 54.2603 8.21886 48.169 6.50464C44.0073 5.33347 40.3387 3.92248 37.4077 2.63436C33.4113 0.878131 31.4133 0 30 0C28.5867 0 26.5887 0.878131 22.5924 2.63436C19.6613 3.92248 15.9928 5.33347 11.8311 6.50464C5.73977 8.21886 2.69407 9.076 1.34703 10.8415C-2.38419e-07 12.607 0 15.313 0 20.725V30.3052C0 48.868 16.8759 60.0056 25.3133 64.414C27.337 65.4713 28.3487 66 30 66C31.6513 66 32.663 65.4713 34.6867 64.414C43.124 60.0056 60 48.868 60 30.3052Z" fill="#2E78AC"/>
<path fill-rule="evenodd" clip-rule="evenodd" d="M32 29C30.8954 29 30 29.8954 30 31C30 32.1046 30.8954 33 32 33C33.1046 33 34 32.1046 34 31C34 29.8954 33.1046 29 32 29ZM32 30C32.5523 30 33 30.4477 33 31C33 31.5523 32.5523 32 32 32C31.4477 32 31 31.5523 31 31C31 30.4477 31.4477 30 32 30Z" fill="white"/>
<path fill-rule="evenodd" clip-rule="evenodd" d="M27.5 31C27.5 28.5147 29.5147 26.5 32 26.5C34.4853 26.5 36.5 28.5147 36.5 31C36.5 33.4853 34.4853 35.5 32 35.5C29.5147 35.5 27.5 33.4853 27.5 31ZM35.5 31C35.5 29.067 33.933 27.5 32 27.5C30.067 27.5 28.5 29.067 28.5 31C28.5 32.933 30.067 34.5 32 34.5C33.933 34.5 35.5 32.933 35.5 31Z" fill="white"/>
<path fill-rule="evenodd" clip-rule="evenodd" d="M33.1929 22.7679C33.1075 22.6047 32.9376 22.5 32.75 22.5H31.25L31.1882 22.5038C31.0054 22.5265 30.8477 22.6488 30.7818 22.8244L30.0408 24.8005C29.6799 24.9144 29.3327 25.059 29.002 25.2312L27.0803 24.3577C26.9096 24.28 26.7116 24.3051 26.5663 24.4183L26.5199 24.4593L25.4592 25.5199C25.3266 25.6526 25.2805 25.8467 25.3355 26.0226L25.3576 26.0804L26.2311 28.0021C26.0589 28.3327 25.9144 28.68 25.8004 29.0409L23.8244 29.7819C23.6487 29.8478 23.5264 30.0055 23.5037 30.1883L23.4999 30.2501V31.7501C23.4999 31.9376 23.6047 32.1075 23.7679 32.193L23.8244 32.2182L25.8005 32.9593C25.9034 33.2853 26.0314 33.6002 26.1821 33.9017C26.1773 33.9088 26.1726 33.9161 26.1682 33.9235L26.141 33.9752L25.2571 35.9197C25.1795 36.0905 25.2045 36.2885 25.3177 36.4338L25.3587 36.4802L26.4194 37.5409C26.552 37.6735 26.7462 37.7196 26.922 37.6646L26.9798 37.6425L28.9244 36.7586C28.9346 36.754 28.9446 36.749 28.9543 36.7438C29.2992 36.927 29.6625 37.0801 30.0408 37.1995L30.7818 39.1757C30.8477 39.3513 31.0054 39.4736 31.1882 39.4963L31.25 39.5001H32.75C32.9376 39.5001 33.1075 39.3954 33.1929 39.2322L33.2182 39.1757L33.9592 37.1995C34.32 37.0856 34.6673 36.941 34.9978 36.7689L36.9197 37.6425L36.9775 37.6646C37.1533 37.7196 37.3475 37.6735 37.4801 37.5409L38.5408 36.4802L38.5818 36.4338C38.695 36.2885 38.72 36.0905 38.6424 35.9197L37.7689 33.9979C37.941 33.6674 38.0856 33.3201 38.1995 32.9593L40.1756 32.2182L40.2321 32.193C40.3953 32.1075 40.5001 31.9376 40.5001 31.7501V30.2501L40.4963 30.1883C40.4736 30.0055 40.3513 29.8478 40.1756 29.7819L38.1996 29.0409C38.0856 28.68 37.9411 28.3327 37.7689 28.0021L38.6424 26.0804L38.6645 26.0226C38.7195 25.8467 38.6734 25.6526 38.5408 25.5199L37.4801 24.4593L37.4337 24.4183C37.2884 24.3051 37.0904 24.28 36.9197 24.3577L34.998 25.2312C34.6673 25.059 34.3201 24.9144 33.9592 24.8005L33.2182 22.8244L33.1929 22.7679ZM26.982 25.411L28.0017 25.8748C27.5817 26.203 27.203 26.5816 26.8749 27.0017L26.4113 25.9817L26.982 25.411ZM27.9649 36.0962C27.5324 35.7533 27.1446 35.3566 26.8116 34.9161L26.3105 36.0181L26.8811 36.5887L27.9649 36.0962ZM37.0184 36.5887L35.9983 36.1252C36.4184 35.797 36.7971 35.4183 37.1252 34.9982L37.589 36.0181L37.0184 36.5887ZM35.9983 25.8748C36.4183 26.203 36.797 26.5816 37.1251 27.0017L37.5887 25.9817L37.018 25.411L35.9983 25.8748ZM24.4999 30.5966L25.5483 30.2034C25.5164 30.4645 25.5 30.7303 25.5 31C25.5 31.2697 25.5164 31.5355 25.5483 31.7965L24.4999 31.4031V30.5966ZM38.4517 30.2034C38.4836 30.4645 38.5 30.7303 38.5 31C38.5 31.2697 38.4836 31.5355 38.4517 31.7965L39.5001 31.4031V30.5966L38.4517 30.2034ZM31.5965 38.5001L31.2033 37.4517C31.4644 37.4836 31.7303 37.5 32 37.5C32.2696 37.5 32.5355 37.4836 32.7965 37.4517L32.403 38.5001H31.5965ZM32.7964 24.5483L32.403 23.5H31.5965L31.2034 24.5483C31.4645 24.5164 31.7303 24.5 32 24.5C32.2696 24.5 32.5354 24.5164 32.7964 24.5483ZM37.5 31C37.5 27.9624 35.0376 25.5 32 25.5C28.9624 25.5 26.5 27.9624 26.5 31C26.5 34.0376 28.9624 36.5 32 36.5C35.0376 36.5 37.5 34.0376 37.5 31Z" fill="white"/>
<path d="M23.684 36.6612C23.7999 36.4106 24.0971 36.3013 24.3477 36.4173C24.5804 36.5249 24.6912 36.7888 24.6131 37.0266L24.5916 37.081C24.5315 37.2109 24.5 37.3527 24.5 37.5C24.5 38.0523 24.9477 38.5 25.5 38.5C25.613 38.5 25.7227 38.4815 25.8264 38.4457L25.903 38.4156C26.1556 38.3042 26.4508 38.4186 26.5623 38.6713C26.6737 38.924 26.5592 39.2191 26.3066 39.3306C26.0544 39.4418 25.7808 39.5 25.5 39.5C24.3954 39.5 23.5 38.6046 23.5 37.5C23.5 37.207 23.5634 36.9221 23.684 36.6612Z" fill="white"/>
<path d="M21.8477 32.7596C21.6852 32.7272 21.5155 32.7774 21.3964 32.8964L20.8964 33.3964L20.8551 33.4433C20.7535 33.5742 20.7224 33.7484 20.7757 33.9081L21.3735 35.703L21.346 35.7675L19.7764 36.5528L19.7223 36.5842C19.5845 36.6762 19.5 36.8317 19.5 37V38L19.5039 38.0624C19.5245 38.2267 19.6258 38.3719 19.7763 38.4472L21.346 39.2325L21.3735 39.2965L20.7757 41.0919L20.7596 41.1523C20.7272 41.3148 20.7774 41.4845 20.8964 41.6036L21.3964 42.1036L21.4433 42.1449C21.5741 42.2465 21.7483 42.2776 21.9079 42.2244L23.704 41.626L23.767 41.653L24.5528 43.2237L24.5842 43.2778C24.6762 43.4155 24.8317 43.5 25 43.5H26L26.0624 43.4961C26.2267 43.4755 26.3718 43.3743 26.4471 43.2238L27.233 41.653L27.2965 41.626L29.092 42.2244L29.1524 42.2404C29.3148 42.2727 29.4845 42.2226 29.6036 42.1036L30.1036 41.6036L30.1449 41.5567C30.2465 41.4259 30.2776 41.2517 30.2244 41.092L29.5638 39.1092L29.5422 39.0549C29.4362 38.8281 29.1747 38.7118 28.9314 38.7928L28.8771 38.8145C28.6504 38.9205 28.534 39.182 28.6151 39.4253L29.1775 41.1145L29.1145 41.1775L27.4253 40.6151L27.362 40.5985C27.2554 40.5779 27.1444 40.5925 27.046 40.641C26.9335 40.6965 26.818 40.7459 26.7 40.789L26.6419 40.8145C26.5483 40.8628 26.4719 40.9398 26.4243 41.0349L25.6905 42.5H25.309L24.5762 41.0352L24.5443 40.9804C24.4856 40.8929 24.4004 40.8256 24.3004 40.7892C24.1824 40.7461 24.0669 40.6967 23.9544 40.6412L23.894 40.6162C23.7913 40.5814 23.6794 40.5807 23.5753 40.6153L21.8855 41.178L21.822 41.1145L22.3851 39.4258L22.4017 39.3626C22.4223 39.256 22.4078 39.1449 22.3592 39.0465C22.3035 38.9337 22.254 38.8179 22.2108 38.6996L22.1853 38.6414C22.137 38.5478 22.06 38.4714 21.9648 38.4238L20.5 37.691V37.309L21.9645 36.5768L22.0194 36.5448C22.1069 36.4861 22.1742 36.4009 22.2107 36.3009C22.2539 36.1824 22.3035 36.0665 22.3592 35.9535L22.3842 35.8931C22.4192 35.7903 22.4199 35.6783 22.3851 35.5742L21.822 33.885L21.885 33.822L23.5742 34.3851L23.6305 34.4004C23.8756 34.4516 24.1255 34.3122 24.2066 34.0689C24.2939 33.807 24.1524 33.5238 23.8904 33.4365L21.9081 32.7757L21.8477 32.7596Z" fill="white"/>
</svg>
