<svg width="60" height="66" viewBox="0 0 60 66" fill="none" xmlns="http://www.w3.org/2000/svg">
<path d="M60 30.3052V20.725C60 15.313 60 12.607 58.653 10.8415C57.306 9.076 54.2603 8.21886 48.169 6.50464C44.0073 5.33347 40.3387 3.92248 37.4077 2.63436C33.4113 0.878131 31.4133 0 30 0C28.5867 0 26.5887 0.878131 22.5924 2.63436C19.6613 3.92248 15.9928 5.33347 11.8311 6.50464C5.73977 8.21886 2.69407 9.076 1.34703 10.8415C-2.38419e-07 12.607 0 15.313 0 20.725V30.3052C0 48.868 16.8759 60.0056 25.3133 64.414C27.337 65.4713 28.3487 66 30 66C31.6513 66 32.663 65.4713 34.6867 64.414C43.124 60.0056 60 48.868 60 30.3052Z" fill="#2E78AC"/>
<path d="M27 29.375C28.9922 29.126 31.0078 29.126 33 29.375L35.124 29.6396C35.6241 29.7022 35.9995 30.1279 36 30.6318V37.9814C36 39.3479 35.3017 40.62 34.1494 41.3545L30.5371 43.6572C30.2094 43.8659 29.7906 43.8659 29.4629 43.6572L25.8506 41.3545C24.6983 40.62 24 39.3479 24 37.9814V30.6318C24.0005 30.1279 24.3759 29.7022 24.876 29.6396L27 29.375ZM32.876 30.3672C31.0935 30.1444 29.291 30.1292 27.5059 30.3223L27.124 30.3672L25 30.6318V37.9814C25 38.9636 25.4806 39.8809 26.2812 40.4404L26.3877 40.5117L30 42.8135L33.6123 40.5117C34.4404 39.9838 34.9555 39.0852 34.9971 38.1094L35 37.9814V30.6318L32.876 30.3672ZM30 32C32.2091 32 34 33.7909 34 36C34 38.2091 32.2091 40 30 40C27.7909 40 26 38.2091 26 36C26 33.7909 27.7909 32 30 32ZM30 33C28.3431 33 27 34.3431 27 36C27 37.6569 28.3431 39 30 39C31.6569 39 33 37.6569 33 36C33 34.3431 31.6569 33 30 33ZM33.5 22C37.9183 22 41.5 25.5817 41.5 30C41.5 32.893 39.9508 35.5169 37.4902 36.9355C37.2511 37.0732 36.9455 36.9909 36.8076 36.752C36.6697 36.5127 36.752 36.2063 36.9912 36.0684C39.1449 34.8264 40.5 32.5317 40.5 30C40.5 26.134 37.366 23 33.5 23C30.3882 23 27.6756 25.0486 26.7949 27.9834C26.711 28.263 26.4068 28.4117 26.1348 28.3057C25.6186 28.1043 25.0669 28 24.5 28C22.0147 28 20 30.0147 20 32.5C20 34.3151 21.0847 35.9307 22.7236 36.6357C22.9771 36.7449 23.0944 37.0394 22.9854 37.293C22.8762 37.5465 22.5817 37.6637 22.3281 37.5547C20.3254 36.6931 19 34.7182 19 32.5C19 29.4624 21.4624 27 24.5 27C24.9842 27 25.4604 27.0625 25.9189 27.1846L26.001 27.208L26.0615 27.0498C27.2311 24.0971 30.0745 22.0722 33.3252 22.002L33.5 22ZM30.8965 34.8965C31.0917 34.7012 31.4083 34.7012 31.6035 34.8965C31.7837 35.0767 31.798 35.3605 31.6455 35.5566L31.6035 35.6035L29.8535 37.3535C29.6733 37.5337 29.3895 37.548 29.1934 37.3955L29.1465 37.3535L28.1465 36.3535C27.9512 36.1583 27.9512 35.8417 28.1465 35.6465C28.3267 35.4663 28.6105 35.452 28.8066 35.6045L28.8535 35.6465L29.5 36.293L30.8965 34.8965ZM38.25 30C38.5261 30 38.75 30.2239 38.75 30.5C38.75 30.7761 38.5261 31 38.25 31C37.9739 31 37.75 30.7761 37.75 30.5C37.75 30.2239 37.9739 30 38.25 30ZM33.2285 25C35.6487 25 37.7629 26.5776 38.4766 28.8516C38.5591 29.115 38.4128 29.3949 38.1494 29.4775C37.886 29.5602 37.6052 29.4138 37.5225 29.1504C36.9386 27.2906 35.2086 26 33.2285 26C32.9524 26 32.7285 25.7761 32.7285 25.5C32.7285 25.2239 32.9524 25 33.2285 25Z" fill="white"/>
</svg>
