<svg width="60" height="66" viewBox="0 0 60 66" fill="none" xmlns="http://www.w3.org/2000/svg">
<path d="M60 30.3052V20.725C60 15.313 60 12.607 58.653 10.8415C57.306 9.076 54.2603 8.21886 48.169 6.50464C44.0073 5.33347 40.3387 3.92248 37.4077 2.63436C33.4113 0.878131 31.4133 0 30 0C28.5867 0 26.5887 0.878131 22.5924 2.63436C19.6613 3.92248 15.9928 5.33347 11.8311 6.50464C5.73977 8.21886 2.69407 9.076 1.34703 10.8415C-1.98682e-07 12.607 0 15.313 0 20.725V30.3052C0 48.868 16.8759 60.0056 25.3133 64.414C27.337 65.4713 28.3487 66 30 66C31.6513 66 32.663 65.4713 34.6867 64.414C43.124 60.0056 60 48.868 60 30.3052Z" fill="white"/>
<path d="M20.3516 25.0506L17.2637 26.0805C16.7987 26.2348 16.3943 26.5318 16.1078 26.9292C15.8213 27.3266 15.6674 27.8042 15.668 28.2941V33.0389C15.6672 33.5285 15.8209 34.0058 16.1072 34.403C16.3934 34.8002 16.7977 35.097 17.2624 35.2511L18.5957 35.6964L18.597 35.6978C18.9479 35.8144 19.3214 35.846 19.6868 35.79C20.0523 35.734 20.3992 35.592 20.699 35.3758C20.9989 35.1595 21.2431 34.8751 21.4115 34.546C21.58 34.217 21.6679 33.8526 21.668 33.4829V25.9998C21.6679 25.8413 21.6302 25.6852 21.558 25.5441C21.4857 25.4031 21.3811 25.2812 21.2525 25.1885C21.124 25.0959 20.9753 25.035 20.8187 25.011C20.662 24.9871 20.5019 25.0006 20.3516 25.0506Z" fill="#3384BD"/>
<path d="M42.7409 26.0806L39.6523 25.0507C39.5018 25.0017 39.3419 24.9887 39.1854 25.0127C39.029 25.0366 38.8803 25.0969 38.7513 25.1887C38.6226 25.2812 38.5179 25.4031 38.4457 25.5441C38.3734 25.6852 38.3358 25.8414 38.3359 25.9999V33.483C38.3359 33.7896 38.3963 34.0931 38.5137 34.3764C38.6311 34.6596 38.8031 34.9169 39.02 35.1336C39.2369 35.3503 39.4943 35.5221 39.7777 35.6393C40.061 35.7564 40.3646 35.8166 40.6712 35.8163C40.9217 35.8166 41.1707 35.7761 41.4082 35.6965L42.7402 35.2525C43.2052 35.0982 43.6096 34.8013 43.8961 34.4039C44.1826 34.0065 44.3365 33.5289 44.3359 33.039V28.2942C44.3365 27.8044 44.1827 27.3269 43.8963 26.9295C43.61 26.5321 43.2057 26.2351 42.7409 26.0806Z" fill="#3384BD"/>
<path d="M34.0013 40.9998H32.668C32.4028 40.9998 32.1484 40.8945 31.9609 40.7069C31.7733 40.5194 31.668 40.2651 31.668 39.9998C31.668 39.7346 31.7733 39.4803 31.9609 39.2927C32.1484 39.1052 32.4028 38.9998 32.668 38.9998H34.0013C35.1502 38.9985 36.2516 38.5415 37.064 37.7292C37.8763 36.9168 38.3333 35.8154 38.3346 34.6665V32.6665C38.3346 32.4013 38.44 32.1469 38.6275 31.9594C38.8151 31.7719 39.0694 31.6665 39.3346 31.6665C39.5999 31.6665 39.8542 31.7719 40.0417 31.9594C40.2293 32.1469 40.3346 32.4013 40.3346 32.6665V34.6665C40.3327 36.3456 39.6649 37.9554 38.4775 39.1427C37.2902 40.3301 35.6804 40.9979 34.0013 40.9998Z" fill="white"/>
<path d="M31.3333 38H30C28.8954 38 28 38.8954 28 40C28 41.1046 28.8954 42 30 42H31.3333C32.4379 42 33.3333 41.1046 33.3333 40C33.3333 38.8954 32.4379 38 31.3333 38Z" fill="white"/>
<path d="M30.0026 36.3333C34.2368 36.3333 37.6693 32.9008 37.6693 28.6667C37.6693 24.4325 34.2368 21 30.0026 21C25.7684 21 22.3359 24.4325 22.3359 28.6667C22.3359 32.9008 25.7684 36.3333 30.0026 36.3333Z" fill="#3384BD"/>
<path d="M39.3336 28.3333C39.0932 28.3331 38.8609 28.2462 38.6793 28.0886C38.4976 27.931 38.3789 27.7133 38.3447 27.4753L38.1429 26.0612C37.8631 24.1014 36.8856 22.3083 35.3901 21.0112C33.8946 19.7141 31.9813 19 30.0017 19C28.022 19 26.1087 19.7141 24.6132 21.0112C23.1177 22.3083 22.1403 24.1014 21.8604 26.0612L21.6586 27.4753C21.6209 27.7379 21.4805 27.9748 21.2682 28.1339C21.0559 28.293 20.789 28.3612 20.5264 28.3236C20.2638 28.2859 20.0269 28.1455 19.8678 27.9332C19.7087 27.7209 19.6404 27.454 19.6781 27.1914L19.8799 25.7773C20.2282 23.3411 21.4436 21.1123 23.3029 19.5C25.1622 17.8876 27.5406 17 30.0016 17C32.4626 17 34.841 17.8876 36.7003 19.5C38.5596 21.1123 39.775 23.3411 40.1234 25.7773L40.3252 27.1914C40.3625 27.454 40.2941 27.7207 40.1349 27.9329C39.9757 28.145 39.7388 28.2853 39.4762 28.3229C39.429 28.3302 39.3814 28.3337 39.3336 28.3333Z" fill="#3384BD"/>
</svg>
