<svg width="490" height="398" viewBox="0 0 490 398" fill="none" xmlns="http://www.w3.org/2000/svg">
<g clip-path="url(#clip0_511_12902)">
<path d="M284.807 219.392C284.807 219.392 329.69 193.884 331.406 166.945C333.122 140.005 304.799 128.671 297.348 129.642C289.898 130.612 294.996 136.154 294.996 136.154C294.996 136.154 321.853 144.51 323.253 159.515C324.908 177.255 316.8 188.704 280.591 214.357L284.807 219.392Z" fill="#3384BD"/>
<path d="M307.411 141.198C307.922 141.775 308.399 141.263 307.918 140.68C306.329 138.755 308.283 134.829 310.807 135.265C311.607 135.403 311.977 134.209 311.157 134.028C307.323 133.18 304.94 138.408 307.411 141.198ZM320.724 152.136C320.771 152.93 321.703 153.132 321.677 152.323C321.648 151.39 322.178 150.591 322.99 150.139C323.594 149.803 324.326 149.704 324.998 149.865C325.545 149.997 326.066 150.296 326.629 150.267C326.754 150.26 326.884 150.235 326.98 150.154C327.153 150.01 327.154 149.73 327.037 149.538C326.92 149.346 326.716 149.226 326.513 149.13C325.884 148.833 325.18 148.708 324.487 148.753C324.124 148.776 323.772 148.851 323.426 148.961C323.141 149.053 322.841 149.059 322.564 149.166C321.324 149.642 320.647 150.836 320.724 152.136ZM323.727 173.34C326.135 173.126 328.029 175.02 327.501 177.481C327.335 178.257 328.257 178.169 328.455 177.387C329.295 174.076 326.936 171.634 323.581 172.029C322.839 172.117 322.977 173.407 323.727 173.34ZM312.104 188.936C312.114 188.977 312.148 189.013 312.188 189.03C312.247 189.055 312.315 189.047 312.379 189.042C313.548 188.947 314.645 189.797 315.188 190.783C315.828 191.944 315.74 193.298 315.595 194.564C315.502 195.374 316.753 195.381 316.854 194.588C317.066 192.924 317.058 191.16 316.08 189.719C315.232 188.469 313.471 187.652 312.155 188.819C312.137 188.835 312.118 188.853 312.108 188.876C312.099 188.895 312.099 188.916 312.104 188.936ZM295.664 204.39C297.755 205.239 298.559 207.427 297.732 209.463C297.478 210.089 298.557 210.56 298.831 209.932C300.036 207.166 298.759 204.679 295.94 203.57C295.154 203.261 294.894 204.077 295.664 204.39Z" fill="#15374F"/>
<path d="M125.254 92.4417C125.254 92.4417 132.992 98.1607 140.873 94.6455C148.754 91.1304 147.502 80.0168 147.462 75.7735C147.422 71.5301 146.372 63.5688 145.786 62.2555C145.2 60.9419 139.199 57.0417 138.795 56.7588C138.391 56.476 129.701 71.4683 129.701 71.4683L125.254 92.4417Z" fill="white"/>
<path d="M120.729 104.929C120.406 107.112 123.395 114.022 121.496 119.316C119.596 124.61 114.12 127.701 112.281 127.317C110.442 126.933 110.826 125.094 111.332 123.943C111.837 122.791 113.333 117.214 112.403 115.961C111.474 114.709 103.998 112.485 102.341 113.132C100.684 113.778 99.5716 123.538 98.8845 123.659C98.1975 123.78 95.3689 121.8 94.844 114.808C94.3191 107.817 97.6736 104.746 99.8964 103.291C102.119 101.837 107.959 100.806 108.868 99.9378C109.778 99.0691 135.726 53.4053 135.726 53.4053C135.726 53.4053 140.9 42.5752 140.698 39.4231C140.496 36.2711 138.274 31.7041 138.941 29.4613C139.608 27.2185 144.417 20.3487 148.237 17.9042C152.056 15.4594 151.49 16.2676 151.328 17.3589C151.166 18.4499 148.781 27.0172 149.307 27.9873C149.832 28.9573 152.661 30.9376 155.186 31.2005C157.712 31.4634 160.4 30.6351 161.087 30.514C161.774 30.3928 164.442 21.4216 165.412 20.8962C166.382 20.3709 169.978 24.6953 169.876 32.1515C169.775 39.6076 166.172 40.6805 164.945 41.3448C162.521 42.6579 156.6 44.2335 155.185 46.2542C153.771 48.274 121.053 102.747 120.729 104.929Z" fill="#15374F"/>
<path d="M149.822 43.4718C149.473 43.266 149.07 43.1264 148.631 43.0643C146.878 42.8168 145.127 43.8149 143.989 45.08C141.955 47.3405 140.545 50.3407 139.052 52.9715C137.485 55.7351 135.972 58.5291 134.457 61.3215C131.38 66.9906 128.244 72.6044 124.76 78.0355C121.517 83.0909 118.149 88.074 115.333 93.3873C113.965 95.9687 112 99.082 111.654 102.033C111.489 103.443 112.285 105.955 114.124 105.833C115.827 105.72 117.29 103.672 118.108 102.399C119.717 99.894 121.327 97.389 122.937 94.8842C123.204 94.4679 123.483 93.9772 123.332 93.5058C121.255 96.5103 119.178 99.5149 117.1 102.519C116.657 103.16 116.178 103.831 115.466 104.147C112.947 105.262 113.489 101.916 113.915 100.674C114.425 99.1889 115.194 97.8293 115.897 96.433C117.23 93.7848 118.74 91.231 120.296 88.7095C123.36 83.7475 126.69 78.9555 129.7 73.9601C132.867 68.7042 135.72 63.2701 138.669 57.8911C140.144 55.2018 141.645 52.5264 143.224 49.8972C143.946 48.6958 144.63 47.3946 145.6 46.3718C146.194 45.7458 146.928 45.1659 147.833 45.0992C148.662 45.0383 149.604 45.3628 149.778 46.2633C149.864 46.7059 149.772 47.1639 149.637 47.5938C149.26 48.7905 148.552 49.8498 147.881 50.9098C146.688 52.7938 145.583 54.7338 144.572 56.7212C145.111 56.3416 145.502 55.7904 145.875 55.2465C147.464 52.9341 148.946 50.5485 150.315 48.0997C150.662 47.4785 151.008 46.8339 151.094 46.1275C151.236 44.946 150.708 43.9955 149.822 43.4718Z" fill="white"/>
<path d="M128.434 58.2337C128.434 58.2337 125.383 57.0008 123.625 59.082C121.867 61.163 123.847 64.3558 123.847 64.3558C123.847 64.3558 119.139 63.7695 118.593 66.6992C118.047 69.6292 120.068 71.0437 120.068 71.0437C120.068 71.0437 117.259 71.1849 116.309 73.8318C115.359 76.4786 117.38 77.8933 117.38 77.8933C117.38 77.8933 111.378 80.0144 113.54 84.2378C115.702 88.4612 126.431 89.0479 128.654 87.5932C130.877 86.1386 129.018 83.6329 129.018 83.6329C129.018 83.6329 133.665 83.8759 133.928 81.35C134.191 78.8243 132.858 77.2884 132.858 77.2884C132.858 77.2884 134.292 77.3895 135.303 75.0862C136.313 72.7829 134.293 71.3682 134.293 71.3682C134.293 71.3682 137.384 70.8229 136.657 66.7008C135.93 62.5788 128.434 58.2337 128.434 58.2337Z" fill="white"/>
<path d="M146.03 63.13C145.495 59.1861 138.592 53.6063 134.53 54.6769C130.469 55.7476 125.255 62.3343 125.255 62.3343C125.255 62.3343 123.942 66.1382 128.72 66.5199C133.499 66.9015 135.378 65.5075 135.378 65.5075C135.378 65.5075 136.59 66.3562 136.025 67.1644C135.459 67.9726 131.836 80.4066 132.444 83.4338C133.053 86.461 142.064 87.3508 142.064 87.3508C142.064 87.3508 146.901 69.5618 146.03 63.13Z" fill="white"/>
<path d="M146.396 72.0478C146.837 71.5427 145.979 70.7492 145.521 71.2503C142.791 74.2399 139.351 76.111 135.235 75.5061C135.269 75.327 135.299 75.148 135.337 74.9687C135.694 73.2891 136.183 71.6315 136.781 70.0221C137.111 69.1321 137.743 68.1508 137.561 67.1973C141.064 65.5694 141.692 61.885 140.124 58.6316C139.804 57.9687 138.783 58.4512 139.09 59.1229C140.333 61.8489 138.926 64.2975 136.911 66.0435C136.411 65.4994 135.717 65.0527 135.096 64.8514C134.462 64.6463 133.887 64.7812 133.314 64.9872C133.316 64.9731 133.319 64.9611 133.32 64.9464C133.417 62.7045 132.712 60.5041 130.833 59.1633C130.213 58.7216 129.553 59.6725 130.157 60.1276C131.668 61.266 132.045 63.0243 132.072 64.8281C132.075 65.064 132.186 65.2412 132.339 65.3541C132.169 65.4128 131.997 65.4656 131.82 65.5048C130.429 65.8133 127.275 66.0585 126.474 64.4217C125.639 62.7165 127.734 60.493 128.935 59.5878C129.572 59.1075 128.869 57.9805 128.165 58.3959C126.095 59.6172 123.888 62.0996 124.611 64.7102C125.41 67.5992 129.421 67.9557 131.875 67.5378C131.998 67.5169 132.117 67.4859 132.236 67.4557C132.737 67.7286 133.21 68.0268 133.555 68.5116C134.083 69.2529 134.005 70.0076 134.123 70.8507C133.868 71.682 133.566 72.509 132.857 73.0716C131.916 73.817 130.062 73.4766 128.826 73.2409C128.526 72.8429 128.381 72.3848 128.426 71.8454C128.472 71.3051 128.932 69.8791 129.588 69.8315C130.247 69.7837 130.203 68.6798 129.541 68.6657C128.279 68.639 127.456 70.203 127.193 71.2809C127.059 71.8296 127.066 72.3805 127.194 72.8959C126.222 72.6523 125.274 72.3388 124.347 71.971C124.388 71.8022 124.365 71.6095 124.24 71.4216C123.236 69.9115 123.406 68.2576 124.909 67.1488C125.442 66.7556 124.847 65.8033 124.27 66.1591C122.573 67.2044 121.773 69.4084 122.55 71.1877C122.105 70.9767 121.662 70.7589 121.223 70.5305C120.387 70.0953 119.692 71.4733 120.463 71.9814C123.525 73.998 127.184 75.1747 130.84 75.4231C131.758 75.4855 132.524 75.4424 133.217 75.1487C132.86 76.9581 132.622 78.8077 132.556 80.656C132.371 80.711 132.193 80.828 132.045 81.0252C131.599 81.6205 130.882 81.8948 130.064 81.9807C129.317 80.51 129.077 79.1341 130.137 77.6952C130.613 77.0493 129.616 76.3664 129.124 76.9856C128.046 78.3429 127.68 80.3865 128.476 81.9505C127.253 81.8059 126.026 81.4413 125.235 81.1797C124.198 80.8373 123.198 80.4021 122.22 79.9217C122.288 79.7322 122.275 79.5101 122.125 79.3027C121.184 78.0023 120.555 75.5097 122.658 74.8756C123.39 74.6553 123.217 73.4827 122.447 73.6787C119.898 74.3278 119.535 76.9378 120.439 78.994C119.851 78.672 119.267 78.3422 118.686 78.0125C117.817 77.5195 116.908 78.7604 117.781 79.305C117.945 79.4074 118.109 79.5094 118.274 79.6116C117.693 79.974 117.187 80.5084 116.815 81.0184C116.007 82.1246 116.191 83.2718 116.623 84.4873C116.913 85.3032 118.106 84.7178 117.834 83.9116C117.566 83.1168 117.43 82.4015 117.972 81.6878C118.361 81.1759 118.956 80.5737 119.605 80.4243C121.048 81.2872 122.523 82.0913 124.076 82.7122C123.485 84.1086 123.612 85.7669 124.41 87.0818C124.812 87.7447 125.913 87.2488 125.518 86.5553C124.889 85.4534 124.855 84.26 125.337 83.1628C125.818 83.3174 126.305 83.4583 126.804 83.5696C128.602 83.9703 130.957 84.226 132.584 83.2104C132.6 83.4844 132.615 83.7586 132.64 84.0317C132.725 84.9748 134.101 85.0579 134.488 84.3551C136.98 88.6044 143.205 85.5656 145.906 84.0322C146.581 83.6492 146.088 82.5645 145.382 82.9291C142.962 84.1795 136.632 86.4314 135.218 82.7748C135.112 82.5015 134.862 82.395 134.611 82.4086C134.647 80.5361 134.745 78.686 135.011 76.8351C139.588 79.2893 143.553 75.3089 146.396 72.0478Z" fill="#EBF3F8"/>
<path d="M136.332 92.9685C136.332 92.9685 145.643 143.747 170.516 154.236C195.389 164.725 215.415 141.712 216.951 134.357C218.488 127.002 211.577 129.992 211.577 129.992C211.577 129.992 194.844 152.602 180.215 148.984C162.92 144.706 154.777 133.281 142.475 90.6455L136.332 92.9685Z" fill="#3384BD"/>
<path d="M202.726 140.055C202.013 140.347 202.34 140.967 203.049 140.704C205.389 139.838 208.453 142.974 207.21 145.215C206.816 145.925 207.822 146.668 208.264 145.952C210.326 142.612 206.173 138.64 202.726 140.055ZM188.015 149.025C187.25 148.808 186.752 149.621 187.524 149.863C188.415 150.143 188.995 150.906 189.155 151.822C189.273 152.503 189.126 153.226 188.752 153.808C188.448 154.282 187.994 154.675 187.836 155.216C187.801 155.336 187.782 155.468 187.827 155.585C187.906 155.795 188.17 155.888 188.39 155.841C188.61 155.794 188.791 155.641 188.948 155.481C189.435 154.985 189.785 154.36 189.971 153.692C190.068 153.342 190.114 152.985 190.123 152.622C190.13 152.323 190.224 152.037 190.214 151.74C190.172 150.412 189.267 149.38 188.015 149.025ZM167.004 144.88C166.414 147.224 164.002 148.389 161.852 147.081C161.174 146.668 160.953 147.568 161.626 148.013C164.477 149.895 167.559 148.472 168.29 145.173C168.452 144.444 167.188 144.15 167.004 144.88ZM156.104 128.77C156.062 128.767 156.016 128.787 155.988 128.819C155.944 128.867 155.929 128.933 155.913 128.995C155.618 130.131 154.454 130.887 153.345 131.075C152.037 131.297 150.788 130.768 149.64 130.214C148.906 129.86 148.488 131.039 149.203 131.395C150.705 132.143 152.373 132.716 154.056 132.267C155.516 131.878 156.867 130.484 156.198 128.858C156.188 128.835 156.178 128.811 156.16 128.794C156.144 128.78 156.124 128.772 156.104 128.77ZM146.923 108.16C145.434 109.855 143.103 109.893 141.453 108.443C140.945 107.996 140.145 108.861 140.648 109.326C142.863 111.374 145.631 110.987 147.607 108.69C148.158 108.049 147.472 107.535 146.923 108.16Z" fill="#15374F"/>
<path d="M302.443 119.591C301.511 116.557 298.561 114.539 295.917 113.105C292.242 111.112 288.194 109.817 284.171 108.742C270.491 105.086 255.806 104.873 241.769 106.204C234.599 106.884 227.646 108.127 220.864 110.547C216.457 112.12 209.99 114.597 208.456 119.591C204.8 131.492 210.118 172.446 230.061 194.499C234.163 199.035 239.023 203.237 244.569 205.981C250.281 208.808 255.902 209.39 261.959 207.604C269.428 205.402 275.695 200.187 280.839 194.499C300.781 172.446 306.099 131.492 302.443 119.591Z" fill="#EBF3F8"/>
<path d="M302.27 119.102C301.187 116.339 298.416 114.46 295.917 113.105C292.242 111.112 288.195 109.817 284.172 108.742C270.492 105.086 255.806 104.873 241.769 106.204C234.599 106.884 227.646 108.127 220.865 110.547C216.458 112.12 209.991 114.597 208.457 119.591C208.434 119.665 208.413 119.746 208.391 119.822C209.559 124.141 218.99 131.142 256.363 131.142C261.57 131.142 266.194 130.957 270.307 130.632C270.079 133.744 270.324 136.851 270.636 139.96C270.975 143.331 271.714 147.019 271.286 150.407C271.066 152.151 269.492 153.441 268.391 154.697C267.404 155.822 266.418 156.946 265.432 158.071C263.512 160.262 261.54 162.477 260.851 165.39C260.094 168.589 260.284 172.137 260.404 175.395C260.523 178.641 260.83 181.889 261.349 185.095C261.852 188.198 262.788 191.035 264.683 193.568C266.415 195.882 268.598 197.78 270.783 199.649C271.791 200.512 273.262 199.051 272.247 198.181C270.072 196.318 267.824 194.424 266.149 192.074C264.266 189.432 263.598 186.4 263.161 183.24C262.678 179.743 262.443 176.208 262.435 172.677C262.428 169.381 262.303 165.874 264.133 162.992C265.814 160.345 268.223 158.037 270.281 155.685C272.059 153.654 273.35 152.205 273.396 149.384C273.5 143.04 271.958 136.814 272.232 130.467C293.891 128.443 300.386 122.36 302.27 119.102Z" fill="#3384BD"/>
<path d="M276.698 185.906C274.603 187.529 272.361 188.911 269.961 190.032C268.831 190.56 269.815 192.19 270.931 191.697C273.519 190.554 275.919 189.109 278.128 187.339C279.151 186.519 277.71 185.123 276.698 185.906ZM276.533 190.797C275.047 191.776 273.602 192.734 271.972 193.464C271.009 193.894 271.703 195.583 272.697 195.188C274.491 194.475 276.241 193.598 277.718 192.337C278.561 191.618 277.459 190.187 276.533 190.797ZM277.434 181.318C275.85 182.089 274.455 183.254 272.977 184.211C271.487 185.176 269.973 186.102 268.448 187.012C267.428 187.621 268.327 189.134 269.374 188.599C272.446 187.03 276.087 185.207 278.461 182.651C279.134 181.927 278.293 180.899 277.434 181.318Z" fill="#C0D9EB"/>
<path d="M270.078 143.546C269.883 141.107 269.653 138.673 269.404 136.24C269.301 135.233 267.734 135.202 267.808 136.24C268.097 140.296 268.356 144.358 268.524 148.421C268.613 150.579 267.154 151.831 265.868 153.419C264.73 154.824 263.494 156.186 262.493 157.693C261.905 158.578 263.218 159.559 263.946 158.816C265.45 157.282 266.729 155.476 268.082 153.806C269.032 152.633 270.303 151.449 270.462 149.866C270.667 147.828 270.241 145.584 270.078 143.546ZM238.022 132.494C229.073 131.974 220.345 129.709 212.318 125.698C211.253 125.166 210.312 126.757 211.38 127.306C219.665 131.566 228.715 134.057 238.022 134.512C239.32 134.576 239.311 132.569 238.022 132.494Z" fill="white"/>
<path d="M196.153 33.5352C196.153 33.5352 182.658 40.1314 180.911 58.6833C179.165 77.2353 189.511 84.7107 193.856 86.486C198.201 88.2612 203.44 71.8097 203.44 71.8097L196.153 33.5352Z" fill="#3384BD"/>
<path d="M253.773 112.489C289.527 110.114 316.902 83.9697 314.917 54.0945C312.932 24.2192 282.339 1.92616 246.585 4.30154C210.832 6.67691 183.457 32.8212 185.442 62.6965C187.426 92.5718 218.019 114.865 253.773 112.489Z" fill="#EBF3F8"/>
<path d="M320.108 45.5573C320.108 45.5573 314.17 27.7055 304.739 29.8055C295.309 31.9058 287.275 45.5573 287.624 60.9589C287.974 76.3604 308.131 97.5805 318.136 69.2937C318.136 69.2937 322.378 67.7845 323.775 59.0336C325.172 50.2829 320.108 45.5573 320.108 45.5573Z" fill="#3384BD"/>
<path d="M317.833 44.6817C318.873 44.866 318.969 44.1387 317.911 43.8654C309.683 41.7402 303.028 51.5153 302.777 58.5109C302.638 62.381 303.801 66.6279 306.593 69.4203C309.226 72.0545 314.401 72.4333 317.484 69.8843C318.388 69.1366 317.432 68.6906 316.498 69.1407C309.21 72.656 305.098 63.8534 305.594 57.7954C306.058 52.1145 311.157 43.4989 317.833 44.6817Z" fill="#15374F"/>
<path d="M183.009 50.9824C183.009 50.9824 179.516 52.7325 179.167 61.8336C178.818 70.9344 184.756 73.7348 184.756 73.7348L183.009 50.9824Z" fill="#3384BD"/>
<path d="M196.755 46.4443C196.755 46.4443 189.041 62.1652 197.378 70.5204C197.378 70.5204 258.399 70.5204 259.464 70.5204C260.528 70.5204 253.843 60.1556 259.697 45.7564C259.697 45.7564 197.109 44.6665 196.755 46.4443Z" fill="#15374F"/>
<path d="M282.853 30.7217C284.633 28.9319 286.182 27.1403 284.427 24.6838C283.531 23.4296 282.403 22.3275 281.279 21.2822C280.704 20.7471 280.09 20.2333 279.642 19.5813C279.042 18.7079 278.487 16.4283 280.361 16.4485C281.34 16.4589 281.32 15.0035 280.361 14.9373C278.443 14.8052 277.15 16.6717 277.328 18.4821C277.587 21.1034 280.463 22.9303 282.026 24.7847C282.973 25.9081 283.664 26.8978 282.576 28.145C282.161 28.6214 281.658 29.0339 281.208 29.4779C280.052 30.6176 278.959 31.8163 277.925 33.0678C276.106 35.2694 274.452 37.6117 273.023 40.0863C267.07 50.394 265.089 62.8634 268.639 74.3419C269.639 77.576 271.055 80.6963 272.889 83.5422C274.826 86.5497 277.222 89.2235 279.199 92.2034C277.569 93.8247 275.767 95.2043 273.75 96.3359C272.249 97.1776 270.535 98.0019 269.579 99.5104C267.381 102.979 270.675 106.078 273.43 107.789C274.579 108.502 275.604 106.714 274.484 105.982C273.229 105.163 271.664 104.174 271.145 102.691C270.502 100.854 272.158 99.6792 273.548 98.867C276.403 97.1987 279.006 95.5109 281.296 93.0827C281.61 92.7502 281.715 92.2027 281.462 91.7999C278.28 86.7482 274.12 82.5328 271.809 76.9344C269.634 71.6646 268.724 65.9089 269.018 60.2212C269.599 49.016 275.032 38.5844 282.853 30.7217Z" fill="#3384BD"/>
<path d="M290.988 86.3145C290.045 87.1528 289.273 88.1393 288.386 89.0366C287.598 89.8348 286.596 91.0562 285.458 91.2551C284.118 91.4895 284.421 93.7239 285.78 93.64C287.366 93.5421 288.489 92.4876 289.626 91.4659C290.848 90.3676 292.048 89.1873 292.788 87.706C293.374 86.535 291.978 85.4349 290.988 86.3145ZM292.948 90.1292C291.698 92.1918 289.987 93.5217 287.896 94.6529C286.672 95.3156 287.506 97.4195 288.859 96.9422C291.562 95.9889 293.801 93.9236 295.247 91.4766C296.124 89.9944 293.837 88.662 292.948 90.1292Z" fill="#C0D9EB"/>
<path d="M199.766 60.7354L200.241 57.2545L203.884 57.1543L203.408 60.6352L199.766 60.7354Z" fill="white"/>
<path d="M212.602 60.3817L213.077 56.901L216.72 56.8008L216.244 60.2815L212.602 60.3817Z" fill="white"/>
<path d="M204.453 56.451L204.929 52.9701L208.571 52.8701L208.096 56.3508L204.453 56.451Z" fill="white"/>
<path d="M208.957 56.3279L209.433 52.847L213.075 52.7471L212.6 56.2278L208.957 56.3279Z" fill="white"/>
<path d="M230.719 60.7354L231.194 57.2545L234.837 57.1543L234.361 60.6352L230.719 60.7354Z" fill="white"/>
<path d="M243.559 60.3817L244.034 56.901L247.677 56.8008L247.201 60.2815L243.559 60.3817Z" fill="white"/>
<path d="M235.406 56.451L235.882 52.9701L239.524 52.8701L239.049 56.3508L235.406 56.451Z" fill="white"/>
<path d="M239.914 56.3279L240.39 52.847L244.032 52.7471L243.556 56.2278L239.914 56.3279Z" fill="white"/>
<path d="M279.878 26.703C273.21 32.2756 267.238 40.2951 265.506 48.9454C265.271 50.1212 267.045 50.6314 267.314 49.4449C268.26 45.2775 270.006 41.4537 272.381 37.9109C274.876 34.1884 278.031 31.1451 281.001 27.8282C281.692 27.0565 280.657 26.0516 279.878 26.703ZM265.584 52.1605C264.362 52.1605 264.36 54.0638 265.584 54.0638C266.806 54.0638 266.808 52.1605 265.584 52.1605ZM227.202 13.7291C214.983 17.5312 204.156 26.1894 196.403 36.1893C195.844 36.9112 196.841 37.9406 197.422 37.2103C201.317 32.3177 206.01 27.9413 211.09 24.3063C216.275 20.5963 221.843 17.9933 227.716 15.5962C228.833 15.14 228.421 13.3498 227.202 13.7291Z" fill="white"/>
<path d="M236.726 84.4133C231.308 87.7659 224.866 89.188 219.012 85.2733C217.706 84.3999 216.438 86.1513 217.573 87.2462C224.021 93.4638 232.159 89.4618 238.274 85.7169C239.751 84.8126 238.215 83.492 236.726 84.4133Z" fill="#C0D9EB"/>
</g>
<path d="M129.772 235L161.644 177.4H178.284L145.644 235H129.772ZM129.772 243.96V235L136.044 230.776H199.276V243.96H129.772ZM172.268 267V208.376H186.732V267H172.268Z" fill="#15374F"/>
<g filter="url(#filter0_ddd_511_12902)">
<rect x="203" y="139" width="116" height="161" rx="24" fill="white"/>
<path d="M261.175 268.28C254.433 268.28 248.247 266.403 242.615 262.648C237.068 258.808 232.631 253.432 229.303 246.52C225.975 239.608 224.311 231.459 224.311 222.072C224.311 212.685 225.932 204.579 229.175 197.752C232.503 190.84 236.94 185.507 242.487 181.752C248.033 177.997 254.177 176.12 260.919 176.12C267.745 176.12 273.932 177.997 279.479 181.752C285.025 185.507 289.42 190.84 292.663 197.752C295.991 204.579 297.655 212.728 297.655 222.2C297.655 231.587 295.991 239.736 292.663 246.648C289.42 253.56 285.025 258.893 279.479 262.648C274.017 266.403 267.916 268.28 261.175 268.28ZM260.919 254.456C265.356 254.456 269.196 253.261 272.439 250.872C275.681 248.483 278.199 244.899 279.991 240.12C281.868 235.341 282.807 229.325 282.807 222.072C282.807 214.904 281.868 208.931 279.991 204.152C278.199 199.373 275.639 195.832 272.311 193.528C269.068 191.139 265.271 189.944 260.919 189.944C256.567 189.944 252.727 191.139 249.399 193.528C246.156 195.832 243.639 199.373 241.847 204.152C240.055 208.845 239.159 214.819 239.159 222.072C239.159 229.325 240.055 235.341 241.847 240.12C243.639 244.899 246.156 248.483 249.399 250.872C252.727 253.261 256.567 254.456 260.919 254.456Z" fill="#15374F"/>
</g>
<path d="M322.772 235L354.644 177.4H371.284L338.644 235H322.772ZM322.772 243.96V235L329.044 230.776H392.276V243.96H322.772ZM365.268 267V208.376H379.732V267H365.268Z" fill="#15374F"/>
<defs>
<filter id="filter0_ddd_511_12902" x="166" y="109" width="190" height="289" filterUnits="userSpaceOnUse" color-interpolation-filters="sRGB">
<feFlood flood-opacity="0" result="BackgroundImageFix"/>
<feColorMatrix in="SourceAlpha" type="matrix" values="0 0 0 0 0 0 0 0 0 0 0 0 0 0 0 0 0 0 127 0" result="hardAlpha"/>
<feOffset dy="7"/>
<feGaussianBlur stdDeviation="7.5"/>
<feColorMatrix type="matrix" values="0 0 0 0 0 0 0 0 0 0 0 0 0 0 0 0 0 0 0.1 0"/>
<feBlend mode="normal" in2="BackgroundImageFix" result="effect1_dropShadow_511_12902"/>
<feColorMatrix in="SourceAlpha" type="matrix" values="0 0 0 0 0 0 0 0 0 0 0 0 0 0 0 0 0 0 127 0" result="hardAlpha"/>
<feOffset dy="-3"/>
<feGaussianBlur stdDeviation="13.5"/>
<feColorMatrix type="matrix" values="0 0 0 0 0 0 0 0 0 0 0 0 0 0 0 0 0 0 0.09 0"/>
<feBlend mode="normal" in2="effect1_dropShadow_511_12902" result="effect2_dropShadow_511_12902"/>
<feColorMatrix in="SourceAlpha" type="matrix" values="0 0 0 0 0 0 0 0 0 0 0 0 0 0 0 0 0 0 127 0" result="hardAlpha"/>
<feOffset dy="61"/>
<feGaussianBlur stdDeviation="18.5"/>
<feColorMatrix type="matrix" values="0 0 0 0 0 0 0 0 0 0 0 0 0 0 0 0 0 0 0.05 0"/>
<feBlend mode="normal" in2="effect2_dropShadow_511_12902" result="effect3_dropShadow_511_12902"/>
<feBlend mode="normal" in="SourceGraphic" in2="effect3_dropShadow_511_12902" result="shape"/>
</filter>
<clipPath id="clip0_511_12902">
<rect width="262.633" height="213" fill="white" transform="translate(94)"/>
</clipPath>
</defs>
</svg>
