<svg width="75" height="99" viewBox="0 0 75 99" fill="none" xmlns="http://www.w3.org/2000/svg">
<path d="M74.1227 2.74614C74.1227 4.04927 73.1891 5.10265 72.0296 5.10265L58.0755 5.10265C56.916 5.10265 55.9824 4.04927 55.9824 2.74614C55.9824 1.44301 56.916 0.389648 58.0755 0.389648L72.0296 0.389648C73.1891 0.389648 74.1227 1.44301 74.1227 2.74614Z" fill="white"/>
<path d="M74.4524 14.4846C74.4524 15.9397 73.4009 17.1234 72.1136 17.1234L56.5185 17.1234C55.2213 17.1234 54.1797 15.9397 54.1797 14.4846C54.1797 13.0294 55.2312 11.8457 56.5185 11.8457L72.1234 11.8457C73.4107 11.8457 74.4524 13.0294 74.4524 14.4846Z" fill="white"/>
<path d="M65.5872 26.0402C65.5872 27.4954 64.5357 28.679 63.2484 28.679L47.6435 28.679C46.3463 28.679 45.3047 27.4954 45.3047 26.0402C45.3047 24.5851 46.3562 23.4014 47.6435 23.4014L63.2484 23.4014C64.5357 23.4014 65.5872 24.5851 65.5872 26.0402Z" fill="white"/>
<path d="M51.6276 14.4846C51.6276 15.9397 50.5761 17.1234 49.2888 17.1234H42.8818C41.5846 17.1234 40.543 15.9397 40.543 14.4846C40.543 13.0294 41.5944 11.8457 42.8818 11.8457L49.2888 11.8457C50.5761 11.8457 51.6276 13.0294 51.6276 14.4846Z" fill="white"/>
<path d="M42.0254 26.0402C42.0254 27.4954 40.974 28.679 39.6867 28.679H35.2548C33.9577 28.679 32.916 27.4954 32.916 26.0402C32.916 24.5851 33.9675 23.4014 35.2548 23.4014H39.6867C40.974 23.4014 42.0254 24.5851 42.0254 26.0402Z" fill="white"/>
<path d="M55.9705 37.5406C55.9705 38.822 55.0468 39.8537 53.9167 39.8537H42.9991C41.869 39.8537 40.9453 38.822 40.9453 37.5406C40.9453 36.2592 41.869 35.2275 42.9991 35.2275H53.9167C55.0566 35.2275 55.9705 36.27 55.9705 37.5406Z" fill="white"/>
<path d="M49.0006 48.9097C49.0006 50.3432 47.9688 51.4943 46.7011 51.4943H35.2038C33.9361 51.4943 32.9043 50.3323 32.9043 48.9097C32.9043 47.4763 33.9361 46.3252 35.2038 46.3252H46.7011C47.9786 46.3252 49.0006 47.4763 49.0006 48.9097Z" fill="white"/>
<path d="M56.5583 60.2355C56.5583 61.6907 55.5068 62.8744 54.2195 62.8744H47.6552C46.3581 62.8744 45.3164 61.6907 45.3164 60.2355C45.3164 58.7803 46.3679 57.5967 47.6552 57.5967H54.2195C55.5068 57.5967 56.5583 58.7803 56.5583 60.2355Z" fill="white"/>
<path d="M66.0791 72.0617C66.0791 73.5168 65.0276 74.7005 63.7403 74.7005H59.7997C58.5026 74.7005 57.4609 73.5168 57.4609 72.0617C57.4609 70.6065 58.5124 69.4229 59.7997 69.4229H63.7403C65.0374 69.4337 66.0791 70.6065 66.0791 72.0617Z" fill="white"/>
<path d="M53.9347 72.0617C53.9347 73.5168 52.8832 74.7005 51.5959 74.7005H45.4345C44.1373 74.7005 43.0957 73.5168 43.0957 72.0617C43.0957 70.6065 44.1472 69.4229 45.4345 69.4229H51.5959C52.8832 69.4337 53.9347 70.6065 53.9347 72.0617Z" fill="white"/>
<path d="M74.1271 83.4752C74.1271 84.9086 73.0953 86.0597 71.8276 86.0597H37.5026C36.2349 86.0597 35.2031 84.8978 35.2031 83.4752C35.2031 82.0417 36.2349 80.8906 37.5026 80.8906H71.8276C73.0953 80.8906 74.1271 82.0526 74.1271 83.4752Z" fill="white"/>
<path d="M74.125 95.0744C74.125 96.5295 73.0735 97.7132 71.7862 97.7132H50.1083C48.8112 97.7132 47.7695 96.5295 47.7695 95.0744C47.7695 93.6192 48.821 92.4355 50.1083 92.4355H71.7862C73.0735 92.4464 74.125 93.6192 74.125 95.0744Z" fill="white"/>
<path d="M33.2294 40.2974C33.2294 40.2974 37.681 40.7643 37.4746 37.7671C37.2682 34.7699 35.2046 34.2053 32.6791 34.9763C30.1537 35.7473 24.6113 40.5472 24.6113 49.2673C24.6113 54.8382 28.0507 63.4606 33.9173 63.4606C39.7839 63.4606 39.4596 63.4606 39.4596 63.4606C39.4596 63.4606 42.5747 63.7755 42.5747 60.7783C42.5747 57.7811 41.1498 57.5965 39.3614 57.5965C37.5729 57.5965 33.5832 57.5965 33.5832 57.5965C33.5832 57.5965 28.316 55.62 28.542 48.6483C28.5519 43.0231 31.8046 40.3083 33.2294 40.2974Z" fill="white"/>
<path d="M24.6066 27.985C24.6066 27.985 24.9505 27.4095 25.7072 27.214C26.4638 27.0185 29.3038 28.9081 27.1419 32.1334C24.98 35.3586 20.7938 39.8761 20.7938 50.7573C20.7938 61.6384 28.1049 69.4355 35.9958 69.4355C40.2017 69.4355 39.6612 71.2924 39.6612 72.6933C39.6612 74.0942 39.1895 74.7023 34.1287 74.7023C29.0581 74.7023 16.9024 66.6338 16.9024 50.3229C16.8925 33.9903 24.6066 27.985 24.6066 27.985Z" fill="white"/>
<path d="M32.9136 17.113C32.9136 17.113 37.3946 17.5582 37.4732 14.4741C37.542 11.39 35.6356 11.3792 31.9309 11.8353C28.2262 12.3022 18.5468 14.0289 11.9924 28.6565C7.00034 39.8635 8.09111 48.2361 8.09111 53.1771C8.09111 58.1073 8.68071 58.0421 10.0172 57.977C11.3634 57.9118 11.4224 57.2494 11.5403 54.1653C11.6582 51.0704 10.3709 42.5783 14.9895 30.7415C16.5029 26.8647 21.9567 17.7645 32.9136 17.113Z" fill="white"/>
<path d="M48.4717 0.249298C48.4717 0.249298 53.0608 -0.304534 53.1395 3.11619C53.1395 5.74417 51.6556 6.10253 47.9214 6.10253C44.1774 6.10253 30.4592 6.10253 30.4592 6.10253C30.4592 6.10253 13.9306 8.2527 6.4524 30.6231C3.18008 41.8083 3.10147 59.6178 6.4524 67.1651C7.62179 69.3587 7.7004 71.3568 6.13794 72.0735C4.57548 72.7903 2.62976 71.0202 1.14591 63.4837C-0.337935 55.9473 -1.81194 36.7261 6.5998 19.7963C12.1323 9.53411 19.8463 1.19407 30.4494 0.401329C41.0623 -0.402269 48.4717 0.249298 48.4717 0.249298Z" fill="white"/>
<path d="M10.9108 67.1977C10.9108 67.1977 9.34834 64.2005 11.3235 62.8648C13.2987 61.5291 14.2519 63.6033 15.1363 65.8946C16.0207 68.1968 20.5804 76.3088 27.0366 79.2191C31.8615 81.2064 31.9303 82.5095 31.8615 84.5837C31.7927 86.6578 28.6187 86.9619 26.5649 85.7348C24.5209 84.5077 14.5172 78.2309 10.9108 67.1977Z" fill="white"/>
<path d="M16.2863 89.872C16.2863 89.872 15.4707 88.7209 16.2863 87.3418C17.102 85.9626 18.5956 86.2667 20.0303 87.7979C21.4552 89.329 28.619 93.0321 35.2127 92.4457C41.6689 91.8593 43.5655 92.2502 43.4967 95.0845C43.4279 97.9188 40.8238 98.1469 37.4729 98.2229C34.1121 98.2881 21.6616 97.2239 16.2863 89.872Z" fill="white"/>
<path d="M7.5487 79.6855C7.5487 79.6855 6.26139 77.329 7.5487 75.9715C8.83601 74.6141 10.7031 76.6339 11.4401 77.8285C12.1771 79.023 16.098 82.5741 14.1916 85.6256C13.3858 86.6138 11.9707 86.0382 10.8505 84.5939C9.71058 83.1605 7.5487 79.6855 7.5487 79.6855Z" fill="white"/>
</svg>
