<svg width="217" height="221" viewBox="0 0 217 221" fill="none" xmlns="http://www.w3.org/2000/svg">
<path d="M198.714 85.5493C199.771 112.107 198.138 142.084 183.383 164.98C174.867 178.19 162.726 190.076 148.933 197.915L108.317 221.001L20.6367 171.167L58.9593 147.115L198.709 85.5493H198.714Z" fill="#8B9BA6"/>
<path d="M111.024 29.5589C110.12 29.0452 108.973 29.5589 108.771 30.5642C107.507 36.9014 103.359 56.6971 97.5919 73.7072C94.7443 82.0993 90.4663 89.0211 87.6457 94.5524C82.369 104.906 74.6271 116.146 64.3256 123.502C45.3735 137.04 25.4677 147.624 18.639 151.132C17.5773 151.676 17.5458 153.16 18.5805 153.753L105.955 203.641C106.409 203.902 106.967 203.911 107.43 203.668C111.789 201.391 134.416 189.341 154.39 174.187C164.466 166.539 172.874 156.579 178.151 146.229C180.967 140.698 185.249 133.776 188.097 125.384C194.219 107.329 198.623 86.1337 199.608 81.2313C199.734 80.6024 199.442 79.9692 198.88 79.6459L111.024 29.5589Z" fill="white" stroke="#19374E" stroke-width="2" stroke-linecap="round" stroke-linejoin="round"/>
<path d="M146.238 65.9307C145.199 63.9379 142.909 62.5252 142.757 62.4366C140.921 61.4003 138.321 62.2462 137.021 63.619C132.936 67.9236 131.641 78.561 135.685 83.1312C139.275 87.1967 143.449 85.9389 145.654 81.5635C147.871 77.1394 148.596 70.4478 146.243 65.9307H146.238ZM143.085 77.6575C142.828 78.2554 142.257 79.3625 141.771 79.8762C140.242 81.5104 138.325 80.4431 137.435 78.871C136.081 76.4707 136.935 72.2813 137.871 69.8146C138.281 68.7384 139.68 66.4843 141.241 66.905C142.194 67.1619 143.013 67.8793 143.472 68.6631C144.758 70.8641 144.052 75.3901 143.08 77.6575H143.085Z" fill="#3272B9"/>
<path d="M133.647 63.1588C133.593 63.7079 133.36 64.2881 133.382 64.8549C133.256 64.9789 130.57 63.2695 130.256 63.0525L130.175 62.8665C130.202 62.6894 130.287 62.5476 130.287 62.3616C130.251 61.1172 129.806 60.0499 128.6 59.3591C126.603 58.2165 125.78 60.3909 126.238 61.8656C126.715 63.3891 127.934 64.0888 128.969 65.2313C131.155 67.6405 131.969 70.0097 131.497 73.1452C130.921 76.936 128.398 79.5356 124.142 77.1265C121.025 75.3683 119.801 72.0115 120.049 68.8229C120.103 68.1365 120.314 67.3836 120.336 66.6883L123.517 68.3668C123.224 70.0452 123.575 72.1 125.339 72.999C127.143 73.9157 128.2 72.7333 128.101 71.1036C127.97 68.9823 124.525 66.9098 123.463 64.8726C121.978 62.0383 122.046 57.9862 124.475 55.5815C126.184 53.8854 128.987 54.3105 130.728 55.7764C132.797 57.5212 133.904 60.6301 133.652 63.1543L133.647 63.1588Z" fill="#3272B9"/>
<path d="M122.208 51.476L116.985 72.7021L113.782 70.9174C113.705 70.8023 114.092 69.1106 114.164 68.8227C114.925 65.7759 115.775 62.7113 116.521 59.6689C117.192 56.9409 117.705 54.2173 118.523 51.6089C118.699 51.0598 118.712 50.3025 118.897 49.7135C118.933 49.6116 118.834 49.5541 119.041 49.5851C119.94 50.1298 121.114 50.5992 121.965 51.1838C122.082 51.2635 122.212 51.3255 122.203 51.476H122.208Z" fill="#3272B9"/>
<path d="M133.319 90.0496C133.053 89.8547 132.167 89.4561 131.852 89.465C130.867 89.4871 130.003 90.519 129.545 91.2275C127.903 93.7563 126.072 100.669 129.468 102.308C130.818 102.959 131.686 102.481 132.518 101.387C134.461 98.8358 136.193 92.162 133.319 90.0496ZM131.51 99.5355C130.449 101.108 129.378 100.085 129.207 98.7207C129.09 97.8039 129.455 96.4045 129.706 95.4657C129.936 94.6154 130.809 91.9893 131.906 91.8077C133.044 91.6217 133.202 93.3178 133.188 94.0485C133.17 95.3771 132.289 98.3664 131.51 99.5355Z" fill="#3272B9"/>
<path d="M126.589 86.068C126.058 85.6473 125.559 85.4081 124.808 85.5055C122.846 85.758 121.407 89.8101 121.052 91.2981C120.813 92.3255 120.579 93.9729 120.705 94.9649C120.827 95.9126 121.344 97.3741 122.203 97.9276C123.926 99.0436 125.154 98.1003 126.054 96.6079C127.61 94.0128 129.221 88.1671 126.585 86.068H126.589ZM124.619 95.4166C123.701 96.7231 122.653 96.1828 122.397 94.9383C122.136 93.6939 123.035 90.2485 123.76 89.0705C124.12 88.4859 125.037 87.2149 125.82 87.9545C126.117 88.2335 126.346 89.199 126.346 89.6108C126.36 91.0368 125.501 94.1678 124.623 95.4211L124.619 95.4166Z" fill="#3272B9"/>
<path d="M110.471 88.4418L113.507 90.1733L112.819 92.1263L107.731 89.013C108.055 88.5879 108.046 88.1008 108.235 87.6579C108.51 87.0202 109.396 86.781 109.985 86.4135C110.777 85.9131 112.932 84.6199 113.409 84.0398C114.155 83.1319 114.758 80.7405 113.157 80.5279C112.104 80.3862 111.969 81.7724 111.735 81.8078L110.345 80.9354C110.736 79.7219 112.369 77.614 113.935 78.5661C116.099 79.8769 116.292 82.8397 114.938 84.9344C114.155 86.1345 112.054 87.1531 110.808 88.0565C110.723 88.1229 110.395 88.3311 110.471 88.4418Z" fill="#3272B9"/>
<path d="M121.983 86.0282C121.933 86.0902 116.423 92.9501 115.829 93.8712C115.541 93.7295 114.335 93.1848 114.353 92.9324C115.685 91.2539 120.372 85.2001 120.39 85.0539C120.408 84.9477 120.35 84.8857 120.251 84.8414L116.958 82.977L117.484 81.0461C117.615 80.8778 117.795 81.0461 117.925 81.0992C119.576 81.861 120.943 83.0611 122.59 83.8582C122.653 83.9557 122.113 85.8511 121.987 86.0238L121.983 86.0282Z" fill="#3272B9"/>
<path d="M140.229 94.381L136.67 106.484L135.109 105.457L137.975 95.6254L135.861 96.5466C135.649 96.5776 135.721 96.4491 135.735 96.3119C135.757 96.0683 136.202 94.4829 136.31 94.3367L138.528 93.4111L140.229 94.381Z" fill="#3272B9"/>
<path d="M73.1968 174.926C73.1968 174.926 74.092 179.904 82.1892 179.023C90.2865 178.141 96.6384 175.785 98.2038 174.43C99.7693 173.079 100.129 169.421 92.1219 171.051C84.1146 172.681 81.2086 178.845 84.3395 179.904C87.4705 180.962 89.6612 180.874 91.1367 180.475C92.6122 180.081 93.5524 179.067 91.2267 179.461C88.901 179.855 85.0998 181.312 88.5411 182.233C91.9869 183.159 93.0576 182.805 93.6873 182.627C94.3171 182.45 93.7323 181.441 92.7472 182.012C91.762 182.583 91.3616 183.863 93.0171 183.863C94.6725 183.863 96.5529 183.642 96.9983 183.38C97.4436 183.119 97.4436 182.322 96.3279 182.809C95.2078 183.292 94.4926 184.394 95.2978 184.527C96.1031 184.66 100.354 184.527 100.354 184.527C101.92 184.439 101.519 185.758 101.519 185.758C101.699 186.99 105.141 186.595 105.141 186.595" stroke="#19374E" stroke-width="2" stroke-linecap="round" stroke-linejoin="round"/>
<path d="M109.585 185.599L108.087 182.875L105.451 185.373C105.253 185.559 105.154 185.829 105.181 186.095L105.194 186.219C105.212 186.392 105.316 186.547 105.469 186.635C105.689 186.764 105.959 186.79 106.202 186.711L109.585 185.595V185.599Z" fill="#3272B9"/>
<path d="M124.021 182.451C123.832 182.513 123.639 182.566 123.445 182.615L110.157 185.799C110.157 185.799 107.588 185.316 108.168 182.221L117.975 172.075C118.061 171.991 118.142 171.906 118.231 171.822C117.606 174.413 118.24 177.345 120.184 179.67C121.254 180.954 122.591 181.884 124.03 182.446L124.021 182.451Z" stroke="#19374E" stroke-linecap="round" stroke-linejoin="round"/>
<path d="M131.173 178.461C131.209 178.474 131.245 178.479 131.281 178.492L129.081 179.75C127.349 179.249 125.712 178.217 124.443 176.703C122.585 174.475 121.924 171.685 122.423 169.179L124.497 167.983C124.029 170.463 124.695 173.213 126.531 175.414C127.799 176.929 129.437 177.96 131.169 178.461H131.173Z" stroke="#19374E" stroke-linecap="round" stroke-linejoin="round"/>
<path d="M136.112 175.457C136.216 175.488 136.319 175.515 136.418 175.542L135.226 176.228L134.088 176.879C132.383 176.37 130.782 175.351 129.531 173.859C127.673 171.631 127.012 168.841 127.511 166.335C127.52 166.299 127.525 166.273 127.534 166.237L127.943 166.003L129.401 165.166C128.996 167.597 129.675 170.267 131.466 172.415C132.734 173.93 134.372 174.961 136.103 175.462L136.112 175.457Z" stroke="#19374E" stroke-linecap="round" stroke-linejoin="round"/>
<path d="M137.691 170.618C138.834 171.605 140.143 172.278 141.493 172.637L141.47 172.65L139.401 173.833L139.203 173.948C139.131 173.93 139.059 173.913 138.987 173.886C137.255 173.386 135.618 172.354 134.349 170.839C132.536 168.665 131.861 165.954 132.298 163.497L132.838 163.187L134.632 162.155C134.538 162.598 134.484 163.049 134.471 163.506V163.687C134.439 166.185 135.55 168.753 137.696 170.613L137.691 170.618Z" stroke="#19374E" stroke-width="2" stroke-linecap="round" stroke-linejoin="round"/>
<path d="M129.081 179.745L125.487 181.804C125.024 182.07 124.529 182.287 124.02 182.451C122.585 181.888 121.249 180.958 120.174 179.674C118.231 177.349 117.601 174.417 118.222 171.827C118.654 171.419 119.135 171.06 119.657 170.759L122.419 169.174C121.92 171.68 122.576 174.47 124.439 176.698C125.707 178.213 127.345 179.244 129.077 179.745H129.081Z" fill="#3D84BB" stroke="#19374E" stroke-width="2" stroke-linecap="round" stroke-linejoin="round"/>
<path d="M134.093 176.875L131.281 178.487C131.245 178.473 131.209 178.469 131.173 178.456C129.441 177.955 127.804 176.923 126.535 175.409C124.7 173.208 124.034 170.462 124.502 167.978L127.538 166.229C127.525 166.264 127.525 166.291 127.516 166.326C127.017 168.833 127.678 171.622 129.536 173.85C130.786 175.342 132.392 176.361 134.093 176.87V176.875Z" fill="#3D84BB" stroke="#19374E" stroke-width="2" stroke-linecap="round" stroke-linejoin="round"/>
<path d="M139.199 173.952L136.423 175.537C136.32 175.511 136.216 175.484 136.117 175.453C134.385 174.953 132.748 173.921 131.479 172.406C129.689 170.258 129.01 167.588 129.414 165.157L132.303 163.5C131.866 165.958 132.536 168.669 134.354 170.843C135.622 172.358 137.26 173.389 138.992 173.89C139.064 173.912 139.136 173.93 139.208 173.952H139.199Z" fill="#3D84BB" stroke="#19374E" stroke-width="2" stroke-linecap="round" stroke-linejoin="round"/>
<path d="M189.087 145.37L151.817 166.72L149.248 168.19L146.356 169.847L144.502 170.91L141.488 172.637C140.139 172.278 138.83 171.605 137.687 170.617C135.541 168.757 134.43 166.189 134.462 163.691V163.509C134.475 163.053 134.529 162.602 134.624 162.159L135.015 161.933L137.822 160.321L140.134 158.988L142.905 157.394L144.979 156.198L179.392 136.407C179.451 138.807 180.553 141.252 182.613 143.036C184.116 144.329 185.897 145.087 187.688 145.308C187.764 145.321 187.841 145.326 187.913 145.335C188.299 145.37 188.691 145.383 189.078 145.37H189.087Z" fill="#3D84BB" stroke="#19374E" stroke-width="2" stroke-linecap="round" stroke-linejoin="round"/>
<path d="M207.846 120.039L178.893 134.737C174.305 139.453 179.132 145.706 179.132 145.706C183.455 149.785 186.608 149.338 186.608 149.338L213.721 131.026L207.846 120.043V120.039Z" fill="#3D84BB" stroke="#19374E" stroke-width="2" stroke-linecap="round" stroke-linejoin="round"/>
<path d="M175.146 144.312L199.456 129.383C200.351 128.834 201.534 129.109 202.083 129.999L202.983 131.456C203.563 132.39 203.203 133.613 202.209 134.104L176.518 146.717C176.176 146.885 175.758 146.761 175.569 146.433L174.899 145.273C174.705 144.941 174.818 144.52 175.146 144.316V144.312Z" fill="#E7EBEE" stroke="#19374E" stroke-width="2" stroke-linecap="round" stroke-linejoin="round"/>
<path d="M213.763 131.071C215.551 130.144 215.684 126.934 214.061 123.899C212.438 120.865 209.674 119.157 207.886 120.083C206.099 121.01 205.966 124.22 207.589 127.254C209.212 130.289 211.976 131.997 213.763 131.071Z" fill="#E7EBEE" stroke="#19374E" stroke-linecap="round" stroke-linejoin="round"/>
<path d="M56.062 142.199L78.9008 155.179" stroke="#19374E" stroke-width="2" stroke-linecap="round" stroke-linejoin="round"/>
<path d="M51.5635 144.746L74.4067 157.726" stroke="#19374E" stroke-width="2" stroke-linecap="round" stroke-linejoin="round"/>
<path d="M114.434 144.519L139.657 158.854" stroke="#19374E" stroke-width="2" stroke-linecap="round" stroke-linejoin="round"/>
<path d="M81.3569 125.72L109.216 141.552" stroke="#19374E" stroke-width="2" stroke-linecap="round" stroke-linejoin="round"/>
<path d="M72.4185 133.639L100.278 149.471" stroke="#19374E" stroke-width="2" stroke-linecap="round" stroke-linejoin="round"/>
<path d="M105.496 152.434L128.294 165.392" stroke="#19374E" stroke-width="2" stroke-linecap="round" stroke-linejoin="round"/>
<path d="M76.9526 129.679L90.8844 137.597" stroke="#19374E" stroke-width="2" stroke-linecap="round" stroke-linejoin="round"/>
<path d="M96.4985 140.786L110.43 148.704" stroke="#19374E" stroke-width="2" stroke-linecap="round" stroke-linejoin="round"/>
<path d="M118.393 153.23L134.092 162.149" stroke="#19374E" stroke-width="2" stroke-linecap="round" stroke-linejoin="round"/>
<path d="M62.4589 10.4007L62.4184 10.3742C62.3329 10.3255 62.252 10.2723 62.171 10.2236C62.09 10.1793 62.0045 10.1306 61.9236 10.0819C60.0252 9.03233 57.9469 8.43891 55.7427 8.26177C44.4829 7.35392 30.0788 17.4156 20.803 33.695C12.5797 48.1276 10.6904 63.3928 15.0044 72.9364C15.3553 73.7202 15.7512 74.4642 16.192 75.1684C17.4156 77.1391 18.9721 78.7821 20.8524 79.9999L21.3832 80.3321C21.5092 80.4118 21.6352 80.4871 21.7611 80.5579C22.211 80.8059 22.6743 81.0318 23.1421 81.2311C28.1085 83.3258 34.1229 82.6216 40.2184 79.6722C40.5603 79.5084 40.9022 79.3356 41.244 79.1585C43.1109 78.1754 44.9823 76.9929 46.8222 75.6157C52.7467 71.1871 58.4057 64.7878 62.8772 56.9404C63.1921 56.3869 63.4981 55.8289 63.7949 55.2753C73.7636 36.6001 73.2238 16.9594 62.4499 10.4007H62.4589ZM57.0337 54.022C47.9243 70.0047 33.6731 79.1718 25.1979 74.4908C16.7228 69.8143 17.2356 53.061 26.3451 37.0739C35.4545 21.0913 49.7057 11.9242 58.1809 16.6052C66.656 21.2817 66.1431 38.0349 57.0337 54.022Z" fill="white" stroke="#19374E" stroke-width="2" stroke-linecap="round" stroke-linejoin="round"/>
<path d="M57.0332 54.0222C47.9238 70.0049 33.6726 79.172 25.1974 74.491C16.7223 69.8145 17.2351 53.0613 26.3446 37.0742C35.454 21.0915 49.7052 11.9244 58.1804 16.6054C66.6555 21.2819 66.1427 38.0352 57.0332 54.0222Z" fill="white" stroke="#19374E" stroke-width="2" stroke-linecap="round" stroke-linejoin="round"/>
<path d="M62.1664 10.2285C62.0855 10.1842 62 10.1355 61.919 10.0868C60.0206 9.0372 57.9423 8.44375 55.7381 8.26661C44.4784 7.35875 30.0743 17.4205 20.7984 33.6998C12.5752 48.1325 10.6858 63.3977 14.9998 72.9412C15.3507 73.7251 15.7466 74.4691 16.1874 75.1732C17.411 77.1439 18.9675 78.7869 20.8479 80.0048L13.2634 75.2839L10.8792 73.8004H10.8747L7.93717 71.9669C-1.62211 64.2967 -1.34766 44.7313 9.04384 26.499C20.1326 7.03549 38.5449 -3.53991 50.1644 2.87706L51.2441 3.54135H51.2486L62.1619 10.224L62.1664 10.2285Z" fill="#E7EBEE" stroke="#19374E" stroke-width="2" stroke-linecap="round" stroke-linejoin="round"/>
<path d="M21.5313 80.4343L21.3828 80.3413" stroke="#FF0000" stroke-linecap="round" stroke-linejoin="round"/>
<path d="M7.9414 71.9708L7.91895 71.9575" stroke="#FF0000" stroke-linecap="round" stroke-linejoin="round"/>
<path d="M23.1466 81.2356L15.6566 111.992L5.4585 106.886L13.2679 75.2925L20.8524 80.0133L21.3831 80.3454C21.5091 80.4252 21.6351 80.5005 21.7611 80.5713C22.2109 80.8193 22.6742 81.0452 23.1421 81.2445L23.1466 81.2356Z" fill="#3D84BB" stroke="#19374E" stroke-linecap="round" stroke-linejoin="round"/>
<path d="M41.2487 79.1587L40.7989 81.3066L35.0498 108.764L27.9467 97.6479L15.6523 111.992L23.1423 81.2357C28.1087 83.3304 34.1231 82.6262 40.2186 79.6768C40.5604 79.513 40.9023 79.3403 41.2442 79.1631L41.2487 79.1587Z" fill="#E7EBEE" stroke="#19374E" stroke-linecap="round" stroke-linejoin="round"/>
<path d="M57.7261 103.472L46.8893 98.5428L40.7983 81.3113L41.2482 79.1634C43.1151 78.1803 44.9864 76.9979 46.8263 75.6206L57.7261 103.476V103.472Z" fill="#3D84BB" stroke="#19374E" stroke-linecap="round" stroke-linejoin="round"/>
<path d="M76.7595 83.0287H62.5759L57.7265 103.471L46.8267 75.6153C52.7512 71.1867 58.4102 64.7874 62.8817 56.94C63.1966 56.3865 63.5025 55.8285 63.7994 55.2749L76.7595 83.0287Z" fill="#E7EBEE" stroke="#19374E" stroke-linecap="round" stroke-linejoin="round"/>
<path d="M30.263 47.0696L39.4264 60.2268L52.2246 30.6042C52.3955 30.2056 52.0356 30.0861 51.8197 30.4714L39.7143 51.8436L30.6723 46.485C30.4609 46.361 30.1145 46.8526 30.263 47.0696Z" fill="#3D84BB"/>
</svg>
