<svg width="538" height="641" viewBox="0 0 538 641" fill="none" xmlns="http://www.w3.org/2000/svg">
<path d="M163.555 300.872L342.769 197.539C345.691 195.855 349.307 195.855 352.23 197.539L531.443 300.872C533.686 302.162 533.686 305.393 531.443 306.683L349.946 411.347C348.424 412.216 346.561 412.216 345.052 411.347L163.555 306.683C161.312 305.393 161.312 302.162 163.555 300.872Z" stroke="white" stroke-width="2" stroke-linecap="round" stroke-linejoin="round"/>
<g style="mix-blend-mode:multiply" opacity="0.2">
<path d="M536.5 532.005L347.499 641L158.512 532.005L189.124 514.369L342.306 602.686L347.336 600.46L352.841 602.605L505.887 514.369L536.5 532.005Z" fill="#15374F"/>
</g>
<path d="M216.487 292.672L341.083 220.823C345.052 218.529 349.96 218.529 353.929 220.823L478.525 292.672C487.088 297.614 487.088 309.969 478.525 314.897L353.929 386.746C349.96 389.041 345.052 389.041 341.083 386.746L216.487 314.897C207.924 309.955 207.924 297.6 216.487 292.672Z" fill="#E7EBEE"/>
<path d="M347.5 416.493V598.382C347.5 601.111 350.463 602.835 352.829 601.478L533.238 498.633C535.25 497.493 536.487 495.347 536.487 493.039V308.774C536.487 306.561 534.081 305.176 532.165 306.29L350.722 410.926C348.723 412.08 347.5 414.212 347.5 416.507V416.493Z" stroke="white" stroke-width="2" stroke-linecap="round" stroke-linejoin="round"/>
<path d="M347.512 415.597V598.613C347.512 601.233 344.671 602.89 342.388 601.586L160.238 497.75C159.164 497.139 158.512 496.013 158.512 494.777V309.697C158.512 307.063 161.38 305.42 163.664 306.737L345.052 411.334C346.574 412.216 347.512 413.832 347.512 415.583V415.597Z" stroke="white" stroke-width="2" stroke-linecap="round" stroke-linejoin="round"/>
<path d="M347.5 481.906L536.474 372.87" stroke="white" stroke-width="2" stroke-linecap="round" stroke-linejoin="round"/>
<path d="M347.594 544.672L536.472 435.758" stroke="white" stroke-linecap="round" stroke-linejoin="round"/>
<path d="M158.512 372.925L347.444 481.866" stroke="white" stroke-linecap="round" stroke-linejoin="round"/>
<path d="M158.498 435.636L293.058 513.228L347.499 544.631H347.512L347.594 544.672" stroke="white" stroke-linecap="round" stroke-linejoin="round"/>
<path d="M325.654 438.352L239.854 388.877" stroke="white" stroke-linecap="round" stroke-linejoin="round"/>
<path d="M325.654 501.348L239.854 451.874" stroke="white" stroke-linecap="round" stroke-linejoin="round"/>
<path d="M325.654 565.295L239.854 515.808" stroke="white" stroke-linecap="round" stroke-linejoin="round"/>
<path d="M191.115 368.544C194.391 366.655 194.321 360.406 190.958 354.588C187.595 348.769 182.212 345.585 178.935 347.474C175.658 349.364 175.728 355.612 179.092 361.431C182.455 367.249 187.838 370.434 191.115 368.544Z" stroke="#19374E" stroke-linecap="round" stroke-linejoin="round"/>
<path d="M220.415 445.35C223.692 443.461 223.622 437.212 220.259 431.394C216.895 425.575 211.513 422.39 208.236 424.28C204.959 426.17 205.029 432.418 208.392 438.236C211.756 444.055 217.139 447.24 220.415 445.35Z" stroke="#19374E" stroke-linecap="round" stroke-linejoin="round"/>
<path d="M220.415 508.375C223.692 506.486 223.622 500.237 220.259 494.419C216.896 488.601 211.513 485.416 208.236 487.305C204.959 489.195 205.029 495.443 208.393 501.262C211.756 507.08 217.139 510.265 220.415 508.375Z" stroke="#19374E" stroke-linecap="round" stroke-linejoin="round"/>
<path d="M221.266 384.131C224.887 382.043 224.713 374.97 220.877 368.334C217.04 361.697 210.995 358.01 207.373 360.098C203.752 362.187 203.926 369.259 207.763 375.896C211.599 382.533 217.644 386.22 221.266 384.131Z" fill="#3272B9"/>
<path d="M191.963 496.471C195.584 494.383 195.41 487.31 191.574 480.673C187.738 474.037 181.692 470.35 178.071 472.438C174.449 474.526 174.624 481.599 178.46 488.236C182.296 494.872 188.342 498.56 191.963 496.471Z" fill="#3272B9"/>
<path d="M191.107 431.019C194.384 429.13 194.313 422.881 190.95 417.063C187.587 411.245 182.204 408.06 178.927 409.949C175.651 411.839 175.721 418.087 179.084 423.906C182.447 429.724 187.83 432.909 191.107 431.019Z" stroke="#19374E" stroke-width="2" stroke-linecap="round" stroke-linejoin="round"/>
<path d="M351.863 260.563H351.795C351.795 260.563 351.754 260.563 351.741 260.563C351.741 260.563 351.7 260.563 351.673 260.563C351.673 260.563 351.632 260.563 351.605 260.563C351.605 260.563 351.564 260.563 351.55 260.563C351.55 260.563 351.509 260.563 351.482 260.563C351.455 260.563 351.441 260.563 351.414 260.563C351.414 260.563 351.374 260.563 351.346 260.563H351.292C351.265 260.563 351.251 260.563 351.224 260.563C351.224 260.563 351.183 260.563 351.17 260.563C351.17 260.563 351.129 260.563 351.115 260.563C351.088 260.563 351.075 260.563 351.047 260.563C351.047 260.563 351.006 260.563 350.979 260.563C350.979 260.563 350.939 260.563 350.925 260.563C350.925 260.563 350.884 260.563 350.871 260.563C350.843 260.563 350.83 260.563 350.803 260.563C350.789 260.563 350.762 260.563 350.748 260.563C350.735 260.563 350.707 260.563 350.694 260.563C350.667 260.563 350.653 260.563 350.626 260.563C350.612 260.563 350.585 260.563 350.572 260.563C350.558 260.563 350.531 260.563 350.517 260.563C350.49 260.563 350.476 260.563 350.449 260.563C350.436 260.563 350.408 260.563 350.395 260.563C350.381 260.563 350.354 260.563 350.34 260.563C350.313 260.563 350.3 260.563 350.272 260.563C350.272 260.563 350.232 260.563 350.204 260.563C350.191 260.563 350.164 260.563 350.15 260.563C350.137 260.563 350.109 260.563 350.082 260.563C350.082 260.563 350.041 260.563 350.014 260.563C350.001 260.563 349.973 260.563 349.96 260.563C349.946 260.563 349.919 260.563 349.905 260.563C349.878 260.563 349.865 260.563 349.837 260.563C349.837 260.563 349.797 260.563 349.783 260.563C349.769 260.563 349.742 260.563 349.729 260.563C349.715 260.563 349.688 260.563 349.661 260.563H349.606C349.593 260.563 349.566 260.563 349.552 260.563C349.525 260.563 349.511 260.563 349.484 260.563C349.47 260.563 349.443 260.563 349.43 260.563C349.416 260.563 349.389 260.563 349.375 260.563C349.348 260.563 349.335 260.563 349.321 260.563C349.307 260.563 349.28 260.563 349.267 260.563C349.253 260.563 349.226 260.563 349.212 260.563C349.199 260.563 349.171 260.563 349.158 260.563C349.158 260.563 349.117 260.563 349.09 260.563C349.076 260.563 349.049 260.563 349.035 260.563C349.022 260.563 348.995 260.563 348.981 260.563C348.968 260.563 348.94 260.563 348.927 260.563C348.913 260.563 348.886 260.563 348.872 260.563C348.859 260.563 348.832 260.563 348.818 260.563C348.791 260.563 348.777 260.563 348.75 260.563C348.736 260.563 348.709 260.563 348.696 260.563C348.682 260.563 348.655 260.563 348.641 260.563C348.614 260.563 348.601 260.563 348.573 260.563H348.505C348.492 260.563 348.465 260.563 348.451 260.563C348.437 260.563 348.41 260.563 348.397 260.563C348.383 260.563 348.356 260.563 348.342 260.563C348.329 260.563 348.301 260.563 348.288 260.563C348.274 260.563 348.247 260.563 348.233 260.563C348.22 260.563 348.193 260.563 348.179 260.563C348.165 260.563 348.138 260.563 348.125 260.563C348.111 260.563 348.084 260.563 348.07 260.563C348.057 260.563 348.03 260.563 348.016 260.563C348.002 260.563 347.975 260.563 347.962 260.563C347.948 260.563 347.921 260.563 347.907 260.563C347.894 260.563 347.866 260.563 347.853 260.563C347.853 260.563 347.853 260.563 347.839 260.563C347.826 260.563 347.798 260.563 347.785 260.563C347.771 260.563 347.744 260.563 347.731 260.563C347.717 260.563 347.69 260.563 347.676 260.563C347.663 260.563 347.635 260.563 347.622 260.563C347.608 260.563 347.581 260.563 347.567 260.563C347.554 260.563 347.527 260.563 347.513 260.563C347.513 260.563 347.513 260.563 347.499 260.563C347.486 260.563 347.459 260.563 347.445 260.563C347.431 260.563 347.404 260.563 347.391 260.563C347.377 260.563 347.35 260.563 347.336 260.563C347.323 260.563 347.296 260.563 347.282 260.563C347.268 260.563 347.241 260.563 347.228 260.563C347.214 260.563 347.187 260.563 347.173 260.563C347.16 260.563 347.132 260.563 347.119 260.563C347.105 260.563 347.078 260.563 347.064 260.563C347.051 260.563 347.024 260.563 347.01 260.563C346.996 260.563 346.969 260.563 346.956 260.563C346.942 260.563 346.915 260.563 346.901 260.563C346.888 260.563 346.861 260.563 346.847 260.563C346.833 260.563 346.806 260.563 346.793 260.563C346.779 260.563 346.752 260.563 346.738 260.563C346.738 260.563 346.738 260.563 346.725 260.563C346.711 260.563 346.684 260.563 346.67 260.563C346.657 260.563 346.629 260.563 346.616 260.563C346.602 260.563 346.575 260.563 346.561 260.563C346.548 260.563 346.521 260.563 346.507 260.563C346.507 260.563 346.507 260.563 346.494 260.563C346.48 260.563 346.466 260.563 346.439 260.563C346.439 260.563 346.439 260.563 346.426 260.563C346.412 260.563 346.385 260.563 346.371 260.563C346.371 260.563 346.371 260.563 346.358 260.563C346.344 260.563 346.33 260.563 346.303 260.563C346.303 260.563 346.303 260.563 346.29 260.563C346.276 260.563 346.262 260.563 346.249 260.563C346.249 260.563 346.249 260.563 346.235 260.563C346.222 260.563 346.194 260.563 346.181 260.563C346.181 260.563 346.181 260.563 346.167 260.563C346.154 260.563 346.14 260.563 346.113 260.563C346.113 260.563 346.113 260.563 346.099 260.563C346.086 260.563 346.072 260.563 346.059 260.563C346.059 260.563 346.059 260.563 346.045 260.563C346.031 260.563 346.018 260.563 346.004 260.563C346.004 260.563 346.004 260.563 345.977 260.563C345.963 260.563 345.95 260.563 345.923 260.563C345.923 260.563 345.923 260.563 345.909 260.563C345.895 260.563 345.882 260.563 345.868 260.563C345.868 260.563 345.868 260.563 345.855 260.563C345.841 260.563 345.827 260.563 345.8 260.563C345.8 260.563 345.8 260.563 345.773 260.563C345.76 260.563 345.746 260.563 345.719 260.563C345.719 260.563 345.719 260.563 345.705 260.563C345.691 260.563 345.678 260.563 345.664 260.563C345.664 260.563 345.664 260.563 345.651 260.563C345.637 260.563 345.624 260.563 345.61 260.563C345.61 260.563 345.61 260.563 345.596 260.563C345.583 260.563 345.556 260.563 345.542 260.563C345.542 260.563 345.542 260.563 345.528 260.563C345.515 260.563 345.501 260.563 345.474 260.563C345.474 260.563 345.474 260.563 345.46 260.563C345.447 260.563 345.433 260.563 345.42 260.563C345.42 260.563 345.42 260.563 345.406 260.563C345.392 260.563 345.365 260.563 345.352 260.563C345.352 260.563 345.352 260.563 345.325 260.563C345.311 260.563 345.297 260.563 345.27 260.563C345.27 260.563 345.27 260.563 345.257 260.563C345.243 260.563 345.229 260.563 345.216 260.563C345.216 260.563 345.216 260.563 345.202 260.563C345.189 260.563 345.175 260.563 345.161 260.563C345.161 260.563 345.148 260.563 345.134 260.563C345.121 260.563 345.107 260.563 345.093 260.563C345.093 260.563 345.093 260.563 345.08 260.563C345.066 260.563 345.053 260.563 345.039 260.563C345.039 260.563 345.039 260.563 345.025 260.563C345.012 260.563 344.998 260.563 344.985 260.563C344.985 260.563 344.971 260.563 344.957 260.563C344.944 260.563 344.93 260.563 344.917 260.563C344.917 260.563 344.917 260.563 344.903 260.563C344.89 260.563 344.876 260.563 344.862 260.563C344.862 260.563 344.862 260.563 344.849 260.563C344.835 260.563 344.822 260.563 344.808 260.563C344.808 260.563 344.794 260.563 344.781 260.563C344.781 260.563 344.754 260.563 344.74 260.563C344.74 260.563 344.726 260.563 344.713 260.563C344.699 260.563 344.686 260.563 344.672 260.563H344.658C344.645 260.563 344.631 260.563 344.618 260.563C344.618 260.563 344.604 260.563 344.591 260.563C344.577 260.563 344.563 260.563 344.55 260.563C344.55 260.563 344.536 260.563 344.522 260.563C344.509 260.563 344.495 260.563 344.482 260.563C344.482 260.563 344.468 260.563 344.455 260.563C344.441 260.563 344.427 260.563 344.414 260.563C344.414 260.563 344.4 260.563 344.387 260.563C344.387 260.563 344.359 260.563 344.346 260.563C344.346 260.563 344.332 260.563 344.319 260.563C344.319 260.563 344.291 260.563 344.278 260.563C344.278 260.563 344.264 260.563 344.251 260.563C344.251 260.563 344.223 260.563 344.21 260.563H344.183H344.156H344.128C344.128 260.563 344.101 260.563 344.087 260.563H344.06C344.06 260.563 344.033 260.563 344.02 260.563C344.02 260.563 344.006 260.563 343.992 260.563C343.992 260.563 343.965 260.563 343.952 260.563H343.924C343.924 260.563 343.897 260.563 343.884 260.563C343.884 260.563 343.87 260.563 343.856 260.563C343.856 260.563 343.829 260.563 343.816 260.563C343.816 260.563 343.802 260.563 343.788 260.563C343.788 260.563 343.761 260.563 343.748 260.563H343.721C343.721 260.563 343.707 260.563 343.693 260.563C343.693 260.563 343.666 260.563 343.653 260.563C343.653 260.563 343.625 260.563 343.612 260.563C343.612 260.563 343.598 260.563 343.585 260.563C343.585 260.563 343.557 260.563 343.544 260.563C343.544 260.563 343.53 260.563 343.517 260.563C343.517 260.563 343.489 260.563 343.476 260.563C343.476 260.563 343.462 260.563 343.449 260.563C343.449 260.563 343.421 260.563 343.408 260.563C343.408 260.563 343.394 260.563 343.381 260.563C343.381 260.563 343.353 260.563 343.34 260.563C343.34 260.563 343.326 260.563 343.313 260.563C343.313 260.563 343.286 260.563 343.272 260.563H343.245C343.245 260.563 343.231 260.563 343.218 260.563H343.19C343.19 260.563 343.163 260.563 343.15 260.563C343.15 260.563 343.122 260.563 343.109 260.563C343.109 260.563 343.095 260.563 343.082 260.563C343.082 260.563 343.054 260.563 343.041 260.563C343.041 260.563 343.027 260.563 343.014 260.563C343.014 260.563 342.987 260.563 342.973 260.563C342.973 260.563 342.946 260.563 342.932 260.563C342.932 260.563 342.918 260.563 342.905 260.563H342.878C342.864 260.563 342.851 260.563 342.837 260.563C342.837 260.563 342.823 260.563 342.81 260.563C342.81 260.563 342.783 260.563 342.769 260.563H342.742C342.742 260.563 342.728 260.563 342.715 260.563C342.715 260.563 342.687 260.563 342.674 260.563C342.674 260.563 342.647 260.563 342.633 260.563C342.633 260.563 342.619 260.563 342.606 260.563C342.606 260.563 342.579 260.563 342.565 260.563C342.565 260.563 342.538 260.563 342.524 260.563C342.524 260.563 342.511 260.563 342.497 260.563C342.497 260.563 342.47 260.563 342.456 260.563C342.456 260.563 342.429 260.563 342.416 260.563C342.416 260.563 342.402 260.563 342.388 260.563C342.388 260.563 342.361 260.563 342.348 260.563C342.348 260.563 342.334 260.563 342.32 260.563C342.307 260.563 342.293 260.563 342.28 260.563H342.252C342.239 260.563 342.225 260.563 342.212 260.563C342.212 260.563 342.198 260.563 342.184 260.563C342.171 260.563 342.157 260.563 342.144 260.563C342.144 260.563 342.13 260.563 342.117 260.563C342.103 260.563 342.089 260.563 342.076 260.563H342.049C342.035 260.563 342.021 260.563 342.008 260.563C342.008 260.563 341.994 260.563 341.981 260.563C341.967 260.563 341.953 260.563 341.94 260.563C341.94 260.563 341.926 260.563 341.913 260.563C341.899 260.563 341.885 260.563 341.872 260.563H341.845C341.845 260.563 341.817 260.563 341.804 260.563C341.804 260.563 341.79 260.563 341.777 260.563C341.777 260.563 341.749 260.563 341.736 260.563C341.736 260.563 341.722 260.563 341.709 260.563C341.709 260.563 341.682 260.563 341.668 260.563H341.641C341.641 260.563 341.627 260.563 341.614 260.563C341.614 260.563 341.586 260.563 341.573 260.563C341.573 260.563 341.546 260.563 341.532 260.563C341.532 260.563 341.518 260.563 341.505 260.563C341.491 260.563 341.478 260.563 341.464 260.563C341.464 260.563 341.45 260.563 341.437 260.563C341.423 260.563 341.41 260.563 341.396 260.563H341.369C341.369 260.563 341.342 260.563 341.328 260.563C341.328 260.563 341.314 260.563 341.301 260.563C341.287 260.563 341.274 260.563 341.26 260.563C341.26 260.563 341.26 260.563 341.247 260.563C341.233 260.563 341.219 260.563 341.206 260.563C341.206 260.563 341.192 260.563 341.179 260.563C341.165 260.563 341.151 260.563 341.138 260.563C341.138 260.563 341.138 260.563 341.124 260.563C341.111 260.563 341.097 260.563 341.083 260.563C341.083 260.563 341.083 260.563 341.07 260.563C341.056 260.563 341.043 260.563 341.029 260.563C341.002 260.563 340.988 260.563 340.961 260.563C340.947 260.563 340.934 260.563 340.92 260.563C340.907 260.563 340.893 260.563 340.866 260.563C340.839 260.563 340.825 260.563 340.798 260.563C340.784 260.563 340.771 260.563 340.744 260.563C340.73 260.563 340.716 260.563 340.689 260.563C340.662 260.563 340.635 260.563 340.608 260.563C340.594 260.563 340.58 260.563 340.553 260.563C340.54 260.563 340.513 260.563 340.499 260.563C340.458 260.563 340.417 260.563 340.377 260.563C340.363 260.563 340.349 260.563 340.322 260.563C340.281 260.563 340.241 260.563 340.186 260.563C340.173 260.563 340.145 260.563 340.132 260.563C340.078 260.563 340.01 260.563 339.942 260.576C339.928 260.576 339.914 260.576 339.887 260.576C339.846 260.576 339.792 260.576 339.751 260.59C339.738 260.59 339.724 260.59 339.697 260.59C339.656 260.59 339.615 260.59 339.561 260.603C339.547 260.603 339.534 260.603 339.507 260.603C339.466 260.603 339.425 260.603 339.371 260.617C339.357 260.617 339.33 260.617 339.316 260.617C339.276 260.617 339.221 260.617 339.18 260.63C339.18 260.63 339.14 260.63 339.126 260.63C339.058 260.63 339.004 260.644 338.936 260.658C338.936 260.658 338.909 260.658 338.881 260.658C338.841 260.658 338.786 260.658 338.745 260.671C338.732 260.671 338.705 260.671 338.691 260.671C338.691 260.671 338.596 260.671 338.555 260.685C338.542 260.685 338.514 260.685 338.501 260.685C338.433 260.685 338.378 260.698 338.31 260.712C338.31 260.712 338.215 260.712 338.174 260.725C338.161 260.725 338.134 260.725 338.12 260.725C337.984 260.739 337.862 260.753 337.739 260.766C337.59 260.78 337.44 260.807 337.304 260.821C333.879 261.255 330.562 261.812 327.341 262.504C327.218 262.531 327.096 262.558 326.974 262.585C326.96 262.585 326.946 262.585 326.919 262.585C326.878 262.585 326.838 262.599 326.797 262.613C326.783 262.613 326.77 262.613 326.743 262.613C326.702 262.613 326.661 262.626 326.62 262.64C326.607 262.64 326.593 262.64 326.579 262.64C326.566 262.64 326.552 262.64 326.539 262.64C326.498 262.64 326.457 262.653 326.416 262.667C326.403 262.667 326.389 262.667 326.362 262.667C326.321 262.667 326.28 262.681 326.24 262.694C326.24 262.694 326.212 262.694 326.199 262.694C326.185 262.694 326.172 262.694 326.158 262.694C326.131 262.694 326.117 262.694 326.104 262.708C326.104 262.708 326.076 262.708 326.063 262.708C326.049 262.708 326.036 262.708 326.022 262.708C326.022 262.708 326.008 262.708 325.995 262.708C325.995 262.708 325.968 262.708 325.954 262.708C325.954 262.708 325.954 262.708 325.927 262.708C325.927 262.708 325.9 262.708 325.886 262.708C325.886 262.708 325.886 262.708 325.859 262.708C325.859 262.708 325.832 262.708 325.818 262.708C325.818 262.708 325.818 262.708 325.805 262.708C325.791 262.708 325.777 262.708 325.75 262.708C325.75 262.708 325.75 262.708 325.737 262.708C325.723 262.708 325.709 262.708 325.696 262.708C325.696 262.708 325.696 262.708 325.682 262.708C325.682 262.708 325.655 262.708 325.642 262.708C325.642 262.708 325.628 262.708 325.614 262.708H325.587C325.587 262.708 325.574 262.708 325.56 262.708C325.56 262.708 325.533 262.708 325.519 262.708C325.519 262.708 325.506 262.708 325.492 262.708C325.492 262.708 325.465 262.708 325.451 262.708C325.451 262.708 325.438 262.708 325.424 262.708C325.424 262.708 325.397 262.708 325.383 262.708C325.383 262.708 325.37 262.708 325.356 262.708C325.356 262.708 325.329 262.708 325.315 262.708C325.315 262.708 325.315 262.708 325.302 262.708C325.302 262.708 325.274 262.708 325.261 262.708C325.261 262.708 325.261 262.708 325.247 262.708C325.247 262.708 325.22 262.708 325.207 262.708C325.207 262.708 325.193 262.708 325.179 262.708H325.152C325.152 262.708 325.139 262.708 325.125 262.708C325.125 262.708 325.098 262.708 325.084 262.708C325.084 262.708 325.084 262.708 325.071 262.708C325.071 262.708 325.043 262.708 325.03 262.708H325.003C325.003 262.708 324.989 262.708 324.975 262.708C324.975 262.708 324.962 262.708 324.948 262.708C324.948 262.708 324.921 262.708 324.907 262.708H324.88C324.88 262.708 324.853 262.708 324.853 262.721H324.826C324.826 262.721 324.812 262.721 324.799 262.721H324.772C324.772 262.721 324.758 262.721 324.744 262.721H324.717C324.717 262.721 324.704 262.721 324.69 262.721C324.69 262.721 324.663 262.721 324.649 262.721C324.649 262.721 324.649 262.721 324.636 262.721C324.636 262.721 324.608 262.721 324.595 262.721C324.595 262.721 324.581 262.721 324.568 262.721H324.54C324.54 262.721 324.527 262.721 324.513 262.721C324.513 262.721 324.5 262.721 324.486 262.721C324.486 262.721 324.472 262.721 324.459 262.721H324.432C324.432 262.721 324.418 262.721 324.404 262.721H324.377H324.35C324.35 262.721 324.337 262.721 324.323 262.721C324.323 262.721 324.309 262.721 324.296 262.721C324.296 262.721 324.269 262.721 324.255 262.721C324.255 262.721 324.255 262.721 324.241 262.721C324.241 262.721 324.214 262.721 324.201 262.721C324.201 262.721 324.187 262.721 324.173 262.721H324.146C324.146 262.721 324.133 262.721 324.119 262.721H324.078C324.078 262.721 324.078 262.721 324.051 262.735C324.051 262.735 324.024 262.735 324.01 262.735C324.01 262.735 323.997 262.735 323.983 262.735H323.956C323.956 262.735 323.942 262.735 323.929 262.735C323.929 262.735 323.902 262.735 323.888 262.735H323.874C323.874 262.735 323.847 262.735 323.834 262.735C323.834 262.735 323.834 262.735 323.82 262.735C323.82 262.735 323.793 262.735 323.779 262.735C323.779 262.735 323.766 262.735 323.752 262.735C323.752 262.735 323.725 262.735 323.711 262.735C323.711 262.735 323.711 262.735 323.698 262.735C323.698 262.735 323.67 262.735 323.657 262.735C323.657 262.735 323.657 262.735 323.643 262.735C323.643 262.735 323.616 262.735 323.603 262.735C323.603 262.735 323.589 262.735 323.575 262.735C323.575 262.735 323.548 262.735 323.534 262.735C323.534 262.735 323.535 262.735 323.507 262.735C323.507 262.735 323.48 262.735 323.467 262.735C323.467 262.735 323.467 262.735 323.453 262.735C323.453 262.735 323.426 262.735 323.412 262.735C323.412 262.735 323.412 262.735 323.399 262.735C323.385 262.735 323.371 262.735 323.358 262.735C323.358 262.735 323.358 262.735 323.344 262.735C323.344 262.735 323.317 262.735 323.303 262.735C323.303 262.735 323.303 262.735 323.29 262.735C323.29 262.735 323.263 262.735 323.249 262.735C323.235 262.735 323.222 262.735 323.208 262.735C323.208 262.735 323.208 262.735 323.195 262.735C323.181 262.735 323.168 262.735 323.154 262.735C323.154 262.735 323.154 262.735 323.14 262.735C323.127 262.735 323.113 262.735 323.1 262.735C323.086 262.735 323.072 262.735 323.059 262.735C323.045 262.735 323.032 262.735 323.018 262.735C323.018 262.735 323.018 262.735 323.004 262.735C322.991 262.735 322.977 262.735 322.964 262.735C322.95 262.735 322.936 262.735 322.923 262.735C322.923 262.735 322.923 262.735 322.909 262.735C322.896 262.735 322.882 262.735 322.868 262.735C322.855 262.735 322.841 262.735 322.828 262.735C322.814 262.735 322.8 262.735 322.787 262.735C322.773 262.735 322.76 262.735 322.733 262.735C322.719 262.735 322.705 262.735 322.692 262.735C322.678 262.735 322.665 262.735 322.651 262.735C322.637 262.735 322.624 262.735 322.597 262.735C322.583 262.735 322.569 262.735 322.556 262.735C322.542 262.735 322.529 262.735 322.515 262.735C322.501 262.735 322.474 262.735 322.461 262.735C322.447 262.735 322.433 262.735 322.406 262.735C322.393 262.735 322.379 262.735 322.352 262.735C322.338 262.735 322.325 262.735 322.298 262.735C322.284 262.735 322.27 262.735 322.243 262.735C322.23 262.735 322.216 262.735 322.189 262.735C322.175 262.735 322.162 262.735 322.134 262.735C322.121 262.735 322.094 262.735 322.08 262.748C322.066 262.748 322.053 262.748 322.026 262.748C322.012 262.748 321.998 262.748 321.971 262.762C321.958 262.762 321.931 262.762 321.917 262.776C321.903 262.776 321.876 262.776 321.863 262.789C321.849 262.789 321.835 262.789 321.808 262.803C321.795 262.803 321.767 262.803 321.754 262.816C321.74 262.816 321.713 262.816 321.699 262.83C321.699 262.83 321.659 262.83 321.645 262.843C321.645 262.843 321.604 262.843 321.591 262.857C321.591 262.857 321.55 262.857 321.536 262.871C321.523 262.871 321.496 262.871 321.482 262.884C321.468 262.884 321.441 262.884 321.428 262.898C321.428 262.898 321.387 262.898 321.373 262.911C321.373 262.911 321.332 262.911 321.319 262.925C321.305 262.925 321.278 262.925 321.264 262.938C321.251 262.938 321.224 262.938 321.21 262.952C321.21 262.952 321.169 262.952 321.156 262.966C321.156 262.966 321.047 262.993 320.993 263.02C320.993 263.02 320.952 263.02 320.938 263.034C318.043 263.862 316.371 266.862 317.2 269.754C317.88 272.144 320.055 273.691 322.433 273.691C322.923 273.691 323.426 273.623 323.929 273.488C333.023 270.895 342.878 269.578 353.195 269.578C356.199 269.578 358.632 267.147 358.632 264.147C358.632 261.146 356.199 258.716 353.195 258.716L351.863 260.563ZM296.933 276.23C295.777 276.23 294.608 276.597 293.629 277.357C288.763 281.104 284.97 285.327 282.496 289.889C282.469 289.929 282.456 289.97 282.428 290.011C282.401 290.052 282.388 290.092 282.361 290.133C282.361 290.133 282.32 290.214 282.293 290.255C282.293 290.255 282.293 290.269 282.279 290.282C282.252 290.323 282.238 290.364 282.211 290.404C282.17 290.472 282.143 290.54 282.102 290.608C282.102 290.608 282.075 290.662 282.061 290.69C282.061 290.703 282.048 290.717 282.034 290.73C282.034 290.73 282.007 290.785 281.994 290.812C281.994 290.812 281.98 290.839 281.966 290.866C281.966 290.866 281.966 290.88 281.953 290.893C281.953 290.907 281.939 290.92 281.926 290.934C281.926 290.934 281.926 290.948 281.912 290.961C281.912 290.961 281.898 290.988 281.885 291.002C281.885 291.015 281.871 291.029 281.858 291.043C281.858 291.043 281.858 291.056 281.844 291.07C281.844 291.083 281.83 291.097 281.817 291.11C281.817 291.124 281.803 291.138 281.79 291.151C281.79 291.151 281.79 291.165 281.776 291.178C281.776 291.192 281.762 291.206 281.749 291.219C281.749 291.219 281.749 291.233 281.735 291.246C281.735 291.246 281.722 291.273 281.708 291.287C281.708 291.287 281.708 291.301 281.708 291.314C281.708 291.314 281.708 291.314 281.708 291.328C281.708 291.328 281.708 291.341 281.708 291.355C281.708 291.368 281.708 291.382 281.681 291.396C281.681 291.396 281.681 291.409 281.681 291.423C281.681 291.436 281.681 291.45 281.654 291.464C281.654 291.477 281.654 291.491 281.626 291.504C281.626 291.504 281.626 291.518 281.626 291.531C281.626 291.545 281.627 291.558 281.613 291.572C281.613 291.572 281.613 291.586 281.613 291.599C281.613 291.599 281.613 291.599 281.613 291.613C281.613 291.613 281.613 291.626 281.613 291.64C281.613 291.64 281.613 291.654 281.613 291.667C281.613 291.667 281.613 291.667 281.613 291.681C281.613 291.681 281.613 291.694 281.613 291.708C281.613 291.721 281.613 291.735 281.599 291.749C281.599 291.749 281.599 291.762 281.599 291.776C281.599 291.776 281.599 291.789 281.599 291.803C281.599 291.817 281.599 291.83 281.586 291.844C281.586 291.844 281.586 291.857 281.586 291.871C281.586 291.884 281.586 291.898 281.572 291.911C281.572 291.911 281.572 291.925 281.572 291.939C281.572 291.939 281.572 291.939 281.572 291.952C281.572 291.952 281.572 291.966 281.572 291.979C281.572 291.993 281.572 292.007 281.559 292.02C281.559 292.02 281.559 292.034 281.559 292.047C281.559 292.047 281.559 292.047 281.559 292.061C281.559 292.061 281.559 292.074 281.559 292.088C281.559 292.088 281.559 292.102 281.559 292.115C281.559 292.115 281.559 292.115 281.559 292.129C281.559 292.129 281.559 292.142 281.559 292.156C281.559 292.156 281.559 292.156 281.559 292.169C281.559 292.169 281.559 292.169 281.559 292.183C281.559 292.183 281.559 292.197 281.559 292.21C281.559 292.21 281.559 292.224 281.559 292.237C281.559 292.237 281.559 292.251 281.559 292.264C281.559 292.264 281.559 292.292 281.545 292.305C281.545 292.305 281.545 292.305 281.545 292.332C281.545 292.332 281.545 292.332 281.545 292.346C281.545 292.346 281.545 292.346 281.545 292.36C281.545 292.36 281.545 292.36 281.545 292.373C281.545 292.373 281.545 292.373 281.545 292.387C281.545 292.387 281.545 292.387 281.545 292.4C281.545 292.4 281.545 292.4 281.545 292.414C281.545 292.414 281.545 292.414 281.545 292.427C281.545 292.427 281.545 292.427 281.545 292.441C281.545 292.441 281.545 292.441 281.545 292.455C281.545 292.455 281.545 292.455 281.545 292.468C281.545 292.468 281.545 292.468 281.545 292.482C281.545 292.482 281.545 292.482 281.545 292.495C281.545 292.495 281.545 292.495 281.545 292.509C281.545 292.509 281.545 292.509 281.545 292.522C281.545 292.522 281.545 292.522 281.545 292.536C281.545 292.536 281.545 292.536 281.545 292.55C281.545 292.55 281.545 292.55 281.545 292.563C281.545 292.563 281.545 292.563 281.545 292.577C281.545 292.577 281.545 292.577 281.545 292.59C281.545 292.59 281.545 292.59 281.545 292.604C281.545 292.604 281.545 292.604 281.545 292.618C281.545 292.618 281.545 292.618 281.545 292.631C281.545 292.631 281.545 292.631 281.545 292.645C281.545 292.645 281.545 292.645 281.545 292.658C281.545 292.658 281.545 292.658 281.545 292.672C281.545 292.672 281.545 292.672 281.545 292.685C281.545 292.685 281.545 292.685 281.545 292.699C281.545 292.699 281.545 292.699 281.545 292.713C281.545 292.713 281.545 292.713 281.545 292.726C281.545 292.726 281.545 292.726 281.545 292.74C281.545 292.74 281.545 292.74 281.545 292.753C281.545 292.753 281.545 292.753 281.545 292.767C281.545 292.767 281.545 292.767 281.545 292.78C281.545 292.78 281.545 292.78 281.545 292.794C281.545 292.794 281.545 292.794 281.545 292.808C281.545 292.808 281.545 292.808 281.545 292.821C281.545 292.821 281.545 292.821 281.545 292.835C281.545 292.835 281.545 292.835 281.545 292.848C281.545 292.848 281.545 292.848 281.545 292.862C281.545 292.862 281.545 292.862 281.545 292.875C281.545 292.875 281.545 292.875 281.545 292.889C281.545 292.889 281.545 292.889 281.545 292.903C281.545 292.903 281.545 292.903 281.545 292.916C281.545 292.916 281.545 292.916 281.545 292.93V292.957C281.545 292.957 281.545 292.957 281.545 292.971C281.545 292.971 281.545 292.971 281.545 292.984C281.545 292.984 281.545 292.984 281.545 292.998C281.545 292.998 281.545 292.998 281.545 293.011C281.545 293.011 281.545 293.011 281.545 293.025C281.545 293.025 281.545 293.025 281.545 293.038C281.545 293.038 281.545 293.038 281.545 293.052C281.545 293.052 281.545 293.052 281.545 293.066C281.545 293.066 281.545 293.066 281.545 293.079C281.545 293.079 281.545 293.079 281.545 293.093C281.545 293.093 281.545 293.093 281.545 293.106C281.545 293.106 281.545 293.106 281.545 293.12C281.545 293.12 281.545 293.12 281.545 293.133C281.545 293.133 281.545 293.133 281.545 293.147C281.545 293.147 281.545 293.147 281.545 293.161C281.545 293.161 281.545 293.161 281.545 293.174C281.545 293.174 281.545 293.174 281.545 293.188C281.545 293.188 281.545 293.188 281.545 293.201C281.545 293.201 281.545 293.201 281.545 293.215C281.545 293.215 281.545 293.215 281.545 293.228C281.545 293.228 281.545 293.228 281.545 293.242C281.545 293.242 281.545 293.242 281.545 293.256C281.545 293.256 281.545 293.256 281.545 293.269C281.545 293.269 281.545 293.269 281.545 293.283C281.545 293.283 281.545 293.283 281.545 293.296C281.545 293.296 281.545 293.296 281.545 293.31C281.545 293.31 281.545 293.31 281.545 293.324C281.545 293.324 281.545 293.324 281.545 293.337C281.545 293.337 281.545 293.337 281.545 293.351C281.545 293.351 281.545 293.351 281.545 293.364C281.545 293.364 281.545 293.364 281.545 293.378C281.545 293.378 281.545 293.378 281.545 293.391C281.545 293.391 281.545 293.391 281.545 293.405C281.545 293.405 281.545 293.405 281.545 293.419C281.545 293.419 281.545 293.419 281.545 293.432C281.545 293.432 281.545 293.432 281.545 293.446C281.545 293.446 281.545 293.446 281.545 293.459C281.545 293.459 281.545 293.459 281.545 293.473C281.545 293.473 281.545 293.473 281.545 293.486C281.545 293.486 281.545 293.486 281.545 293.5C281.545 293.5 281.545 293.5 281.545 293.514C281.545 293.514 281.545 293.514 281.545 293.527C281.545 293.527 281.545 293.527 281.545 293.541C281.545 293.541 281.545 293.541 281.545 293.554C281.545 293.554 281.545 293.554 281.545 293.568C281.545 293.568 281.545 293.568 281.545 293.581C281.545 293.581 281.545 293.582 281.545 293.595C281.545 293.595 281.545 293.595 281.545 293.609C281.545 293.609 281.545 293.609 281.545 293.622C281.545 293.622 281.545 293.622 281.545 293.636C281.545 293.636 281.545 293.649 281.545 293.663C281.545 293.663 281.545 293.663 281.545 293.677C281.545 293.677 281.545 293.69 281.545 293.704C281.545 293.704 281.545 293.704 281.545 293.717C281.545 293.717 281.545 293.717 281.545 293.731C281.545 293.731 281.545 293.731 281.545 293.744C281.545 293.744 281.545 293.744 281.545 293.758C281.545 293.758 281.545 293.758 281.545 293.772C281.545 293.772 281.545 293.772 281.545 293.785C281.545 293.785 281.545 293.785 281.545 293.799C281.545 293.799 281.545 293.799 281.545 293.812C281.545 293.812 281.545 293.812 281.545 293.826C281.545 293.826 281.545 293.826 281.545 293.839C281.545 293.839 281.545 293.839 281.545 293.853C281.545 293.853 281.545 293.853 281.545 293.867C281.545 293.867 281.545 293.867 281.545 293.88C281.545 293.88 281.545 293.88 281.545 293.894C281.545 293.894 281.545 293.894 281.545 293.907C281.545 293.907 281.545 293.907 281.545 293.921V293.948C281.545 293.948 281.545 293.948 281.545 293.962C281.545 293.962 281.545 293.962 281.545 293.975C281.545 293.975 281.545 293.975 281.545 293.989C281.545 293.989 281.545 293.989 281.545 294.002C281.545 294.002 281.545 294.016 281.545 294.029C281.545 294.029 281.545 294.029 281.545 294.043C281.545 294.043 281.545 294.043 281.545 294.07C281.545 294.07 281.545 294.07 281.545 294.084C281.545 294.084 281.545 294.084 281.545 294.097C281.545 294.097 281.545 294.097 281.545 294.125C281.545 294.125 281.545 294.125 281.545 294.138C281.545 294.138 281.545 294.152 281.545 294.165C281.545 294.165 281.545 294.165 281.545 294.179C281.545 294.179 281.545 294.179 281.545 294.192C281.545 294.192 281.545 294.206 281.545 294.22C281.545 294.22 281.545 294.233 281.545 294.247C281.545 294.247 281.545 294.247 281.545 294.26C281.545 294.26 281.545 294.26 281.545 294.287C281.545 294.287 281.545 294.287 281.545 294.301C281.545 294.301 281.545 294.315 281.545 294.328C281.545 294.328 281.545 294.342 281.545 294.355C281.545 294.355 281.545 294.355 281.545 294.369C281.545 294.369 281.545 294.382 281.545 294.396C281.545 294.396 281.545 294.41 281.545 294.423C281.545 294.423 281.545 294.423 281.545 294.437C281.545 294.437 281.545 294.437 281.545 294.45C281.545 294.45 281.545 294.464 281.545 294.478C281.545 294.478 281.545 294.478 281.545 294.491V294.518C281.545 294.518 281.545 294.518 281.545 294.532C281.545 294.532 281.545 294.545 281.545 294.559V294.586C281.545 294.586 281.545 294.6 281.545 294.613C281.545 294.613 281.545 294.613 281.545 294.64C281.545 294.64 281.545 294.64 281.545 294.654C281.545 294.654 281.545 294.668 281.545 294.681C281.545 294.681 281.545 294.681 281.545 294.708C281.545 294.708 281.545 294.708 281.545 294.722C281.545 294.722 281.545 294.736 281.545 294.749C281.545 294.749 281.545 294.749 281.545 294.763C281.545 294.763 281.545 294.776 281.545 294.79C281.545 294.79 281.545 294.803 281.545 294.817C281.545 294.817 281.545 294.817 281.545 294.831C281.545 294.831 281.545 294.844 281.545 294.858C281.545 294.858 281.545 294.871 281.545 294.885C281.545 294.885 281.545 294.885 281.545 294.898C281.545 294.898 281.545 294.912 281.545 294.926C281.545 294.926 281.545 294.926 281.545 294.939C281.545 294.939 281.545 294.953 281.545 294.966C281.545 294.966 281.545 294.98 281.545 294.993C281.545 294.993 281.545 294.993 281.545 295.007C281.545 295.007 281.545 295.021 281.545 295.034C281.545 295.034 281.545 295.048 281.545 295.061C281.545 295.061 281.545 295.075 281.545 295.089C281.545 295.089 281.545 295.102 281.545 295.116C281.545 295.116 281.545 295.116 281.545 295.129C281.545 295.129 281.545 295.143 281.545 295.156C281.545 295.156 281.545 295.17 281.545 295.184C281.545 295.184 281.545 295.197 281.545 295.211C281.545 295.211 281.545 295.224 281.545 295.238C281.545 295.238 281.545 295.251 281.545 295.265C281.545 295.265 281.545 295.279 281.545 295.292C281.545 295.292 281.545 295.306 281.545 295.319C281.545 295.319 281.545 295.319 281.545 295.333C281.545 295.333 281.545 295.346 281.545 295.36C281.545 295.36 281.545 295.374 281.545 295.387C281.545 295.387 281.545 295.387 281.545 295.401C281.545 295.401 281.545 295.414 281.545 295.428C281.545 295.428 281.545 295.428 281.545 295.442C281.545 295.442 281.545 295.455 281.545 295.469C281.545 295.469 281.545 295.482 281.545 295.496C281.545 295.496 281.545 295.496 281.545 295.509C281.545 295.509 281.545 295.523 281.545 295.537C281.545 295.537 281.545 295.55 281.545 295.564C281.545 295.564 281.545 295.564 281.545 295.577C281.545 295.577 281.545 295.591 281.545 295.604C281.545 295.604 281.545 295.604 281.545 295.618C281.545 295.618 281.545 295.632 281.545 295.645C281.545 295.645 281.545 295.659 281.545 295.672V295.686C281.545 295.686 281.545 295.699 281.545 295.713C281.545 295.713 281.545 295.727 281.545 295.74C281.545 295.74 281.545 295.74 281.545 295.754C281.545 295.754 281.545 295.767 281.545 295.781C281.545 295.781 281.545 295.781 281.545 295.795C281.545 295.795 281.545 295.808 281.545 295.822C281.545 295.822 281.545 295.822 281.545 295.849C281.545 295.849 281.545 295.849 281.545 295.862C281.545 295.862 281.545 295.876 281.545 295.89C281.545 295.89 281.545 295.89 281.545 295.903C281.545 295.903 281.545 295.903 281.545 295.917C281.545 295.917 281.545 295.93 281.545 295.944C281.545 295.944 281.545 295.944 281.545 295.957C281.545 295.957 281.545 295.971 281.545 295.985C281.545 295.985 281.545 295.998 281.545 296.012C281.545 296.012 281.545 296.025 281.545 296.039C281.545 296.039 281.545 296.052 281.545 296.066C281.545 296.066 281.545 296.08 281.545 296.093C281.545 296.093 281.545 296.107 281.545 296.12C281.545 296.12 281.545 296.134 281.545 296.148C281.545 296.148 281.545 296.161 281.545 296.175C281.545 296.175 281.545 296.188 281.545 296.202C281.545 296.202 281.545 296.215 281.545 296.229C281.545 296.229 281.545 296.243 281.545 296.256C281.545 296.256 281.545 296.27 281.545 296.283C281.545 296.283 281.545 296.297 281.545 296.31C281.545 296.31 281.545 296.324 281.545 296.338C281.545 296.338 281.545 296.351 281.545 296.365C281.545 296.365 281.545 296.365 281.545 296.378C281.545 296.378 281.545 296.392 281.545 296.405C281.545 296.405 281.545 296.419 281.545 296.433C281.545 296.433 281.545 296.446 281.545 296.46C281.545 296.46 281.545 296.473 281.545 296.487C281.545 296.487 281.545 296.5 281.545 296.514C281.545 296.514 281.545 296.528 281.545 296.541C281.545 296.541 281.545 296.555 281.545 296.568C281.545 296.568 281.545 296.568 281.545 296.596C281.545 296.596 281.545 296.609 281.545 296.623C281.545 296.623 281.545 296.636 281.545 296.65C281.545 296.65 281.545 296.663 281.545 296.677C281.545 296.677 281.545 296.691 281.545 296.704V296.718C281.545 296.718 281.545 296.731 281.545 296.745C281.545 296.745 281.545 296.758 281.545 296.772C281.545 296.772 281.545 296.786 281.545 296.799C281.545 296.799 281.545 296.813 281.545 296.826C281.545 296.826 281.545 296.84 281.545 296.853C281.545 296.853 281.545 296.867 281.545 296.881C281.545 296.881 281.545 296.894 281.545 296.908C281.545 296.908 281.545 296.921 281.545 296.935C281.545 296.935 281.545 296.949 281.545 296.962C281.545 296.962 281.545 296.976 281.545 296.989C281.545 296.989 281.545 297.003 281.545 297.016C281.545 297.016 281.545 297.03 281.545 297.044C281.545 297.044 281.545 297.057 281.545 297.071C281.545 297.071 281.545 297.084 281.545 297.098C281.545 297.098 281.545 297.111 281.545 297.125C281.545 297.125 281.545 297.139 281.545 297.152C281.545 297.152 281.545 297.166 281.545 297.179C281.545 297.179 281.545 297.193 281.545 297.206C281.545 297.206 281.545 297.22 281.545 297.234C281.545 297.234 281.545 297.247 281.545 297.261C281.545 297.274 281.545 297.288 281.545 297.315C281.545 297.315 281.545 297.329 281.545 297.342C281.545 297.342 281.545 297.356 281.545 297.369C281.545 297.369 281.545 297.383 281.545 297.397C281.545 297.397 281.545 297.41 281.545 297.424C281.545 297.424 281.545 297.437 281.545 297.451C281.545 297.451 281.545 297.464 281.545 297.478C281.545 297.478 281.545 297.492 281.545 297.505C281.545 297.505 281.545 297.519 281.545 297.532C281.545 297.532 281.545 297.546 281.545 297.56C281.545 297.56 281.545 297.573 281.545 297.587C281.545 297.587 281.545 297.6 281.545 297.614C281.545 297.614 281.545 297.627 281.545 297.641C281.545 297.641 281.545 297.655 281.545 297.668C281.545 297.668 281.545 297.682 281.545 297.695C281.545 297.695 281.545 297.709 281.545 297.722C281.545 297.722 281.545 297.736 281.545 297.75C281.545 297.75 281.545 297.763 281.545 297.777C281.545 297.777 281.545 297.79 281.545 297.804C281.545 297.804 281.545 297.817 281.545 297.831C281.545 297.831 281.545 297.845 281.545 297.858C281.545 297.858 281.545 297.872 281.545 297.885C281.545 297.885 281.545 297.899 281.545 297.913C281.545 297.913 281.545 297.926 281.545 297.94C281.545 297.94 281.545 297.953 281.545 297.967C281.545 297.967 281.545 297.98 281.545 297.994C281.545 297.994 281.545 298.007 281.545 298.021C281.545 298.021 281.545 298.035 281.545 298.048V298.075C281.545 298.075 281.545 298.089 281.545 298.103C281.545 298.103 281.545 298.116 281.545 298.13C281.545 298.13 281.545 298.143 281.545 298.157C281.545 298.157 281.545 298.17 281.545 298.184C281.545 298.184 281.545 298.198 281.545 298.211C281.545 298.211 281.545 298.225 281.545 298.238C281.545 298.238 281.545 298.252 281.545 298.266C281.545 298.266 281.545 298.279 281.545 298.293C281.545 298.293 281.545 298.306 281.545 298.32C281.545 298.32 281.545 298.333 281.545 298.347C281.545 298.347 281.545 298.361 281.545 298.374C281.545 298.374 281.545 298.388 281.545 298.401C281.545 298.401 281.545 298.415 281.545 298.428C281.545 298.428 281.545 298.428 281.545 298.442C281.545 298.442 281.545 298.456 281.545 298.469C281.545 298.469 281.545 298.483 281.545 298.496C281.545 298.496 281.545 298.51 281.545 298.523C281.545 298.523 281.545 298.537 281.545 298.551C281.545 298.551 281.545 298.564 281.545 298.578C281.545 298.578 281.545 298.591 281.545 298.605C281.545 298.605 281.545 298.618 281.545 298.632C281.545 298.632 281.545 298.646 281.545 298.659C281.545 298.659 281.545 298.673 281.545 298.686C281.545 298.686 281.545 298.7 281.545 298.714C281.545 298.714 281.545 298.727 281.545 298.741C281.545 298.741 281.545 298.754 281.545 298.768C281.545 298.768 281.545 298.781 281.545 298.795C281.545 298.795 281.545 298.809 281.545 298.822C281.545 298.822 281.545 298.836 281.545 298.849C281.545 298.849 281.545 298.863 281.545 298.876C281.545 298.876 281.545 298.89 281.545 298.904C281.545 298.904 281.545 298.917 281.545 298.931C281.545 298.931 281.545 298.944 281.545 298.958C281.545 298.958 281.545 298.971 281.545 298.985C281.545 298.985 281.545 298.999 281.545 299.012C281.545 299.012 281.545 299.026 281.545 299.039V299.067C281.545 299.067 281.545 299.08 281.545 299.094C281.545 299.094 281.545 299.107 281.545 299.121C281.545 299.121 281.545 299.134 281.545 299.148C281.545 299.148 281.545 299.162 281.545 299.175C281.545 299.175 281.545 299.189 281.545 299.202C281.545 299.202 281.545 299.216 281.545 299.229C281.545 299.229 281.545 299.243 281.545 299.257V299.284V299.311C281.545 299.311 281.545 299.311 281.545 299.324V299.352C281.545 299.352 281.545 299.365 281.545 299.379C281.545 299.379 281.545 299.392 281.545 299.406C281.545 299.406 281.545 299.406 281.545 299.42C281.545 299.42 281.545 299.433 281.545 299.447V299.46C281.545 299.46 281.545 299.46 281.545 299.474C281.545 299.474 281.545 299.487 281.545 299.501C281.545 299.501 281.545 299.501 281.545 299.515C281.545 299.515 281.545 299.515 281.545 299.528C281.545 299.528 281.545 299.542 281.545 299.555V299.582V299.596C281.545 299.61 281.545 299.623 281.545 299.637V299.664C281.545 299.664 281.545 299.664 281.545 299.677C281.545 299.677 281.545 299.678 281.545 299.691C281.545 299.705 281.545 299.718 281.545 299.732C281.545 299.732 281.545 299.732 281.545 299.745C281.545 299.773 281.545 299.786 281.545 299.813C281.545 299.84 281.545 299.854 281.545 299.881C281.545 299.881 281.545 299.881 281.545 299.895C281.572 300.506 281.613 301.117 281.681 301.728C282.007 304.497 284.359 306.534 287.077 306.534C287.281 306.534 287.485 306.534 287.703 306.493C290.693 306.154 292.827 303.465 292.488 300.478C292.433 299.963 292.406 299.447 292.406 298.944C292.406 291.898 297.925 286.182 302.547 282.611C304.925 280.778 305.36 277.371 303.525 274.995C302.451 273.61 300.847 272.877 299.216 272.877L296.933 276.23ZM298.333 318.536C296.633 318.536 294.975 319.323 293.915 320.803C292.161 323.233 292.719 326.628 295.152 328.379C297.83 330.293 300.793 332.085 304.001 333.701C304.028 333.701 304.055 333.728 304.083 333.742C304.083 333.742 304.083 333.742 304.096 333.742C304.11 333.742 304.137 333.755 304.151 333.769C304.151 333.769 304.151 333.769 304.164 333.769C304.178 333.769 304.205 333.783 304.219 333.796C304.219 333.796 304.218 333.796 304.232 333.796C304.246 333.796 304.273 333.81 304.286 333.823C304.286 333.823 304.286 333.823 304.3 333.823C304.314 333.823 304.327 333.837 304.341 333.85C304.341 333.85 304.341 333.85 304.354 333.85C304.368 333.85 304.382 333.864 304.409 333.878C304.409 333.878 304.409 333.878 304.422 333.878C304.422 333.878 304.436 333.878 304.45 333.878C304.45 333.878 304.45 333.878 304.463 333.878C304.463 333.878 304.463 333.878 304.477 333.878C304.477 333.878 304.49 333.878 304.504 333.878C304.504 333.878 304.504 333.878 304.518 333.878C304.518 333.878 304.518 333.878 304.531 333.878C304.531 333.878 304.531 333.878 304.545 333.878C304.545 333.878 304.545 333.878 304.558 333.878C304.558 333.878 304.558 333.878 304.572 333.878C304.572 333.878 304.586 333.878 304.599 333.878C304.599 333.878 304.613 333.878 304.626 333.878C304.626 333.878 304.626 333.878 304.64 333.878C304.64 333.878 304.653 333.878 304.667 333.878C304.667 333.878 304.681 333.878 304.694 333.878C304.694 333.878 304.694 333.878 304.708 333.878C304.721 333.878 304.749 333.891 304.762 333.905C304.817 333.932 304.871 333.959 304.925 333.986C309.683 336.294 314.971 338.249 320.666 339.784C320.666 339.784 320.775 339.811 320.829 339.824H320.857C320.857 339.824 320.925 339.838 320.952 339.851C320.979 339.851 320.993 339.851 321.02 339.865C321.02 339.865 321.033 339.865 321.047 339.865C321.074 339.865 321.088 339.865 321.115 339.879C321.115 339.879 321.129 339.879 321.142 339.879H321.169C321.169 339.879 321.183 339.879 321.196 339.879C321.196 339.879 321.21 339.879 321.224 339.879C321.237 339.879 321.264 339.879 321.292 339.892C321.292 339.892 321.305 339.892 321.319 339.892C321.319 339.892 321.332 339.892 321.346 339.892C321.346 339.892 321.346 339.892 321.36 339.892C321.36 339.892 321.36 339.892 321.373 339.892C321.373 339.892 321.373 339.892 321.387 339.892C321.387 339.892 321.387 339.892 321.4 339.892C321.4 339.892 321.4 339.892 321.414 339.892C321.414 339.892 321.441 339.892 321.455 339.892C321.455 339.892 321.455 339.892 321.468 339.892C321.468 339.892 321.468 339.892 321.482 339.892C321.482 339.892 321.509 339.892 321.523 339.892H321.536C321.563 339.892 321.577 339.892 321.604 339.906C321.604 339.906 321.604 339.906 321.618 339.906C321.645 339.906 321.659 339.906 321.686 339.919C321.686 339.919 321.699 339.919 321.713 339.919C321.74 339.919 321.767 339.919 321.781 339.933C321.781 339.933 321.795 339.933 321.808 339.933C322.746 340.177 323.684 340.408 324.636 340.625C325.043 340.72 325.451 340.761 325.845 340.761C328.319 340.761 330.562 339.05 331.147 336.539C331.813 333.62 329.991 330.701 327.055 330.022C316.806 327.673 307.848 323.899 301.133 319.079C300.168 318.386 299.067 318.061 297.966 318.061L298.333 318.536ZM384.364 328.542C383.834 328.542 383.304 328.623 382.774 328.786C373.898 331.502 363.825 333.022 353.63 333.172C350.626 333.212 348.233 335.683 348.274 338.684C348.315 341.657 350.748 344.033 353.712 344.033C353.739 344.033 353.766 344.033 353.793 344.033C365.402 343.857 376.331 342.119 385.955 339.173C388.823 338.29 390.441 335.249 389.557 332.384C388.837 330.049 386.689 328.542 384.364 328.542ZM418.701 293.228C418.361 293.228 418.008 293.256 417.668 293.324C414.718 293.894 412.788 296.745 413.359 299.691C413.522 300.546 413.617 301.429 413.617 302.298C413.617 308.869 408.751 314.286 404.673 317.68C402.362 319.595 402.049 323.03 403.966 325.338C405.04 326.628 406.589 327.293 408.153 327.293C409.376 327.293 410.613 326.886 411.619 326.044C415.085 323.165 417.953 320.016 420.087 316.676C420.087 316.676 420.087 316.676 420.087 316.662C420.087 316.662 420.142 316.581 420.169 316.54C420.237 316.431 420.318 316.309 420.386 316.201C420.386 316.201 420.4 316.173 420.414 316.16C420.414 316.16 420.427 316.133 420.441 316.119C420.441 316.105 420.454 316.092 420.468 316.078C420.468 316.065 420.482 316.051 420.495 316.038C420.495 316.024 420.509 316.01 420.522 315.997C420.522 315.997 420.522 315.983 420.536 315.97C420.536 315.97 420.536 315.97 420.536 315.956C420.536 315.956 420.536 315.943 420.55 315.929C420.55 315.929 420.55 315.929 420.55 315.915C420.55 315.915 420.55 315.902 420.563 315.888C420.563 315.888 420.563 315.888 420.563 315.875C420.563 315.875 420.563 315.861 420.577 315.848C420.577 315.834 420.59 315.82 420.604 315.807C420.604 315.807 420.618 315.78 420.631 315.766C420.631 315.752 420.645 315.739 420.658 315.725C420.658 315.725 420.658 315.712 420.672 315.698C420.672 315.698 420.672 315.698 420.672 315.685C420.672 315.685 420.672 315.671 420.686 315.657C420.686 315.657 420.686 315.644 420.699 315.63C420.699 315.63 420.699 315.63 420.699 315.617C420.699 315.617 420.699 315.603 420.713 315.59C420.713 315.59 420.713 315.576 420.726 315.562C420.726 315.562 420.74 315.535 420.754 315.522C420.754 315.522 420.754 315.508 420.767 315.495C420.767 315.481 420.781 315.467 420.794 315.454C420.794 315.44 420.808 315.427 420.821 315.413C420.821 315.413 420.821 315.4 420.821 315.386C420.821 315.386 420.821 315.372 420.821 315.359C420.821 315.359 420.821 315.345 420.821 315.332C420.821 315.332 420.821 315.332 420.821 315.318C420.821 315.318 420.821 315.304 420.821 315.291C420.821 315.291 420.821 315.277 420.821 315.264C420.821 315.25 420.835 315.237 420.849 315.223C420.849 315.223 420.862 315.196 420.876 315.182C420.876 315.169 420.889 315.155 420.903 315.142C420.903 315.142 420.917 315.114 420.93 315.101C420.93 315.101 420.93 315.087 420.93 315.074C420.93 315.074 420.93 315.06 420.93 315.047C420.93 315.047 420.93 315.046 420.93 315.019C420.93 315.019 420.93 315.019 420.93 315.006C420.93 315.006 420.93 315.006 420.93 314.992C420.93 314.992 420.93 314.992 420.93 314.979C420.93 314.979 420.93 314.965 420.93 314.951C420.93 314.951 420.93 314.951 420.93 314.938C420.93 314.938 420.93 314.938 420.93 314.924C420.93 314.924 420.93 314.924 420.93 314.911C420.93 314.911 420.93 314.911 420.93 314.897C420.93 314.897 420.93 314.897 420.93 314.884C420.93 314.884 420.93 314.884 420.93 314.87C420.93 314.87 420.93 314.856 420.93 314.843C420.93 314.843 420.93 314.843 420.93 314.829C420.93 314.829 420.93 314.829 420.93 314.816C420.93 314.816 420.93 314.816 420.93 314.802C420.93 314.802 420.93 314.802 420.93 314.789C420.93 314.789 420.93 314.789 420.93 314.775C420.93 314.775 420.93 314.775 420.93 314.761C420.93 314.761 420.93 314.761 420.93 314.748C420.93 314.748 420.93 314.734 420.93 314.721V314.694C420.93 314.694 420.93 314.693 420.93 314.68C420.93 314.68 420.93 314.666 420.93 314.653C420.93 314.653 420.93 314.653 420.93 314.639C420.93 314.639 420.93 314.639 420.93 314.626C420.93 314.626 420.93 314.626 420.93 314.612C420.93 314.612 420.93 314.612 420.93 314.598C420.93 314.598 420.93 314.598 420.93 314.585C420.93 314.585 420.93 314.585 420.93 314.571C420.93 314.571 420.93 314.571 420.93 314.558C420.93 314.558 420.93 314.558 420.93 314.544C420.93 314.544 420.93 314.544 420.93 314.531C420.93 314.531 420.93 314.531 420.93 314.517C420.93 314.517 420.93 314.517 420.93 314.503C420.93 314.503 420.93 314.503 420.93 314.49C420.93 314.49 420.93 314.49 420.93 314.476C420.93 314.476 420.93 314.476 420.93 314.463C420.93 314.463 420.93 314.463 420.93 314.449C420.93 314.449 420.93 314.449 420.93 314.436C420.93 314.436 420.93 314.436 420.93 314.422C420.93 314.422 420.93 314.422 420.93 314.408C420.93 314.408 420.93 314.408 420.93 314.395C420.93 314.395 420.93 314.395 420.93 314.381C420.93 314.381 420.93 314.381 420.93 314.368C420.93 314.368 420.93 314.368 420.93 314.354C420.93 314.354 420.93 314.354 420.93 314.34C420.93 314.34 420.93 314.34 420.93 314.327C420.93 314.327 420.93 314.327 420.93 314.313C420.93 314.313 420.93 314.313 420.93 314.3C420.93 314.3 420.93 314.3 420.93 314.286C420.93 314.286 420.93 314.286 420.93 314.273C420.93 314.273 420.93 314.273 420.93 314.259C420.93 314.259 420.93 314.245 420.93 314.232C420.93 314.232 420.93 314.218 420.93 314.205C420.93 314.205 420.93 314.205 420.93 314.191C420.93 314.191 420.93 314.191 420.93 314.178C420.93 314.178 420.93 314.178 420.93 314.164C420.93 314.164 420.93 314.164 420.93 314.15C420.93 314.15 420.93 314.15 420.93 314.137C420.93 314.137 420.93 314.137 420.93 314.123C420.93 314.123 420.93 314.123 420.93 314.11C420.93 314.11 420.93 314.11 420.93 314.096C420.93 314.096 420.93 314.096 420.93 314.083C420.93 314.083 420.93 314.083 420.93 314.069C420.93 314.069 420.93 314.069 420.93 314.055C420.93 314.055 420.93 314.042 420.93 314.028C420.93 314.028 420.93 314.028 420.93 314.015C420.93 314.015 420.93 314.001 420.93 313.987C420.93 313.987 420.93 313.987 420.93 313.974C420.93 313.974 420.93 313.974 420.93 313.96C420.93 313.96 420.93 313.96 420.93 313.947C420.93 313.947 420.93 313.947 420.93 313.933C420.93 313.933 420.93 313.92 420.93 313.906C420.93 313.906 420.93 313.906 420.93 313.892C420.93 313.892 420.93 313.879 420.93 313.865C420.93 313.865 420.93 313.865 420.93 313.852C420.93 313.852 420.93 313.852 420.93 313.838C420.93 313.838 420.93 313.838 420.93 313.825V313.811C420.93 313.811 420.93 313.811 420.93 313.797C420.93 313.797 420.93 313.797 420.93 313.784C420.93 313.784 420.93 313.77 420.93 313.757C420.93 313.757 420.93 313.757 420.93 313.743C420.93 313.743 420.93 313.743 420.93 313.73C420.93 313.73 420.93 313.716 420.93 313.702C420.93 313.702 420.93 313.702 420.93 313.689C420.93 313.689 420.93 313.689 420.93 313.675C420.93 313.675 420.93 313.675 420.93 313.662C420.93 313.662 420.93 313.662 420.93 313.648V313.634C420.93 313.634 420.93 313.635 420.93 313.621C420.93 313.621 420.93 313.621 420.93 313.607C420.93 313.607 420.93 313.607 420.93 313.594C420.93 313.594 420.93 313.58 420.93 313.567C420.93 313.567 420.93 313.567 420.93 313.553C420.93 313.553 420.93 313.539 420.93 313.526C420.93 313.526 420.93 313.526 420.93 313.512C420.93 313.512 420.93 313.499 420.93 313.485C420.93 313.485 420.93 313.485 420.93 313.472C420.93 313.472 420.93 313.458 420.93 313.444C420.93 313.444 420.93 313.444 420.93 313.431C420.93 313.431 420.93 313.431 420.93 313.404C420.93 313.404 420.93 313.404 420.93 313.39C420.93 313.39 420.93 313.39 420.93 313.377C420.93 313.377 420.93 313.363 420.93 313.349C420.93 313.349 420.93 313.349 420.93 313.336V313.322C420.93 313.322 420.93 313.322 420.93 313.309C420.93 313.309 420.93 313.295 420.93 313.282C420.93 313.282 420.93 313.268 420.93 313.254C420.93 313.254 420.93 313.241 420.93 313.227C420.93 313.227 420.93 313.214 420.93 313.2C420.93 313.2 420.93 313.186 420.93 313.173C420.93 313.173 420.93 313.173 420.93 313.159C420.93 313.159 420.93 313.146 420.93 313.132C420.93 313.132 420.93 313.119 420.93 313.105C420.93 313.105 420.93 313.091 420.93 313.078C420.93 313.078 420.93 313.078 420.93 313.064C420.93 313.064 420.93 313.051 420.93 313.037C420.93 313.037 420.93 313.037 420.93 313.024C420.93 313.024 420.93 313.024 420.93 313.01C420.93 313.01 420.93 312.996 420.93 312.983C420.93 312.983 420.93 312.983 420.93 312.969C420.93 312.969 420.93 312.956 420.93 312.942C420.93 312.942 420.93 312.942 420.93 312.929C420.93 312.929 420.93 312.915 420.93 312.901C420.93 312.901 420.93 312.888 420.93 312.874C420.93 312.874 420.93 312.861 420.93 312.847C420.93 312.847 420.93 312.847 420.93 312.833C420.93 312.833 420.93 312.82 420.93 312.806C420.93 312.806 420.93 312.806 420.93 312.793C420.93 312.793 420.93 312.779 420.93 312.766C420.93 312.766 420.93 312.752 420.93 312.738C420.93 312.738 420.93 312.725 420.93 312.711C420.93 312.711 420.93 312.698 420.93 312.684C420.93 312.684 420.93 312.671 420.93 312.657C420.93 312.657 420.93 312.63 420.944 312.603C420.944 312.603 420.944 312.589 420.944 312.576C420.944 312.576 420.944 312.562 420.944 312.548C420.944 312.548 420.944 312.535 420.944 312.521C420.944 312.521 420.944 312.508 420.944 312.494C420.944 312.494 420.944 312.48 420.944 312.467C420.944 312.467 420.944 312.467 420.944 312.453C420.944 312.453 420.944 312.44 420.944 312.426C420.944 312.426 420.944 312.426 420.944 312.413C420.944 312.413 420.944 312.399 420.944 312.385C420.944 312.385 420.944 312.385 420.944 312.372C420.944 312.372 420.944 312.358 420.944 312.345C420.944 312.345 420.944 312.345 420.944 312.331C420.944 312.331 420.944 312.318 420.944 312.304C420.944 312.304 420.944 312.263 420.957 312.25C420.957 312.25 420.957 312.236 420.957 312.223C420.957 312.223 420.957 312.209 420.957 312.195C420.957 312.195 420.957 312.182 420.957 312.168C420.957 312.168 420.957 312.155 420.957 312.141C420.957 312.141 420.957 312.127 420.957 312.114C420.957 312.114 420.957 312.1 420.957 312.087C420.957 312.087 420.957 312.073 420.957 312.06C420.957 312.06 420.957 312.046 420.957 312.032C420.957 312.032 420.957 312.019 420.957 312.005C420.957 312.005 420.957 311.992 420.957 311.978C420.957 311.978 420.957 311.965 420.957 311.951C420.957 311.951 420.957 311.937 420.957 311.924C420.957 311.924 420.957 311.91 420.957 311.897C420.957 311.897 420.957 311.883 420.957 311.869C420.957 311.869 420.957 311.856 420.957 311.842C420.957 311.842 420.957 311.815 420.971 311.788C420.971 311.788 420.971 311.775 420.971 311.761C420.971 311.761 420.971 311.747 420.971 311.734C420.971 311.72 420.971 311.707 420.985 311.693C420.985 311.693 420.985 311.679 420.985 311.666C420.985 311.666 420.985 311.666 420.985 311.652C420.985 311.652 420.985 311.639 420.985 311.625C420.985 311.625 420.985 311.612 420.985 311.598C420.985 311.598 420.985 311.584 420.985 311.571C420.985 311.571 420.985 311.557 420.985 311.544C420.985 311.544 420.985 311.53 420.985 311.516C420.985 311.516 420.985 311.503 420.985 311.489C420.985 311.489 420.985 311.476 420.985 311.462C420.985 311.462 420.985 311.449 420.985 311.435C420.985 311.435 420.985 311.422 420.985 311.408C420.985 311.394 420.985 311.381 420.985 311.367C420.985 311.354 420.985 311.34 420.985 311.326C420.985 311.326 420.985 311.313 420.985 311.299C420.985 311.299 420.985 311.286 420.985 311.272C420.985 311.272 420.985 311.259 420.985 311.245C420.985 311.245 420.985 311.231 420.985 311.218C420.985 311.218 420.985 311.204 420.985 311.191C420.985 311.191 420.985 311.177 420.985 311.164C420.985 311.164 420.985 311.15 420.985 311.136C420.985 311.136 420.985 311.123 420.985 311.109C420.985 311.109 420.985 311.096 420.985 311.082C420.985 311.082 420.985 311.055 420.985 311.041C420.985 311.028 420.985 311.014 420.985 311.001C420.985 311.001 420.985 310.973 420.985 310.946C420.985 310.933 420.985 310.919 420.985 310.906C420.985 310.906 420.985 310.892 420.985 310.878C420.985 310.878 420.985 310.865 420.985 310.851C420.985 310.851 420.985 310.838 420.985 310.824C420.985 310.824 420.985 310.811 420.985 310.797C420.985 310.797 420.985 310.783 420.985 310.77C420.985 310.77 420.985 310.756 420.985 310.743C420.985 310.743 420.985 310.729 420.985 310.715C420.985 310.715 420.985 310.702 420.985 310.688C420.985 310.688 420.985 310.675 420.985 310.661C420.985 310.661 420.985 310.648 420.985 310.634C420.985 310.634 420.985 310.62 420.985 310.607C420.985 310.593 420.985 310.58 420.985 310.566C420.985 310.566 420.985 310.525 420.985 310.512C420.985 310.498 420.985 310.485 420.985 310.471C420.985 310.471 420.985 310.458 420.985 310.444C420.985 310.444 420.985 310.43 420.985 310.417C420.985 310.417 420.985 310.403 420.985 310.39C420.985 310.39 420.985 310.376 420.985 310.362C420.985 310.362 420.985 310.349 420.985 310.335C420.985 310.335 420.985 310.335 420.985 310.322C420.985 310.322 420.985 310.308 420.985 310.295C420.985 310.295 420.985 310.295 420.985 310.281C420.985 310.281 420.985 310.267 420.985 310.254C420.985 310.254 420.985 310.24 420.985 310.227C420.985 310.227 420.985 310.213 420.985 310.2C420.985 310.186 420.985 310.172 420.985 310.159C420.985 310.159 420.985 310.132 420.985 310.105C420.985 310.105 420.985 310.091 420.985 310.077C420.985 310.077 420.985 310.064 420.985 310.05C420.985 310.05 420.985 310.037 420.985 310.023C420.985 310.023 420.985 310.009 420.985 309.996C420.985 309.996 420.985 309.982 420.985 309.969C420.985 309.969 420.985 309.955 420.985 309.942C420.985 309.942 420.985 309.928 420.985 309.914C420.985 309.914 420.985 309.901 420.985 309.887C420.985 309.887 420.985 309.874 420.985 309.86C420.985 309.86 420.985 309.86 420.985 309.847C420.985 309.847 420.985 309.833 420.985 309.819C420.985 309.819 420.985 309.806 420.985 309.792C420.985 309.792 420.985 309.779 420.985 309.765C420.985 309.752 420.985 309.738 420.985 309.724C420.985 309.711 420.985 309.697 420.985 309.684C420.985 309.684 420.985 309.67 420.985 309.656C420.985 309.656 420.985 309.643 420.985 309.629C420.985 309.629 420.985 309.616 420.985 309.602C420.985 309.602 420.985 309.589 420.985 309.575C420.985 309.575 420.985 309.561 420.985 309.548C420.985 309.548 420.985 309.534 420.985 309.521C420.985 309.521 420.985 309.507 420.985 309.494C420.985 309.494 420.985 309.48 420.985 309.466C420.985 309.466 420.985 309.453 420.985 309.439C420.985 309.439 420.985 309.439 420.985 309.412C420.985 309.412 420.985 309.399 420.985 309.385C420.985 309.385 420.985 309.371 420.985 309.358C420.985 309.358 420.985 309.344 420.985 309.331V309.303C420.985 309.303 420.985 309.29 420.985 309.276C420.985 309.276 420.985 309.263 420.985 309.249C420.985 309.249 420.985 309.236 420.985 309.222C420.985 309.222 420.985 309.208 420.985 309.195C420.985 309.195 420.985 309.181 420.985 309.168C420.985 309.168 420.985 309.154 420.985 309.141C420.985 309.141 420.985 309.141 420.985 309.127C420.985 309.127 420.985 309.113 420.985 309.1C420.985 309.1 420.985 309.1 420.985 309.086C420.985 309.086 420.985 309.073 420.985 309.059C420.985 309.059 420.985 309.059 420.985 309.046C420.985 309.046 420.985 309.032 420.985 309.018C420.985 309.018 420.985 309.005 420.985 308.991C420.985 308.991 420.985 308.978 420.985 308.964C420.985 308.964 420.985 308.951 420.985 308.937C420.985 308.937 420.985 308.923 420.985 308.91C420.985 308.896 420.985 308.883 420.985 308.869C420.985 308.855 420.985 308.842 420.985 308.828C420.985 308.828 420.985 308.815 420.985 308.801C420.985 308.801 420.985 308.788 420.985 308.774C420.985 308.774 420.985 308.76 420.985 308.747C420.985 308.747 420.985 308.733 420.985 308.72C420.985 308.72 420.985 308.706 420.985 308.693C420.985 308.693 420.985 308.679 420.985 308.665C420.985 308.665 420.985 308.652 420.985 308.638C420.985 308.638 420.985 308.625 420.985 308.611C420.985 308.611 420.985 308.597 420.985 308.584C420.985 308.584 420.985 308.57 420.985 308.557C420.985 308.557 420.985 308.543 420.985 308.53C420.985 308.516 420.985 308.502 420.985 308.489C420.985 308.475 420.985 308.462 420.985 308.435C420.985 308.435 420.985 308.407 420.985 308.38C420.985 308.38 420.985 308.367 420.985 308.353C420.985 308.353 420.985 308.34 420.985 308.326C420.985 308.326 420.985 308.312 420.985 308.299C420.985 308.299 420.985 308.285 420.985 308.272C420.985 308.272 420.985 308.258 420.985 308.244C420.985 308.244 420.985 308.244 420.985 308.231C420.985 308.231 420.985 308.217 420.985 308.204C420.985 308.204 420.985 308.19 420.985 308.177C420.985 308.177 420.985 308.163 420.985 308.149C420.985 308.149 420.985 308.149 420.985 308.136C420.985 308.136 420.985 308.122 420.985 308.109C420.985 308.095 420.985 308.082 420.985 308.068C420.985 308.054 420.985 308.041 420.985 308.027C420.985 308.014 420.985 308 420.985 307.987C420.985 307.987 420.985 307.973 420.985 307.959C420.985 307.959 420.985 307.946 420.985 307.932C420.985 307.932 420.985 307.919 420.985 307.905C420.985 307.905 420.985 307.891 420.985 307.878C420.985 307.878 420.985 307.864 420.985 307.851C420.985 307.851 420.985 307.851 420.985 307.837C420.985 307.837 420.985 307.824 420.985 307.81C420.985 307.81 420.985 307.81 420.985 307.796C420.985 307.796 420.985 307.783 420.985 307.769C420.985 307.769 420.985 307.769 420.985 307.756C420.985 307.756 420.985 307.742 420.985 307.729C420.985 307.729 420.985 307.715 420.985 307.701C420.985 307.701 420.985 307.688 420.985 307.674C420.985 307.674 420.985 307.661 420.985 307.647C420.985 307.647 420.985 307.634 420.985 307.62C420.985 307.62 420.985 307.606 420.985 307.593C420.985 307.593 420.985 307.593 420.985 307.579C420.985 307.579 420.985 307.566 420.985 307.552C420.985 307.552 420.985 307.538 420.985 307.525C420.985 307.525 420.985 307.511 420.985 307.498C420.985 307.498 420.985 307.498 420.985 307.484C420.985 307.484 420.985 307.471 420.985 307.457C420.985 307.457 420.985 307.443 420.985 307.43C420.985 307.43 420.985 307.416 420.985 307.403V307.376C420.985 307.376 420.985 307.362 420.985 307.348C420.985 307.348 420.985 307.335 420.985 307.321C420.985 307.321 420.985 307.308 420.985 307.294C420.985 307.294 420.985 307.294 420.985 307.281C420.985 307.281 420.985 307.267 420.985 307.253C420.985 307.253 420.985 307.24 420.985 307.226C420.985 307.226 420.985 307.213 420.985 307.199C420.985 307.199 420.985 307.186 420.985 307.172C420.985 307.172 420.985 307.158 420.985 307.145C420.985 307.145 420.985 307.131 420.985 307.118C420.985 307.118 420.985 307.118 420.985 307.104C420.985 307.104 420.985 307.09 420.985 307.077C420.985 307.077 420.985 307.077 420.985 307.063C420.985 307.063 420.985 307.05 420.985 307.036C420.985 307.036 420.985 307.036 420.985 307.023C420.985 307.023 420.985 307.009 420.985 306.995C420.985 306.995 420.985 306.995 420.985 306.982C420.985 306.982 420.985 306.968 420.985 306.955C420.985 306.955 420.985 306.955 420.985 306.941C420.985 306.941 420.985 306.928 420.985 306.914C420.985 306.914 420.985 306.9 420.985 306.887C420.985 306.887 420.985 306.873 420.985 306.86C420.985 306.86 420.985 306.846 420.985 306.833C420.985 306.833 420.985 306.819 420.985 306.805C420.985 306.805 420.985 306.792 420.985 306.778C420.985 306.778 420.985 306.778 420.985 306.765C420.985 306.765 420.985 306.751 420.985 306.737C420.985 306.737 420.985 306.737 420.985 306.724C420.985 306.724 420.985 306.71 420.985 306.697C420.985 306.697 420.985 306.683 420.985 306.67C420.985 306.67 420.985 306.656 420.985 306.642C420.985 306.642 420.985 306.642 420.985 306.629C420.985 306.629 420.985 306.615 420.985 306.602C420.985 306.602 420.985 306.588 420.985 306.575C420.985 306.575 420.985 306.561 420.985 306.547C420.985 306.547 420.985 306.534 420.985 306.52C420.985 306.52 420.985 306.507 420.985 306.493C420.985 306.48 420.985 306.466 420.985 306.452C420.985 306.439 420.985 306.425 420.985 306.412C420.985 306.412 420.985 306.398 420.985 306.384C420.985 306.384 420.985 306.371 420.985 306.357C420.985 306.357 420.985 306.344 420.985 306.33C420.985 306.33 420.985 306.33 420.985 306.317C420.985 306.317 420.985 306.303 420.985 306.289C420.985 306.289 420.985 306.289 420.985 306.276C420.985 306.276 420.985 306.262 420.985 306.249C420.985 306.249 420.985 306.249 420.985 306.235C420.985 306.235 420.985 306.222 420.985 306.208C420.985 306.208 420.985 306.208 420.985 306.194C420.985 306.194 420.985 306.181 420.985 306.167C420.985 306.167 420.985 306.167 420.985 306.154C420.985 306.154 420.985 306.14 420.985 306.127C420.985 306.127 420.985 306.113 420.985 306.099C420.985 306.099 420.985 306.086 420.985 306.072C420.985 306.072 420.985 306.059 420.985 306.045C420.985 306.045 420.985 306.045 420.985 306.031C420.985 306.031 420.985 306.018 420.985 306.004C420.985 306.004 420.985 305.991 420.985 305.977C420.985 305.977 420.985 305.964 420.985 305.95C420.985 305.95 420.985 305.95 420.985 305.936C420.985 305.936 420.985 305.923 420.985 305.909C420.985 305.909 420.985 305.909 420.985 305.896C420.985 305.896 420.985 305.882 420.985 305.869C420.985 305.869 420.985 305.869 420.985 305.855C420.985 305.855 420.985 305.841 420.985 305.828C420.985 305.828 420.985 305.828 420.985 305.814C420.985 305.814 420.985 305.801 420.985 305.787C420.985 305.787 420.985 305.773 420.985 305.76C420.985 305.76 420.985 305.746 420.985 305.733C420.985 305.719 420.985 305.706 420.985 305.692C420.985 305.692 420.985 305.678 420.985 305.665C420.985 305.665 420.985 305.665 420.985 305.638C420.985 305.638 420.985 305.624 420.985 305.611C420.985 305.611 420.985 305.611 420.985 305.597C420.985 305.597 420.985 305.583 420.985 305.57C420.985 305.57 420.985 305.57 420.985 305.556C420.985 305.556 420.985 305.543 420.985 305.529C420.985 305.529 420.985 305.516 420.985 305.502C420.985 305.502 420.985 305.488 420.985 305.475C420.985 305.475 420.985 305.475 420.985 305.461C420.985 305.461 420.985 305.448 420.985 305.434C420.985 305.434 420.985 305.434 420.985 305.42C420.985 305.42 420.985 305.407 420.985 305.393C420.985 305.393 420.985 305.38 420.985 305.366C420.985 305.366 420.985 305.353 420.985 305.339C420.985 305.339 420.985 305.339 420.985 305.325C420.985 305.325 420.985 305.326 420.985 305.312C420.985 305.312 420.985 305.312 420.985 305.285C420.985 305.285 420.985 305.285 420.985 305.271C420.985 305.271 420.985 305.258 420.985 305.244C420.985 305.244 420.985 305.244 420.985 305.23C420.985 305.23 420.985 305.217 420.985 305.203C420.985 305.203 420.985 305.203 420.985 305.19C420.985 305.19 420.985 305.176 420.985 305.163C420.985 305.163 420.985 305.163 420.985 305.149C420.985 305.149 420.985 305.135 420.985 305.122C420.985 305.122 420.985 305.122 420.985 305.108C420.985 305.108 420.985 305.095 420.985 305.081C420.985 305.081 420.985 305.068 420.985 305.054C420.985 305.054 420.985 305.04 420.985 305.027C420.985 305.027 420.985 305.013 420.985 305C420.985 305 420.985 304.986 420.985 304.973C420.985 304.973 420.985 304.959 420.985 304.945C420.985 304.945 420.985 304.932 420.985 304.918C420.985 304.918 420.985 304.905 420.985 304.891C420.985 304.891 420.985 304.877 420.985 304.864C420.985 304.864 420.985 304.85 420.985 304.837C420.985 304.837 420.985 304.837 420.985 304.823C420.985 304.823 420.985 304.81 420.985 304.796C420.985 304.796 420.985 304.782 420.985 304.769C420.985 304.769 420.985 304.755 420.985 304.742C420.985 304.742 420.985 304.742 420.985 304.728C420.985 304.728 420.985 304.715 420.985 304.701C420.985 304.701 420.985 304.701 420.985 304.687C420.985 304.687 420.985 304.674 420.985 304.66C420.985 304.66 420.985 304.647 420.985 304.633C420.985 304.633 420.985 304.619 420.985 304.606V304.579V304.552V304.524V304.497V304.47V304.443V304.429V304.416V304.402C420.985 304.402 420.985 304.389 420.985 304.375C420.985 304.375 420.985 304.362 420.985 304.348C420.985 304.321 420.985 304.307 420.985 304.28C420.985 304.28 420.985 304.28 420.985 304.266C420.985 304.266 420.985 304.266 420.985 304.253C420.985 304.253 420.985 304.253 420.985 304.239C420.985 304.185 420.985 304.144 420.985 304.09C420.957 303.343 420.903 302.61 420.808 301.877C420.808 301.877 420.808 301.877 420.808 301.863C420.808 301.863 420.808 301.836 420.808 301.823C420.808 301.823 420.808 301.823 420.808 301.809C420.808 301.809 420.808 301.809 420.808 301.795C420.808 301.795 420.808 301.795 420.808 301.782C420.808 301.782 420.808 301.782 420.808 301.768C420.808 301.768 420.808 301.768 420.808 301.755C420.808 301.755 420.808 301.755 420.808 301.741C420.753 301.307 420.672 300.872 420.59 300.438C420.087 297.845 417.804 296.039 415.262 296.039L418.701 293.228ZM375.719 262.979C373.204 262.979 370.948 264.731 370.404 267.297C369.779 270.229 371.668 273.121 374.604 273.732C384.867 275.891 393.975 279.502 400.921 284.146C401.845 284.77 402.906 285.069 403.939 285.069C405.692 285.069 407.419 284.227 408.465 282.652C410.137 280.154 409.471 276.787 406.97 275.117C401.329 271.343 394.546 268.166 386.92 265.735C386.811 265.708 386.702 265.667 386.607 265.64C386.553 265.627 386.499 265.613 386.444 265.586C386.444 265.586 386.431 265.586 386.417 265.586C386.39 265.586 386.376 265.586 386.363 265.572C386.363 265.572 386.349 265.572 386.335 265.572C386.335 265.572 386.267 265.559 386.24 265.545C386.24 265.545 386.227 265.545 386.213 265.545C386.213 265.545 386.199 265.545 386.186 265.545C386.186 265.545 386.172 265.545 386.159 265.545C386.159 265.545 386.145 265.545 386.132 265.545C386.132 265.545 386.118 265.545 386.104 265.545C386.104 265.545 386.091 265.545 386.077 265.545C386.077 265.545 386.077 265.545 386.063 265.545C386.063 265.545 386.064 265.545 386.05 265.545H386.036C386.036 265.545 386.036 265.545 386.023 265.545C386.023 265.545 386.023 265.545 386.009 265.545C386.009 265.545 386.009 265.545 385.996 265.545H385.982C385.982 265.545 385.968 265.545 385.955 265.545C385.955 265.545 385.955 265.545 385.941 265.545C385.941 265.545 385.941 265.545 385.928 265.545C385.928 265.545 385.928 265.545 385.9 265.545C385.9 265.545 385.9 265.545 385.887 265.545C385.887 265.545 385.887 265.545 385.873 265.545C385.873 265.545 385.86 265.545 385.846 265.545C385.846 265.545 385.832 265.545 385.819 265.545C385.819 265.545 385.819 265.545 385.805 265.545C385.805 265.545 385.805 265.545 385.792 265.545C385.792 265.545 385.792 265.545 385.778 265.545C385.778 265.545 385.778 265.545 385.764 265.545C385.764 265.545 385.764 265.545 385.737 265.545C385.737 265.545 385.737 265.545 385.724 265.545C385.724 265.545 385.724 265.545 385.71 265.545H385.683C385.683 265.545 385.683 265.545 385.669 265.545C385.669 265.545 385.669 265.545 385.656 265.545C385.642 265.545 385.615 265.545 385.588 265.532C385.588 265.532 385.588 265.532 385.574 265.532C385.561 265.532 385.533 265.532 385.506 265.518C385.506 265.518 385.506 265.518 385.493 265.518C385.479 265.518 385.452 265.518 385.425 265.504C385.425 265.504 385.425 265.504 385.397 265.504C385.384 265.504 385.357 265.505 385.329 265.491C385.329 265.491 385.329 265.491 385.316 265.491C385.302 265.491 385.275 265.491 385.248 265.477C385.248 265.477 385.248 265.477 385.234 265.477C385.207 265.477 385.18 265.464 385.139 265.45C385.112 265.45 385.085 265.437 385.044 265.423C385.017 265.423 384.976 265.409 384.949 265.396C384.949 265.396 384.881 265.382 384.854 265.369C382.366 264.649 379.797 264.011 377.16 263.454C376.779 263.373 376.412 263.332 376.045 263.332L375.719 262.979Z" fill="#3D84BB"/>
<path d="M400.976 113.24C386.404 103.641 366.136 76.7996 366.136 76.7996C360.672 67.7846 354.351 58.9868 345.746 53.108C331.419 43.3326 317.445 53.5153 302.329 53.2438C270.018 52.66 247.141 27.6242 247.141 27.6242L293.303 1C293.303 1 326.716 26.3208 351.102 26.9318C360.78 27.1762 366.34 25.0718 368.76 23.8363C370.676 22.8451 372.729 22.0577 374.877 21.7455C387.11 19.9805 395.932 29.5386 395.932 29.5386C404.537 38.7437 411.198 50.3926 419.15 60.2358C429.875 73.5004 442.367 87.376 456.45 97.1785C464.51 102.786 474.352 106.479 483.283 110.538L436.549 137.488" fill="#E7EBEE"/>
<path d="M400.976 113.24C386.404 103.641 366.136 76.7996 366.136 76.7996C360.672 67.7846 354.351 58.9868 345.746 53.108C331.419 43.3326 317.445 53.5153 302.329 53.2438C270.018 52.66 247.141 27.6242 247.141 27.6242L293.303 1C293.303 1 326.716 26.3208 351.102 26.9318C360.78 27.1762 366.34 25.0718 368.76 23.8363C370.676 22.8451 372.729 22.0577 374.877 21.7455C387.11 19.9805 395.932 29.5386 395.932 29.5386C404.537 38.7437 411.198 50.3926 419.15 60.2358C429.875 73.5004 442.367 87.376 456.45 97.1785C464.51 102.786 474.352 106.479 483.283 110.538L436.549 137.488" stroke="#19374E" stroke-width="2" stroke-linecap="round" stroke-linejoin="round"/>
<path d="M469.743 204.191C452.548 239.029 423.893 266.591 386.009 277.072C372.293 280.86 357.884 283.453 343.652 284.213C343.652 284.213 389.108 281.62 416.512 234.78C437.283 199.263 436.562 137.475 436.562 137.475L483.296 110.524C483.296 110.524 485.688 171.892 469.757 204.178L469.743 204.191Z" fill="#3D84BB" stroke="#19374E" stroke-width="2" stroke-linecap="round" stroke-linejoin="round"/>
<path d="M416.513 234.794C389.122 281.62 343.653 284.227 343.653 284.227C343.653 284.227 317.255 251.412 305.415 231.861C293.589 212.324 283.272 195.461 265.057 148.051C247.372 102.039 247.141 27.6377 247.141 27.6377C247.141 27.6377 270.018 52.687 302.329 53.2572C317.445 53.5288 331.419 43.3325 345.746 53.1215C352.91 58.0227 358.673 65.0148 363.227 72.4414C367.4 79.2434 372.348 85.5566 377.758 91.4354C389.054 103.695 408.479 121.739 436.563 137.502C436.563 137.502 437.283 199.29 416.513 234.807V234.794Z" fill="white" stroke="#19374E" stroke-width="2" stroke-linecap="round" stroke-linejoin="round"/>
<path d="M347.187 273.135C338.882 262.518 318.002 234.821 310.2 221.936C310.2 221.936 293.344 192.244 275.836 145.784C266.09 119.92 261.808 82.1217 259.47 57.7241C259.32 56.1085 261.074 54.6965 262.433 55.579C288.315 72.3871 311.641 70.1605 321.768 68.4498C325.683 67.7846 334.015 66.1961 336.761 66.1961C338.596 66.1961 339.82 66.5627 341.233 67.5266C346.535 71.1381 350.205 77.7364 356.009 85.4616C358.415 88.6658 382.72 117.992 424.628 146.205C425.498 146.788 426.042 147.766 426.028 148.811C425.783 169.149 420.101 205.685 407.868 226.607C391.501 254.575 373.273 264.948 347.174 273.135H347.187Z" fill="white" stroke="#19374E" stroke-linecap="round" stroke-linejoin="round"/>
<path d="M358.903 180.378C350 164.248 335.319 155.301 326.075 160.379C316.846 165.457 316.574 182.645 325.464 198.774C334.367 214.904 349.048 223.851 358.292 218.773C367.508 213.695 367.78 196.507 358.903 180.378ZM352.555 208.536C347.485 211.292 338.649 204.884 332.791 194.212C326.945 183.541 326.307 172.652 331.363 169.896C336.42 167.127 345.269 173.535 351.114 184.206C356.973 194.878 357.612 205.766 352.555 208.536Z" fill="#3D84BB"/>
<path d="M324.881 118.942L328.524 108.257L348.778 119.743V158.953L335.796 151.228V125.093L324.881 118.942Z" fill="#3D84BB"/>
<path d="M200.366 98.2373C200.339 113.077 200.298 127.916 200.271 142.756C200.244 152.477 200.23 162.198 200.203 171.919C200.203 176.277 200.543 180.825 199.999 185.17C198.749 195.366 192.156 203.852 183.483 208.889C172.622 215.202 161.761 221.502 150.9 227.815C115.653 248.289 80.4056 268.749 45.1583 289.223C35.6702 294.735 26.2228 300.329 16.6804 305.76C8.71471 310.308 1.49671 307.552 1.19766 297.831C0.191755 265.518 0.966558 233.069 0.844218 200.743V197.647L0.898603 213.559L200.366 98.2373Z" fill="#3D84BB" stroke="#19374E" stroke-linecap="round" stroke-linejoin="round"/>
<path d="M200.433 69.3456L200.393 98.2236C178.072 111.122 155.766 124.033 133.446 136.931C97.5459 157.677 61.6597 178.436 25.7599 199.181C17.468 203.974 9.18968 208.766 0.89779 213.546C0.857011 203.879 0.816249 194.226 0.789062 184.559L200.447 69.332L200.433 69.3456Z" fill="#E7EBEE" stroke="#19374E" stroke-linecap="round" stroke-linejoin="round"/>
<path d="M200.475 52.782L200.434 69.3458L0.789569 184.573C0.762383 176.128 -0.501804 166.801 2.47512 158.709C4.9355 152.029 9.46205 145.987 15.5926 142.308C27.6498 135.085 39.9789 128.283 52.1585 121.277C75.0359 108.121 97.927 94.9518 120.804 81.7958C139.4 71.0972 157.996 60.3987 176.591 49.7001C182.844 46.1022 195.663 36.4762 199.713 47.8401C200.271 49.415 200.475 51.1257 200.461 52.7956L200.475 52.782Z" fill="#3D84BB" stroke="#19374E" stroke-linecap="round" stroke-linejoin="round"/>
<path d="M61.4683 224.013L61.4955 245.859L16.8552 271.845L16.8145 258.567L48.5955 240.048L48.514 225.792C50.6481 224.556 61.5771 216.125 61.4547 224.013H61.4683Z" fill="#E7EBEE"/>
<path d="M32.1484 265.803L32.2299 278.715C28.7637 280.724 25.2838 283.304 21.6 284.865C20.7029 285.245 19.7242 285.639 18.7454 285.272C15.3743 284.01 16.8696 276.977 16.856 274.709L32.1484 265.817V265.803Z" fill="#E7EBEE"/>
<path d="M31.4016 235.676L31.4696 247.162L16.8025 255.702C16.8025 251.588 16.2859 247.759 18.6919 244.216C21.5193 240.061 27.2421 238.065 31.388 235.676H31.4016Z" fill="#E7EBEE"/>
<path d="M61.5094 248.723C61.5094 252.919 62.2298 257.331 59.987 261.078C57.6761 264.948 53.068 266.658 49.357 268.804L49.2891 255.838L61.523 248.71L61.5094 248.723Z" fill="#E7EBEE"/>
<path d="M46.7756 257.29L46.8572 270.243L34.732 277.275L34.6504 264.35L46.7756 257.29Z" fill="#E7EBEE"/>
<path d="M46.0411 227.218L46.1091 238.636L33.9703 245.709L33.9023 234.237L46.0411 227.218Z" fill="#E7EBEE"/>
</svg>
