<svg width="345" height="348" viewBox="0 0 345 348" fill="none" xmlns="http://www.w3.org/2000/svg">
<path d="M166.626 197.766H148.134H141.93C141.93 197.745 141.93 197.729 141.93 197.708V186.526H148.134H164.217C165.488 186.526 166.521 184.688 166.521 182.417C166.521 180.146 165.488 178.308 164.217 178.308H148.134H141.93V166.345H148.129H166.626C168.643 166.345 170.278 164.507 170.278 162.236C170.278 159.965 168.643 158.126 166.626 158.126H140.783C136.74 158.126 133.461 161.803 133.433 166.35H133.428V197.718C133.428 197.739 133.428 197.755 133.428 197.776C133.456 202.324 136.735 206 140.779 206H166.626C168.643 206 170.278 204.162 170.278 201.891C170.278 199.62 168.643 197.766 166.626 197.766Z" fill="#37BCDB"/>
<path d="M183.977 204.891C183.977 205.493 183.532 205.985 182.987 205.985H176.21C175.665 205.985 175.221 205.493 175.221 204.891V159.215C175.221 158.613 175.665 158.122 176.21 158.122H182.987C183.532 158.122 183.977 158.613 183.977 159.215V204.891Z" fill="#3384BD"/>
<path d="M223.415 159.336C223.415 159.97 222.961 160.482 222.397 160.482H215.61C215.046 160.482 214.592 159.97 214.592 159.336C214.592 158.702 215.046 158.19 215.61 158.19H222.397C222.961 158.19 223.415 158.702 223.415 159.336Z" fill="#33B3D4"/>
<path d="M223.575 165.046C223.575 165.753 223.063 166.329 222.437 166.329H214.852C214.221 166.329 213.715 165.753 213.715 165.046C213.715 164.338 214.226 163.762 214.852 163.762H222.442C223.068 163.762 223.575 164.338 223.575 165.046Z" fill="#0897D2"/>
<path d="M219.263 170.665C219.263 171.373 218.752 171.949 218.126 171.949H210.536C209.905 171.949 209.398 171.373 209.398 170.665C209.398 169.958 209.91 169.382 210.536 169.382H218.126C218.752 169.382 219.263 169.958 219.263 170.665Z" fill="#30B3D3"/>
<path d="M212.473 165.046C212.473 165.753 211.962 166.329 211.336 166.329H208.22C207.589 166.329 207.082 165.753 207.082 165.046C207.082 164.338 207.593 163.762 208.22 163.762H211.336C211.962 163.762 212.473 164.338 212.473 165.046Z" fill="#1BACE3"/>
<path d="M207.804 170.665C207.804 171.373 207.292 171.949 206.666 171.949H204.511C203.88 171.949 203.373 171.373 203.373 170.665C203.373 169.958 203.884 169.382 204.511 169.382H206.666C207.292 169.382 207.804 169.958 207.804 170.665Z" fill="#075DAA"/>
<path d="M214.585 176.259C214.585 176.882 214.136 177.384 213.586 177.384H208.276C207.727 177.384 207.277 176.882 207.277 176.259C207.277 175.636 207.727 175.134 208.276 175.134H213.586C214.141 175.134 214.585 175.641 214.585 176.259Z" fill="#055CA9"/>
<path d="M211.194 181.789C211.194 182.486 210.692 183.046 210.076 183.046H204.484C203.867 183.046 203.365 182.481 203.365 181.789C203.365 181.092 203.867 180.532 204.484 180.532H210.076C210.697 180.532 211.194 181.092 211.194 181.789Z" fill="#317FB8"/>
<path d="M214.872 187.298C214.872 188.005 214.361 188.581 213.735 188.581H210.542C209.911 188.581 209.404 188.005 209.404 187.298C209.404 186.59 209.916 186.014 210.542 186.014H213.735C214.361 186.014 214.872 186.59 214.872 187.298Z" fill="#26ADE4"/>
<path d="M219.502 193.049C219.502 193.757 218.991 194.333 218.365 194.333H216.448C215.817 194.333 215.311 193.757 215.311 193.049C215.311 192.341 215.822 191.766 216.448 191.766H218.365C218.996 191.771 219.502 192.341 219.502 193.049Z" fill="#34B3D1"/>
<path d="M213.596 193.049C213.596 193.757 213.085 194.333 212.458 194.333H209.462C208.831 194.333 208.324 193.757 208.324 193.049C208.324 192.341 208.836 191.766 209.462 191.766H212.458C213.085 191.771 213.596 192.341 213.596 193.049Z" fill="#0897D2"/>
<path d="M223.416 198.6C223.416 199.298 222.914 199.857 222.297 199.857H205.603C204.986 199.857 204.484 199.292 204.484 198.6C204.484 197.903 204.986 197.343 205.603 197.343H222.297C222.914 197.343 223.416 197.908 223.416 198.6Z" fill="#125FAD"/>
<path d="M223.414 204.241C223.414 204.949 222.903 205.525 222.277 205.525H211.733C211.102 205.525 210.596 204.949 210.596 204.241C210.596 203.534 211.107 202.958 211.733 202.958H222.277C222.903 202.963 223.414 203.534 223.414 204.241Z" fill="#0897D2"/>
<path d="M203.526 177.6C203.526 177.6 205.691 177.827 205.59 176.37C205.49 174.912 204.486 174.637 203.258 175.012C202.03 175.387 199.334 177.722 199.334 181.963C199.334 184.672 201.007 188.866 203.86 188.866C206.713 188.866 206.556 188.866 206.556 188.866C206.556 188.866 208.071 189.019 208.071 187.562C208.071 186.104 207.378 186.014 206.508 186.014C205.638 186.014 203.698 186.014 203.698 186.014C203.698 186.014 201.136 185.053 201.246 181.662C201.251 178.926 202.833 177.606 203.526 177.6Z" fill="#1D94D2"/>
<path d="M199.331 171.611C199.331 171.611 199.498 171.331 199.866 171.236C200.234 171.141 201.616 172.06 200.564 173.628C199.513 175.197 197.477 177.394 197.477 182.687C197.477 187.979 201.033 191.771 204.871 191.771C206.916 191.771 206.653 192.674 206.653 193.356C206.653 194.037 206.424 194.333 203.962 194.333C201.496 194.333 195.584 190.408 195.584 182.475C195.579 174.532 199.331 171.611 199.331 171.611Z" fill="#33B3D4"/>
<path d="M203.372 166.324C203.372 166.324 205.551 166.54 205.59 165.04C205.623 163.54 204.696 163.535 202.894 163.757C201.092 163.984 196.384 164.824 193.197 171.938C190.769 177.389 191.299 181.461 191.299 183.864C191.299 186.262 191.586 186.231 192.236 186.199C192.891 186.167 192.919 185.845 192.977 184.345C193.034 182.84 192.408 178.71 194.654 172.952C195.39 171.067 198.043 166.641 203.372 166.324Z" fill="#347FB9"/>
<path d="M210.939 158.121C210.939 158.121 213.171 157.852 213.209 159.516C213.209 160.794 212.487 160.968 210.671 160.968C208.85 160.968 202.178 160.968 202.178 160.968C202.178 160.968 194.139 162.014 190.502 172.894C188.91 178.334 188.872 186.996 190.502 190.667C191.07 191.734 191.109 192.706 190.349 193.055C189.589 193.403 188.642 192.542 187.921 188.877C187.199 185.211 186.482 175.863 190.573 167.628C193.264 162.637 197.016 158.581 202.173 158.195C207.335 157.804 210.939 158.121 210.939 158.121Z" fill="#0897D2"/>
<path d="M192.67 190.683C192.67 190.683 191.91 189.225 192.871 188.576C193.831 187.926 194.295 188.935 194.725 190.049C195.155 191.169 197.373 195.114 200.513 196.53C202.86 197.496 202.893 198.13 202.86 199.139C202.826 200.148 201.283 200.296 200.284 199.699C199.29 199.102 194.424 196.049 192.67 190.683Z" fill="#1BACE3"/>
<path d="M195.284 201.711C195.284 201.711 194.887 201.151 195.284 200.481C195.68 199.81 196.407 199.958 197.105 200.702C197.798 201.447 201.282 203.248 204.489 202.963C207.629 202.678 208.552 202.868 208.518 204.247C208.485 205.625 207.218 205.736 205.588 205.773C203.954 205.805 197.898 205.287 195.284 201.711Z" fill="#317FB8"/>
<path d="M191.034 196.757C191.034 196.757 190.408 195.611 191.034 194.951C191.66 194.291 192.568 195.273 192.927 195.854C193.285 196.435 195.192 198.162 194.265 199.646C193.873 200.127 193.185 199.847 192.64 199.144C192.086 198.447 191.034 196.757 191.034 196.757Z" fill="#31B3D6"/>
<path d="M345 181.5C345 273.455 270.455 348 178.5 348C86.5446 348 12 273.455 12 181.5C12 89.5446 86.5446 15 178.5 15C270.455 15 345 89.5446 345 181.5ZM27.6751 181.5C27.6751 264.798 95.2017 332.325 178.5 332.325C261.798 332.325 329.325 264.798 329.325 181.5C329.325 98.2017 261.798 30.6751 178.5 30.6751C95.2017 30.6751 27.6751 98.2017 27.6751 181.5Z" fill="#3384BD"/>
<mask id="path-23-inside-1_761_20202" fill="white">
<path d="M297 181.5C297 246.946 243.946 300 178.5 300C113.054 300 60 246.946 60 181.5C60 116.054 113.054 63 178.5 63C243.946 63 297 116.054 297 181.5ZM85.4436 181.5C85.4436 232.894 127.106 274.556 178.5 274.556C229.894 274.556 271.556 232.894 271.556 181.5C271.556 130.106 229.894 88.4436 178.5 88.4436C127.106 88.4436 85.4436 130.106 85.4436 181.5Z"/>
</mask>
<path d="M297 181.5C297 246.946 243.946 300 178.5 300C113.054 300 60 246.946 60 181.5C60 116.054 113.054 63 178.5 63C243.946 63 297 116.054 297 181.5ZM85.4436 181.5C85.4436 232.894 127.106 274.556 178.5 274.556C229.894 274.556 271.556 232.894 271.556 181.5C271.556 130.106 229.894 88.4436 178.5 88.4436C127.106 88.4436 85.4436 130.106 85.4436 181.5Z" stroke="#3384BD" stroke-width="10" stroke-dasharray="10 10" mask="url(#path-23-inside-1_761_20202)"/>
<g filter="url(#filter0_dddd_761_20202)">
<circle cx="84.5" cy="86.5" r="71" fill="white"/>
</g>
<circle cx="86.5" cy="57" r="27.5" fill="#15374F"/>
<path d="M136.5 85.5C136.5 98.7608 131.232 111.479 121.855 120.855C112.479 130.232 99.7608 135.5 86.5 135.5C73.2392 135.5 60.5215 130.232 51.1447 120.855C41.7678 111.479 36.5 98.7608 36.5 85.5L86.5 85.5H136.5Z" fill="#3384BD"/>
<defs>
<filter id="filter0_dddd_761_20202" x="5.5" y="13.5" width="158" height="173" filterUnits="userSpaceOnUse" color-interpolation-filters="sRGB">
<feFlood flood-opacity="0" result="BackgroundImageFix"/>
<feColorMatrix in="SourceAlpha" type="matrix" values="0 0 0 0 0 0 0 0 0 0 0 0 0 0 0 0 0 0 127 0" result="hardAlpha"/>
<feOffset dy="1"/>
<feGaussianBlur stdDeviation="1.5"/>
<feColorMatrix type="matrix" values="0 0 0 0 0 0 0 0 0 0 0 0 0 0 0 0 0 0 0.1 0"/>
<feBlend mode="normal" in2="BackgroundImageFix" result="effect1_dropShadow_761_20202"/>
<feColorMatrix in="SourceAlpha" type="matrix" values="0 0 0 0 0 0 0 0 0 0 0 0 0 0 0 0 0 0 127 0" result="hardAlpha"/>
<feOffset dy="5"/>
<feGaussianBlur stdDeviation="2.5"/>
<feColorMatrix type="matrix" values="0 0 0 0 0 0 0 0 0 0 0 0 0 0 0 0 0 0 0.09 0"/>
<feBlend mode="normal" in2="effect1_dropShadow_761_20202" result="effect2_dropShadow_761_20202"/>
<feColorMatrix in="SourceAlpha" type="matrix" values="0 0 0 0 0 0 0 0 0 0 0 0 0 0 0 0 0 0 127 0" result="hardAlpha"/>
<feOffset dy="12"/>
<feGaussianBlur stdDeviation="3.5"/>
<feColorMatrix type="matrix" values="0 0 0 0 0 0 0 0 0 0 0 0 0 0 0 0 0 0 0.05 0"/>
<feBlend mode="normal" in2="effect2_dropShadow_761_20202" result="effect3_dropShadow_761_20202"/>
<feColorMatrix in="SourceAlpha" type="matrix" values="0 0 0 0 0 0 0 0 0 0 0 0 0 0 0 0 0 0 127 0" result="hardAlpha"/>
<feOffset dy="21"/>
<feGaussianBlur stdDeviation="4"/>
<feColorMatrix type="matrix" values="0 0 0 0 0 0 0 0 0 0 0 0 0 0 0 0 0 0 0.01 0"/>
<feBlend mode="normal" in2="effect3_dropShadow_761_20202" result="effect4_dropShadow_761_20202"/>
<feBlend mode="normal" in="SourceGraphic" in2="effect4_dropShadow_761_20202" result="shape"/>
</filter>
</defs>
</svg>
