<svg width="200" height="186" viewBox="0 0 200 186" fill="none" xmlns="http://www.w3.org/2000/svg">
<path d="M200 142.253H0V142.346H200V142.253Z" fill="#A1C6E1"/>
<path d="M94.804 125.662H17.5644C16.3056 125.662 15.2812 124.709 15.2812 123.538V22.5658C15.2812 21.3951 16.3056 20.4424 17.5644 20.4424H94.804C96.0624 20.4424 97.0868 21.3951 97.0868 22.5658V123.538C97.0868 124.709 96.0624 125.662 94.804 125.662ZM17.5644 20.5358C16.3604 20.5358 15.3812 21.4464 15.3812 22.5661V123.539C15.3812 124.659 16.3604 125.569 17.5644 125.569H94.804C96.0076 125.569 96.9868 124.659 96.9868 123.539V22.5658C96.9868 21.4464 96.0076 20.5354 94.804 20.5354L17.5644 20.5358Z" fill="#A1C6E1"/>
<path d="M181.323 125.662H104.084C102.825 125.662 101.801 124.709 101.801 123.538V22.5658C101.801 21.3951 102.825 20.4424 104.084 20.4424H181.323C182.582 20.4424 183.606 21.3951 183.606 22.5658V123.538C183.606 124.709 182.582 125.662 181.323 125.662ZM104.084 20.5358C102.88 20.5358 101.901 21.4464 101.901 22.5661V123.539C101.901 124.659 102.88 125.569 104.084 125.569H181.323C182.527 125.569 183.506 124.659 183.506 123.539V22.5658C183.506 21.4464 182.527 20.5354 181.323 20.5354L104.084 20.5358Z" fill="#A1C6E1"/>
<path d="M179.959 145.795H167.332V145.888H179.959V145.795Z" fill="#A1C6E1"/>
<path d="M134.133 144.785H120.77V144.878H134.133V144.785Z" fill="#A1C6E1"/>
<path d="M183.61 149.249H158.637V149.342H183.61V149.249Z" fill="#A1C6E1"/>
<path d="M28.6784 148.624H20.9844V148.717H28.6784V148.624Z" fill="#A1C6E1"/>
<path d="M44.359 148.624H32.2422V148.717H44.359V148.624Z" fill="#A1C6E1"/>
<path d="M97.6544 147.053H75.832V147.146H97.6544V147.053Z" fill="#A1C6E1"/>
<path d="M149.859 142.252V77.6143H132.436V142.252H149.859Z" fill="#C0D9EB"/>
<path d="M148.902 93.7571V79.501H133.392V93.7571H148.902Z" fill="#EBF3F8"/>
<path d="M144.581 79.3125H137.715C137.715 80.129 138.426 80.7908 139.304 80.7908H142.992C143.869 80.7905 144.581 80.1287 144.581 79.3125Z" fill="#C0D9EB"/>
<path d="M148.902 109.294V95.0381H133.392V109.294H148.902Z" fill="#EBF3F8"/>
<path d="M148.902 124.829V110.573H133.392V124.829H148.902Z" fill="#EBF3F8"/>
<path d="M148.902 140.365V126.108H133.392V140.365H148.902Z" fill="#EBF3F8"/>
<path d="M144.581 94.8486H137.715C137.715 95.6648 138.426 96.327 139.304 96.327H142.992C143.869 96.327 144.581 95.6648 144.581 94.8486Z" fill="#C0D9EB"/>
<path d="M144.581 110.384H137.715C137.715 111.2 138.426 111.862 139.304 111.862H142.992C143.869 111.862 144.581 111.2 144.581 110.384Z" fill="#C0D9EB"/>
<path d="M144.581 125.92H137.715C137.715 126.736 138.426 127.398 139.304 127.398H142.992C143.869 127.398 144.581 126.736 144.581 125.92Z" fill="#C0D9EB"/>
<path d="M158.559 142.252V77.6143H149.856V142.252H158.559Z" fill="#EBF3F8"/>
<path d="M168.855 142.252V77.6143H151.432V142.252H168.855Z" fill="#C0D9EB"/>
<path d="M167.898 93.7571V79.501H152.388V93.7571H167.898Z" fill="#EBF3F8"/>
<path d="M163.577 79.3125H156.711C156.711 80.129 157.423 80.7908 158.301 80.7908H161.988C162.865 80.7905 163.577 80.1287 163.577 79.3125Z" fill="#C0D9EB"/>
<path d="M167.898 109.294V95.0381H152.388V109.294H167.898Z" fill="#EBF3F8"/>
<path d="M167.898 124.829V110.573H152.388V124.829H167.898Z" fill="#EBF3F8"/>
<path d="M167.898 140.365V126.108H152.388V140.365H167.898Z" fill="#EBF3F8"/>
<path d="M163.577 94.8486H156.711C156.711 95.6648 157.423 96.327 158.301 96.327H161.988C162.865 96.327 163.577 95.6648 163.577 94.8486Z" fill="#C0D9EB"/>
<path d="M163.577 110.384H156.711C156.711 111.2 157.423 111.862 158.301 111.862H161.988C162.865 111.862 163.577 111.2 163.577 110.384Z" fill="#C0D9EB"/>
<path d="M163.577 125.92H156.711C156.711 126.736 157.423 127.398 158.301 127.398H161.988C162.865 127.398 163.577 126.736 163.577 125.92Z" fill="#C0D9EB"/>
<path d="M177.555 142.252V77.6143H168.852V142.252H177.555Z" fill="#EBF3F8"/>
<path d="M166.671 64.707H161.582V77.6143H166.671V64.707Z" fill="#EBF3F8"/>
<path d="M145.602 77.6143H165.01L167.9 56.7246H148.492L145.602 77.6143Z" fill="#C0D9EB"/>
<path d="M143.387 77.6143H164.516L167.406 56.7246H146.277L143.387 77.6143Z" fill="#C0D9EB"/>
<path d="M162.976 75.9682L165.41 58.3711H147.821L145.387 75.9682H162.976Z" fill="#EBF3F8"/>
<path d="M158.491 70.2418C160.561 68.4368 160.856 65.6011 159.149 63.9083C157.442 62.2154 154.381 62.3064 152.311 64.1115C150.241 65.9166 149.946 68.7522 151.653 70.4451C153.36 72.1379 156.421 72.0469 158.491 70.2418Z" fill="#C0D9EB"/>
<path d="M72.1618 142.253H126.441L126.441 35.5678H72.1618L72.1618 142.253Z" fill="#C0D9EB"/>
<path d="M70.9587 142.253H125.238L125.238 35.5678H70.9587L70.9587 142.253Z" fill="#EBF3F8"/>
<path d="M123.07 139.989L123.07 37.8281L73.1211 37.8281L73.1211 139.989H123.07Z" fill="#EBF3F8"/>
<path d="M74.0352 139.989L74.0352 37.8281H73.1232L73.1232 139.989H74.0352Z" fill="#C0D9EB"/>
<path d="M71.8514 70.9639H124.34V67.9272H71.8514V70.9639Z" fill="#EBF3F8"/>
<path d="M54.0442 139.363H61.6094L61.6094 93.7453H54.0442L54.0442 139.363Z" fill="#C0D9EB"/>
<path d="M22.8479 142.252H60.1562V139.362H22.8479V142.252Z" fill="#C0D9EB"/>
<path d="M54.0429 93.7441H21.3945V139.362H54.0429V93.7441Z" fill="#EBF3F8"/>
<path d="M51.0672 99.3594H24.3672V114.32H51.0672V99.3594Z" fill="#C0D9EB"/>
<path d="M51.0672 118.786H24.3672V133.747H51.0672V118.786Z" fill="#C0D9EB"/>
<path d="M29.7802 109.474V104.205C29.7802 103.744 29.3742 103.366 28.8782 103.366H28.4762C27.9798 103.366 27.5742 103.744 27.5742 104.205V109.474C27.5742 109.936 27.9802 110.313 28.4762 110.313H28.8782C29.3742 110.313 29.7802 109.936 29.7802 109.474Z" fill="#EBF3F8"/>
<path d="M29.7802 128.901V123.632C29.7802 123.171 29.3742 122.793 28.8782 122.793H28.4762C27.9798 122.793 27.5742 123.171 27.5742 123.632V128.901C27.5742 129.362 27.9802 129.74 28.4762 129.74H28.8782C29.3742 129.74 29.7802 129.363 29.7802 128.901Z" fill="#EBF3F8"/>
<path d="M53.892 67.9759C53.0444 68.3713 50.7456 67.9465 51.512 69.3932C51.8724 70.0732 52.4584 70.7994 53.0832 71.5159C53.9392 72.4979 53.7776 73.563 52.7668 73.9499C52.5216 74.0436 52.3212 74.16 52.208 74.3111C51.7424 74.9316 52.842 75.7641 53.382 76.3857C53.9036 76.9865 54.1396 77.6193 53.7404 78.082C53.3 78.5928 52.382 78.4049 51.6532 78.5593C49.8996 78.9302 51.7028 81.1789 51.5164 82.3344C51.3888 83.1252 50.6992 83.3458 49.7624 83.4574C48.998 83.5486 47.9776 83.6126 47.9352 84.3413C47.8984 84.9718 48.7816 85.6868 49.0132 86.3497C49.2384 86.994 49.1616 87.6201 48.8432 88.0966C48.5588 88.5226 48.0892 88.8109 47.4672 88.934C46.5988 89.1059 45.2852 88.9277 45.2228 89.8387C45.1948 90.2457 45.4996 90.6058 45.2876 90.9804C45.1088 91.2966 44.7024 91.4565 44.2684 91.5373C43.5708 91.6671 42.5652 91.6321 41.7656 91.496C40.746 91.3223 39.2412 90.4867 39.7944 89.6814C39.9492 89.4556 40.248 89.3239 40.5828 89.2603C40.8272 89.2138 41.5396 89.2859 41.6312 89.1319C41.7228 88.9779 41.4772 88.3857 41.4668 88.1703C41.4368 87.5509 41.556 86.9691 41.764 86.4319C42.0464 85.7025 42.492 85.0474 43.08 84.4935C43.3212 84.2665 43.7072 84.0991 43.7564 83.7681C43.8036 83.4519 43.5812 83.0706 43.3336 82.7469C42.9432 82.2365 42.3392 81.7488 42.1204 81.2024C41.7768 80.3438 42.6092 80.0715 43.38 79.8766C44.0772 79.7002 44.9944 79.4733 44.7576 78.6865C44.5868 78.1181 43.8164 77.6531 43.586 77.0988C43.2764 76.3552 44.0312 76.3262 44.5724 76.0602C45.2748 75.7157 45.452 75.1005 45.1972 74.3204C44.7768 73.0347 42.2428 71.2201 43.54 70.3842C43.8692 70.1722 44.1748 70.1008 44.3732 69.7816C44.5852 69.4405 44.616 69.0157 44.8912 68.7061C45.328 68.2151 46.2308 68.1325 46.7028 67.6765C47.6704 66.7412 45.5796 65.0825 47.4884 64.6878C47.9244 64.5978 48.3108 64.5122 48.6032 64.2589C48.778 64.1075 48.9192 63.3743 49.1164 63.3229C49.9916 63.096 51.5708 64.6759 52.0668 65.1636C52.6692 65.7573 54.904 67.5035 53.892 67.9759Z" fill="#EBF3F8"/>
<path d="M38.8722 89.7716C39.3922 88.8769 41.6654 87.9837 40.1566 86.9451C39.4474 86.4567 38.5122 86.0523 37.5486 85.6792C36.2282 85.1681 35.7578 83.9844 36.427 83.0041C36.5894 82.7664 36.699 82.5313 36.7122 82.3111C36.7658 81.4064 35.3162 81.1895 34.4822 80.8648C33.6762 80.5512 33.1038 80.0393 33.1894 79.3347C33.2842 78.5572 34.2022 78.2191 34.7566 77.6403C36.0906 76.2475 33.205 74.9864 32.7042 73.6956C32.3614 72.8121 32.843 72.1879 33.6054 71.532C34.2274 70.9971 35.091 70.3424 34.709 69.5716C34.3786 68.9046 33.1878 68.6825 32.6018 68.1375C32.0322 67.6078 31.7398 66.9226 31.7462 66.2504C31.7522 65.65 32.0006 65.0834 32.4782 64.5983C33.1458 63.9209 34.407 63.3443 33.9378 62.3752C33.7282 61.9426 33.2522 61.7495 33.2234 61.2436C33.199 60.8166 33.4658 60.4178 33.8022 60.0845C34.343 59.5484 35.2506 59.0031 36.0346 58.6805C37.0342 58.2695 38.8426 58.2557 38.8186 59.4C38.8118 59.7207 38.6238 60.0283 38.3654 60.2865C38.1762 60.4754 37.5066 60.8128 37.5142 61.0234C37.5218 61.2343 38.0794 61.6986 38.213 61.9132C38.5958 62.53 38.8258 63.1948 38.9514 63.8651C39.1222 64.775 39.1058 65.7035 38.9062 66.6105C38.8242 66.9821 38.5794 67.3764 38.7266 67.7443C38.867 68.0951 39.2822 68.3574 39.687 68.5456C40.325 68.8425 41.139 68.9931 41.6466 69.4265C42.4442 70.1069 41.8662 70.8673 41.2982 71.5123C40.7846 72.0956 40.1058 72.8578 40.7678 73.5267C41.2458 74.0099 42.193 74.0412 42.7154 74.4753C43.4166 75.0578 42.7674 75.5236 42.4426 76.1087C42.0214 76.8672 42.2186 77.5997 42.8926 78.2511C44.0034 79.3251 47.2838 79.719 46.6202 81.3246C46.4518 81.7323 46.2234 81.9819 46.2318 82.4231C46.241 82.8948 46.4582 83.3475 46.3934 83.8236C46.2906 84.5792 45.5414 85.1852 45.3878 85.9247C45.0722 87.4413 47.8718 87.932 46.415 89.439C46.0822 89.7831 45.7902 90.0941 45.6782 90.5219C45.6114 90.7778 45.9086 91.6104 45.7638 91.777C45.1222 92.5151 42.8194 91.8094 42.101 91.5966C41.2278 91.3373 38.251 90.8399 38.8722 89.7716Z" fill="#EBF3F8"/>
<path d="M33.0469 87.752C33.0469 87.752 33.3221 93.7449 43.8721 93.7449C54.4221 93.7449 54.6973 87.752 54.6973 87.752H33.0469Z" fill="#C0D9EB"/>
<path d="M100.001 159.053C142.834 159.053 177.557 157.167 177.557 154.841C177.557 152.515 142.834 150.629 100.001 150.629C57.1681 150.629 22.4453 152.515 22.4453 154.841C22.4453 157.167 57.1681 159.053 100.001 159.053Z" fill="#EBF3F8"/>
<path opacity="0.19" d="M118.698 107.609H34.0664L40.034 28.9053H124.666L118.698 107.609Z" fill="#3384BD"/>
<path opacity="0.2" d="M53.14 107.609H40.9648L71.2888 28.9053H83.4641L53.14 107.609Z" fill="#EBF3F8"/>
<path opacity="0.2" d="M82.6996 107.609H55.8516L86.1756 28.9053H113.024L82.6996 107.609Z" fill="#EBF3F8"/>
<path d="M40.2608 42.3456L37.7812 42.1834L38.8757 27.749H54.3993V30.061H41.1921L40.2608 42.3456Z" fill="#3384BD"/>
<path d="M48.4332 108.765H32.7344L33.8412 94.1719L36.3208 94.3344L35.4016 106.453H48.4332V108.765Z" fill="#3384BD"/>
<path d="M124.897 42.3456L122.417 42.1834L123.336 30.061H110.305V27.749H126.003L124.897 42.3456Z" fill="#3384BD"/>
<path d="M119.856 108.765H104.332V106.453H117.539L118.47 94.1719L120.95 94.3344L119.856 108.765Z" fill="#3384BD"/>
<g opacity="0.3">
<path d="M77.6993 96.0019C77.6265 96.0019 77.5541 95.9852 77.4885 95.9517C77.4637 95.9394 76.8761 95.6399 75.8873 95.0764C75.4713 94.8413 74.9817 94.5556 74.4349 94.2301C72.6957 93.1788 71.0189 92.071 69.4481 90.9356C69.0681 90.6596 68.6865 90.3776 68.2981 90.0852C66.8497 88.9837 65.5133 87.8756 64.3245 86.7897C64.0185 86.5092 63.7181 86.2261 63.4173 85.9363C62.2877 84.8475 61.2553 83.7345 60.3477 82.6278C60.1149 82.348 59.8909 82.0627 59.6713 81.774C58.8273 80.6725 58.0961 79.5532 57.4989 78.4487C57.3453 78.1701 57.1957 77.8781 57.0561 77.5849C56.5173 76.4749 56.1041 75.3492 55.8293 74.2425C55.7593 73.9799 55.6961 73.6938 55.6369 73.3746C55.5949 73.1644 55.5605 72.9461 55.5289 72.7277C55.4081 71.877 55.3017 71.0087 55.2021 70.0724C55.1705 69.7941 55.1421 69.5133 55.1133 69.2324C55.0089 68.1309 54.9233 67.0253 54.8593 65.9402L54.8525 65.8293C54.8369 65.582 54.8217 65.3365 54.8097 65.0913C54.7545 64.0211 54.7149 62.9162 54.6917 61.8077L54.6805 60.9628C54.6669 59.7914 54.6693 58.6866 54.6877 57.6781C54.6917 57.3942 54.6985 57.1123 54.7057 56.8333C54.7349 55.6191 54.7769 54.5142 54.8301 53.5496L54.8333 53.4864C54.8469 53.2174 54.8601 52.9567 54.8761 52.7015C54.9477 51.5029 55.0313 50.3672 55.1177 49.4182C55.1465 49.0912 55.1709 48.817 55.1965 48.5712C55.2889 47.6345 55.3573 47.1118 55.3573 47.1118C55.3825 46.918 55.5513 46.7677 55.7609 46.7528C55.8349 46.7476 63.2149 46.2205 71.0753 44.9349C72.6685 44.6745 74.2181 44.3921 75.6809 44.096C77.8369 43.6596 79.8117 43.1827 81.5505 42.6787C81.6373 42.6534 81.7309 42.6541 81.8177 42.6802C83.4781 43.1838 85.3793 43.6604 87.4685 44.0964C88.8853 44.3925 90.3917 44.6748 91.9453 44.9349C99.6093 46.2205 106.909 46.7472 106.982 46.7524C107.214 46.7688 107.393 46.9515 107.388 47.1687C107.388 47.1687 107.377 47.6914 107.328 48.6303C107.316 48.8814 107.298 49.1641 107.278 49.4766C107.221 50.4315 107.132 51.5672 107.021 52.7599C107.001 52.9965 106.977 53.2379 106.952 53.4864L106.94 53.608C106.845 54.5812 106.719 55.686 106.566 56.8909C106.529 57.1759 106.494 57.4549 106.455 57.7369C106.32 58.7506 106.155 59.855 105.964 61.019L105.826 61.8612C105.633 62.9795 105.425 64.0843 105.209 65.1482C105.161 65.3878 105.109 65.6277 105.058 65.8699L105.031 65.9971C104.803 67.0763 104.55 68.1815 104.279 69.2815C104.207 69.5657 104.136 69.8481 104.061 70.1304C103.82 71.0645 103.581 71.9328 103.333 72.7817C103.269 72.9993 103.201 73.2165 103.126 73.4304C103.019 73.747 102.913 74.0319 102.801 74.2979C102.361 75.3957 101.779 76.518 101.073 77.6277C100.895 77.913 100.701 78.2036 100.501 78.4885C99.7413 79.5867 98.8433 80.7027 97.8333 81.803C97.5713 82.0902 97.3049 82.3744 97.0277 82.6557C95.9593 83.756 94.7601 84.8668 93.4657 85.9553C93.1225 86.2443 92.7789 86.5271 92.4325 86.8064C91.0797 87.8912 89.5773 88.9979 87.9665 90.0964C87.5325 90.3895 87.1085 90.6715 86.6885 90.9464C84.9465 92.0814 83.1033 93.1877 81.2101 94.236C80.6121 94.5626 80.0801 94.848 79.6269 95.0838C78.5557 95.6459 77.9241 95.9442 77.8977 95.9569C77.8357 95.987 77.7677 96.0019 77.6993 96.0019ZM56.1913 47.5415C56.1629 47.7855 56.1213 48.1593 56.0729 48.6478C56.0477 48.8922 56.0237 49.1623 55.9977 49.4602C55.9089 50.4282 55.8257 51.5557 55.7549 52.7476C55.7389 53.0009 55.7261 53.2591 55.7125 53.5251L55.7089 53.5898C55.6565 54.5485 55.6149 55.6455 55.5853 56.8522C55.5781 57.1286 55.5713 57.4076 55.5677 57.6904C55.5493 58.6929 55.5473 59.7903 55.5609 60.9532L55.5717 61.795C55.5945 62.8924 55.6337 63.9898 55.6885 65.053C55.7005 65.2959 55.7157 65.5381 55.7309 65.7825L55.7381 65.8944C55.8017 66.9718 55.8861 68.0684 55.9893 69.1547C56.0177 69.4337 56.0461 69.7119 56.0773 69.9898C56.1761 70.9194 56.2825 71.7791 56.4017 72.621C56.4305 72.8252 56.4629 73.0294 56.5033 73.2307C56.5601 73.5353 56.6193 73.8024 56.6857 74.052C56.9489 75.113 57.3437 76.1873 57.8601 77.2512C57.9941 77.5332 58.1357 77.8104 58.2837 78.0782C58.8621 79.1484 59.5697 80.2313 60.3885 81.3001C60.6021 81.5806 60.8189 81.8562 61.0461 82.1293C61.9349 83.2129 62.9449 84.3018 64.0513 85.3679C64.3465 85.6529 64.6421 85.9311 64.9421 86.206C66.1117 87.2737 67.4277 88.3655 68.8537 89.4499C69.2365 89.7378 69.6141 90.0172 69.9893 90.2895C71.5397 91.4099 73.1961 92.5044 74.9121 93.5415C75.4501 93.8618 75.9333 94.1438 76.3461 94.377C76.9837 94.7404 77.4565 94.9945 77.7077 95.127C77.9757 94.9964 78.4929 94.7393 79.1965 94.3703C79.6465 94.1363 80.1729 93.8536 80.7633 93.5314C82.6357 92.4947 84.4601 91.3991 86.1837 90.2764C86.5993 90.0041 87.0205 89.7248 87.4489 89.435C89.0397 88.3502 90.5237 87.2573 91.8581 86.1871C92.1989 85.9125 92.5377 85.6335 92.8765 85.3482C94.1493 84.2776 95.3273 83.1865 96.3781 82.1047C96.6493 81.8291 96.9085 81.5523 97.1645 81.2722C98.1497 80.199 99.0237 79.1127 99.7645 78.0432C99.9577 77.7676 100.143 77.4893 100.315 77.2133C100.997 76.1427 101.557 75.065 101.98 74.007C102.086 73.7522 102.187 73.484 102.289 73.1816C102.361 72.9766 102.425 72.7712 102.485 72.5659C102.731 71.7252 102.967 70.8651 103.207 69.9366C103.282 69.6546 103.353 69.3756 103.423 69.0966C103.692 68.007 103.943 66.91 104.168 65.8386L104.196 65.7103C104.247 65.4711 104.297 65.2338 104.345 64.9968C104.56 63.9396 104.766 62.8422 104.957 61.7347L105.095 60.8959C105.284 59.7393 105.448 58.6419 105.583 57.6346C105.622 57.3537 105.657 57.0777 105.691 56.8046C105.845 55.5975 105.97 54.5001 106.064 53.5336L106.076 53.4112C106.101 53.1654 106.125 52.9262 106.145 52.6918C106.145 52.6911 106.146 52.6903 106.146 52.6903C106.255 51.5059 106.343 50.3783 106.4 49.4301C106.42 49.1202 106.438 48.8416 106.45 48.5924C106.474 48.1367 106.489 47.781 106.497 47.537C104.832 47.4049 98.4481 46.8573 91.7901 45.7406C90.2241 45.4783 88.7057 45.1938 87.2765 44.895C85.2165 44.465 83.3341 43.9952 81.6793 43.4986C79.9493 43.9956 77.9953 44.4654 75.8697 44.8958C74.3953 45.1941 72.8341 45.4787 71.2289 45.741C64.3189 46.8711 57.7781 47.4183 56.1913 47.5415Z" fill="#3384BD"/>
<path d="M83.8681 63.9187C86.0286 61.979 86.2043 58.8888 84.2608 57.0164C82.3172 55.1441 78.9902 55.1987 76.8298 57.1383C74.6693 59.078 74.4936 62.1682 76.4371 64.0406C78.3807 65.9129 81.7077 65.8583 83.8681 63.9187Z" fill="#3384BD"/>
<path d="M81.5103 62.2314H80.2271H78.9439L75.3203 77.9525H82.7499L81.5103 62.2314Z" fill="#3384BD"/>
<g opacity="0.2">
<path d="M91.8679 45.3383H71.1523C72.6875 45.0876 74.2427 44.8067 75.7755 44.4961H87.3727C88.8579 44.8063 90.3707 45.0872 91.8679 45.3383Z" fill="#3384BD"/>
<path d="M106.836 49.4535H55.5547C55.5819 49.1433 55.6067 48.8624 55.6327 48.6113H106.886C106.874 48.8624 106.856 49.1429 106.836 49.4535Z" fill="#3384BD"/>
<path d="M106.583 52.7246C106.559 52.9988 106.53 53.2796 106.502 53.5702H55.2695C55.2843 53.2796 55.2987 52.9988 55.3159 52.7246H106.583Z" fill="#3384BD"/>
<path d="M106.13 56.8438C106.095 57.1209 106.059 57.4018 106.02 57.686H55.1289C55.1325 57.4021 55.1397 57.1213 55.1465 56.8438H106.13Z" fill="#3384BD"/>
<path d="M105.529 60.958C105.483 61.2389 105.437 61.516 105.391 61.8002H55.1319C55.1287 61.5164 55.1247 61.2389 55.1211 60.958H105.529Z" fill="#3384BD"/>
<path d="M104.778 65.0723C104.721 65.3531 104.66 65.6336 104.6 65.9178H55.2996C55.282 65.634 55.264 65.3531 55.25 65.0723H104.778Z" fill="#3384BD"/>
<path d="M103.85 69.1904C103.779 69.4709 103.708 69.7518 103.633 70.0326H55.6396C55.6076 69.7518 55.5792 69.4713 55.5508 69.1904H103.85Z" fill="#3384BD"/>
<path d="M102.708 73.3057C102.612 73.5895 102.508 73.8704 102.392 74.1508H56.2583C56.1835 73.8704 56.1231 73.5895 56.0703 73.3057H102.708Z" fill="#3384BD"/>
<path d="M100.696 77.4199C100.519 77.7038 100.33 77.988 100.135 78.2655H57.8937C57.7409 77.988 57.5953 77.7041 57.4609 77.4199H100.696Z" fill="#3384BD"/>
<path d="M97.4997 81.5381C97.2401 81.8223 96.9772 82.1028 96.7044 82.3803H60.6988C60.4676 82.1028 60.2477 81.8223 60.0312 81.5381H97.4997Z" fill="#3384BD"/>
<path d="M93.1708 85.6533C92.8296 85.9409 92.4884 86.2214 92.1444 86.4989H64.6324C64.3304 86.2217 64.032 85.9409 63.7344 85.6533H93.1708Z" fill="#3384BD"/>
<path d="M87.7062 89.7666C87.2758 90.0571 86.8534 90.338 86.435 90.6122H69.7174C69.3406 90.3384 68.9606 90.0575 68.5742 89.7666H87.7062Z" fill="#3384BD"/>
<path d="M80.9855 93.8857C80.3927 94.2094 79.8635 94.4932 79.4123 94.7279H76.1171C75.7019 94.4932 75.2155 94.2094 74.6719 93.8857H80.9855Z" fill="#3384BD"/>
</g>
</g>
</svg>
