<svg width="216" height="207" viewBox="0 0 216 207" fill="none" xmlns="http://www.w3.org/2000/svg">
<path d="M170.823 158.419C195.384 133.857 195.384 94.0344 170.823 69.4724C146.261 44.9104 106.438 44.9104 81.8757 69.4724C57.3138 94.0344 57.3138 133.857 81.8757 158.419C106.438 182.981 146.261 182.981 170.823 158.419Z" fill="white"/>
<path d="M79.0315 127.459C110.581 127.459 136.157 101.883 136.157 70.3337C136.157 38.7843 110.581 13.2085 79.0315 13.2085C47.4821 13.2085 21.9062 38.7843 21.9062 70.3337C21.9062 101.883 47.4821 127.459 79.0315 127.459Z" fill="white"/>
<path d="M57.074 187.209C79.7823 187.209 98.191 168.8 98.191 146.092C98.191 123.384 79.7823 104.975 57.074 104.975C34.3657 104.975 15.957 123.384 15.957 146.092C15.957 168.8 34.3657 187.209 57.074 187.209Z" fill="white"/>
<path d="M104.613 109.825C104.613 109.373 104.98 109.005 105.433 109.005C105.886 109.005 106.253 109.372 106.253 109.825C106.253 110.278 105.886 110.646 105.433 110.646C104.98 110.646 104.613 110.279 104.613 109.825Z" fill="#A1C6E1"/>
<path d="M202.447 206.787H8.41829C7.20789 206.787 6.22656 205.806 6.22656 204.595V204.264C6.22656 203.053 7.20789 202.072 8.41829 202.072H202.447C203.657 202.072 204.639 203.053 204.639 204.264V204.595C204.639 205.806 203.657 206.787 202.447 206.787Z" fill="#15374F"/>
<path d="M177.536 194.907H33.332V105.999C33.332 105.044 34.1067 104.269 35.062 104.269H175.805C176.761 104.269 177.535 105.044 177.535 105.999V194.907H177.536Z" fill="#76ADD3"/>
<path d="M167.435 184.316C167.971 184.316 168.406 183.881 168.406 183.345V145.255L123.906 184.316H167.435Z" fill="white"/>
<path d="M45.0255 112.103C44.4895 112.103 44.0547 112.538 44.0547 113.074V147.036L83.8513 112.103H45.0255Z" fill="white"/>
<path d="M168.405 113.074C168.405 112.538 167.97 112.103 167.435 112.103H119.521L44.0547 178.346V183.346C44.0547 183.882 44.489 184.317 45.0255 184.317H88.2366L168.405 113.947V113.074Z" fill="white"/>
<path d="M88.2383 184.316H123.908L168.407 145.255V113.946L88.2383 184.316Z" fill="white"/>
<path d="M83.8513 112.103L44.0547 147.036V178.345L119.521 112.103H83.8513Z" fill="white"/>
<path d="M185.845 202.072H25.0209C23.2941 202.072 21.8945 200.672 21.8945 198.946V198.032C21.8945 196.305 23.2941 194.906 25.0209 194.906H185.845C187.572 194.906 188.971 196.305 188.971 198.032V198.946C188.971 200.672 187.571 202.072 185.845 202.072Z" fill="#C0D9EB"/>
<path d="M116.499 199.672H94.3646C93.6123 199.672 92.9961 199.14 92.9961 198.489C92.9961 197.838 93.6118 197.305 94.3646 197.305H116.499C117.252 197.305 117.867 197.838 117.867 198.489C117.867 199.14 117.252 199.672 116.499 199.672Z" fill="#76ADD3"/>
<path d="M131.331 131.345L112.856 131.25L112.688 163.986L136.012 164.106L136.155 136.219L131.331 131.345Z" fill="#76ADD3"/>
<path d="M131.305 136.195L136.154 136.219L131.33 131.345L131.305 136.195Z" fill="#1C4968"/>
<path d="M118.395 134.704L118.387 136.367L130.588 136.429L130.596 134.766L118.395 134.704Z" fill="white"/>
<path d="M115.542 139.089L115.539 139.643L133.402 139.734L133.405 139.18L115.542 139.089Z" fill="white"/>
<path d="M115.53 141.876L115.527 142.43L133.39 142.521L133.393 141.967L115.53 141.876Z" fill="white"/>
<path d="M115.526 144.674L115.523 145.228L133.386 145.321L133.389 144.767L115.526 144.674Z" fill="white"/>
<path d="M115.503 147.447L115.5 148.001L133.363 148.093L133.366 147.538L115.503 147.447Z" fill="white"/>
<path d="M115.483 150.234L115.48 150.789L133.343 150.88L133.346 150.325L115.483 150.234Z" fill="white"/>
<path d="M115.472 153.021L115.469 153.576L133.332 153.667L133.334 153.112L115.472 153.021Z" fill="white"/>
<path d="M115.468 155.819L115.465 156.374L123.489 156.415L123.492 155.861L115.468 155.819Z" fill="white"/>
<path d="M133.511 159.213C133.5 161.344 131.763 163.063 129.632 163.052C127.501 163.041 125.782 161.305 125.793 159.174C125.804 157.042 127.54 155.324 129.672 155.335C131.803 155.346 133.522 157.082 133.511 159.213Z" fill="white"/>
<path d="M121.522 134.232L103.047 134.136L102.879 166.872L126.203 166.992L126.347 139.106L121.522 134.232Z" fill="white"/>
<path d="M121.496 139.08L126.345 139.105L121.521 134.231L121.496 139.08Z" fill="#1C4968"/>
<path d="M108.587 137.59L108.578 139.252L120.779 139.315L120.788 137.652L108.587 137.59Z" fill="#76ADD3"/>
<path d="M105.733 141.976L105.73 142.531L123.593 142.622L123.596 142.068L105.733 141.976Z" fill="#76ADD3"/>
<path d="M105.722 144.762L105.719 145.316L123.582 145.407L123.584 144.853L105.722 144.762Z" fill="#76ADD3"/>
<path d="M105.718 147.561L105.715 148.116L123.578 148.209L123.581 147.654L105.718 147.561Z" fill="#76ADD3"/>
<path d="M105.694 150.334L105.691 150.888L123.554 150.979L123.557 150.425L105.694 150.334Z" fill="#76ADD3"/>
<path d="M105.679 153.121L105.676 153.675L123.539 153.766L123.541 153.212L105.679 153.121Z" fill="#76ADD3"/>
<path d="M105.663 155.907L105.66 156.461L123.523 156.553L123.526 155.998L105.663 155.907Z" fill="#76ADD3"/>
<path d="M105.659 158.705L105.656 159.259L113.681 159.301L113.683 158.747L105.659 158.705Z" fill="#76ADD3"/>
<path d="M123.702 162.1C123.691 164.231 121.955 165.95 119.824 165.939C117.692 165.928 115.973 164.192 115.984 162.06C115.995 159.929 117.732 158.21 119.863 158.221C121.994 158.232 123.713 159.969 123.702 162.1Z" fill="#76ADD3"/>
<path d="M111.581 127.377L99.4469 127.39C98.5444 127.391 97.8118 126.66 97.8109 125.758L97.8086 123.841C97.8077 122.938 98.5384 122.206 99.4414 122.205L111.576 122.192C112.478 122.191 113.211 122.922 113.212 123.825L113.213 125.742C113.214 126.644 112.484 127.376 111.581 127.377Z" fill="#15374F"/>
<path d="M114.312 99.1686C128.676 95.2638 139.235 82.1235 139.219 66.5166C139.199 47.8479 124.057 32.7298 105.4 32.7495C86.7416 32.7692 71.6327 47.9194 71.6524 66.5881C71.6689 82.1945 82.256 95.3124 96.6282 99.1869" fill="#3384BD"/>
<path d="M140.507 111.152L128.617 96.1475C128.772 96.0247 128.926 95.9006 129.08 95.7755L141.203 110.592C140.972 110.78 140.74 110.967 140.507 111.152ZM70.3518 111.144C70.1222 110.961 69.8932 110.777 69.6659 110.591L81.7851 95.7714C81.9408 95.8987 82.0975 96.0247 82.2551 96.1498L70.3518 111.144ZM155.298 93.4775L138.435 84.4141C138.525 84.2456 138.614 84.077 138.702 83.9065L155.721 92.6716C155.582 92.9419 155.441 93.2104 155.298 93.4775ZM55.5594 93.4532C55.421 93.1948 55.285 92.9341 55.1503 92.673L72.1628 83.8946C72.2558 84.0747 72.3502 84.2533 72.4455 84.4315L55.5594 93.4532ZM161.8 71.3215L142.717 69.7821C142.733 69.5915 142.747 69.4005 142.759 69.2099L161.865 70.4134C161.847 70.7163 161.825 71.0196 161.8 71.3215ZM49.068 71.3068C49.0438 71.0044 49.0222 70.7016 49.0039 70.3979L68.111 69.2113C68.1229 69.4023 68.1367 69.5934 68.1522 69.7844L49.068 71.3068ZM140.826 54.6393C140.762 54.4515 140.695 54.2636 140.628 54.0767L158.634 47.573C158.735 47.8534 158.834 48.1347 158.931 48.4164L140.826 54.6393ZM70.0462 54.6311L51.9365 48.4214C52.0331 48.1397 52.1321 47.8593 52.2333 47.5798L70.2427 54.0717C70.1758 54.2577 70.1099 54.4441 70.0462 54.6311ZM133.023 41.5104C132.893 41.3693 132.763 41.2287 132.631 41.0899L146.524 27.9179C146.733 28.1388 146.94 28.361 147.144 28.585L133.023 41.5104ZM77.8538 41.5031L63.7175 28.5928C63.9172 28.3738 64.1197 28.1571 64.3231 27.9413L78.2583 41.0679C78.1222 41.2122 77.9871 41.357 77.8538 41.5031ZM120.64 32.574C120.46 32.4943 120.28 32.415 120.099 32.3381L127.622 14.7341C127.895 14.8505 128.167 14.9691 128.437 15.0901L120.64 32.574ZM90.2386 32.5708L82.4242 15.0937C82.6981 14.9719 82.9748 14.8509 83.2525 14.7323L90.7751 32.3362C90.595 32.4127 90.4159 32.4911 90.2386 32.5708ZM105.745 29.3556L105.395 29.3547L105.142 29.3556L104.991 10.2123L105.375 10.2104L105.871 10.2123L105.745 29.3556Z" fill="#3384BD"/>
<path d="M130.775 55.2378C130.537 55.1063 130.336 54.9011 130.21 54.6367C125.667 45.129 115.931 38.9932 105.405 39.0055C104.653 39.0046 104.046 38.399 104.047 37.6499C104.046 36.9004 104.653 36.2929 105.402 36.2915C116.969 36.2801 127.668 43.022 132.659 53.4676C132.982 54.1438 132.695 54.9533 132.019 55.2763C131.606 55.4724 131.145 55.4435 130.775 55.2378Z" fill="white"/>
<path d="M133.579 67.6229C133.162 67.3915 132.879 66.9481 132.879 66.4377C132.878 65.3876 132.817 64.3358 132.7 63.3114C132.615 62.5669 133.149 61.8948 133.894 61.8091C134.636 61.7244 135.31 62.2586 135.395 63.003C135.524 64.1282 135.59 65.2823 135.593 66.434C135.594 67.1836 134.987 67.7915 134.238 67.7929C133.998 67.7929 133.773 67.731 133.579 67.6229Z" fill="white"/>
<path d="M93.8125 82.2606L93.8427 110.771L117.155 110.747L117.125 82.2358" fill="#3384BD"/>
<path d="M117.132 113.874L93.8668 113.898C92.9886 113.899 92.2762 113.188 92.2753 112.31L92.2734 110.304C92.2725 109.426 92.9836 108.713 93.8618 108.712L117.127 108.688C118.006 108.687 118.718 109.398 118.719 110.276L118.721 112.282C118.721 113.16 118.01 113.873 117.132 113.874Z" fill="#15374F"/>
<path d="M117.145 124.245L93.879 124.269C93.0008 124.27 92.2884 123.559 92.2874 122.681L92.2852 120.675C92.2842 119.797 92.9953 119.085 93.8735 119.084L117.139 119.059C118.017 119.058 118.73 119.769 118.731 120.647L118.733 122.653C118.734 123.531 118.023 124.244 117.145 124.245Z" fill="#15374F"/>
<path d="M117.14 119.059L93.8751 119.083C92.9969 119.084 92.2845 118.373 92.2835 117.496L92.2813 115.49C92.2803 114.612 92.9914 113.899 93.8692 113.898L117.135 113.874C118.013 113.873 118.726 114.584 118.727 115.462L118.729 117.468C118.73 118.345 118.019 119.058 117.14 119.059Z" fill="#15374F"/>
<path d="M105.43 86.7137C116.45 86.7137 125.383 77.7803 125.383 66.7604C125.383 55.7405 116.45 46.8071 105.43 46.8071C94.4099 46.8071 85.4766 55.7405 85.4766 66.7604C85.4766 77.7803 94.4099 86.7137 105.43 86.7137Z" stroke="white" stroke-width="8" stroke-miterlimit="10"/>
<path d="M90.4536 141.447L77.109 141.649L77.032 136.538C76.9766 132.859 79.9247 129.82 83.6036 129.765C87.2829 129.709 90.3212 132.658 90.3767 136.337L90.4536 141.447ZM79.1734 139.521L88.3265 139.384L88.2811 136.369C88.2431 133.845 86.159 131.823 83.6356 131.861C81.1122 131.899 79.09 133.983 79.128 136.507L79.1734 139.521Z" fill="#1C4968"/>
<path d="M90.4959 139.183L77.0001 139.387C76.0627 139.401 75.3141 140.172 75.3283 141.11L75.4823 151.315C75.4965 152.252 76.268 153.001 77.2053 152.987L90.7011 152.783C91.6385 152.769 92.3871 151.997 92.3729 151.06L92.219 140.855C92.2048 139.917 91.4333 139.169 90.4959 139.183ZM84.525 146.125L85.0102 149.359L82.79 149.392L83.1776 146.145C82.5481 145.891 82.0992 145.28 82.0886 144.558C82.074 143.598 82.8409 142.808 83.8011 142.793C84.7614 142.779 85.5517 143.546 85.5663 144.506C85.5769 145.227 85.1467 145.852 84.525 146.125Z" fill="#76ADD3"/>
<path d="M162.436 127.418C158.174 127.151 156.363 125.222 155.641 124.023C155.435 123.681 154.942 123.666 154.716 123.996C153.926 125.15 152.005 126.97 147.735 126.989C147.323 126.991 146.952 127.238 146.804 127.622C145.762 130.319 142.632 140.761 154.56 145.193C166.726 141.465 164.211 130.857 163.328 128.104C163.203 127.712 162.847 127.444 162.436 127.418Z" fill="#76ADD3"/>
<path d="M161.101 128.519C157.738 128.279 156.229 126.792 155.588 125.795C155.374 125.462 154.899 125.448 154.666 125.768C153.968 126.726 152.375 128.122 149.003 128.165C148.589 128.171 148.219 128.422 148.073 128.809C147.163 131.232 144.782 139.76 154.612 143.413C164.639 140.34 162.759 131.688 161.991 129.216C161.869 128.821 161.515 128.548 161.101 128.519Z" fill="white"/>
<path d="M159.279 130.836C158.935 130.548 158.423 130.593 158.135 130.936L153.794 136.117L151.516 134.713C151.187 134.509 150.749 134.564 150.482 134.863C150.181 135.199 150.209 135.713 150.545 136.014L153.353 138.529C153.382 138.555 153.418 138.584 153.451 138.608C153.929 138.942 154.586 138.827 154.921 138.349L154.949 138.308L159.423 131.925C159.66 131.583 159.604 131.108 159.279 130.836Z" fill="#76ADD3"/>
<path d="M160.151 169.532V167.525H158.497C158.416 167.237 158.303 166.963 158.159 166.708L159.329 165.539L157.909 164.12L156.74 165.289C156.485 165.145 156.211 165.032 155.923 164.952V163.297H153.916V164.952C153.628 165.032 153.354 165.145 153.099 165.289L151.93 164.12L150.51 165.539L151.679 166.708C151.535 166.963 151.422 167.237 151.342 167.525H149.688V169.532H151.342C151.422 169.82 151.535 170.094 151.679 170.349L150.51 171.518L151.93 172.937L153.099 171.768C153.354 171.912 153.628 172.025 153.916 172.106V173.76H155.923V172.106C156.211 172.025 156.485 171.912 156.74 171.768L157.909 172.937L159.329 171.518L158.159 170.349C158.303 170.094 158.416 169.82 158.497 169.532H160.151ZM154.919 170.56C153.797 170.56 152.888 169.651 152.888 168.528C152.888 167.406 153.797 166.497 154.919 166.497C156.041 166.497 156.951 167.406 156.951 168.528C156.951 169.65 156.041 170.56 154.919 170.56Z" fill="#76ADD3"/>
<path d="M149.678 178.246V176.238H148.023C147.943 175.951 147.83 175.676 147.686 175.422L148.855 174.252L147.436 172.833L146.267 174.002C146.012 173.858 145.738 173.745 145.45 173.665V172.01H143.443V173.665C143.154 173.745 142.88 173.858 142.625 174.002L141.457 172.833L140.037 174.252L141.206 175.422C141.063 175.677 140.95 175.951 140.869 176.238H139.215V178.246H140.869C140.95 178.534 141.063 178.808 141.206 179.063L140.037 180.232L141.457 181.651L142.625 180.482C142.88 180.626 143.154 180.739 143.443 180.819V182.474H145.45V180.819C145.738 180.739 146.012 180.626 146.267 180.482L147.436 181.651L148.855 180.232L147.686 179.063C147.83 178.808 147.943 178.534 148.023 178.246H149.678ZM144.446 179.274C143.324 179.274 142.414 178.364 142.414 177.242C142.414 176.12 143.324 175.21 144.446 175.21C145.568 175.21 146.478 176.119 146.478 177.242C146.478 178.364 145.569 179.274 144.446 179.274Z" fill="#76ADD3"/>
<path d="M198.549 185.512L200.519 184.854L199.976 183.231C200.232 183.057 200.464 182.856 200.667 182.632L202.198 183.396L203.126 181.538L201.595 180.774C201.652 180.476 201.674 180.17 201.658 179.861L203.282 179.318L202.624 177.349L201.001 177.891C200.827 177.635 200.626 177.403 200.402 177.2L201.166 175.669L199.308 174.742L198.544 176.272C198.246 176.215 197.94 176.194 197.631 176.209L197.088 174.585L195.119 175.243L195.661 176.867C195.405 177.041 195.173 177.241 194.97 177.466L193.439 176.702L192.512 178.56L194.042 179.324C193.985 179.622 193.964 179.927 193.979 180.237L192.355 180.779L193.013 182.749L194.637 182.206C194.811 182.462 195.011 182.694 195.236 182.897L194.472 184.428L196.33 185.356L197.094 183.825C197.392 183.882 197.697 183.904 198.007 183.888L198.549 185.512ZM195.824 180.715C195.457 179.614 196.051 178.423 197.152 178.055C198.254 177.687 199.444 178.282 199.812 179.383C200.18 180.484 199.585 181.675 198.484 182.043C197.384 182.41 196.192 181.816 195.824 180.715Z" fill="#76ADD3"/>
<path d="M189.546 177.106L190.727 176.711L190.401 175.738C190.555 175.634 190.694 175.513 190.816 175.378L191.734 175.837L192.29 174.722L191.372 174.264C191.407 174.086 191.419 173.902 191.41 173.717L192.384 173.392L191.989 172.211L191.016 172.536C190.912 172.383 190.791 172.243 190.657 172.121L191.115 171.204L190.001 170.648L189.542 171.565C189.364 171.531 189.181 171.518 188.995 171.528L188.67 170.554L187.489 170.949L187.814 171.922C187.661 172.026 187.522 172.147 187.4 172.281L186.482 171.823L185.926 172.937L186.844 173.396C186.809 173.574 186.796 173.757 186.806 173.943L185.832 174.268L186.226 175.449L187.2 175.124C187.304 175.277 187.425 175.416 187.559 175.538L187.101 176.456L188.215 177.012L188.673 176.094C188.852 176.129 189.035 176.142 189.22 176.132L189.546 177.106ZM187.912 174.229C187.692 173.569 188.048 172.855 188.708 172.634C189.368 172.413 190.083 172.77 190.303 173.43C190.524 174.091 190.167 174.805 189.507 175.026C188.847 175.246 188.133 174.89 187.912 174.229Z" fill="#76ADD3"/>
<path d="M2.28516 128.885L2.9435 130.855L4.56714 130.313C4.74078 130.569 4.94144 130.8 5.16593 131.004L4.40175 132.535L6.25996 133.462L7.02368 131.932C7.32147 131.989 7.62705 132.01 7.93629 131.995L8.47872 133.618L10.4483 132.961L9.90582 131.337C10.1619 131.163 10.3937 130.963 10.5972 130.738L12.1278 131.502L13.0551 129.644L11.5244 128.88C11.5817 128.582 11.6028 128.277 11.5876 127.967L13.2113 127.425L12.5529 125.455L10.9293 125.998C10.7557 125.742 10.555 125.51 10.3305 125.306L11.0942 123.776L9.23602 122.848L8.47185 124.379C8.17452 124.321 7.86848 124.3 7.55924 124.316L7.01681 122.692L5.04727 123.35L5.5897 124.973C5.33361 125.147 5.10179 125.348 4.89838 125.572L3.36774 124.808L2.44047 126.666L3.9711 127.43C3.91384 127.728 3.89276 128.033 3.90788 128.343L2.28516 128.885ZM7.08186 126.161C8.18322 125.793 9.37392 126.387 9.74181 127.489C10.1097 128.59 9.51503 129.781 8.41413 130.149C7.31276 130.516 6.12206 129.922 5.75418 128.821C5.38629 127.72 5.98095 126.529 7.08186 126.161Z" fill="#76ADD3"/>
<path d="M10.6914 119.881L11.0859 121.062L12.0594 120.736C12.1634 120.89 12.2839 121.029 12.4186 121.151L11.9604 122.069L13.0746 122.625L13.5328 121.707C13.711 121.742 13.8947 121.754 14.0798 121.745L14.4051 122.718L15.5862 122.324L15.2609 121.35C15.4144 121.246 15.5536 121.126 15.6755 120.991L16.5931 121.449L17.1493 120.335L16.2317 119.877C16.266 119.699 16.2784 119.515 16.2697 119.33L17.2432 119.005L16.8488 117.824L15.8752 118.149C15.7712 117.995 15.6507 117.856 15.5161 117.734L15.9742 116.817L14.86 116.26L14.4019 117.178C14.2236 117.144 14.0399 117.131 13.8548 117.14L13.5296 116.167L12.3485 116.561L12.6738 117.535C12.5203 117.638 12.381 117.759 12.2592 117.894L11.3415 117.436L10.7853 118.55L11.703 119.008C11.6686 119.186 11.6558 119.37 11.6649 119.555L10.6914 119.881ZM13.5676 118.247C14.2278 118.027 14.942 118.383 15.1624 119.044C15.3832 119.704 15.0263 120.418 14.3661 120.638C13.706 120.859 12.9917 120.503 12.7714 119.842C12.551 119.182 12.9074 118.468 13.5676 118.247Z" fill="#76ADD3"/>
<path d="M167.571 27.5387C166.201 27.5387 165.086 26.4236 165.086 25.0533C165.086 23.683 166.201 22.5679 167.571 22.5679C168.941 22.5679 170.056 23.683 170.056 25.0533C170.056 26.424 168.941 27.5387 167.571 27.5387ZM167.571 23.4846C166.706 23.4846 166.002 24.1883 166.002 25.0537C166.002 25.9192 166.706 26.6229 167.571 26.6229C168.436 26.6229 169.14 25.9192 169.14 25.0537C169.14 24.1883 168.436 23.4846 167.571 23.4846Z" fill="#15374F"/>
<path d="M159.215 12.2335C157.846 12.2335 156.73 11.1184 156.73 9.74812C156.73 8.37829 157.846 7.26318 159.215 7.26318C160.586 7.26318 161.701 8.37829 161.701 9.74812C161.701 11.1184 160.586 12.2335 159.215 12.2335ZM159.215 8.17946C158.35 8.17946 157.647 8.88316 157.647 9.74812C157.647 10.6135 158.35 11.3172 159.215 11.3172C160.081 11.3172 160.785 10.6135 160.785 9.74812C160.785 8.88316 160.081 8.17946 159.215 8.17946Z" fill="#15374F"/>
<path d="M164.638 19.0205C164.384 19.0205 164.18 18.8157 164.18 18.5623V13.608C164.18 13.3547 164.384 13.1499 164.638 13.1499C164.891 13.1499 165.096 13.3547 165.096 13.608V18.5623C165.096 18.8157 164.891 19.0205 164.638 19.0205Z" fill="#3384BD"/>
<path d="M167.116 16.5437H162.161C161.908 16.5437 161.703 16.3389 161.703 16.0856C161.703 15.8322 161.908 15.6274 162.161 15.6274H167.116C167.369 15.6274 167.574 15.8322 167.574 16.0856C167.574 16.3389 167.369 16.5437 167.116 16.5437Z" fill="#3384BD"/>
<path d="M1.81641 86.6177C1.81641 85.2474 2.93151 84.1323 4.30181 84.1323C5.67164 84.1323 6.78675 85.2474 6.78675 86.6177C6.78675 87.988 5.67164 89.1031 4.30181 89.1031C2.93151 89.1031 1.81641 87.988 1.81641 86.6177ZM2.73268 86.6177C2.73268 87.4831 3.43638 88.1868 4.30181 88.1868C5.16677 88.1868 5.87047 87.4831 5.87047 86.6177C5.87047 85.7523 5.16677 85.0486 4.30181 85.0486C3.43638 85.0486 2.73268 85.7523 2.73268 86.6177Z" fill="#15374F"/>
<path d="M10.1719 71.3126C10.1719 69.9427 11.287 68.8276 12.6573 68.8276C14.0271 68.8276 15.1422 69.9427 15.1422 71.3126C15.1422 72.6829 14.0271 73.798 12.6573 73.798C11.287 73.798 10.1719 72.6833 10.1719 71.3126ZM11.0882 71.3126C11.0882 72.178 11.7919 72.8817 12.6573 72.8817C13.5222 72.8817 14.2259 72.178 14.2259 71.3126C14.2259 70.4476 13.5222 69.7439 12.6573 69.7439C11.7919 69.7439 11.0882 70.4481 11.0882 71.3126Z" fill="#15374F"/>
<path d="M7.24329 80.5849C7.49664 80.5849 7.70143 80.3802 7.70143 80.1268V75.1725C7.70143 74.9191 7.49664 74.7144 7.24329 74.7144C6.98994 74.7144 6.78516 74.9191 6.78516 75.1725V80.1268C6.78516 80.3797 6.98994 80.5849 7.24329 80.5849Z" fill="#3384BD"/>
<path d="M4.76283 78.1082H9.71713C9.97048 78.1082 10.1753 77.9034 10.1753 77.65C10.1753 77.3967 9.97048 77.1919 9.71713 77.1919H4.76283C4.50948 77.1919 4.30469 77.3967 4.30469 77.65C4.30469 77.9034 4.50948 78.1082 4.76283 78.1082Z" fill="#3384BD"/>
<path d="M205.434 31.1185C205.434 29.3505 206.867 27.9175 208.635 27.9175C210.403 27.9175 211.836 29.3505 211.836 31.1185C211.836 32.8864 210.403 34.3195 208.635 34.3195C206.867 34.319 205.434 32.886 205.434 31.1185Z" fill="white"/>
<path d="M195.044 32.3753C195.991 32.3753 196.76 31.6071 196.76 30.6596C196.76 29.712 195.991 28.9438 195.044 28.9438C194.096 28.9438 193.328 29.712 193.328 30.6596C193.328 31.6071 194.096 32.3753 195.044 32.3753Z" fill="white"/>
<path d="M200.937 21.1909C202.54 21.1909 203.839 19.8917 203.839 18.2891C203.839 16.6864 202.54 15.3872 200.937 15.3872C199.334 15.3872 198.035 16.6864 198.035 18.2891C198.035 19.8917 199.334 21.1909 200.937 21.1909Z" fill="white"/>
<path d="M46.8291 11.9359C50.032 10.8306 51.7325 7.33819 50.6272 4.1353C49.522 0.932409 46.0296 -0.768073 42.8267 0.337166C39.6238 1.44241 37.9233 4.93483 39.0286 8.13773C40.1338 11.3406 43.6262 13.0411 46.8291 11.9359Z" fill="white"/>
<path d="M205.433 96.1756C206.924 96.1756 208.132 94.9673 208.132 93.4767C208.132 91.9862 206.924 90.7778 205.433 90.7778C203.943 90.7778 202.734 91.9862 202.734 93.4767C202.734 94.9673 203.943 96.1756 205.433 96.1756Z" fill="white"/>
<path d="M5.1764 5.28956C4.50523 6.64015 2.86647 7.19083 1.51588 6.51966C0.165285 5.84849 -0.385397 4.20973 0.286233 2.85914C0.957405 1.50855 2.59616 0.957865 3.94676 1.62949C5.29689 2.30021 5.84757 3.93897 5.1764 5.28956Z" fill="white"/>
<path d="M201.752 135.467C200.674 137.636 198.041 138.52 195.872 137.442C193.703 136.364 192.819 133.732 193.897 131.563C194.975 129.394 197.607 128.51 199.776 129.588C201.945 130.666 202.829 133.298 201.752 135.467Z" fill="white"/>
<path d="M208.223 146.428C207.716 147.45 206.476 147.866 205.455 147.359C204.434 146.851 204.017 145.612 204.525 144.59C205.032 143.569 206.272 143.152 207.293 143.66C208.315 144.167 208.731 145.407 208.223 146.428Z" fill="white"/>
<path d="M197.918 150.194C197.412 151.211 196.178 151.626 195.161 151.12C194.144 150.615 193.729 149.381 194.235 148.364C194.74 147.347 195.975 146.932 196.992 147.438C198.008 147.943 198.423 149.177 197.918 150.194Z" fill="white"/>
<path d="M16.1389 183.368C17.3913 183.368 18.4067 182.353 18.4067 181.1C18.4067 179.848 17.3913 178.833 16.1389 178.833C14.8864 178.833 13.8711 179.848 13.8711 181.1C13.8711 182.353 14.8864 183.368 16.1389 183.368Z" fill="white"/>
<path d="M1.92969 174.166C1.92969 173.494 2.47396 172.95 3.14559 172.95C3.81676 172.95 4.36148 173.494 4.36148 174.166C4.36148 174.837 3.81722 175.381 3.14559 175.381C2.47396 175.381 1.92969 174.837 1.92969 174.166Z" fill="white"/>
<path d="M8.63672 166.206C8.63672 165.07 9.55712 164.15 10.6928 164.15C11.8286 164.15 12.749 165.07 12.749 166.206C12.749 167.342 11.8286 168.262 10.6928 168.262C9.55712 168.263 8.63672 167.342 8.63672 166.206Z" fill="white"/>
<path d="M185.705 64.5638C185.217 63.647 185.565 62.509 186.481 62.0211C187.398 61.5332 188.536 61.8809 189.024 62.7972C189.512 63.7139 189.164 64.852 188.248 65.3399C187.332 65.8278 186.193 65.4805 185.705 64.5638Z" fill="white"/>
<path d="M12.4595 30.2621C14.1876 29.1515 16.4888 29.6527 17.5993 31.3808C18.7098 33.1089 18.2091 35.4102 16.4805 36.5207C14.7524 37.6312 12.4512 37.13 11.3407 35.4019C10.2302 33.6738 10.7314 31.3726 12.4595 30.2621Z" fill="white"/>
<path d="M20.817 20.424C21.6906 19.8628 22.8534 20.1161 23.4146 20.9893C23.9758 21.8625 23.7225 23.0258 22.8493 23.587C21.9756 24.1482 20.8128 23.8948 20.2516 23.0216C19.6904 22.1484 19.9438 20.9852 20.817 20.424Z" fill="white"/>
</svg>
