<svg width="187" height="222" viewBox="0 0 187 222" fill="none" xmlns="http://www.w3.org/2000/svg">
<path d="M56.7784 104.55L118.634 68.8672C119.643 68.2858 120.891 68.2858 121.899 68.8672L183.755 104.55C184.529 104.995 184.529 106.111 183.755 106.556L121.111 142.698C120.586 142.998 119.943 142.998 119.422 142.698L56.7784 106.556C56.0042 106.111 56.0042 104.995 56.7784 104.55Z" stroke="#19374E" stroke-width="2" stroke-linecap="round" stroke-linejoin="round"/>
<path d="M185.5 184.363L120.266 222L55.0376 184.363L65.6033 178.272L118.474 208.77L120.21 208.001L122.11 208.741L174.934 178.272L185.5 184.363Z" fill="#8B9BA6"/>
<path d="M75.0479 101.718L118.052 76.9077C119.422 76.1154 121.116 76.1154 122.486 76.9077L165.49 101.718C168.446 103.425 168.446 107.691 165.49 109.393L122.486 134.203C121.116 134.995 119.422 134.995 118.052 134.203L75.0479 109.393C72.0921 107.686 72.0921 103.42 75.0479 101.718Z" fill="#E7EBEE"/>
<path d="M120.267 144.475V207.284C120.267 208.226 121.289 208.821 122.106 208.353L184.374 172.839C185.068 172.445 185.495 171.704 185.495 170.907V107.278C185.495 106.514 184.665 106.036 184.003 106.42L121.379 142.553C120.689 142.951 120.267 143.687 120.267 144.48V144.475Z" stroke="#19374E" stroke-width="2" stroke-linecap="round" stroke-linejoin="round"/>
<path d="M120.271 144.165V207.363C120.271 208.268 119.29 208.84 118.502 208.39L55.6334 172.534C55.2628 172.323 55.0376 171.934 55.0376 171.507V107.597C55.0376 106.687 56.0275 106.12 56.8157 106.575L119.422 142.693C119.947 142.998 120.271 143.556 120.271 144.161V144.165Z" stroke="#19374E" stroke-width="2" stroke-linecap="round" stroke-linejoin="round"/>
<path d="M120.267 167.063L185.491 129.412" stroke="#19374E" stroke-width="2" stroke-linecap="round" stroke-linejoin="round"/>
<path d="M120.299 188.737L185.491 151.127" stroke="#19374E" stroke-linecap="round" stroke-linejoin="round"/>
<path d="M55.0376 129.43L120.248 167.049" stroke="#19374E" stroke-linecap="round" stroke-linejoin="round"/>
<path d="M55.0332 151.085L101.476 177.879L120.267 188.723H120.271L120.299 188.737" stroke="#19374E" stroke-linecap="round" stroke-linejoin="round"/>
<path d="M112.727 152.023L83.1128 134.939" stroke="#19374E" stroke-linecap="round" stroke-linejoin="round"/>
<path d="M112.727 173.776L83.1128 156.692" stroke="#19374E" stroke-linecap="round" stroke-linejoin="round"/>
<path d="M112.727 195.858L83.1128 178.77" stroke="#19374E" stroke-linecap="round" stroke-linejoin="round"/>
<path d="M66.2902 127.918C67.4211 127.265 67.3969 125.107 66.2361 123.098C65.0752 121.089 63.2174 119.989 62.0864 120.642C60.9554 121.294 60.9796 123.452 62.1404 125.461C63.3013 127.47 65.1592 128.57 66.2902 127.918Z" stroke="#19374E" stroke-linecap="round" stroke-linejoin="round"/>
<path d="M76.4039 154.44C77.5349 153.787 77.5107 151.629 76.3499 149.62C75.189 147.611 73.3311 146.511 72.2002 147.164C71.0692 147.816 71.0934 149.974 72.2542 151.983C73.4151 153.992 75.273 155.092 76.4039 154.44Z" stroke="#19374E" stroke-linecap="round" stroke-linejoin="round"/>
<path d="M76.4039 176.203C77.5349 175.551 77.5107 173.393 76.3499 171.384C75.189 169.375 73.3311 168.275 72.2002 168.927C71.0692 169.58 71.0934 171.738 72.2542 173.747C73.4151 175.756 75.273 176.856 76.4039 176.203Z" stroke="#19374E" stroke-linecap="round" stroke-linejoin="round"/>
<path d="M76.6972 133.3C77.9472 132.579 77.887 130.136 76.5629 127.845C75.2389 125.553 73.1522 124.28 71.9023 125.001C70.6524 125.722 70.7125 128.164 72.0366 130.456C73.3607 132.748 75.4473 134.021 76.6972 133.3Z" fill="#3272B9"/>
<path d="M66.5835 172.092C67.8334 171.371 67.7733 168.929 66.4492 166.637C65.1251 164.346 63.0385 163.072 61.7886 163.793C60.5386 164.515 60.5988 166.957 61.9228 169.249C63.2469 171.54 65.3336 172.813 66.5835 172.092Z" fill="#3272B9"/>
<path d="M66.2877 149.491C67.4187 148.839 67.3945 146.681 66.2336 144.672C65.0728 142.663 63.2149 141.563 62.084 142.216C60.953 142.868 60.9772 145.026 62.138 147.035C63.2988 149.044 65.1567 150.144 66.2877 149.491Z" stroke="#19374E" stroke-width="2" stroke-linecap="round" stroke-linejoin="round"/>
<path d="M121.773 90.6303H121.749C121.749 90.6303 121.735 90.6303 121.73 90.6303C121.73 90.6303 121.716 90.6303 121.707 90.6303C121.707 90.6303 121.693 90.6303 121.683 90.6303C121.683 90.6303 121.669 90.6303 121.665 90.6303C121.665 90.6303 121.651 90.6303 121.641 90.6303C121.632 90.6303 121.627 90.6303 121.618 90.6303C121.618 90.6303 121.604 90.6303 121.594 90.6303H121.576C121.566 90.6303 121.561 90.6303 121.552 90.6303C121.552 90.6303 121.538 90.6303 121.533 90.6303C121.533 90.6303 121.519 90.6303 121.515 90.6303C121.505 90.6303 121.501 90.6303 121.491 90.6303C121.491 90.6303 121.477 90.6303 121.468 90.6303C121.468 90.6303 121.454 90.6303 121.449 90.6303C121.449 90.6303 121.435 90.6303 121.43 90.6303C121.421 90.6303 121.416 90.6303 121.407 90.6303C121.402 90.6303 121.393 90.6303 121.388 90.6303C121.383 90.6303 121.374 90.6303 121.369 90.6303C121.36 90.6303 121.355 90.6303 121.346 90.6303C121.341 90.6303 121.332 90.6303 121.327 90.6303C121.322 90.6303 121.313 90.6303 121.308 90.6303C121.299 90.6303 121.294 90.6303 121.285 90.6303C121.28 90.6303 121.271 90.6303 121.266 90.6303C121.261 90.6303 121.252 90.6303 121.247 90.6303C121.238 90.6303 121.233 90.6303 121.224 90.6303C121.224 90.6303 121.21 90.6303 121.2 90.6303C121.196 90.6303 121.186 90.6303 121.181 90.6303C121.177 90.6303 121.167 90.6303 121.158 90.6303C121.158 90.6303 121.144 90.6303 121.135 90.6303C121.13 90.6303 121.12 90.6303 121.116 90.6303C121.111 90.6303 121.102 90.6303 121.097 90.6303C121.088 90.6303 121.083 90.6303 121.074 90.6303C121.074 90.6303 121.059 90.6303 121.055 90.6303C121.05 90.6303 121.041 90.6303 121.036 90.6303C121.031 90.6303 121.022 90.6303 121.013 90.6303H120.994C120.989 90.6303 120.98 90.6303 120.975 90.6303C120.966 90.6303 120.961 90.6303 120.952 90.6303C120.947 90.6303 120.938 90.6303 120.933 90.6303C120.928 90.6303 120.919 90.6303 120.914 90.6303C120.905 90.6303 120.9 90.6303 120.895 90.6303C120.891 90.6303 120.881 90.6303 120.877 90.6303C120.872 90.6303 120.862 90.6303 120.858 90.6303C120.853 90.6303 120.844 90.6303 120.839 90.6303C120.839 90.6303 120.825 90.6303 120.816 90.6303C120.811 90.6303 120.801 90.6303 120.797 90.6303C120.792 90.6303 120.783 90.6303 120.778 90.6303C120.773 90.6303 120.764 90.6303 120.759 90.6303C120.755 90.6303 120.745 90.6303 120.74 90.6303C120.736 90.6303 120.726 90.6303 120.722 90.6303C120.712 90.6303 120.708 90.6303 120.698 90.6303C120.694 90.6303 120.684 90.6303 120.679 90.6303C120.675 90.6303 120.665 90.6303 120.661 90.6303C120.651 90.6303 120.647 90.6303 120.637 90.6303H120.614C120.609 90.6303 120.6 90.6303 120.595 90.6303C120.59 90.6303 120.581 90.6303 120.576 90.6303C120.572 90.6303 120.562 90.6303 120.557 90.6303C120.553 90.6303 120.543 90.6303 120.539 90.6303C120.534 90.6303 120.525 90.6303 120.52 90.6303C120.515 90.6303 120.506 90.6303 120.501 90.6303C120.496 90.6303 120.487 90.6303 120.482 90.6303C120.478 90.6303 120.468 90.6303 120.464 90.6303C120.459 90.6303 120.45 90.6303 120.445 90.6303C120.44 90.6303 120.431 90.6303 120.426 90.6303C120.421 90.6303 120.412 90.6303 120.407 90.6303C120.403 90.6303 120.393 90.6303 120.389 90.6303C120.389 90.6303 120.389 90.6303 120.384 90.6303C120.379 90.6303 120.37 90.6303 120.365 90.6303C120.36 90.6303 120.351 90.6303 120.346 90.6303C120.342 90.6303 120.332 90.6303 120.328 90.6303C120.323 90.6303 120.314 90.6303 120.309 90.6303C120.304 90.6303 120.295 90.6303 120.29 90.6303C120.285 90.6303 120.276 90.6303 120.271 90.6303C120.271 90.6303 120.271 90.6303 120.267 90.6303C120.262 90.6303 120.253 90.6303 120.248 90.6303C120.243 90.6303 120.234 90.6303 120.229 90.6303C120.224 90.6303 120.215 90.6303 120.21 90.6303C120.206 90.6303 120.196 90.6303 120.192 90.6303C120.187 90.6303 120.177 90.6303 120.173 90.6303C120.168 90.6303 120.159 90.6303 120.154 90.6303C120.149 90.6303 120.14 90.6303 120.135 90.6303C120.131 90.6303 120.121 90.6303 120.116 90.6303C120.112 90.6303 120.102 90.6303 120.098 90.6303C120.093 90.6303 120.084 90.6303 120.079 90.6303C120.074 90.6303 120.065 90.6303 120.06 90.6303C120.055 90.6303 120.046 90.6303 120.041 90.6303C120.037 90.6303 120.027 90.6303 120.023 90.6303C120.018 90.6303 120.009 90.6303 120.004 90.6303C120.004 90.6303 120.004 90.6303 119.999 90.6303C119.994 90.6303 119.985 90.6303 119.98 90.6303C119.976 90.6303 119.966 90.6303 119.962 90.6303C119.957 90.6303 119.948 90.6303 119.943 90.6303C119.938 90.6303 119.929 90.6303 119.924 90.6303C119.924 90.6303 119.924 90.6303 119.919 90.6303C119.915 90.6303 119.91 90.6303 119.901 90.6303C119.901 90.6303 119.901 90.6303 119.896 90.6303C119.891 90.6303 119.882 90.6303 119.877 90.6303C119.877 90.6303 119.877 90.6303 119.872 90.6303C119.868 90.6303 119.863 90.6303 119.854 90.6303C119.854 90.6303 119.854 90.6303 119.849 90.6303C119.844 90.6303 119.84 90.6303 119.835 90.6303C119.835 90.6303 119.835 90.6303 119.83 90.6303C119.826 90.6303 119.816 90.6303 119.812 90.6303C119.812 90.6303 119.811 90.6303 119.807 90.6303C119.802 90.6303 119.797 90.6303 119.788 90.6303C119.788 90.6303 119.788 90.6303 119.783 90.6303C119.779 90.6303 119.774 90.6303 119.769 90.6303C119.769 90.6303 119.769 90.6303 119.765 90.6303C119.76 90.6303 119.755 90.6303 119.751 90.6303C119.751 90.6303 119.75 90.6303 119.741 90.6303C119.736 90.6303 119.732 90.6303 119.722 90.6303C119.722 90.6303 119.722 90.6303 119.718 90.6303C119.713 90.6303 119.708 90.6303 119.704 90.6303C119.704 90.6303 119.704 90.6303 119.699 90.6303C119.694 90.6303 119.69 90.6303 119.68 90.6303C119.68 90.6303 119.68 90.6303 119.671 90.6303C119.666 90.6303 119.661 90.6303 119.652 90.6303C119.652 90.6303 119.652 90.6303 119.647 90.6303C119.643 90.6303 119.638 90.6303 119.633 90.6303C119.633 90.6303 119.633 90.6303 119.629 90.6303C119.624 90.6303 119.619 90.6303 119.614 90.6303C119.614 90.6303 119.614 90.6303 119.61 90.6303C119.605 90.6303 119.596 90.6303 119.591 90.6303C119.591 90.6303 119.591 90.6303 119.586 90.6303C119.582 90.6303 119.577 90.6303 119.568 90.6303C119.568 90.6303 119.568 90.6303 119.563 90.6303C119.558 90.6303 119.553 90.6303 119.549 90.6303C119.549 90.6303 119.549 90.6303 119.544 90.6303C119.539 90.6303 119.53 90.6303 119.525 90.6303C119.525 90.6303 119.525 90.6303 119.516 90.6303C119.511 90.6303 119.507 90.6303 119.497 90.6303C119.497 90.6303 119.497 90.6303 119.492 90.6303C119.488 90.6303 119.483 90.6303 119.478 90.6303C119.478 90.6303 119.478 90.6303 119.474 90.6303C119.469 90.6303 119.464 90.6303 119.46 90.6303C119.46 90.6303 119.455 90.6303 119.45 90.6303C119.446 90.6303 119.441 90.6303 119.436 90.6303C119.436 90.6303 119.436 90.6303 119.431 90.6303C119.427 90.6303 119.422 90.6303 119.417 90.6303C119.417 90.6303 119.417 90.6303 119.413 90.6303C119.408 90.6303 119.403 90.6303 119.399 90.6303C119.399 90.6303 119.394 90.6303 119.389 90.6303C119.385 90.6303 119.38 90.6303 119.375 90.6303C119.375 90.6303 119.375 90.6303 119.37 90.6303C119.366 90.6303 119.361 90.6303 119.356 90.6303C119.356 90.6303 119.356 90.6303 119.352 90.6303C119.347 90.6303 119.342 90.6303 119.338 90.6303C119.338 90.6303 119.333 90.6303 119.328 90.6303C119.328 90.6303 119.319 90.6303 119.314 90.6303C119.314 90.6303 119.309 90.6303 119.305 90.6303C119.3 90.6303 119.295 90.6303 119.291 90.6303H119.286C119.281 90.6303 119.277 90.6303 119.272 90.6303C119.272 90.6303 119.267 90.6303 119.263 90.6303C119.258 90.6303 119.253 90.6303 119.248 90.6303C119.248 90.6303 119.244 90.6303 119.239 90.6303C119.234 90.6303 119.23 90.6303 119.225 90.6303C119.225 90.6303 119.22 90.6303 119.216 90.6303C119.211 90.6303 119.206 90.6303 119.202 90.6303C119.202 90.6303 119.197 90.6303 119.192 90.6303C119.192 90.6303 119.183 90.6303 119.178 90.6303C119.178 90.6303 119.173 90.6303 119.169 90.6303C119.169 90.6303 119.159 90.6303 119.155 90.6303C119.155 90.6303 119.15 90.6303 119.145 90.6303C119.145 90.6303 119.136 90.6303 119.131 90.6303H119.122H119.112H119.103C119.103 90.6303 119.094 90.6303 119.089 90.6303H119.08C119.08 90.6303 119.07 90.6303 119.066 90.6303C119.066 90.6303 119.061 90.6303 119.056 90.6303C119.056 90.6303 119.047 90.6303 119.042 90.6303H119.033C119.033 90.6303 119.023 90.6303 119.019 90.6303C119.019 90.6303 119.014 90.6303 119.009 90.6303C119.009 90.6303 119 90.6303 118.995 90.6303C118.995 90.6303 118.99 90.6303 118.986 90.6303C118.986 90.6303 118.976 90.6303 118.972 90.6303H118.962C118.962 90.6303 118.958 90.6303 118.953 90.6303C118.953 90.6303 118.944 90.6303 118.939 90.6303C118.939 90.6303 118.929 90.6303 118.925 90.6303C118.925 90.6303 118.92 90.6303 118.915 90.6303C118.915 90.6303 118.906 90.6303 118.901 90.6303C118.901 90.6303 118.897 90.6303 118.892 90.6303C118.892 90.6303 118.883 90.6303 118.878 90.6303C118.878 90.6303 118.873 90.6303 118.868 90.6303C118.868 90.6303 118.859 90.6303 118.854 90.6303C118.854 90.6303 118.85 90.6303 118.845 90.6303C118.845 90.6303 118.836 90.6303 118.831 90.6303C118.831 90.6303 118.826 90.6303 118.822 90.6303C118.822 90.6303 118.812 90.6303 118.807 90.6303H118.798C118.798 90.6303 118.793 90.6303 118.789 90.6303H118.779C118.779 90.6303 118.77 90.6303 118.765 90.6303C118.765 90.6303 118.756 90.6303 118.751 90.6303C118.751 90.6303 118.746 90.6303 118.742 90.6303C118.742 90.6303 118.732 90.6303 118.728 90.6303C118.728 90.6303 118.723 90.6303 118.718 90.6303C118.718 90.6303 118.709 90.6303 118.704 90.6303C118.704 90.6303 118.695 90.6303 118.69 90.6303C118.69 90.6303 118.685 90.6303 118.681 90.6303H118.671C118.667 90.6303 118.662 90.6303 118.657 90.6303C118.657 90.6303 118.653 90.6303 118.648 90.6303C118.648 90.6303 118.639 90.6303 118.634 90.6303H118.624C118.624 90.6303 118.62 90.6303 118.615 90.6303C118.615 90.6303 118.606 90.6303 118.601 90.6303C118.601 90.6303 118.592 90.6303 118.587 90.6303C118.587 90.6303 118.582 90.6303 118.578 90.6303C118.578 90.6303 118.568 90.6303 118.563 90.6303C118.563 90.6303 118.554 90.6303 118.549 90.6303C118.549 90.6303 118.545 90.6303 118.54 90.6303C118.54 90.6303 118.531 90.6303 118.526 90.6303C118.526 90.6303 118.517 90.6303 118.512 90.6303C118.512 90.6303 118.507 90.6303 118.503 90.6303C118.503 90.6303 118.493 90.6303 118.488 90.6303C118.488 90.6303 118.484 90.6303 118.479 90.6303C118.474 90.6303 118.47 90.6303 118.465 90.6303H118.456C118.451 90.6303 118.446 90.6303 118.442 90.6303C118.442 90.6303 118.437 90.6303 118.432 90.6303C118.427 90.6303 118.423 90.6303 118.418 90.6303C118.418 90.6303 118.413 90.6303 118.409 90.6303C118.404 90.6303 118.399 90.6303 118.395 90.6303H118.385C118.381 90.6303 118.376 90.6303 118.371 90.6303C118.371 90.6303 118.366 90.6303 118.362 90.6303C118.357 90.6303 118.352 90.6303 118.348 90.6303C118.348 90.6303 118.343 90.6303 118.338 90.6303C118.334 90.6303 118.329 90.6303 118.324 90.6303H118.315C118.315 90.6303 118.305 90.6303 118.301 90.6303C118.301 90.6303 118.296 90.6303 118.291 90.6303C118.291 90.6303 118.282 90.6303 118.277 90.6303C118.277 90.6303 118.273 90.6303 118.268 90.6303C118.268 90.6303 118.259 90.6303 118.254 90.6303H118.244C118.244 90.6303 118.24 90.6303 118.235 90.6303C118.235 90.6303 118.226 90.6303 118.221 90.6303C118.221 90.6303 118.212 90.6303 118.207 90.6303C118.207 90.6303 118.202 90.6303 118.198 90.6303C118.193 90.6303 118.188 90.6303 118.183 90.6303C118.183 90.6303 118.179 90.6303 118.174 90.6303C118.169 90.6303 118.165 90.6303 118.16 90.6303H118.151C118.151 90.6303 118.141 90.6303 118.137 90.6303C118.137 90.6303 118.132 90.6303 118.127 90.6303C118.122 90.6303 118.118 90.6303 118.113 90.6303C118.113 90.6303 118.113 90.6303 118.108 90.6303C118.104 90.6303 118.099 90.6303 118.094 90.6303C118.094 90.6303 118.09 90.6303 118.085 90.6303C118.08 90.6303 118.076 90.6303 118.071 90.6303C118.071 90.6303 118.071 90.6303 118.066 90.6303C118.061 90.6303 118.057 90.6303 118.052 90.6303C118.052 90.6303 118.052 90.6303 118.047 90.6303C118.043 90.6303 118.038 90.6303 118.033 90.6303C118.024 90.6303 118.019 90.6303 118.01 90.6303C118.005 90.6303 118.001 90.6303 117.996 90.6303C117.991 90.6303 117.986 90.6303 117.977 90.6303C117.968 90.6303 117.963 90.6303 117.954 90.6303C117.949 90.6303 117.944 90.6303 117.935 90.6303C117.93 90.6303 117.925 90.6303 117.916 90.6303C117.907 90.6303 117.897 90.6303 117.888 90.6303C117.883 90.6303 117.879 90.6303 117.869 90.6303C117.864 90.6303 117.855 90.6303 117.85 90.6303C117.836 90.6303 117.822 90.6303 117.808 90.6303C117.803 90.6303 117.799 90.6303 117.789 90.6303C117.775 90.6303 117.761 90.6303 117.742 90.6303C117.738 90.6303 117.728 90.6303 117.724 90.6303C117.705 90.6303 117.681 90.6303 117.658 90.635C117.653 90.635 117.649 90.635 117.639 90.635C117.625 90.635 117.606 90.635 117.592 90.6397C117.588 90.6397 117.583 90.6397 117.574 90.6397C117.559 90.6397 117.545 90.6397 117.527 90.6444C117.522 90.6444 117.517 90.6444 117.508 90.6444C117.494 90.6444 117.48 90.6443 117.461 90.649C117.456 90.649 117.447 90.649 117.442 90.649C117.428 90.649 117.409 90.649 117.395 90.6537C117.395 90.6537 117.381 90.6537 117.377 90.6537C117.353 90.6537 117.334 90.6584 117.311 90.6631C117.311 90.6631 117.301 90.6631 117.292 90.6631C117.278 90.6631 117.259 90.6631 117.245 90.6678C117.24 90.6678 117.231 90.6678 117.226 90.6678C117.226 90.6678 117.194 90.6678 117.179 90.6725C117.175 90.6725 117.165 90.6725 117.161 90.6725C117.137 90.6725 117.118 90.6772 117.095 90.6819C117.095 90.6819 117.062 90.6819 117.048 90.6865C117.043 90.6865 117.034 90.6865 117.029 90.6865C116.982 90.6912 116.94 90.6959 116.898 90.7006C116.846 90.7053 116.795 90.7147 116.748 90.7194C115.565 90.8694 114.421 91.0616 113.309 91.3007C113.267 91.3101 113.224 91.3195 113.182 91.3288C113.177 91.3288 113.173 91.3288 113.163 91.3288C113.149 91.3288 113.135 91.3335 113.121 91.3382C113.116 91.3382 113.112 91.3382 113.102 91.3382C113.088 91.3382 113.074 91.3429 113.06 91.3476C113.055 91.3476 113.051 91.3476 113.046 91.3476C113.041 91.3476 113.037 91.3476 113.032 91.3476C113.018 91.3476 113.004 91.3523 112.99 91.357C112.985 91.357 112.98 91.357 112.971 91.357C112.957 91.357 112.943 91.3617 112.929 91.3663C112.929 91.3663 112.919 91.3663 112.915 91.3663C112.91 91.3663 112.905 91.3663 112.901 91.3663C112.891 91.3663 112.887 91.3663 112.882 91.371C112.882 91.371 112.872 91.371 112.868 91.371C112.863 91.371 112.858 91.371 112.854 91.371C112.854 91.371 112.849 91.371 112.844 91.371C112.844 91.371 112.835 91.371 112.83 91.371C112.83 91.371 112.83 91.371 112.821 91.371C112.821 91.371 112.811 91.371 112.807 91.371C112.807 91.371 112.807 91.371 112.797 91.371C112.797 91.371 112.788 91.371 112.783 91.371C112.783 91.371 112.783 91.371 112.779 91.371C112.774 91.371 112.769 91.371 112.76 91.371C112.76 91.371 112.76 91.371 112.755 91.371C112.75 91.371 112.746 91.371 112.741 91.371C112.741 91.371 112.741 91.371 112.736 91.371C112.736 91.371 112.727 91.371 112.722 91.371C112.722 91.371 112.718 91.371 112.713 91.371H112.704C112.704 91.371 112.699 91.371 112.694 91.371C112.694 91.371 112.685 91.371 112.68 91.371C112.68 91.371 112.675 91.371 112.671 91.371C112.671 91.371 112.661 91.371 112.657 91.371C112.657 91.371 112.652 91.371 112.647 91.371C112.647 91.371 112.638 91.371 112.633 91.371C112.633 91.371 112.629 91.371 112.624 91.371C112.624 91.371 112.614 91.371 112.61 91.371C112.61 91.371 112.61 91.371 112.605 91.371C112.605 91.371 112.596 91.371 112.591 91.371C112.591 91.371 112.591 91.371 112.586 91.371C112.586 91.371 112.577 91.371 112.572 91.371C112.572 91.371 112.568 91.371 112.563 91.371H112.553C112.553 91.371 112.549 91.371 112.544 91.371C112.544 91.371 112.535 91.371 112.53 91.371C112.53 91.371 112.53 91.371 112.525 91.371C112.525 91.371 112.516 91.371 112.511 91.371H112.502C112.502 91.371 112.497 91.371 112.492 91.371C112.492 91.371 112.488 91.371 112.483 91.371C112.483 91.371 112.474 91.371 112.469 91.371H112.46C112.46 91.371 112.45 91.371 112.45 91.3757H112.441C112.441 91.3757 112.436 91.3757 112.431 91.3757H112.422C112.422 91.3757 112.417 91.3757 112.413 91.3757H112.403C112.403 91.3757 112.399 91.3757 112.394 91.3757C112.394 91.3757 112.385 91.3757 112.38 91.3757C112.38 91.3757 112.38 91.3757 112.375 91.3757C112.375 91.3757 112.366 91.3757 112.361 91.3757C112.361 91.3757 112.356 91.3757 112.352 91.3757H112.342C112.342 91.3757 112.338 91.3757 112.333 91.3757C112.333 91.3757 112.328 91.3757 112.324 91.3757C112.324 91.3757 112.319 91.3757 112.314 91.3757H112.305C112.305 91.3757 112.3 91.3757 112.295 91.3757H112.286H112.277C112.277 91.3757 112.272 91.3757 112.267 91.3757C112.267 91.3757 112.263 91.3757 112.258 91.3757C112.258 91.3757 112.248 91.3757 112.244 91.3757C112.244 91.3757 112.244 91.3757 112.239 91.3757C112.239 91.3757 112.23 91.3757 112.225 91.3757C112.225 91.3757 112.22 91.3757 112.216 91.3757H112.206C112.206 91.3757 112.202 91.3757 112.197 91.3757H112.183C112.183 91.3757 112.183 91.3757 112.173 91.3804C112.173 91.3804 112.164 91.3804 112.159 91.3804C112.159 91.3804 112.155 91.3804 112.15 91.3804H112.141C112.141 91.3804 112.136 91.3804 112.131 91.3804C112.131 91.3804 112.122 91.3804 112.117 91.3804H112.112C112.112 91.3804 112.103 91.3804 112.098 91.3804C112.098 91.3804 112.098 91.3804 112.094 91.3804C112.094 91.3804 112.084 91.3804 112.08 91.3804C112.08 91.3804 112.075 91.3804 112.07 91.3804C112.07 91.3804 112.061 91.3804 112.056 91.3804C112.056 91.3804 112.056 91.3804 112.051 91.3804C112.051 91.3804 112.042 91.3804 112.037 91.3804C112.037 91.3804 112.037 91.3804 112.033 91.3804C112.033 91.3804 112.023 91.3804 112.019 91.3804C112.019 91.3804 112.014 91.3804 112.009 91.3804C112.009 91.3804 112 91.3804 111.995 91.3804C111.995 91.3804 111.995 91.3804 111.986 91.3804C111.986 91.3804 111.976 91.3804 111.972 91.3804C111.972 91.3804 111.972 91.3804 111.967 91.3804C111.967 91.3804 111.958 91.3804 111.953 91.3804C111.953 91.3804 111.953 91.3804 111.948 91.3804C111.944 91.3804 111.939 91.3804 111.934 91.3804C111.934 91.3804 111.934 91.3804 111.929 91.3804C111.929 91.3804 111.92 91.3804 111.915 91.3804C111.915 91.3804 111.915 91.3804 111.911 91.3804C111.911 91.3804 111.901 91.3804 111.897 91.3804C111.892 91.3804 111.887 91.3804 111.883 91.3804C111.883 91.3804 111.883 91.3804 111.878 91.3804C111.873 91.3804 111.868 91.3804 111.864 91.3804C111.864 91.3804 111.864 91.3804 111.859 91.3804C111.854 91.3804 111.85 91.3804 111.845 91.3804C111.84 91.3804 111.836 91.3804 111.831 91.3804C111.826 91.3804 111.822 91.3804 111.817 91.3804C111.817 91.3804 111.817 91.3804 111.812 91.3804C111.807 91.3804 111.803 91.3804 111.798 91.3804C111.793 91.3804 111.789 91.3804 111.784 91.3804C111.784 91.3804 111.784 91.3804 111.779 91.3804C111.775 91.3804 111.77 91.3804 111.765 91.3804C111.761 91.3804 111.756 91.3804 111.751 91.3804C111.746 91.3804 111.742 91.3804 111.737 91.3804C111.732 91.3804 111.728 91.3804 111.718 91.3804C111.714 91.3804 111.709 91.3804 111.704 91.3804C111.7 91.3804 111.695 91.3804 111.69 91.3804C111.685 91.3804 111.681 91.3804 111.671 91.3804C111.667 91.3804 111.662 91.3804 111.657 91.3804C111.653 91.3804 111.648 91.3804 111.643 91.3804C111.639 91.3804 111.629 91.3804 111.624 91.3804C111.62 91.3804 111.615 91.3804 111.606 91.3804C111.601 91.3804 111.596 91.3804 111.587 91.3804C111.582 91.3804 111.578 91.3804 111.568 91.3804C111.563 91.3804 111.559 91.3804 111.549 91.3804C111.545 91.3804 111.54 91.3804 111.531 91.3804C111.526 91.3804 111.521 91.3804 111.512 91.3804C111.507 91.3804 111.498 91.3804 111.493 91.3851C111.488 91.3851 111.484 91.3851 111.474 91.3851C111.47 91.3851 111.465 91.3851 111.456 91.3898C111.451 91.3898 111.442 91.3898 111.437 91.3945C111.432 91.3945 111.423 91.3945 111.418 91.3992C111.413 91.3992 111.409 91.3992 111.399 91.4038C111.395 91.4038 111.385 91.4039 111.381 91.4085C111.376 91.4085 111.366 91.4085 111.362 91.4132C111.362 91.4132 111.348 91.4132 111.343 91.4179C111.343 91.4179 111.329 91.4179 111.324 91.4226C111.324 91.4226 111.31 91.4226 111.305 91.4273C111.301 91.4273 111.291 91.4273 111.287 91.432C111.282 91.432 111.273 91.432 111.268 91.4367C111.268 91.4367 111.254 91.4367 111.249 91.4413C111.249 91.4413 111.235 91.4414 111.23 91.446C111.226 91.446 111.216 91.446 111.212 91.4507C111.207 91.4507 111.198 91.4507 111.193 91.4554C111.193 91.4554 111.179 91.4554 111.174 91.4601C111.174 91.4601 111.137 91.4695 111.118 91.4789C111.118 91.4789 111.104 91.4789 111.099 91.4836C110.1 91.7695 109.523 92.8056 109.809 93.8042C110.043 94.6294 110.794 95.1638 111.615 95.1638C111.784 95.1638 111.958 95.1404 112.131 95.0935C115.27 94.198 118.671 93.7433 122.232 93.7433C123.269 93.7433 124.109 92.9041 124.109 91.868C124.109 90.8319 123.269 89.9927 122.232 89.9927L121.773 90.6303ZM102.813 96.0405C102.415 96.0405 102.011 96.1671 101.673 96.4297C99.9937 97.7236 98.6848 99.1817 97.8309 100.757C97.8215 100.771 97.8168 100.785 97.8074 100.799C97.798 100.813 97.7933 100.827 97.7839 100.841C97.7839 100.841 97.7699 100.869 97.7605 100.884C97.7605 100.884 97.7605 100.888 97.7558 100.893C97.7464 100.907 97.7417 100.921 97.7323 100.935C97.7183 100.959 97.7089 100.982 97.6948 101.005C97.6948 101.005 97.6854 101.024 97.6807 101.034C97.6807 101.038 97.676 101.043 97.6714 101.048C97.6714 101.048 97.662 101.066 97.6573 101.076C97.6573 101.076 97.6526 101.085 97.6479 101.094C97.6479 101.094 97.6479 101.099 97.6432 101.104C97.6432 101.109 97.6385 101.113 97.6338 101.118C97.6338 101.118 97.6338 101.123 97.6291 101.127C97.6291 101.127 97.6244 101.137 97.6197 101.141C97.6197 101.146 97.615 101.151 97.6104 101.155C97.6104 101.155 97.6104 101.16 97.6057 101.165C97.6057 101.169 97.601 101.174 97.5963 101.179C97.5963 101.184 97.5916 101.188 97.5869 101.193C97.5869 101.193 97.5869 101.198 97.5822 101.202C97.5822 101.207 97.5775 101.212 97.5728 101.216C97.5728 101.216 97.5728 101.221 97.5681 101.226C97.5681 101.226 97.5634 101.235 97.5587 101.24C97.5587 101.24 97.5587 101.244 97.5587 101.249C97.5587 101.249 97.5587 101.249 97.5587 101.254C97.5587 101.254 97.5587 101.259 97.5587 101.263C97.5587 101.268 97.5587 101.273 97.5494 101.277C97.5494 101.277 97.5494 101.282 97.5494 101.287C97.5494 101.291 97.5494 101.296 97.54 101.301C97.54 101.305 97.54 101.31 97.5306 101.315C97.5306 101.315 97.5306 101.32 97.5306 101.324C97.5306 101.329 97.5306 101.334 97.5259 101.338C97.5259 101.338 97.5259 101.343 97.5259 101.348C97.5259 101.348 97.5259 101.348 97.5259 101.352C97.5259 101.352 97.5259 101.357 97.5259 101.362C97.5259 101.362 97.5259 101.366 97.5259 101.371C97.5259 101.371 97.5259 101.371 97.5259 101.376C97.5259 101.376 97.5259 101.38 97.5259 101.385C97.5259 101.39 97.5259 101.395 97.5212 101.399C97.5212 101.399 97.5212 101.404 97.5212 101.409C97.5212 101.409 97.5212 101.413 97.5212 101.418C97.5212 101.423 97.5212 101.427 97.5165 101.432C97.5165 101.432 97.5165 101.437 97.5165 101.441C97.5165 101.446 97.5165 101.451 97.5118 101.455C97.5118 101.455 97.5118 101.46 97.5118 101.465C97.5118 101.465 97.5118 101.465 97.5118 101.47C97.5118 101.47 97.5118 101.474 97.5118 101.479C97.5118 101.484 97.5118 101.488 97.5071 101.493C97.5071 101.493 97.5071 101.498 97.5071 101.502C97.5071 101.502 97.5071 101.502 97.5071 101.507C97.5071 101.507 97.5071 101.512 97.5071 101.516C97.5071 101.516 97.5071 101.521 97.5071 101.526C97.5071 101.526 97.5071 101.526 97.5071 101.53C97.5071 101.53 97.5071 101.535 97.5071 101.54C97.5071 101.54 97.5071 101.54 97.5071 101.545C97.5071 101.545 97.5071 101.545 97.5071 101.549C97.5071 101.549 97.5071 101.554 97.5071 101.559C97.5071 101.559 97.5071 101.563 97.5071 101.568C97.5071 101.568 97.5071 101.573 97.5071 101.577C97.5071 101.577 97.5071 101.587 97.5024 101.591C97.5024 101.591 97.5024 101.591 97.5024 101.601C97.5024 101.601 97.5024 101.601 97.5024 101.605C97.5024 101.605 97.5024 101.606 97.5024 101.61C97.5024 101.61 97.5024 101.61 97.5024 101.615C97.5024 101.615 97.5024 101.615 97.5024 101.62C97.5024 101.62 97.5024 101.62 97.5024 101.624C97.5024 101.624 97.5024 101.624 97.5024 101.629C97.5024 101.629 97.5024 101.629 97.5024 101.634C97.5024 101.634 97.5024 101.634 97.5024 101.638C97.5024 101.638 97.5024 101.638 97.5024 101.643C97.5024 101.643 97.5024 101.643 97.5024 101.648C97.5024 101.648 97.5024 101.648 97.5024 101.652C97.5024 101.652 97.5024 101.652 97.5024 101.657C97.5024 101.657 97.5024 101.657 97.5024 101.662C97.5024 101.662 97.5024 101.662 97.5024 101.666C97.5024 101.666 97.5024 101.666 97.5024 101.671C97.5024 101.671 97.5024 101.671 97.5024 101.676C97.5024 101.676 97.5024 101.676 97.5024 101.681C97.5024 101.681 97.5024 101.681 97.5024 101.685C97.5024 101.685 97.5024 101.685 97.5024 101.69C97.5024 101.69 97.5024 101.69 97.5024 101.695C97.5024 101.695 97.5024 101.695 97.5024 101.699C97.5024 101.699 97.5024 101.699 97.5024 101.704C97.5024 101.704 97.5024 101.704 97.5024 101.709C97.5024 101.709 97.5024 101.709 97.5024 101.713C97.5024 101.713 97.5024 101.713 97.5024 101.718C97.5024 101.718 97.5024 101.718 97.5024 101.723C97.5024 101.723 97.5024 101.723 97.5024 101.727C97.5024 101.727 97.5024 101.727 97.5024 101.732C97.5024 101.732 97.5024 101.732 97.5024 101.737C97.5024 101.737 97.5024 101.737 97.5024 101.741C97.5024 101.741 97.5024 101.741 97.5024 101.746C97.5024 101.746 97.5024 101.746 97.5024 101.751C97.5024 101.751 97.5024 101.751 97.5024 101.756C97.5024 101.756 97.5024 101.756 97.5024 101.76C97.5024 101.76 97.5024 101.76 97.5024 101.765C97.5024 101.765 97.5024 101.765 97.5024 101.77C97.5024 101.77 97.5024 101.77 97.5024 101.774C97.5024 101.774 97.5024 101.774 97.5024 101.779C97.5024 101.779 97.5024 101.779 97.5024 101.784C97.5024 101.784 97.5024 101.784 97.5024 101.788C97.5024 101.788 97.5024 101.788 97.5024 101.793C97.5024 101.793 97.5024 101.793 97.5024 101.798C97.5024 101.798 97.5024 101.798 97.5024 101.802C97.5024 101.802 97.5024 101.802 97.5024 101.807V101.816C97.5024 101.816 97.5024 101.816 97.5024 101.821C97.5024 101.821 97.5024 101.821 97.5024 101.826C97.5024 101.826 97.5024 101.826 97.5024 101.831C97.5024 101.831 97.5024 101.831 97.5024 101.835C97.5024 101.835 97.5024 101.835 97.5024 101.84C97.5024 101.84 97.5024 101.84 97.5024 101.845C97.5024 101.845 97.5024 101.845 97.5024 101.849C97.5024 101.849 97.5024 101.849 97.5024 101.854C97.5024 101.854 97.5024 101.854 97.5024 101.859C97.5024 101.859 97.5024 101.859 97.5024 101.863C97.5024 101.863 97.5024 101.863 97.5024 101.868C97.5024 101.868 97.5024 101.868 97.5024 101.873C97.5024 101.873 97.5024 101.873 97.5024 101.877C97.5024 101.877 97.5024 101.877 97.5024 101.882C97.5024 101.882 97.5024 101.882 97.5024 101.887C97.5024 101.887 97.5024 101.887 97.5024 101.892C97.5024 101.892 97.5024 101.891 97.5024 101.896C97.5024 101.896 97.5024 101.896 97.5024 101.901C97.5024 101.901 97.5024 101.901 97.5024 101.906C97.5024 101.906 97.5024 101.906 97.5024 101.91C97.5024 101.91 97.5024 101.91 97.5024 101.915C97.5024 101.915 97.5024 101.915 97.5024 101.92C97.5024 101.92 97.5024 101.92 97.5024 101.924C97.5024 101.924 97.5024 101.924 97.5024 101.929C97.5024 101.929 97.5024 101.929 97.5024 101.934C97.5024 101.934 97.5024 101.934 97.5024 101.938C97.5024 101.938 97.5024 101.938 97.5024 101.943C97.5024 101.943 97.5024 101.943 97.5024 101.948C97.5024 101.948 97.5024 101.948 97.5024 101.952C97.5024 101.952 97.5024 101.952 97.5024 101.957C97.5024 101.957 97.5024 101.957 97.5024 101.962C97.5024 101.962 97.5024 101.962 97.5024 101.967C97.5024 101.967 97.5024 101.967 97.5024 101.971C97.5024 101.971 97.5024 101.971 97.5024 101.976C97.5024 101.976 97.5024 101.976 97.5024 101.981C97.5024 101.981 97.5024 101.981 97.5024 101.985C97.5024 101.985 97.5024 101.985 97.5024 101.99C97.5024 101.99 97.5024 101.99 97.5024 101.995C97.5024 101.995 97.5024 101.995 97.5024 101.999C97.5024 101.999 97.5024 101.999 97.5024 102.004C97.5024 102.004 97.5024 102.004 97.5024 102.009C97.5024 102.009 97.5024 102.009 97.5024 102.013C97.5024 102.013 97.5024 102.013 97.5024 102.018C97.5024 102.018 97.5024 102.018 97.5024 102.023C97.5024 102.023 97.5024 102.023 97.5024 102.027C97.5024 102.027 97.5024 102.027 97.5024 102.032C97.5024 102.032 97.5024 102.032 97.5024 102.037C97.5024 102.037 97.5024 102.037 97.5024 102.042C97.5024 102.042 97.5024 102.042 97.5024 102.046C97.5024 102.046 97.5024 102.046 97.5024 102.051C97.5024 102.051 97.5024 102.056 97.5024 102.06C97.5024 102.06 97.5024 102.06 97.5024 102.065C97.5024 102.065 97.5024 102.07 97.5024 102.074C97.5024 102.074 97.5024 102.074 97.5024 102.079C97.5024 102.079 97.5024 102.079 97.5024 102.084C97.5024 102.084 97.5024 102.084 97.5024 102.088C97.5024 102.088 97.5024 102.088 97.5024 102.093C97.5024 102.093 97.5024 102.093 97.5024 102.098C97.5024 102.098 97.5024 102.098 97.5024 102.102C97.5024 102.102 97.5024 102.102 97.5024 102.107C97.5024 102.107 97.5024 102.107 97.5024 102.112C97.5024 102.112 97.5024 102.112 97.5024 102.117C97.5024 102.117 97.5024 102.117 97.5024 102.121C97.5024 102.121 97.5024 102.121 97.5024 102.126C97.5024 102.126 97.5024 102.126 97.5024 102.131C97.5024 102.131 97.5024 102.131 97.5024 102.135C97.5024 102.135 97.5024 102.135 97.5024 102.14C97.5024 102.14 97.5024 102.14 97.5024 102.145C97.5024 102.145 97.5024 102.145 97.5024 102.149V102.159C97.5024 102.159 97.5024 102.159 97.5024 102.163C97.5024 102.163 97.5024 102.163 97.5024 102.168C97.5024 102.168 97.5024 102.168 97.5024 102.173C97.5024 102.173 97.5024 102.173 97.5024 102.177C97.5024 102.177 97.5024 102.182 97.5024 102.187C97.5024 102.187 97.5024 102.187 97.5024 102.192C97.5024 102.192 97.5024 102.192 97.5024 102.201C97.5024 102.201 97.5024 102.201 97.5024 102.206C97.5024 102.206 97.5024 102.206 97.5024 102.21C97.5024 102.21 97.5024 102.21 97.5024 102.22C97.5024 102.22 97.5024 102.22 97.5024 102.224C97.5024 102.224 97.5024 102.229 97.5024 102.234C97.5024 102.234 97.5024 102.234 97.5024 102.238C97.5024 102.238 97.5024 102.238 97.5024 102.243C97.5024 102.243 97.5024 102.248 97.5024 102.252C97.5024 102.252 97.5024 102.257 97.5024 102.262C97.5024 102.262 97.5024 102.262 97.5024 102.267C97.5024 102.267 97.5024 102.267 97.5024 102.276C97.5024 102.276 97.5024 102.276 97.5024 102.281C97.5024 102.281 97.5024 102.285 97.5024 102.29C97.5024 102.29 97.5024 102.295 97.5024 102.299C97.5024 102.299 97.5024 102.299 97.5024 102.304C97.5024 102.304 97.5024 102.309 97.5024 102.313C97.5024 102.313 97.5024 102.318 97.5024 102.323C97.5024 102.323 97.5024 102.323 97.5024 102.328C97.5024 102.328 97.5024 102.328 97.5024 102.332C97.5024 102.332 97.5024 102.337 97.5024 102.342C97.5024 102.342 97.5024 102.342 97.5024 102.346V102.356C97.5024 102.356 97.5024 102.356 97.5024 102.36C97.5024 102.36 97.5024 102.365 97.5024 102.37V102.379C97.5024 102.379 97.5024 102.384 97.5024 102.388C97.5024 102.388 97.5024 102.388 97.5024 102.398C97.5024 102.398 97.5024 102.398 97.5024 102.403C97.5024 102.403 97.5024 102.407 97.5024 102.412C97.5024 102.412 97.5024 102.412 97.5024 102.421C97.5024 102.421 97.5024 102.421 97.5024 102.426C97.5024 102.426 97.5024 102.431 97.5024 102.435C97.5024 102.435 97.5024 102.435 97.5024 102.44C97.5024 102.44 97.5024 102.445 97.5024 102.449C97.5024 102.449 97.5024 102.454 97.5024 102.459C97.5024 102.459 97.5024 102.459 97.5024 102.463C97.5024 102.463 97.5024 102.468 97.5024 102.473C97.5024 102.473 97.5024 102.478 97.5024 102.482C97.5024 102.482 97.5024 102.482 97.5024 102.487C97.5024 102.487 97.5024 102.492 97.5024 102.496C97.5024 102.496 97.5024 102.496 97.5024 102.501C97.5024 102.501 97.5024 102.506 97.5024 102.51C97.5024 102.51 97.5024 102.515 97.5024 102.52C97.5024 102.52 97.5024 102.52 97.5024 102.524C97.5024 102.524 97.5024 102.529 97.5024 102.534C97.5024 102.534 97.5024 102.538 97.5024 102.543C97.5024 102.543 97.5024 102.548 97.5024 102.553C97.5024 102.553 97.5024 102.557 97.5024 102.562C97.5024 102.562 97.5024 102.562 97.5024 102.567C97.5024 102.567 97.5024 102.571 97.5024 102.576C97.5024 102.576 97.5024 102.581 97.5024 102.585C97.5024 102.585 97.5024 102.59 97.5024 102.595C97.5024 102.595 97.5024 102.599 97.5024 102.604C97.5024 102.604 97.5024 102.609 97.5024 102.613C97.5024 102.613 97.5024 102.618 97.5024 102.623C97.5024 102.623 97.5024 102.628 97.5024 102.632C97.5024 102.632 97.5024 102.632 97.5024 102.637C97.5024 102.637 97.5024 102.642 97.5024 102.646C97.5024 102.646 97.5024 102.651 97.5024 102.656C97.5024 102.656 97.5024 102.656 97.5024 102.66C97.5024 102.66 97.5024 102.665 97.5024 102.67C97.5024 102.67 97.5024 102.67 97.5024 102.674C97.5024 102.674 97.5024 102.679 97.5024 102.684C97.5024 102.684 97.5024 102.688 97.5024 102.693C97.5024 102.693 97.5024 102.693 97.5024 102.698C97.5024 102.698 97.5024 102.703 97.5024 102.707C97.5024 102.707 97.5024 102.712 97.5024 102.717C97.5024 102.717 97.5024 102.717 97.5024 102.721C97.5024 102.721 97.5024 102.726 97.5024 102.731C97.5024 102.731 97.5024 102.731 97.5024 102.735C97.5024 102.735 97.5024 102.74 97.5024 102.745C97.5024 102.745 97.5024 102.749 97.5024 102.754V102.759C97.5024 102.759 97.5024 102.764 97.5024 102.768C97.5024 102.768 97.5024 102.773 97.5024 102.778C97.5024 102.778 97.5024 102.778 97.5024 102.782C97.5024 102.782 97.5024 102.787 97.5024 102.792C97.5024 102.792 97.5024 102.792 97.5024 102.796C97.5024 102.796 97.5024 102.801 97.5024 102.806C97.5024 102.806 97.5024 102.806 97.5024 102.815C97.5024 102.815 97.5024 102.815 97.5024 102.82C97.5024 102.82 97.5024 102.824 97.5024 102.829C97.5024 102.829 97.5024 102.829 97.5024 102.834C97.5024 102.834 97.5024 102.834 97.5024 102.839C97.5024 102.839 97.5024 102.843 97.5024 102.848C97.5024 102.848 97.5024 102.848 97.5024 102.853C97.5024 102.853 97.5024 102.857 97.5024 102.862C97.5024 102.862 97.5024 102.867 97.5024 102.871C97.5024 102.871 97.5024 102.876 97.5024 102.881C97.5024 102.881 97.5024 102.885 97.5024 102.89C97.5024 102.89 97.5024 102.895 97.5024 102.899C97.5024 102.899 97.5024 102.904 97.5024 102.909C97.5024 102.909 97.5024 102.914 97.5024 102.918C97.5024 102.918 97.5024 102.923 97.5024 102.928C97.5024 102.928 97.5024 102.932 97.5024 102.937C97.5024 102.937 97.5024 102.942 97.5024 102.946C97.5024 102.946 97.5024 102.951 97.5024 102.956C97.5024 102.956 97.5024 102.96 97.5024 102.965C97.5024 102.965 97.5024 102.97 97.5024 102.974C97.5024 102.974 97.5024 102.979 97.5024 102.984C97.5024 102.984 97.5024 102.989 97.5024 102.993C97.5024 102.993 97.5024 102.993 97.5024 102.998C97.5024 102.998 97.5024 103.003 97.5024 103.007C97.5024 103.007 97.5024 103.012 97.5024 103.017C97.5024 103.017 97.5024 103.021 97.5024 103.026C97.5024 103.026 97.5024 103.031 97.5024 103.035C97.5024 103.035 97.5024 103.04 97.5024 103.045C97.5024 103.045 97.5024 103.049 97.5024 103.054C97.5024 103.054 97.5024 103.059 97.5024 103.064C97.5024 103.064 97.5024 103.064 97.5024 103.073C97.5024 103.073 97.5024 103.078 97.5024 103.082C97.5024 103.082 97.5024 103.087 97.5024 103.092C97.5024 103.092 97.5024 103.096 97.5024 103.101C97.5024 103.101 97.5024 103.106 97.5024 103.11V103.115C97.5024 103.115 97.5024 103.12 97.5024 103.124C97.5024 103.124 97.5024 103.129 97.5024 103.134C97.5024 103.134 97.5024 103.139 97.5024 103.143C97.5024 103.143 97.5024 103.148 97.5024 103.153C97.5024 103.153 97.5024 103.157 97.5024 103.162C97.5024 103.162 97.5024 103.167 97.5024 103.171C97.5024 103.171 97.5024 103.176 97.5024 103.181C97.5024 103.181 97.5024 103.185 97.5024 103.19C97.5024 103.19 97.5024 103.195 97.5024 103.2C97.5024 103.2 97.5024 103.204 97.5024 103.209C97.5024 103.209 97.5024 103.214 97.5024 103.218C97.5024 103.218 97.5024 103.223 97.5024 103.228C97.5024 103.228 97.5024 103.232 97.5024 103.237C97.5024 103.237 97.5024 103.242 97.5024 103.246C97.5024 103.246 97.5024 103.251 97.5024 103.256C97.5024 103.256 97.5024 103.26 97.5024 103.265C97.5024 103.265 97.5024 103.27 97.5024 103.275C97.5024 103.275 97.5024 103.279 97.5024 103.284C97.5024 103.284 97.5024 103.289 97.5024 103.293C97.5024 103.293 97.5024 103.298 97.5024 103.303C97.5024 103.307 97.5024 103.312 97.5024 103.321C97.5024 103.321 97.5024 103.326 97.5024 103.331C97.5024 103.331 97.5024 103.335 97.5024 103.34C97.5024 103.34 97.5024 103.345 97.5024 103.35C97.5024 103.35 97.5024 103.354 97.5024 103.359C97.5024 103.359 97.5024 103.364 97.5024 103.368C97.5024 103.368 97.5024 103.373 97.5024 103.378C97.5024 103.378 97.5024 103.382 97.5024 103.387C97.5024 103.387 97.5024 103.392 97.5024 103.396C97.5024 103.396 97.5024 103.401 97.5024 103.406C97.5024 103.406 97.5024 103.41 97.5024 103.415C97.5024 103.415 97.5024 103.42 97.5024 103.425C97.5024 103.425 97.5024 103.429 97.5024 103.434C97.5024 103.434 97.5024 103.439 97.5024 103.443C97.5024 103.443 97.5024 103.448 97.5024 103.453C97.5024 103.453 97.5024 103.457 97.5024 103.462C97.5024 103.462 97.5024 103.467 97.5024 103.471C97.5024 103.471 97.5024 103.476 97.5024 103.481C97.5024 103.481 97.5024 103.485 97.5024 103.49C97.5024 103.49 97.5024 103.495 97.5024 103.5C97.5024 103.5 97.5024 103.504 97.5024 103.509C97.5024 103.509 97.5024 103.514 97.5024 103.518C97.5024 103.518 97.5024 103.523 97.5024 103.528C97.5024 103.528 97.5024 103.532 97.5024 103.537C97.5024 103.537 97.5024 103.542 97.5024 103.546C97.5024 103.546 97.5024 103.551 97.5024 103.556C97.5024 103.556 97.5024 103.56 97.5024 103.565C97.5024 103.565 97.5024 103.57 97.5024 103.575V103.584C97.5024 103.584 97.5024 103.589 97.5024 103.593C97.5024 103.593 97.5024 103.598 97.5024 103.603C97.5024 103.603 97.5024 103.607 97.5024 103.612C97.5024 103.612 97.5024 103.617 97.5024 103.621C97.5024 103.621 97.5024 103.626 97.5024 103.631C97.5024 103.631 97.5024 103.636 97.5024 103.64C97.5024 103.64 97.5024 103.645 97.5024 103.65C97.5024 103.65 97.5024 103.654 97.5024 103.659C97.5024 103.659 97.5024 103.664 97.5024 103.668C97.5024 103.668 97.5024 103.673 97.5024 103.678C97.5024 103.678 97.5024 103.682 97.5024 103.687C97.5024 103.687 97.5024 103.692 97.5024 103.696C97.5024 103.696 97.5024 103.701 97.5024 103.706C97.5024 103.706 97.5024 103.706 97.5024 103.711C97.5024 103.711 97.5024 103.715 97.5024 103.72C97.5024 103.72 97.5024 103.725 97.5024 103.729C97.5024 103.729 97.5024 103.734 97.5024 103.739C97.5024 103.739 97.5024 103.743 97.5024 103.748C97.5024 103.748 97.5024 103.753 97.5024 103.757C97.5024 103.757 97.5024 103.762 97.5024 103.767C97.5024 103.767 97.5024 103.771 97.5024 103.776C97.5024 103.776 97.5024 103.781 97.5024 103.786C97.5024 103.786 97.5024 103.79 97.5024 103.795C97.5024 103.795 97.5024 103.8 97.5024 103.804C97.5024 103.804 97.5024 103.809 97.5024 103.814C97.5024 103.814 97.5024 103.818 97.5024 103.823C97.5024 103.823 97.5024 103.828 97.5024 103.832C97.5024 103.832 97.5024 103.837 97.5024 103.842C97.5024 103.842 97.5024 103.847 97.5024 103.851C97.5024 103.851 97.5024 103.856 97.5024 103.861C97.5024 103.861 97.5024 103.865 97.5024 103.87C97.5024 103.87 97.5024 103.875 97.5024 103.879C97.5024 103.879 97.5024 103.884 97.5024 103.889C97.5024 103.889 97.5024 103.893 97.5024 103.898C97.5024 103.898 97.5024 103.903 97.5024 103.907C97.5024 103.907 97.5024 103.912 97.5024 103.917V103.926C97.5024 103.926 97.5024 103.931 97.5024 103.936C97.5024 103.936 97.5024 103.94 97.5024 103.945C97.5024 103.945 97.5024 103.95 97.5024 103.954C97.5024 103.954 97.5024 103.959 97.5024 103.964C97.5024 103.964 97.5024 103.968 97.5024 103.973C97.5024 103.973 97.5024 103.978 97.5024 103.982C97.5024 103.982 97.5024 103.987 97.5024 103.992V104.001V104.011C97.5024 104.011 97.5024 104.011 97.5024 104.015V104.025C97.5024 104.025 97.5024 104.029 97.5024 104.034C97.5024 104.034 97.5024 104.039 97.5024 104.043C97.5024 104.043 97.5024 104.043 97.5024 104.048C97.5024 104.048 97.5024 104.053 97.5024 104.057V104.062C97.5024 104.062 97.5024 104.062 97.5024 104.067C97.5024 104.067 97.5024 104.072 97.5024 104.076C97.5024 104.076 97.5024 104.076 97.5024 104.081C97.5024 104.081 97.5024 104.081 97.5024 104.086C97.5024 104.086 97.5024 104.09 97.5024 104.095V104.104V104.109C97.5024 104.114 97.5024 104.118 97.5024 104.123V104.132C97.5024 104.132 97.5024 104.132 97.5024 104.137C97.5024 104.137 97.5024 104.137 97.5024 104.142C97.5024 104.147 97.5024 104.151 97.5024 104.156C97.5024 104.156 97.5024 104.156 97.5024 104.161C97.5024 104.17 97.5024 104.175 97.5024 104.184C97.5024 104.193 97.5024 104.198 97.5024 104.208C97.5024 104.208 97.5024 104.207 97.5024 104.212C97.5118 104.423 97.5259 104.634 97.5494 104.845C97.662 105.802 98.4736 106.505 99.412 106.505C99.4823 106.505 99.5527 106.505 99.6278 106.491C100.66 106.373 101.397 105.445 101.279 104.414C101.261 104.236 101.251 104.057 101.251 103.884C101.251 101.451 103.156 99.477 104.751 98.244C105.572 97.6111 105.722 96.4344 105.089 95.6139C104.718 95.1357 104.165 94.8825 103.602 94.8825L102.813 96.0405ZM103.297 110.649C102.71 110.649 102.138 110.921 101.772 111.432C101.167 112.271 101.359 113.443 102.199 114.048C103.123 114.709 104.146 115.328 105.253 115.886C105.263 115.886 105.272 115.895 105.281 115.9C105.281 115.9 105.281 115.9 105.286 115.9C105.291 115.9 105.3 115.905 105.305 115.909C105.305 115.909 105.305 115.909 105.309 115.909C105.314 115.909 105.324 115.914 105.328 115.919C105.328 115.919 105.328 115.919 105.333 115.919C105.338 115.919 105.347 115.923 105.352 115.928C105.352 115.928 105.352 115.928 105.356 115.928C105.361 115.928 105.366 115.933 105.37 115.938C105.37 115.938 105.37 115.938 105.375 115.938C105.38 115.938 105.385 115.942 105.394 115.947C105.394 115.947 105.394 115.947 105.399 115.947C105.399 115.947 105.403 115.947 105.408 115.947C105.408 115.947 105.408 115.947 105.413 115.947C105.413 115.947 105.413 115.947 105.417 115.947C105.417 115.947 105.422 115.947 105.427 115.947C105.427 115.947 105.427 115.947 105.431 115.947C105.431 115.947 105.431 115.947 105.436 115.947C105.436 115.947 105.436 115.947 105.441 115.947C105.441 115.947 105.441 115.947 105.446 115.947C105.446 115.947 105.445 115.947 105.45 115.947C105.45 115.947 105.455 115.947 105.46 115.947C105.46 115.947 105.464 115.947 105.469 115.947C105.469 115.947 105.469 115.947 105.474 115.947C105.474 115.947 105.478 115.947 105.483 115.947C105.483 115.947 105.488 115.947 105.492 115.947C105.492 115.947 105.492 115.947 105.497 115.947C105.502 115.947 105.511 115.952 105.516 115.956C105.535 115.966 105.553 115.975 105.572 115.984C107.214 116.781 109.039 117.457 111.005 117.986C111.005 117.986 111.043 117.996 111.061 118H111.071C111.071 118 111.094 118.005 111.104 118.01C111.113 118.01 111.118 118.01 111.127 118.014C111.127 118.014 111.132 118.014 111.137 118.014C111.146 118.014 111.151 118.014 111.16 118.019C111.16 118.019 111.165 118.019 111.169 118.019H111.179C111.179 118.019 111.183 118.019 111.188 118.019C111.188 118.019 111.193 118.019 111.198 118.019C111.202 118.019 111.212 118.019 111.221 118.024C111.221 118.024 111.226 118.024 111.23 118.024C111.23 118.024 111.235 118.024 111.24 118.024C111.24 118.024 111.24 118.024 111.244 118.024C111.244 118.024 111.244 118.024 111.249 118.024C111.249 118.024 111.249 118.024 111.254 118.024C111.254 118.024 111.254 118.024 111.259 118.024C111.259 118.024 111.259 118.024 111.263 118.024C111.263 118.024 111.273 118.024 111.277 118.024C111.277 118.024 111.277 118.024 111.282 118.024C111.282 118.024 111.282 118.024 111.287 118.024C111.287 118.024 111.296 118.024 111.301 118.024H111.305C111.315 118.024 111.32 118.024 111.329 118.028C111.329 118.028 111.329 118.028 111.334 118.028C111.343 118.028 111.348 118.028 111.357 118.033C111.357 118.033 111.362 118.033 111.366 118.033C111.376 118.033 111.385 118.033 111.39 118.038C111.39 118.038 111.395 118.038 111.399 118.038C111.723 118.122 112.047 118.202 112.375 118.277C112.516 118.31 112.657 118.324 112.793 118.324C113.647 118.324 114.421 117.733 114.622 116.866C114.852 115.858 114.224 114.85 113.21 114.615C109.673 113.804 106.581 112.501 104.263 110.837C103.93 110.598 103.55 110.485 103.17 110.485L103.297 110.649ZM132.99 114.104C132.808 114.104 132.625 114.133 132.442 114.189C129.378 115.126 125.901 115.652 122.383 115.703C121.346 115.717 120.52 116.57 120.534 117.607C120.548 118.633 121.388 119.454 122.411 119.454C122.42 119.454 122.429 119.454 122.439 119.454C126.446 119.393 130.218 118.793 133.539 117.775C134.529 117.471 135.088 116.42 134.783 115.431C134.534 114.625 133.793 114.104 132.99 114.104ZM144.842 101.91C144.724 101.91 144.602 101.92 144.485 101.943C143.467 102.14 142.801 103.125 142.998 104.142C143.054 104.437 143.087 104.742 143.087 105.042C143.087 107.311 141.407 109.182 140 110.354C139.202 111.015 139.094 112.201 139.756 112.998C140.127 113.443 140.661 113.673 141.201 113.673C141.623 113.673 142.05 113.532 142.397 113.242C143.594 112.248 144.584 111.16 145.32 110.007C145.32 110.007 145.32 110.007 145.32 110.002C145.32 110.002 145.339 109.974 145.348 109.96C145.372 109.922 145.4 109.88 145.424 109.843C145.424 109.843 145.428 109.833 145.433 109.829C145.433 109.829 145.438 109.819 145.442 109.815C145.442 109.81 145.447 109.805 145.452 109.801C145.452 109.796 145.456 109.791 145.461 109.787C145.461 109.782 145.466 109.777 145.47 109.772C145.47 109.772 145.47 109.768 145.475 109.763C145.475 109.763 145.475 109.763 145.475 109.758C145.475 109.758 145.475 109.754 145.48 109.749C145.48 109.749 145.48 109.749 145.48 109.744C145.48 109.744 145.48 109.74 145.484 109.735C145.484 109.735 145.484 109.735 145.484 109.73C145.484 109.73 145.485 109.726 145.489 109.721C145.489 109.716 145.494 109.712 145.499 109.707C145.499 109.707 145.503 109.697 145.508 109.693C145.508 109.688 145.513 109.683 145.517 109.679C145.517 109.679 145.517 109.674 145.522 109.669C145.522 109.669 145.522 109.669 145.522 109.665C145.522 109.665 145.522 109.66 145.527 109.655C145.527 109.655 145.527 109.651 145.531 109.646C145.531 109.646 145.531 109.646 145.531 109.641C145.531 109.641 145.531 109.636 145.536 109.632C145.536 109.632 145.536 109.627 145.541 109.622C145.541 109.622 145.545 109.613 145.55 109.608C145.55 109.608 145.55 109.604 145.555 109.599C145.555 109.594 145.56 109.59 145.564 109.585C145.564 109.58 145.569 109.576 145.574 109.571C145.574 109.571 145.574 109.566 145.574 109.561C145.574 109.561 145.574 109.557 145.574 109.552C145.574 109.552 145.574 109.547 145.574 109.543C145.574 109.543 145.574 109.543 145.574 109.538C145.574 109.538 145.574 109.533 145.574 109.529C145.574 109.529 145.574 109.524 145.574 109.519C145.574 109.515 145.578 109.51 145.583 109.505C145.583 109.505 145.588 109.496 145.592 109.491C145.592 109.486 145.597 109.482 145.602 109.477C145.602 109.477 145.606 109.468 145.611 109.463C145.611 109.463 145.611 109.458 145.611 109.454C145.611 109.454 145.611 109.449 145.611 109.444C145.611 109.444 145.611 109.444 145.611 109.435C145.611 109.435 145.611 109.435 145.611 109.43C145.611 109.43 145.611 109.43 145.611 109.426C145.611 109.426 145.611 109.426 145.611 109.421C145.611 109.421 145.611 109.416 145.611 109.411C145.611 109.411 145.611 109.411 145.611 109.407C145.611 109.407 145.611 109.407 145.611 109.402C145.611 109.402 145.611 109.402 145.611 109.397C145.611 109.397 145.611 109.397 145.611 109.393C145.611 109.393 145.611 109.393 145.611 109.388C145.611 109.388 145.611 109.388 145.611 109.383C145.611 109.383 145.611 109.379 145.611 109.374C145.611 109.374 145.611 109.374 145.611 109.369C145.611 109.369 145.611 109.369 145.611 109.365C145.611 109.365 145.611 109.365 145.611 109.36C145.611 109.36 145.611 109.36 145.611 109.355C145.611 109.355 145.611 109.355 145.611 109.351C145.611 109.351 145.611 109.351 145.611 109.346C145.611 109.346 145.611 109.346 145.611 109.341C145.611 109.341 145.611 109.336 145.611 109.332V109.322C145.611 109.322 145.611 109.322 145.611 109.318C145.611 109.318 145.611 109.313 145.611 109.308C145.611 109.308 145.611 109.308 145.611 109.304C145.611 109.304 145.611 109.304 145.611 109.299C145.611 109.299 145.611 109.299 145.611 109.294C145.611 109.294 145.611 109.294 145.611 109.29C145.611 109.29 145.611 109.29 145.611 109.285C145.611 109.285 145.611 109.285 145.611 109.28C145.611 109.28 145.611 109.28 145.611 109.276C145.611 109.276 145.611 109.276 145.611 109.271C145.611 109.271 145.611 109.271 145.611 109.266C145.611 109.266 145.611 109.266 145.611 109.261C145.611 109.261 145.611 109.261 145.611 109.257C145.611 109.257 145.611 109.257 145.611 109.252C145.611 109.252 145.611 109.252 145.611 109.247C145.611 109.247 145.611 109.247 145.611 109.243C145.611 109.243 145.611 109.243 145.611 109.238C145.611 109.238 145.611 109.238 145.611 109.233C145.611 109.233 145.611 109.233 145.611 109.229C145.611 109.229 145.611 109.229 145.611 109.224C145.611 109.224 145.611 109.224 145.611 109.219C145.611 109.219 145.611 109.219 145.611 109.215C145.611 109.215 145.611 109.215 145.611 109.21C145.611 109.21 145.611 109.21 145.611 109.205C145.611 109.205 145.611 109.205 145.611 109.2C145.611 109.2 145.611 109.2 145.611 109.196C145.611 109.196 145.611 109.196 145.611 109.191C145.611 109.191 145.611 109.191 145.611 109.186C145.611 109.186 145.611 109.186 145.611 109.182C145.611 109.182 145.611 109.182 145.611 109.177C145.611 109.177 145.611 109.177 145.611 109.172C145.611 109.172 145.611 109.168 145.611 109.163C145.611 109.163 145.611 109.158 145.611 109.154C145.611 109.154 145.611 109.154 145.611 109.149C145.611 109.149 145.611 109.149 145.611 109.144C145.611 109.144 145.611 109.144 145.611 109.14C145.611 109.14 145.611 109.14 145.611 109.135C145.611 109.135 145.611 109.135 145.611 109.13C145.611 109.13 145.611 109.13 145.611 109.125C145.611 109.125 145.611 109.125 145.611 109.121C145.611 109.121 145.611 109.121 145.611 109.116C145.611 109.116 145.611 109.116 145.611 109.111C145.611 109.111 145.611 109.111 145.611 109.107C145.611 109.107 145.611 109.107 145.611 109.102C145.611 109.102 145.611 109.097 145.611 109.093C145.611 109.093 145.611 109.093 145.611 109.088C145.611 109.088 145.611 109.083 145.611 109.079C145.611 109.079 145.611 109.079 145.611 109.074C145.611 109.074 145.611 109.074 145.611 109.069C145.611 109.069 145.611 109.069 145.611 109.065C145.611 109.065 145.611 109.065 145.611 109.06C145.611 109.06 145.611 109.055 145.611 109.05C145.611 109.05 145.611 109.05 145.611 109.046C145.611 109.046 145.611 109.041 145.611 109.036C145.611 109.036 145.611 109.036 145.611 109.032C145.611 109.032 145.611 109.032 145.611 109.027C145.611 109.027 145.611 109.027 145.611 109.022V109.018C145.611 109.018 145.611 109.018 145.611 109.013C145.611 109.013 145.611 109.013 145.611 109.008C145.611 109.008 145.611 109.004 145.611 108.999C145.611 108.999 145.611 108.999 145.611 108.994C145.611 108.994 145.611 108.994 145.611 108.99C145.611 108.99 145.611 108.985 145.611 108.98C145.611 108.98 145.611 108.98 145.611 108.975C145.611 108.975 145.611 108.975 145.611 108.971C145.611 108.971 145.611 108.971 145.611 108.966C145.611 108.966 145.611 108.966 145.611 108.961V108.957C145.611 108.957 145.611 108.957 145.611 108.952C145.611 108.952 145.611 108.952 145.611 108.947C145.611 108.947 145.611 108.947 145.611 108.943C145.611 108.943 145.611 108.938 145.611 108.933C145.611 108.933 145.611 108.933 145.611 108.929C145.611 108.929 145.611 108.924 145.611 108.919C145.611 108.919 145.611 108.919 145.611 108.915C145.611 108.915 145.611 108.91 145.611 108.905C145.611 108.905 145.611 108.905 145.611 108.9C145.611 108.9 145.611 108.896 145.611 108.891C145.611 108.891 145.611 108.891 145.611 108.886C145.611 108.886 145.611 108.886 145.611 108.877C145.611 108.877 145.611 108.877 145.611 108.872C145.611 108.872 145.611 108.872 145.611 108.868C145.611 108.868 145.611 108.863 145.611 108.858C145.611 108.858 145.611 108.858 145.611 108.854V108.849C145.611 108.849 145.611 108.849 145.611 108.844C145.611 108.844 145.611 108.84 145.611 108.835C145.611 108.835 145.611 108.83 145.611 108.825C145.611 108.825 145.611 108.821 145.611 108.816C145.611 108.816 145.611 108.811 145.611 108.807C145.611 108.807 145.611 108.802 145.611 108.797C145.611 108.797 145.611 108.797 145.611 108.793C145.611 108.793 145.611 108.788 145.611 108.783C145.611 108.783 145.611 108.779 145.611 108.774C145.611 108.774 145.611 108.769 145.611 108.764C145.611 108.764 145.611 108.764 145.611 108.76C145.611 108.76 145.611 108.755 145.611 108.75C145.611 108.75 145.611 108.75 145.611 108.746C145.611 108.746 145.611 108.746 145.611 108.741C145.611 108.741 145.611 108.736 145.611 108.732C145.611 108.732 145.611 108.732 145.611 108.727C145.611 108.727 145.611 108.722 145.611 108.718C145.611 108.718 145.611 108.718 145.611 108.713C145.611 108.713 145.611 108.708 145.611 108.704C145.611 108.704 145.611 108.699 145.611 108.694C145.611 108.694 145.611 108.689 145.611 108.685C145.611 108.685 145.611 108.685 145.611 108.68C145.611 108.68 145.611 108.675 145.611 108.671C145.611 108.671 145.611 108.671 145.611 108.666C145.611 108.666 145.611 108.661 145.611 108.657C145.611 108.657 145.611 108.652 145.611 108.647C145.611 108.647 145.611 108.643 145.611 108.638C145.611 108.638 145.611 108.633 145.611 108.629C145.611 108.629 145.611 108.624 145.611 108.619C145.611 108.619 145.611 108.61 145.616 108.6C145.616 108.6 145.616 108.596 145.616 108.591C145.616 108.591 145.616 108.586 145.616 108.582C145.616 108.582 145.616 108.577 145.616 108.572C145.616 108.572 145.616 108.568 145.616 108.563C145.616 108.563 145.616 108.558 145.616 108.554C145.616 108.554 145.616 108.553 145.616 108.549C145.616 108.549 145.616 108.544 145.616 108.539C145.616 108.539 145.616 108.539 145.616 108.535C145.616 108.535 145.616 108.53 145.616 108.525C145.616 108.525 145.616 108.525 145.616 108.521C145.616 108.521 145.616 108.516 145.616 108.511C145.616 108.511 145.616 108.511 145.616 108.507C145.616 108.507 145.616 108.502 145.616 108.497C145.616 108.497 145.616 108.483 145.621 108.479C145.621 108.479 145.621 108.474 145.621 108.469C145.621 108.469 145.621 108.464 145.621 108.46C145.621 108.46 145.621 108.455 145.621 108.45C145.621 108.45 145.621 108.446 145.621 108.441C145.621 108.441 145.621 108.436 145.621 108.432C145.621 108.432 145.621 108.427 145.621 108.422C145.621 108.422 145.621 108.418 145.621 108.413C145.621 108.413 145.621 108.408 145.621 108.403C145.621 108.403 145.621 108.399 145.621 108.394C145.621 108.394 145.621 108.389 145.621 108.385C145.621 108.385 145.621 108.38 145.621 108.375C145.621 108.375 145.621 108.371 145.621 108.366C145.621 108.366 145.621 108.361 145.621 108.357C145.621 108.357 145.621 108.352 145.621 108.347C145.621 108.347 145.621 108.343 145.621 108.338C145.621 108.338 145.621 108.328 145.625 108.319C145.625 108.319 145.625 108.314 145.625 108.31C145.625 108.31 145.625 108.305 145.625 108.3C145.625 108.296 145.625 108.291 145.63 108.286C145.63 108.286 145.63 108.282 145.63 108.277C145.63 108.277 145.63 108.277 145.63 108.272C145.63 108.272 145.63 108.268 145.63 108.263C145.63 108.263 145.63 108.258 145.63 108.253C145.63 108.253 145.63 108.249 145.63 108.244C145.63 108.244 145.63 108.239 145.63 108.235C145.63 108.235 145.63 108.23 145.63 108.225C145.63 108.225 145.63 108.221 145.63 108.216C145.63 108.216 145.63 108.211 145.63 108.207C145.63 108.207 145.63 108.202 145.63 108.197C145.63 108.197 145.63 108.193 145.63 108.188C145.63 108.183 145.63 108.178 145.63 108.174C145.63 108.169 145.63 108.164 145.63 108.16C145.63 108.16 145.63 108.155 145.63 108.15C145.63 108.15 145.63 108.146 145.63 108.141C145.63 108.141 145.63 108.136 145.63 108.132C145.63 108.132 145.63 108.127 145.63 108.122C145.63 108.122 145.63 108.117 145.63 108.113C145.63 108.113 145.63 108.108 145.63 108.103C145.63 108.103 145.63 108.099 145.63 108.094C145.63 108.094 145.63 108.089 145.63 108.085C145.63 108.085 145.63 108.08 145.63 108.075C145.63 108.075 145.63 108.066 145.63 108.061C145.63 108.057 145.63 108.052 145.63 108.047C145.63 108.047 145.63 108.038 145.63 108.028C145.63 108.024 145.63 108.019 145.63 108.014C145.63 108.014 145.63 108.01 145.63 108.005C145.63 108.005 145.63 108 145.63 107.996C145.63 107.996 145.63 107.991 145.63 107.986C145.63 107.986 145.63 107.982 145.63 107.977C145.63 107.977 145.63 107.972 145.63 107.967C145.63 107.967 145.63 107.963 145.63 107.958C145.63 107.958 145.63 107.953 145.63 107.949C145.63 107.949 145.63 107.944 145.63 107.939C145.63 107.939 145.63 107.935 145.63 107.93C145.63 107.93 145.63 107.925 145.63 107.921C145.63 107.921 145.63 107.916 145.63 107.911C145.63 107.907 145.63 107.902 145.63 107.897C145.63 107.897 145.63 107.883 145.63 107.878C145.63 107.874 145.63 107.869 145.63 107.864C145.63 107.864 145.63 107.86 145.63 107.855C145.63 107.855 145.63 107.85 145.63 107.846C145.63 107.846 145.63 107.841 145.63 107.836C145.63 107.836 145.63 107.832 145.63 107.827C145.63 107.827 145.63 107.822 145.63 107.817C145.63 107.817 145.63 107.817 145.63 107.813C145.63 107.813 145.63 107.808 145.63 107.803C145.63 107.803 145.63 107.803 145.63 107.799C145.63 107.799 145.63 107.794 145.63 107.789C145.63 107.789 145.63 107.785 145.63 107.78C145.63 107.78 145.63 107.775 145.63 107.771C145.63 107.766 145.63 107.761 145.63 107.756C145.63 107.756 145.63 107.747 145.63 107.738C145.63 107.738 145.63 107.733 145.63 107.728C145.63 107.728 145.63 107.724 145.63 107.719C145.63 107.719 145.63 107.714 145.63 107.71C145.63 107.71 145.63 107.705 145.63 107.7C145.63 107.7 145.63 107.696 145.63 107.691C145.63 107.691 145.63 107.686 145.63 107.681C145.63 107.681 145.63 107.677 145.63 107.672C145.63 107.672 145.63 107.667 145.63 107.663C145.63 107.663 145.63 107.658 145.63 107.653C145.63 107.653 145.63 107.653 145.63 107.649C145.63 107.649 145.63 107.644 145.63 107.639C145.63 107.639 145.63 107.635 145.63 107.63C145.63 107.63 145.63 107.625 145.63 107.621C145.63 107.616 145.63 107.611 145.63 107.606C145.63 107.602 145.63 107.597 145.63 107.592C145.63 107.592 145.63 107.588 145.63 107.583C145.63 107.583 145.63 107.578 145.63 107.574C145.63 107.574 145.63 107.569 145.63 107.564C145.63 107.564 145.63 107.56 145.63 107.555C145.63 107.555 145.63 107.55 145.63 107.546C145.63 107.546 145.63 107.541 145.63 107.536C145.63 107.536 145.63 107.531 145.63 107.527C145.63 107.527 145.63 107.522 145.63 107.517C145.63 107.517 145.63 107.513 145.63 107.508C145.63 107.508 145.63 107.508 145.63 107.499C145.63 107.499 145.63 107.494 145.63 107.489C145.63 107.489 145.63 107.485 145.63 107.48C145.63 107.48 145.63 107.475 145.63 107.471V107.461C145.63 107.461 145.63 107.456 145.63 107.452C145.63 107.452 145.63 107.447 145.63 107.442C145.63 107.442 145.63 107.438 145.63 107.433C145.63 107.433 145.63 107.428 145.63 107.424C145.63 107.424 145.63 107.419 145.63 107.414C145.63 107.414 145.63 107.41 145.63 107.405C145.63 107.405 145.63 107.405 145.63 107.4C145.63 107.4 145.63 107.396 145.63 107.391C145.63 107.391 145.63 107.391 145.63 107.386C145.63 107.386 145.63 107.381 145.63 107.377C145.63 107.377 145.63 107.377 145.63 107.372C145.63 107.372 145.63 107.367 145.63 107.363C145.63 107.363 145.63 107.358 145.63 107.353C145.63 107.353 145.63 107.349 145.63 107.344C145.63 107.344 145.63 107.339 145.63 107.335C145.63 107.335 145.63 107.33 145.63 107.325C145.63 107.32 145.63 107.316 145.63 107.311C145.63 107.306 145.63 107.302 145.63 107.297C145.63 107.297 145.63 107.292 145.63 107.288C145.63 107.288 145.63 107.283 145.63 107.278C145.63 107.278 145.63 107.274 145.63 107.269C145.63 107.269 145.63 107.264 145.63 107.26C145.63 107.26 145.63 107.255 145.63 107.25C145.63 107.25 145.63 107.245 145.63 107.241C145.63 107.241 145.63 107.236 145.63 107.231C145.63 107.231 145.63 107.227 145.63 107.222C145.63 107.222 145.63 107.217 145.63 107.213C145.63 107.213 145.63 107.208 145.63 107.203C145.63 107.203 145.63 107.199 145.63 107.194C145.63 107.189 145.63 107.185 145.63 107.18C145.63 107.175 145.63 107.17 145.63 107.161C145.63 107.161 145.63 107.152 145.63 107.142C145.63 107.142 145.63 107.138 145.63 107.133C145.63 107.133 145.63 107.128 145.63 107.124C145.63 107.124 145.63 107.119 145.63 107.114C145.63 107.114 145.63 107.11 145.63 107.105C145.63 107.105 145.63 107.1 145.63 107.095C145.63 107.095 145.63 107.095 145.63 107.091C145.63 107.091 145.63 107.086 145.63 107.081C145.63 107.081 145.63 107.077 145.63 107.072C145.63 107.072 145.63 107.067 145.63 107.063C145.63 107.063 145.63 107.063 145.63 107.058C145.63 107.058 145.63 107.053 145.63 107.049C145.63 107.044 145.63 107.039 145.63 107.035C145.63 107.03 145.63 107.025 145.63 107.02C145.63 107.016 145.63 107.011 145.63 107.006C145.63 107.006 145.63 107.002 145.63 106.997C145.63 106.997 145.63 106.992 145.63 106.988C145.63 106.988 145.63 106.983 145.63 106.978C145.63 106.978 145.63 106.974 145.63 106.969C145.63 106.969 145.63 106.964 145.63 106.96C145.63 106.96 145.63 106.96 145.63 106.955C145.63 106.955 145.63 106.95 145.63 106.945C145.63 106.945 145.63 106.945 145.63 106.941C145.63 106.941 145.63 106.936 145.63 106.931C145.63 106.931 145.63 106.931 145.63 106.927C145.63 106.927 145.63 106.922 145.63 106.917C145.63 106.917 145.63 106.913 145.63 106.908C145.63 106.908 145.63 106.903 145.63 106.899C145.63 106.899 145.63 106.894 145.63 106.889C145.63 106.889 145.63 106.884 145.63 106.88C145.63 106.88 145.63 106.875 145.63 106.87C145.63 106.87 145.63 106.87 145.63 106.866C145.63 106.866 145.63 106.861 145.63 106.856C145.63 106.856 145.63 106.852 145.63 106.847C145.63 106.847 145.63 106.842 145.63 106.838C145.63 106.838 145.63 106.838 145.63 106.833C145.63 106.833 145.63 106.828 145.63 106.824C145.63 106.824 145.63 106.819 145.63 106.814C145.63 106.814 145.63 106.809 145.63 106.805V106.795C145.63 106.795 145.63 106.791 145.63 106.786C145.63 106.786 145.63 106.781 145.63 106.777C145.63 106.777 145.63 106.772 145.63 106.767C145.63 106.767 145.63 106.767 145.63 106.763C145.63 106.763 145.63 106.758 145.63 106.753C145.63 106.753 145.63 106.749 145.63 106.744C145.63 106.744 145.63 106.739 145.63 106.734C145.63 106.734 145.63 106.73 145.63 106.725C145.63 106.725 145.63 106.72 145.63 106.716C145.63 106.716 145.63 106.711 145.63 106.706C145.63 106.706 145.63 106.706 145.63 106.702C145.63 106.702 145.63 106.697 145.63 106.692C145.63 106.692 145.63 106.692 145.63 106.688C145.63 106.688 145.63 106.683 145.63 106.678C145.63 106.678 145.63 106.678 145.63 106.674C145.63 106.674 145.63 106.669 145.63 106.664C145.63 106.664 145.63 106.664 145.63 106.659C145.63 106.659 145.63 106.655 145.63 106.65C145.63 106.65 145.63 106.65 145.63 106.645C145.63 106.645 145.63 106.641 145.63 106.636C145.63 106.636 145.63 106.631 145.63 106.627C145.63 106.627 145.63 106.622 145.63 106.617C145.63 106.617 145.63 106.613 145.63 106.608C145.63 106.608 145.63 106.603 145.63 106.599C145.63 106.599 145.63 106.594 145.63 106.589C145.63 106.589 145.63 106.589 145.63 106.584C145.63 106.584 145.63 106.58 145.63 106.575C145.63 106.575 145.63 106.575 145.63 106.57C145.63 106.57 145.63 106.566 145.63 106.561C145.63 106.561 145.63 106.556 145.63 106.552C145.63 106.552 145.63 106.547 145.63 106.542C145.63 106.542 145.63 106.542 145.63 106.538C145.63 106.538 145.63 106.533 145.63 106.528C145.63 106.528 145.63 106.524 145.63 106.519C145.63 106.519 145.63 106.514 145.63 106.509C145.63 106.509 145.63 106.505 145.63 106.5C145.63 106.5 145.63 106.495 145.63 106.491C145.63 106.486 145.63 106.481 145.63 106.477C145.63 106.472 145.63 106.467 145.63 106.463C145.63 106.463 145.63 106.458 145.63 106.453C145.63 106.453 145.63 106.448 145.63 106.444C145.63 106.444 145.63 106.439 145.63 106.434C145.63 106.434 145.63 106.434 145.63 106.43C145.63 106.43 145.63 106.425 145.63 106.42C145.63 106.42 145.63 106.42 145.63 106.416C145.63 106.416 145.63 106.411 145.63 106.406C145.63 106.406 145.63 106.406 145.63 106.402C145.63 106.402 145.63 106.397 145.63 106.392C145.63 106.392 145.63 106.392 145.63 106.388C145.63 106.388 145.63 106.383 145.63 106.378C145.63 106.378 145.63 106.378 145.63 106.373C145.63 106.373 145.63 106.369 145.63 106.364C145.63 106.364 145.63 106.359 145.63 106.355C145.63 106.355 145.63 106.35 145.63 106.345C145.63 106.345 145.63 106.341 145.63 106.336C145.63 106.336 145.63 106.336 145.63 106.331C145.63 106.331 145.63 106.327 145.63 106.322C145.63 106.322 145.63 106.317 145.63 106.313C145.63 106.313 145.63 106.308 145.63 106.303C145.63 106.303 145.63 106.303 145.63 106.298C145.63 106.298 145.63 106.294 145.63 106.289C145.63 106.289 145.63 106.289 145.63 106.284C145.63 106.284 145.63 106.28 145.63 106.275C145.63 106.275 145.63 106.275 145.63 106.27C145.63 106.27 145.63 106.266 145.63 106.261C145.63 106.261 145.63 106.261 145.63 106.256C145.63 106.256 145.63 106.252 145.63 106.247C145.63 106.247 145.63 106.242 145.63 106.238C145.63 106.238 145.63 106.233 145.63 106.228C145.63 106.223 145.63 106.219 145.63 106.214C145.63 106.214 145.63 106.209 145.63 106.205C145.63 106.205 145.63 106.205 145.63 106.195C145.63 106.195 145.63 106.191 145.63 106.186C145.63 106.186 145.63 106.186 145.63 106.181C145.63 106.181 145.63 106.177 145.63 106.172C145.63 106.172 145.63 106.172 145.63 106.167C145.63 106.167 145.63 106.162 145.63 106.158C145.63 106.158 145.63 106.153 145.63 106.148C145.63 106.148 145.63 106.144 145.63 106.139C145.63 106.139 145.63 106.139 145.63 106.134C145.63 106.134 145.63 106.13 145.63 106.125C145.63 106.125 145.63 106.125 145.63 106.12C145.63 106.12 145.63 106.116 145.63 106.111C145.63 106.111 145.63 106.106 145.63 106.102C145.63 106.102 145.63 106.097 145.63 106.092C145.63 106.092 145.63 106.092 145.63 106.087C145.63 106.087 145.63 106.087 145.63 106.083C145.63 106.083 145.63 106.083 145.63 106.073C145.63 106.073 145.63 106.073 145.63 106.069C145.63 106.069 145.63 106.064 145.63 106.059C145.63 106.059 145.63 106.059 145.63 106.055C145.63 106.055 145.63 106.05 145.63 106.045C145.63 106.045 145.63 106.045 145.63 106.041C145.63 106.041 145.63 106.036 145.63 106.031C145.63 106.031 145.63 106.031 145.63 106.027C145.63 106.027 145.63 106.022 145.63 106.017C145.63 106.017 145.63 106.017 145.63 106.012C145.63 106.012 145.63 106.008 145.63 106.003C145.63 106.003 145.63 105.998 145.63 105.994C145.63 105.994 145.63 105.989 145.63 105.984C145.63 105.984 145.63 105.98 145.63 105.975C145.63 105.975 145.63 105.97 145.63 105.966C145.63 105.966 145.63 105.961 145.63 105.956C145.63 105.956 145.63 105.952 145.63 105.947C145.63 105.947 145.63 105.942 145.63 105.937C145.63 105.937 145.63 105.933 145.63 105.928C145.63 105.928 145.63 105.923 145.63 105.919C145.63 105.919 145.63 105.919 145.63 105.914C145.63 105.914 145.63 105.909 145.63 105.905C145.63 105.905 145.63 105.9 145.63 105.895C145.63 105.895 145.63 105.891 145.63 105.886C145.63 105.886 145.63 105.886 145.63 105.881C145.63 105.881 145.63 105.877 145.63 105.872C145.63 105.872 145.63 105.872 145.63 105.867C145.63 105.867 145.63 105.862 145.63 105.858C145.63 105.858 145.63 105.853 145.63 105.848C145.63 105.848 145.63 105.844 145.63 105.839V105.83V105.82V105.811V105.801V105.792V105.783V105.778V105.773V105.769C145.63 105.769 145.63 105.764 145.63 105.759C145.63 105.759 145.63 105.755 145.63 105.75C145.63 105.741 145.63 105.736 145.63 105.726C145.63 105.726 145.63 105.726 145.63 105.722C145.63 105.722 145.63 105.722 145.63 105.717C145.63 105.717 145.63 105.717 145.63 105.712C145.63 105.694 145.63 105.68 145.63 105.661C145.621 105.403 145.602 105.15 145.569 104.897C145.569 104.897 145.569 104.897 145.569 104.892C145.569 104.892 145.569 104.883 145.569 104.878C145.569 104.878 145.569 104.878 145.569 104.873C145.569 104.873 145.569 104.873 145.569 104.869C145.569 104.869 145.569 104.869 145.569 104.864C145.569 104.864 145.569 104.864 145.569 104.859C145.569 104.859 145.569 104.859 145.569 104.854C145.569 104.854 145.569 104.854 145.569 104.85C145.55 104.7 145.522 104.55 145.494 104.4C145.32 103.504 144.532 102.881 143.655 102.881L144.842 101.91ZM130.007 91.4648C129.139 91.4648 128.36 92.0696 128.172 92.9557C127.956 93.9683 128.608 94.9669 129.622 95.1779C133.164 95.9233 136.308 97.1704 138.705 98.7738C139.024 98.9895 139.39 99.0926 139.747 99.0926C140.352 99.0926 140.948 98.8019 141.309 98.2581C141.886 97.3955 141.656 96.2328 140.793 95.6561C138.846 94.3528 136.505 93.2557 133.873 92.4165C133.835 92.4071 133.797 92.3931 133.765 92.3837C133.746 92.379 133.727 92.3743 133.708 92.3649C133.708 92.3649 133.704 92.3649 133.699 92.3649C133.69 92.3649 133.685 92.3649 133.68 92.3603C133.68 92.3603 133.675 92.3603 133.671 92.3603C133.671 92.3603 133.647 92.3556 133.638 92.3509C133.638 92.3509 133.633 92.3509 133.629 92.3509C133.629 92.3509 133.624 92.3509 133.619 92.3509C133.619 92.3509 133.614 92.3509 133.61 92.3509C133.61 92.3509 133.605 92.3509 133.6 92.3509C133.6 92.3509 133.596 92.3509 133.591 92.3509C133.591 92.3509 133.586 92.3509 133.582 92.3509C133.582 92.3509 133.582 92.3509 133.577 92.3509C133.577 92.3509 133.577 92.3509 133.572 92.3509H133.568C133.568 92.3509 133.568 92.3509 133.563 92.3509C133.563 92.3509 133.563 92.3509 133.558 92.3509C133.558 92.3509 133.558 92.3509 133.553 92.3509H133.549C133.549 92.3509 133.544 92.3509 133.539 92.3509C133.539 92.3509 133.539 92.3509 133.535 92.3509C133.535 92.3509 133.535 92.3509 133.53 92.3509C133.53 92.3509 133.53 92.3509 133.521 92.3509C133.521 92.3509 133.521 92.3509 133.516 92.3509C133.516 92.3509 133.516 92.3509 133.511 92.3509C133.511 92.3509 133.507 92.3509 133.502 92.3509C133.502 92.3509 133.497 92.3509 133.493 92.3509C133.493 92.3509 133.492 92.3509 133.488 92.3509C133.488 92.3509 133.488 92.3509 133.483 92.3509C133.483 92.3509 133.483 92.3509 133.478 92.3509C133.478 92.3509 133.478 92.3509 133.474 92.3509C133.474 92.3509 133.474 92.3509 133.464 92.3509C133.464 92.3509 133.464 92.3509 133.46 92.3509C133.46 92.3509 133.46 92.3509 133.455 92.3509H133.446C133.446 92.3509 133.446 92.3509 133.441 92.3509C133.441 92.3509 133.441 92.3509 133.436 92.3509C133.432 92.3509 133.422 92.3509 133.413 92.3462C133.413 92.3462 133.413 92.3462 133.408 92.3462C133.403 92.3462 133.394 92.3462 133.385 92.3415C133.385 92.3415 133.385 92.3415 133.38 92.3415C133.375 92.3415 133.366 92.3415 133.356 92.3368C133.356 92.3368 133.356 92.3368 133.347 92.3368C133.342 92.3368 133.333 92.3368 133.324 92.3321C133.324 92.3321 133.324 92.3321 133.319 92.3321C133.314 92.3321 133.305 92.3321 133.295 92.3274C133.295 92.3274 133.295 92.3274 133.291 92.3274C133.281 92.3274 133.272 92.3228 133.258 92.3181C133.249 92.3181 133.239 92.3134 133.225 92.3087C133.216 92.3087 133.202 92.304 133.192 92.2993C133.192 92.2993 133.169 92.2946 133.159 92.2899C132.301 92.0414 131.414 91.8211 130.504 91.6289C130.373 91.6008 130.246 91.5867 130.119 91.5867L130.007 91.4648Z" fill="#3D84BB"/>
<path d="M138.724 39.7579C133.694 36.4433 126.699 27.1746 126.699 27.1746C124.813 24.0616 122.631 21.0236 119.662 18.9935C114.716 15.618 109.893 19.1342 104.676 19.0404C93.5241 18.8388 85.6279 10.1937 85.6279 10.1937L101.561 1C101.561 1 113.093 9.7436 121.51 9.95457C124.851 10.039 126.769 9.31228 127.605 8.88565C128.266 8.5434 128.975 8.27149 129.716 8.16366C133.938 7.55419 136.983 10.8547 136.983 10.8547C139.953 14.0334 142.252 18.0559 144.997 21.4549C148.699 26.0353 153.01 30.8267 157.871 34.2116C160.653 36.1479 164.05 37.4231 167.132 38.8249L151.002 48.1311" fill="#E7EBEE"/>
<path d="M138.724 39.7579C133.694 36.4433 126.699 27.1746 126.699 27.1746C124.813 24.0616 122.631 21.0236 119.662 18.9935C114.716 15.618 109.893 19.1342 104.676 19.0404C93.5241 18.8388 85.6279 10.1937 85.6279 10.1937L101.561 1C101.561 1 113.093 9.7436 121.51 9.95457C124.851 10.039 126.769 9.31228 127.605 8.88565C128.266 8.5434 128.975 8.27149 129.716 8.16366C133.938 7.55419 136.983 10.8547 136.983 10.8547C139.953 14.0334 142.252 18.0559 144.997 21.4549C148.699 26.0353 153.01 30.8267 157.871 34.2116C160.653 36.1479 164.05 37.4231 167.132 38.8249L151.002 48.1311" stroke="#19374E" stroke-width="2" stroke-linecap="round" stroke-linejoin="round"/>
<path d="M162.459 71.1646C156.524 83.1947 146.634 92.7119 133.558 96.3312C128.824 97.6393 123.851 98.5347 118.939 98.7973C118.939 98.7973 134.628 97.9018 144.086 81.7273C151.255 69.4628 151.007 48.1265 151.007 48.1265L167.137 38.8203C167.137 38.8203 167.963 60.0113 162.464 71.16L162.459 71.1646Z" fill="#3D84BB" stroke="#19374E" stroke-width="2" stroke-linecap="round" stroke-linejoin="round"/>
<path d="M144.087 81.7318C134.633 97.9016 118.939 98.8017 118.939 98.8017C118.939 98.8017 109.828 87.4702 105.741 80.7191C101.659 73.9727 98.0985 68.1499 91.8116 51.7784C85.7077 35.8899 85.6279 10.1982 85.6279 10.1982C85.6279 10.1982 93.5241 18.8481 104.676 19.045C109.893 19.1388 114.716 15.6179 119.662 18.9981C122.134 20.6906 124.123 23.105 125.695 25.6695C127.135 28.0183 128.843 30.1984 130.711 32.2284C134.609 36.4619 141.314 42.6926 151.007 48.1357C151.007 48.1357 151.255 69.4719 144.087 81.7364V81.7318Z" fill="white" stroke="#19374E" stroke-width="2" stroke-linecap="round" stroke-linejoin="round"/>
<path d="M120.159 94.9715C117.292 91.3053 110.085 81.7412 107.392 77.2921C107.392 77.2921 101.575 67.0388 95.5318 50.9956C92.1678 42.0645 90.6899 29.0124 89.883 20.5875C89.8314 20.0296 90.4366 19.5421 90.9058 19.8468C99.8388 25.6509 107.89 24.882 111.385 24.2913C112.736 24.0615 115.612 23.513 116.56 23.513C117.193 23.513 117.616 23.6396 118.104 23.9725C119.933 25.2195 121.2 27.498 123.203 30.1657C124.034 31.2721 132.423 41.3987 146.887 51.1409C147.187 51.3425 147.375 51.6801 147.37 52.0411C147.286 59.0641 145.325 71.6802 141.102 78.9048C135.453 88.5626 129.162 92.1445 120.154 94.9715H120.159Z" fill="white" stroke="#19374E" stroke-linecap="round" stroke-linejoin="round"/>
<path d="M124.203 62.9414C121.13 57.3718 116.063 54.2822 112.873 56.0356C109.687 57.789 109.593 63.7243 112.662 69.294C115.735 74.8637 120.802 77.9532 123.992 76.1998C127.173 74.4464 127.267 68.5111 124.203 62.9414ZM122.012 72.6649C120.262 73.6166 117.212 71.4037 115.19 67.7187C113.173 64.0338 112.952 60.2738 114.698 59.3221C116.443 58.3657 119.497 60.5785 121.515 64.2635C123.537 67.9485 123.757 71.7085 122.012 72.6649Z" fill="#3D84BB"/>
<path d="M112.459 41.7268L113.717 38.0371L120.707 42.0034V55.5431L116.227 52.8755V43.8506L112.459 41.7268Z" fill="#3D84BB"/>
<path d="M69.4837 34.5771C69.4743 39.7014 69.4603 44.8257 69.4509 49.95C69.4415 53.3067 69.4368 56.6635 69.4274 60.0203C69.4274 61.5253 69.5447 63.0958 69.357 64.5961C68.9254 68.117 66.6499 71.0471 63.6566 72.7865C59.9079 74.9665 56.1593 77.1419 52.4106 79.3219C40.245 86.3918 28.0794 93.457 15.9138 100.527C12.639 102.43 9.37828 104.362 6.0847 106.237C3.33536 107.808 0.844075 106.856 0.740857 103.499C0.393671 92.3412 0.661094 81.1363 0.618869 69.9735V68.9046L0.637639 74.3993L69.4837 34.5771Z" fill="#3D84BB" stroke="#19374E" stroke-linecap="round" stroke-linejoin="round"/>
<path d="M69.5071 24.6009L69.4931 34.5728C61.7893 39.0267 54.0902 43.4852 46.3864 47.9391C33.9956 55.1027 21.6095 62.2711 9.21876 69.4347C6.35682 71.0897 3.49956 72.7446 0.637625 74.3949C0.62355 71.0569 0.609481 67.7235 0.600098 64.3855L69.5118 24.5962L69.5071 24.6009Z" fill="#E7EBEE" stroke="#19374E" stroke-linecap="round" stroke-linejoin="round"/>
<path d="M69.5211 18.881L69.507 24.6007L0.599945 64.39C0.590561 61.4739 0.154228 58.253 1.18171 55.4588C2.03091 53.1522 3.59324 51.0659 5.7092 49.7954C9.87074 47.3013 14.1261 44.9525 18.3299 42.5333C26.226 37.9904 34.1269 33.4428 42.023 28.8998C48.4412 25.2055 54.8595 21.5111 61.2778 17.8168C63.4359 16.5744 67.8602 13.2504 69.2583 17.1745C69.4507 17.7183 69.5211 18.3091 69.5164 18.8857L69.5211 18.881Z" fill="#3D84BB" stroke="#19374E" stroke-linecap="round" stroke-linejoin="round"/>
<path d="M21.5441 78.0094L21.5535 85.5528L6.14591 94.5261L6.13184 89.941L17.101 83.5462L17.0729 78.6235C17.8095 78.1969 21.5816 75.2855 21.5394 78.0094H21.5441Z" fill="#E7EBEE"/>
<path d="M11.4239 92.4399L11.452 96.8985C10.2556 97.5923 9.05456 98.4831 7.78311 99.0223C7.47346 99.1535 7.13565 99.2895 6.79785 99.1629C5.63431 98.7269 6.15039 96.2984 6.1457 95.5154L11.4239 92.4446V92.4399Z" fill="#E7EBEE"/>
<path d="M11.1658 82.0366L11.1893 86.0029L6.12693 88.9518C6.12693 87.5313 5.94864 86.2092 6.77907 84.9855C7.75494 83.5509 9.73015 82.8618 11.1611 82.0366H11.1658Z" fill="#E7EBEE"/>
<path d="M21.5582 86.5418C21.5582 87.9905 21.8068 89.5142 21.0327 90.8081C20.2351 92.1443 18.6446 92.735 17.3638 93.4757L17.3403 88.9984L21.5629 86.5371L21.5582 86.5418Z" fill="#E7EBEE"/>
<path d="M16.4721 89.5005L16.5003 93.9731L12.3153 96.4016L12.2871 91.9384L16.4721 89.5005Z" fill="#E7EBEE"/>
<path d="M16.219 79.1157L16.2425 83.0586L12.0527 85.5011L12.0293 81.5395L16.219 79.1157Z" fill="#E7EBEE"/>
</svg>
