<svg width="60" height="66" viewBox="0 0 60 66" fill="none" xmlns="http://www.w3.org/2000/svg">
<path d="M60 30.3052V20.725C60 15.313 60 12.607 58.653 10.8415C57.306 9.076 54.2603 8.21886 48.169 6.50464C44.0073 5.33347 40.3387 3.92248 37.4077 2.63436C33.4113 0.878131 31.4133 0 30 0C28.5867 0 26.5887 0.878131 22.5924 2.63436C19.6613 3.92248 15.9928 5.33347 11.8311 6.50464C5.73977 8.21886 2.69407 9.076 1.34703 10.8415C-1.98682e-07 12.607 0 15.313 0 20.725V30.3052C0 48.868 16.8759 60.0056 25.3133 64.414C27.337 65.4713 28.3487 66 30 66C31.6513 66 32.663 65.4713 34.6867 64.414C43.124 60.0056 60 48.868 60 30.3052Z" fill="white"/>
<g clip-path="url(#clip0_761_20053)">
<path d="M18.6718 34.5049C18.4907 34.8662 18.5612 35.303 18.8466 35.5886L19.0759 35.8179C19.7382 35.033 20.5102 34.1812 21.4465 33.2451C21.5127 33.179 21.5808 33.147 21.6472 33.0859L20.1723 31.6108C19.3149 33.1616 18.8149 34.2212 18.6718 34.5049Z" fill="#3384BD"/>
<path d="M26.7483 38.5483C25.8098 39.4868 24.9602 40.2603 24.1797 40.9231L24.4902 41.2336C24.7783 41.5217 25.2192 41.5911 25.5818 41.4045C26.0674 41.1543 26.8311 40.7949 28.4521 39.8921L26.9077 38.3477C26.8467 38.4143 26.8147 38.4822 26.7483 38.5483Z" fill="#3384BD"/>
<path d="M26.2499 33.7458C25.5724 33.0683 23.6671 33.6757 22.7721 34.5705C19.7779 37.5647 18.4256 39.6875 17.8185 40.9409C17.6444 41.3 17.7169 41.7299 17.9991 42.0122C18.2818 42.2951 18.7125 42.3669 19.0719 42.1928C20.2972 41.5979 22.3941 40.2519 25.4239 37.2224C26.4081 36.2378 26.8937 34.3899 26.2506 33.7465L26.2499 33.7458Z" fill="#3384BD"/>
<path d="M16.9262 26.482L14.2746 29.1336C13.9748 29.4334 13.9133 29.8976 14.1257 30.2652C14.333 30.628 14.767 30.8128 15.1801 30.7022C16.6132 30.318 17.8742 30.1556 18.7233 30.3734C19.9313 28.2257 21.2294 26.2486 22.6042 24.4527C21.809 23.943 19.1813 24.2269 16.9262 26.482Z" fill="#3384BD"/>
<path d="M29.8675 45.8994C30.2286 46.082 30.6658 46.0115 30.9517 45.7253L33.6036 43.0737C35.6565 41.0203 36.0179 38.3708 35.552 37.5308C33.5491 39.0403 31.5201 40.3149 29.627 41.3821C29.7576 42.1196 29.6707 42.8352 29.3619 44.925C29.3016 45.3296 29.5105 45.7209 29.8675 45.8994Z" fill="#3384BD"/>
<path d="M32.6133 23.4045C31.5169 24.5012 31.5169 26.2852 32.6133 27.3818C33.71 28.4785 35.4942 28.4785 36.5909 27.3818C37.6876 26.2852 37.6876 24.5012 36.5909 23.4045C35.4942 22.3079 33.71 22.3079 32.6133 23.4045Z" fill="white"/>
<path d="M45.9434 14.9145C45.9097 14.4508 45.5405 14.0844 45.0784 14.0497C42.7759 13.8764 40.4824 14.1596 38.2344 14.8471C38.4036 16.3915 39.2024 18.0629 40.5662 19.4267C41.9463 20.8066 43.6631 21.6051 45.2351 21.7546C45.8406 19.6327 46.1277 17.3603 45.9434 14.9145Z" fill="#3384BD"/>
<path d="M39.2422 20.7529C37.6821 19.1929 36.7295 17.3218 36.4238 15.5C30.7942 17.8088 25.405 22.8508 21.1465 29.9338L23.2622 32.0495C24.7078 31.4626 26.4626 31.3076 27.5757 32.4204C28.6902 33.5351 28.5322 35.2893 27.9456 36.7329L30.1309 38.9182C35.5806 35.6338 41.9253 30.4592 44.6233 23.5747C42.7571 23.2927 40.8276 22.3384 39.2422 20.7529ZM37.916 28.7078C36.0886 30.5351 33.1147 30.5351 31.2871 28.7078C29.4595 26.8801 29.4595 23.906 31.2871 22.0786C33.1147 20.2512 36.0886 20.2512 37.916 22.0786C39.7436 23.9062 39.7436 26.8801 37.916 28.7078Z" fill="#3384BD"/>
</g>
<defs>
<clipPath id="clip0_761_20053">
<rect width="32" height="32" fill="white" transform="translate(14 14)"/>
</clipPath>
</defs>
</svg>
