<svg width="60" height="66" viewBox="0 0 60 66" fill="none" xmlns="http://www.w3.org/2000/svg">
<path d="M60 30.3052V20.725C60 15.313 60 12.607 58.653 10.8415C57.306 9.076 54.2603 8.21886 48.169 6.50464C44.0073 5.33347 40.3387 3.92248 37.4077 2.63436C33.4113 0.878131 31.4133 0 30 0C28.5867 0 26.5887 0.878131 22.5924 2.63436C19.6613 3.92248 15.9928 5.33347 11.8311 6.50464C5.73977 8.21886 2.69407 9.076 1.34703 10.8415C-2.38419e-07 12.607 0 15.313 0 20.725V30.3052C0 48.868 16.8759 60.0056 25.3133 64.414C27.337 65.4713 28.3487 66 30 66C31.6513 66 32.663 65.4713 34.6867 64.414C43.124 60.0056 60 48.868 60 30.3052Z" fill="#2E78AC"/>
<path fill-rule="evenodd" clip-rule="evenodd" d="M19.5 22.5L19.4417 22.5034C19.193 22.5322 19 22.7436 19 23C19 23.2761 19.2239 23.5 19.5 23.5H21.5V26.5H19.5L19.4417 26.5034C19.193 26.5322 19 26.7436 19 27C19 27.2761 19.2239 27.5 19.5 27.5H25.5V29.25L25.5034 29.3083C25.5322 29.557 25.7436 29.75 26 29.75C26.2761 29.75 26.5 29.5261 26.5 29.25V27.5H30C30.0197 27.5 30.0392 27.4989 30.0583 27.4966C30.307 27.4678 30.5 27.2564 30.5 27V23.5H37.5V26.5H33.5L33.4417 26.5034C33.193 26.5322 33 26.7436 33 27C33 27.2761 33.2239 27.5 33.5 27.5H35V29.25L35.0034 29.3083C35.0322 29.557 35.2436 29.75 35.5 29.75C35.7761 29.75 36 29.5261 36 29.25V27.5H40.5L40.5583 27.4966C40.807 27.4678 41 27.2564 41 27C41 26.7239 40.7761 26.5 40.5 26.5H38.5V23.5H40.5L40.5583 23.4966C40.807 23.4678 41 23.2564 41 23C41 22.7239 40.7761 22.5 40.5 22.5H19.5ZM29.5 26.5V23.5H22.5V26.5H29.5Z" fill="white"/>
<path d="M25 31C25 30.7239 24.7761 30.5 24.5 30.5H19.5L19.4417 30.5034C19.193 30.5322 19 30.7436 19 31C19 31.2761 19.2239 31.5 19.5 31.5H21.5V34.5H19.5L19.4417 34.5034C19.193 34.5322 19 34.7436 19 35C19 35.2761 19.2239 35.5 19.5 35.5H23L23.0583 35.4966C23.307 35.4678 23.5 35.2564 23.5 35C23.5 34.7239 23.2761 34.5 23 34.5H22.5V31.5H24.5L24.5583 31.4966C24.807 31.4678 25 31.2564 25 31Z" fill="white"/>
<path d="M41 31C41 30.7239 40.7761 30.5 40.5 30.5H36.75L36.6917 30.5034C36.443 30.5322 36.25 30.7436 36.25 31C36.25 31.2761 36.4739 31.5 36.75 31.5H38.5V34.5H37.75L37.6917 34.5034C37.443 34.5322 37.25 34.7436 37.25 35C37.25 35.2761 37.4739 35.5 37.75 35.5H40.5L40.5583 35.4966C40.807 35.4678 41 35.2564 41 35C41 34.7239 40.7761 34.5 40.5 34.5H39.5V31.5H40.5L40.5583 31.4966C40.807 31.4678 41 31.2564 41 31Z" fill="white"/>
<path d="M24 39C24 38.7239 23.7761 38.5 23.5 38.5H19.5L19.4417 38.5034C19.193 38.5322 19 38.7436 19 39C19 39.2761 19.2239 39.5 19.5 39.5H21.5V42.5H19.5L19.4417 42.5034C19.193 42.5322 19 42.7436 19 43C19 43.2761 19.2239 43.5 19.5 43.5H26.5L26.5583 43.4966C26.807 43.4678 27 43.2564 27 43C27 42.7239 26.7761 42.5 26.5 42.5H22.5V39.5H23.5L23.5583 39.4966C23.807 39.4678 24 39.2564 24 39Z" fill="white"/>
<path d="M41 39C41 38.7239 40.7761 38.5 40.5 38.5H37.25L37.1917 38.5034C36.943 38.5322 36.75 38.7436 36.75 39C36.75 39.2761 36.9739 39.5 37.25 39.5H38.5V42.5H34.75L34.6917 42.5034C34.443 42.5322 34.25 42.7436 34.25 43C34.25 43.2761 34.4739 43.5 34.75 43.5H40.5L40.5583 43.4966C40.807 43.4678 41 43.2564 41 43C41 42.7239 40.7761 42.5 40.5 42.5H39.5V39.5H40.5L40.5583 39.4966C40.807 39.4678 41 39.2564 41 39Z" fill="white"/>
<path fill-rule="evenodd" clip-rule="evenodd" d="M32.9304 34.1036C32.8788 34.1453 32.8405 34.1914 32.8128 34.2402L32.7915 34.2835L32.834 34.2227C32.4258 34.8349 31.9691 35.2194 31.4401 35.4486C31.0516 35.617 30.7401 35.6836 30.1028 35.7489L29.5633 35.801C29.0699 35.853 28.809 35.9115 28.5264 36.0528C27.3029 36.6645 27.0735 38.2647 27.85 39.3C28.9456 40.7608 31.7068 41.0003 33.3536 39.3536C34.3574 38.3497 34.6318 37.0964 34.3646 35.8049C34.2717 35.3557 34.1158 34.9299 33.9352 34.5847C33.8593 34.4395 33.7822 34.3157 33.7124 34.228C33.6528 34.1532 33.5979 34.0983 33.5133 34.051C33.3637 33.9673 33.181 33.9397 32.9866 34.0634L32.9304 34.1036ZM33.198 35.379L33.2166 35.4251C33.2848 35.6067 33.3433 35.8043 33.3854 36.0076C33.5891 36.9924 33.3897 37.9032 32.6464 38.6464C31.4353 39.8576 29.3848 39.6798 28.65 38.7C28.2245 38.1327 28.3497 37.2592 28.9736 36.9472C29.1342 36.8669 29.338 36.827 29.7901 36.7832L30.2128 36.7429C30.9478 36.6675 31.3315 36.5855 31.8377 36.3662C32.309 36.1619 32.736 35.8667 33.1206 35.464L33.198 35.379Z" fill="white"/>
<path fill-rule="evenodd" clip-rule="evenodd" d="M28.3864 31.0028L28.4189 31.2545C28.4511 31.4757 28.4911 31.6789 28.5425 31.8707C28.8074 32.86 29.2941 33.3348 30.2047 33.2521C31.5382 33.1308 31.8324 31.8362 30.89 28.9936L30.7781 28.6652C30.6297 28.2413 31.0721 27.8519 31.4737 28.0529C34.2822 29.4581 35.965 31.7608 36.4931 34.9175C37.2202 39.2628 34.3013 42.5 30.6869 42.5C27.2966 42.5 25.0538 40.1621 24.7523 37.0482C24.5047 34.4901 25.5259 31.8287 27.3907 29.9022C27.5525 29.7351 27.8158 29.662 28.0603 29.8282C28.19 29.9164 28.2423 30.014 28.2798 30.1374C28.2945 30.1857 28.3049 30.2356 28.3141 30.2977L28.3313 30.4411L28.3864 31.0028ZM32.2004 29.6421L32.106 29.5775L32.1256 29.6514C32.8451 32.4428 32.2836 34.0672 30.2953 34.2479C28.8186 34.3822 27.9538 33.5386 27.5765 32.1293C27.53 31.9555 27.4918 31.7776 27.4599 31.5916L27.428 31.3915L27.32 31.5376C26.2017 33.0771 25.6085 34.9495 25.7317 36.7583L25.7477 36.9518C26.0021 39.5803 27.8437 41.5 30.6869 41.5C33.6975 41.5 36.1294 38.803 35.5069 35.0825C35.1104 32.7131 34.0138 30.908 32.2004 29.6421Z" fill="white"/>
</svg>
