<svg width="60" height="66" viewBox="0 0 60 66" fill="none" xmlns="http://www.w3.org/2000/svg">
<path d="M60 30.3052V20.725C60 15.313 60 12.607 58.653 10.8415C57.306 9.076 54.2603 8.21886 48.169 6.50464C44.0073 5.33347 40.3387 3.92248 37.4077 2.63436C33.4113 0.878131 31.4133 0 30 0C28.5867 0 26.5887 0.878131 22.5924 2.63436C19.6613 3.92248 15.9928 5.33347 11.8311 6.50464C5.73977 8.21886 2.69407 9.076 1.34703 10.8415C-2.38419e-07 12.607 0 15.313 0 20.725V30.3052C0 48.868 16.8759 60.0056 25.3133 64.414C27.337 65.4713 28.3487 66 30 66C31.6513 66 32.663 65.4713 34.6867 64.414C43.124 60.0056 60 48.868 60 30.3052Z" fill="#2E78AC"/>
<path fill-rule="evenodd" clip-rule="evenodd" d="M30 22C29.1915 22 28.5325 22.6396 28.5012 23.4404L24.5413 25.4203C24.2715 25.1601 23.9045 25 23.5 25C22.6716 25 22 25.6716 22 26.5C22 26.776 22.0746 27.0346 22.2046 27.2568L20.4171 31.5023C19.6272 31.5453 19 32.1994 19 33C19 33.8059 19.6356 34.4634 20.4329 34.4985L22.3473 38.5401C22.1305 38.8002 22 39.1349 22 39.5C22 40.3284 22.6716 41 23.5 41C23.9068 41 24.2758 40.838 24.5461 40.5751L28.5009 42.4484C28.5003 42.4655 28.5 42.4827 28.5 42.5C28.5 43.3284 29.1716 44 30 44C30.7639 44 31.3944 43.429 31.488 42.6905L35.6355 40.7259C35.8798 40.8986 36.1781 41 36.5 41C37.3284 41 38 40.3284 38 39.5C38 39.224 37.9254 38.9654 37.7954 38.7432L39.5829 34.4977C40.3728 34.4547 41 33.8006 41 33C41 32.197 40.369 31.5413 39.5758 31.5019L37.7327 27.3549C37.9012 27.1124 38 26.8177 38 26.5C38 25.6716 37.3284 25 36.5 25C36.1349 25 35.8002 25.1305 35.5401 25.3473L31.4985 23.4329C31.4634 22.6356 30.8059 22 30 22ZM31.2012 24.3986L35.0278 26.2112C35.0096 26.3046 35 26.4012 35 26.5C35 26.5771 35.0058 26.6528 35.017 26.7268L31.1775 28.0706C31.0036 27.8507 30.7695 27.6806 30.5 27.5854V24.9146C30.7819 24.815 31.0252 24.6334 31.2012 24.3986ZM29.5 24.9146C29.2213 24.8161 28.9804 24.6376 28.8049 24.4066L24.9887 26.3147C24.9961 26.3754 25 26.4373 25 26.5L25 26.5115L28.8409 28.0478C29.0127 27.8389 29.2399 27.6773 29.5 27.5854V24.9146ZM36.901 27.9458L38.6104 31.7921C38.3712 31.9686 38.1863 32.2145 38.0854 32.5H35.4146C35.3227 32.2399 35.1611 32.0127 34.9522 31.8409L36.4885 28L36.5 28C36.6389 28 36.7733 27.9811 36.901 27.9458ZM35.4146 33.5C35.3227 33.7601 35.1611 33.9873 34.9522 34.1591L36.4885 38L36.5 38C36.6712 38 36.8357 38.0287 36.989 38.0815L38.6177 34.2132C38.375 34.0364 38.1873 33.7884 38.0854 33.5H35.4146ZM28.868 41.5158C29.0363 41.3224 29.2533 41.1725 29.5 41.0854V38.4146C29.2399 38.3227 29.0127 38.1611 28.8409 37.9522L25 39.4885L25 39.5C25 39.5604 24.9964 39.62 24.9895 39.6786L28.868 41.5158ZM31.2631 41.6906C31.0845 41.4125 30.8167 41.1973 30.5 41.0854V38.4146C30.7601 38.3227 30.9873 38.1611 31.1591 37.9522L35 39.4885L35 39.5C35 39.6369 35.0183 39.7695 35.0527 39.8955L31.2631 41.6906ZM21.3823 31.7868L23.011 27.9185C23.1643 27.9713 23.3288 28 23.5 28C23.5805 28 23.6595 27.9937 23.7366 27.9814L25.1342 31.7749C24.8835 31.9525 24.6896 32.2051 24.5854 32.5H21.9146C21.8127 32.2116 21.625 31.9636 21.3823 31.7868ZM21.9146 33.5C21.815 33.7819 21.6334 34.0252 21.3986 34.2012L23.2112 38.0278C23.3046 38.0096 23.4012 38 23.5 38C23.5771 38 23.6528 38.0058 23.7268 38.017L25.0706 34.1775C24.8507 34.0036 24.6806 33.7695 24.5854 33.5H21.9146ZM28.5 37.0115L24.6591 38.5478C24.6456 38.5314 24.6317 38.5152 24.6175 38.4993L26.0173 34.4999C26.2425 34.4974 26.4558 34.4452 26.6467 34.3538L28.6462 36.3533C28.5525 36.5491 28.5 36.7684 28.5 37L28.5 37.0115ZM27.5 33C27.5 33.2316 27.4475 33.4509 27.3538 33.6467L29.3533 35.6462C29.5491 35.5525 29.7684 35.5 30 35.5C30.2316 35.5 30.4509 35.5525 30.6467 35.6462L32.6462 33.6467C32.5525 33.4509 32.5 33.2316 32.5 33C32.5 32.7684 32.5525 32.5491 32.6462 32.3533L30.6467 30.3538C30.4509 30.4475 30.2316 30.5 30 30.5C29.7684 30.5 29.5491 30.4475 29.3533 30.3538L27.3538 32.3533C27.4475 32.5491 27.5 32.7684 27.5 33ZM31.3538 36.3533C31.4475 36.5491 31.5 36.7684 31.5 37L31.5 37.0115L35.3409 38.5478C35.403 38.4723 35.4723 38.403 35.5478 38.3409L34.0115 34.5L34 34.5C33.7684 34.5 33.5491 34.4475 33.3533 34.3538L31.3538 36.3533ZM33.3533 31.6462L31.3538 29.6467C31.4452 29.4558 31.4974 29.2425 31.4999 29.0173L35.4993 27.6175C35.5152 27.6317 35.5314 27.6456 35.5478 27.6591L34.0115 31.5L34 31.5C33.7684 31.5 33.5491 31.5525 33.3533 31.6462ZM28.6462 29.6467C28.5525 29.4509 28.5 29.2316 28.5 29L28.5 28.9885L24.6591 27.4522C24.6473 27.4665 24.6353 27.4806 24.6229 27.4945L26.0998 31.5033C26.2946 31.5161 26.4793 31.5661 26.6467 31.6462L28.6462 29.6467ZM30 23C30.2761 23 30.5 23.2239 30.5 23.5C30.5 23.7761 30.2761 24 30 24C29.7239 24 29.5 23.7761 29.5 23.5C29.5 23.2239 29.7239 23 30 23ZM30 42C30.2761 42 30.5 42.2239 30.5 42.5C30.5 42.7761 30.2761 43 30 43C29.7239 43 29.5 42.7761 29.5 42.5C29.5 42.2239 29.7239 42 30 42ZM40 33C40 32.7239 39.7761 32.5 39.5 32.5C39.2239 32.5 39 32.7239 39 33C39 33.2761 39.2239 33.5 39.5 33.5C39.7761 33.5 40 33.2761 40 33ZM20.5 32.5C20.7761 32.5 21 32.7239 21 33C21 33.2761 20.7761 33.5 20.5 33.5C20.2239 33.5 20 33.2761 20 33C20 32.7239 20.2239 32.5 20.5 32.5ZM24 26.5C24 26.2239 23.7761 26 23.5 26C23.2239 26 23 26.2239 23 26.5C23 26.7761 23.2239 27 23.5 27C23.7761 27 24 26.7761 24 26.5ZM36.5 26C36.7761 26 37 26.2239 37 26.5C37 26.7761 36.7761 27 36.5 27C36.2239 27 36 26.7761 36 26.5C36 26.2239 36.2239 26 36.5 26ZM37 39.5C37 39.2239 36.7761 39 36.5 39C36.2239 39 36 39.2239 36 39.5C36 39.7761 36.2239 40 36.5 40C36.7761 40 37 39.7761 37 39.5ZM23.5 39C23.7761 39 24 39.2239 24 39.5C24 39.7761 23.7761 40 23.5 40C23.2239 40 23 39.7761 23 39.5C23 39.2239 23.2239 39 23.5 39ZM26.5 33C26.5 32.7239 26.2761 32.5 26 32.5C25.7239 32.5 25.5 32.7239 25.5 33C25.5 33.2761 25.7239 33.5 26 33.5C26.2761 33.5 26.5 33.2761 26.5 33ZM34 32.5C34.2761 32.5 34.5 32.7239 34.5 33C34.5 33.2761 34.2761 33.5 34 33.5C33.7239 33.5 33.5 33.2761 33.5 33C33.5 32.7239 33.7239 32.5 34 32.5ZM30.5 29C30.5 28.7239 30.2761 28.5 30 28.5C29.7239 28.5 29.5 28.7239 29.5 29C29.5 29.2761 29.7239 29.5 30 29.5C30.2761 29.5 30.5 29.2761 30.5 29ZM30 36.5C30.2761 36.5 30.5 36.7239 30.5 37C30.5 37.2761 30.2761 37.5 30 37.5C29.7239 37.5 29.5 37.2761 29.5 37C29.5 36.7239 29.7239 36.5 30 36.5Z" fill="white"/>
</svg>
