<svg width="60" height="66" viewBox="0 0 60 66" fill="none" xmlns="http://www.w3.org/2000/svg">
<path d="M60 30.3052V20.725C60 15.313 60 12.607 58.653 10.8415C57.306 9.076 54.2603 8.21886 48.169 6.50464C44.0073 5.33347 40.3387 3.92248 37.4077 2.63436C33.4113 0.878131 31.4133 0 30 0C28.5867 0 26.5887 0.878131 22.5924 2.63436C19.6613 3.92248 15.9928 5.33347 11.8311 6.50464C5.73977 8.21886 2.69407 9.076 1.34703 10.8415C-2.38419e-07 12.607 0 15.313 0 20.725V30.3052C0 48.868 16.8759 60.0056 25.3133 64.414C27.337 65.4713 28.3487 66 30 66C31.6513 66 32.663 65.4713 34.6867 64.414C43.124 60.0056 60 48.868 60 30.3052Z" fill="#2E78AC"/>
<path d="M35.4975 28.9119C35.4518 28.1245 34.7988 27.5 34 27.5H33L32.9417 27.5034C32.693 27.5322 32.5 27.7436 32.5 28C32.5 28.2761 32.7239 28.5 33 28.5H34L34.0583 28.5034C34.307 28.5322 34.5 28.7436 34.5 29V30L34.5034 30.0583C34.5322 30.307 34.7436 30.5 35 30.5C35.2761 30.5 35.5 30.2761 35.5 30V29L35.4975 28.9119Z" fill="white"/>
<path d="M35 35.5C35.2564 35.5 35.4678 35.693 35.4966 35.9417L35.5 36V37C35.5 37.7988 34.8755 38.4518 34.0881 38.4975L34 38.5H33C32.7239 38.5 32.5 38.2761 32.5 38C32.5 37.7436 32.693 37.5322 32.9417 37.5034L33 37.5H34C34.2564 37.5 34.4678 37.307 34.4966 37.0583L34.5 37V36C34.5 35.7239 34.7239 35.5 35 35.5Z" fill="white"/>
<path d="M25.4966 35.9417C25.4678 35.693 25.2564 35.5 25 35.5C24.7239 35.5 24.5 35.7239 24.5 36V37L24.5025 37.0881C24.5482 37.8755 25.2012 38.5 26 38.5H27L27.0583 38.4966C27.307 38.4678 27.5 38.2564 27.5 38C27.5 37.7239 27.2761 37.5 27 37.5H26L25.9417 37.4966C25.693 37.4678 25.5 37.2564 25.5 37V36L25.4966 35.9417Z" fill="white"/>
<path d="M27 27.5C27.2761 27.5 27.5 27.7239 27.5 28C27.5 28.2564 27.307 28.4678 27.0583 28.4966L27 28.5H26C25.7436 28.5 25.5322 28.693 25.5034 28.9417L25.5 29V30C25.5 30.2761 25.2761 30.5 25 30.5C24.7436 30.5 24.5322 30.307 24.5034 30.0583L24.5 30V29C24.5 28.2012 25.1245 27.5482 25.9119 27.5025L26 27.5H27Z" fill="white"/>
<path d="M30 29.5C30.5523 29.5 31 29.9477 31 30.5C31 31.0523 30.5523 31.5 30 31.5C29.4477 31.5 29 31.0523 29 30.5C29 29.9477 29.4477 29.5 30 29.5Z" fill="white"/>
<path fill-rule="evenodd" clip-rule="evenodd" d="M33 31C33 29.3431 31.6569 28 30 28C28.3431 28 27 29.3431 27 31L27.0025 31.1241L27.0105 31.2522C27.0924 32.2296 27.6461 33.095 28.4758 33.5846L28.5 33.598V37L28.5034 37.0585C28.5193 37.1936 28.5898 37.3174 28.7 37.4L29.7 38.15L29.7552 38.186C29.926 38.282 30.14 38.27 30.3 38.15L31.3 37.4L31.3447 37.3622C31.4433 37.2684 31.5 37.1377 31.5 37V36.25L31.4957 36.1843L31.4829 36.1202C31.4603 36.0363 31.4161 35.959 31.3536 35.8964L31.2075 35.75L31.3536 35.6036L31.3951 35.5564L31.4298 35.5057C31.5442 35.3138 31.5188 35.0617 31.3536 34.8964L31.2075 34.75L31.3536 34.6036L31.3969 34.554L31.4332 34.4997C31.4766 34.4245 31.5 34.3385 31.5 34.2501V33.598L31.5247 33.5843L31.6311 33.5184C32.4699 32.9749 33 32.036 33 31ZM28 31C28 29.8954 28.8954 29 30 29C31.1046 29 32 29.8954 32 31C32 31.8027 31.523 32.5177 30.8 32.8337L30.7418 32.8638L30.6888 32.9007C30.5715 32.9941 30.5003 33.1372 30.5003 33.2917L30.5 34.042L30.1464 34.3964L30.1049 34.4436L30.0702 34.4943C29.9558 34.6862 29.9812 34.9383 30.1464 35.1036L30.2925 35.25L30.1464 35.3964L30.1049 35.4436L30.0702 35.4943C29.9558 35.6862 29.9812 35.9383 30.1464 36.1036L30.5 36.4575V36.75L30 37.125L29.4995 36.7495L29.5002 33.2921L29.4959 33.2267C29.4733 33.0546 29.3623 32.9046 29.2004 32.8339C28.4772 32.518 28 31.8028 28 31Z" fill="white"/>
<path fill-rule="evenodd" clip-rule="evenodd" d="M25 23.5C25 22.6716 25.6716 22 26.5 22C27.3284 22 28 22.6716 28 23.5C28 24.1531 27.5826 24.7087 27 24.9146V26H29.5V24.9146C28.9174 24.7087 28.5 24.1531 28.5 23.5C28.5 22.6716 29.1716 22 30 22C30.8284 22 31.5 22.6716 31.5 23.5C31.5 24.1531 31.0826 24.7087 30.5 24.9146V26H33V24.9146C32.4174 24.7087 32 24.1531 32 23.5C32 22.6716 32.6716 22 33.5 22C34.3284 22 35 22.6716 35 23.5C35 24.1531 34.5826 24.7087 34 24.9146V26H34.5C35.8807 26 37 27.1193 37 28.5V29H38.0207C38.1398 28.2906 38.7568 27.75 39.5 27.75C40.3284 27.75 41 28.4216 41 29.25C41 30.0784 40.3284 30.75 39.5 30.75C38.9448 30.75 38.46 30.4484 38.2007 30H37V32.5H38.0207C38.1398 31.7906 38.7568 31.25 39.5 31.25C40.3284 31.25 41 31.9216 41 32.75C41 33.5784 40.3284 34.25 39.5 34.25C38.9448 34.25 38.46 33.9484 38.2007 33.5H37V36H38.0207C38.1398 35.2906 38.7568 34.75 39.5 34.75C40.3284 34.75 41 35.4216 41 36.25C41 37.0784 40.3284 37.75 39.5 37.75C38.9448 37.75 38.46 37.4484 38.2007 37H37V37.5C37 38.8807 35.8807 40 34.5 40H34V41.0854C34.5826 41.2913 35 41.8469 35 42.5C35 43.3284 34.3284 44 33.5 44C32.6716 44 32 43.3284 32 42.5C32 41.8469 32.4174 41.2913 33 41.0854V40H30.5V41.0854C31.0826 41.2913 31.5 41.8469 31.5 42.5C31.5 43.3284 30.8284 44 30 44C29.1716 44 28.5 43.3284 28.5 42.5C28.5 41.8469 28.9174 41.2913 29.5 41.0854V40H27V41.0854C27.5826 41.2913 28 41.8469 28 42.5C28 43.3284 27.3284 44 26.5 44C25.6716 44 25 43.3284 25 42.5C25 41.8469 25.4174 41.2913 26 41.0854V40H25.5C24.1193 40 23 38.8807 23 37.5V37H21.9146C21.7087 37.5826 21.1531 38 20.5 38C19.6716 38 19 37.3284 19 36.5C19 35.6716 19.6716 35 20.5 35C21.1531 35 21.7087 35.4174 21.9146 36H23V33.5H21.9146C21.7087 34.0826 21.1531 34.5 20.5 34.5C19.6716 34.5 19 33.8284 19 33C19 32.1716 19.6716 31.5 20.5 31.5C21.1531 31.5 21.7087 31.9174 21.9146 32.5H23V30H21.9146C21.7087 30.5826 21.1531 31 20.5 31C19.6716 31 19 30.3284 19 29.5C19 28.6716 19.6716 28 20.5 28C21.1531 28 21.7087 28.4174 21.9146 29H23V28.5C23 27.1193 24.1193 26 25.5 26H26V24.9146C25.4174 24.7087 25 24.1531 25 23.5ZM39 36.25C39 36.5261 39.2239 36.75 39.5 36.75C39.7761 36.75 40 36.5261 40 36.25C40 35.9739 39.7761 35.75 39.5 35.75C39.2239 35.75 39 35.9739 39 36.25ZM39.5 33.25C39.2239 33.25 39 33.0261 39 32.75C39 32.4739 39.2239 32.25 39.5 32.25C39.7761 32.25 40 32.4739 40 32.75C40 33.0261 39.7761 33.25 39.5 33.25ZM39 29.25C39 29.5261 39.2239 29.75 39.5 29.75C39.7761 29.75 40 29.5261 40 29.25C40 28.9739 39.7761 28.75 39.5 28.75C39.2239 28.75 39 28.9739 39 29.25ZM21 29.5C21 29.2239 20.7761 29 20.5 29C20.2239 29 20 29.2239 20 29.5C20 29.7761 20.2239 30 20.5 30C20.7761 30 21 29.7761 21 29.5ZM20.5 32.5C20.7761 32.5 21 32.7239 21 33C21 33.2761 20.7761 33.5 20.5 33.5C20.2239 33.5 20 33.2761 20 33C20 32.7239 20.2239 32.5 20.5 32.5ZM21 36.5C21 36.2239 20.7761 36 20.5 36C20.2239 36 20 36.2239 20 36.5C20 36.7761 20.2239 37 20.5 37C20.7761 37 21 36.7761 21 36.5ZM30 24C30.2761 24 30.5 23.7761 30.5 23.5C30.5 23.2239 30.2761 23 30 23C29.7239 23 29.5 23.2239 29.5 23.5C29.5 23.7761 29.7239 24 30 24ZM34 23.5C34 23.7761 33.7761 24 33.5 24C33.2239 24 33 23.7761 33 23.5C33 23.2239 33.2239 23 33.5 23C33.7761 23 34 23.2239 34 23.5ZM26.5 24C26.7761 24 27 23.7761 27 23.5C27 23.2239 26.7761 23 26.5 23C26.2239 23 26 23.2239 26 23.5C26 23.7761 26.2239 24 26.5 24ZM34.5 27C35.3284 27 36 27.6716 36 28.5V37.5C36 38.3284 35.3284 39 34.5 39H25.5C24.6716 39 24 38.3284 24 37.5V28.5C24 27.6716 24.6716 27 25.5 27H34.5ZM26.5 42C26.7761 42 27 42.2239 27 42.5C27 42.7761 26.7761 43 26.5 43C26.2239 43 26 42.7761 26 42.5C26 42.2239 26.2239 42 26.5 42ZM34 42.5C34 42.2239 33.7761 42 33.5 42C33.2239 42 33 42.2239 33 42.5C33 42.7761 33.2239 43 33.5 43C33.7761 43 34 42.7761 34 42.5ZM30.5 42.5C30.5 42.2239 30.2761 42 30 42C29.7239 42 29.5 42.2239 29.5 42.5C29.5 42.7761 29.7239 43 30 43C30.2761 43 30.5 42.7761 30.5 42.5Z" fill="white"/>
</svg>
