<svg width="638" height="485" viewBox="0 0 638 485" fill="none" xmlns="http://www.w3.org/2000/svg">
<path d="M567.202 375.398C562.672 375.398 558.143 374.406 554.698 372.416L367.877 264.715C364.473 262.75 362.595 260.118 362.595 257.306C362.595 254.493 364.473 251.856 367.877 249.891L420.277 219.688C427.172 215.712 438.39 215.712 445.284 219.688L632.105 327.388C635.51 329.353 637.388 331.985 637.388 334.803C637.388 337.62 635.51 340.252 632.105 342.212L579.705 372.416C576.256 374.401 571.731 375.398 567.202 375.398ZM555.05 371.804C561.748 375.664 572.65 375.664 579.349 371.804L631.748 341.6C634.927 339.771 636.675 337.354 636.675 334.803C636.675 332.251 634.927 329.84 631.748 328.005L444.928 220.304C438.229 216.444 427.327 216.444 420.629 220.304L368.229 250.508C365.05 252.338 363.303 254.754 363.303 257.306C363.303 259.857 365.05 262.269 368.229 264.103L555.05 371.804Z" fill="#EBF3F8"/>
<g style="mix-blend-mode:multiply" opacity="0.3">
<path d="M568.994 362.324L617.02 334.642L568.994 306.96L520.968 334.642L568.994 362.324Z" fill="#DFE2F5"/>
</g>
<path d="M616.041 350.254L601.358 358.716C600.148 359.412 598.029 359.327 596.628 358.52C595.855 358.074 595.463 357.502 595.473 356.961V360.661C595.473 361.197 595.865 361.759 596.628 362.2C598.029 363.007 600.143 363.092 601.358 362.395L616.041 353.933C616.619 353.597 616.885 353.146 616.855 352.675V349.141C616.829 349.557 616.558 349.953 616.041 350.254Z" fill="url(#paint0_linear_911_6078)"/>
<path d="M601.358 358.715L616.041 350.253C617.251 349.556 617.1 348.333 615.699 347.526C614.298 346.719 612.184 346.634 610.969 347.331L596.286 355.793C595.076 356.489 595.226 357.713 596.627 358.52C598.028 359.327 600.142 359.412 601.358 358.715Z" fill="white"/>
<path d="M597.933 357.768C597.266 357.382 597.11 356.825 597.592 356.544L612.275 348.082C612.757 347.807 613.726 347.892 614.394 348.278C615.062 348.664 615.218 349.22 614.735 349.501L600.053 357.963C599.57 358.239 598.601 358.154 597.933 357.768Z" fill="url(#paint1_linear_911_6078)"/>
<path d="M0.00505495 94.5969C0.00505495 94.5969 0.0404323 94.5716 0.0606478 94.5615L0 94.5969H0.00505495Z" fill="#ACBCF5"/>
<path d="M70.7481 367.709C58.3148 367.709 45.5852 364.856 35.7882 359.206L24.3341 352.604C14.8987 347.165 9.48549 339.751 9.48047 332.256C9.48047 325.348 13.9547 318.951 22.0895 314.249L187.599 218.043C205.154 207.927 234.701 208.499 253.466 219.317L264.92 225.919C274.356 231.358 279.769 238.773 279.774 246.267C279.774 253.175 275.3 259.572 267.165 264.274L101.656 360.48C93.2646 365.317 82.1319 367.709 70.7481 367.709ZM218.507 211.516C207.248 211.516 196.251 213.883 187.956 218.66L22.446 314.866C14.5371 319.433 10.1885 325.609 10.1935 332.256C10.1935 339.49 15.4812 346.679 24.6907 351.988L36.1448 358.59C54.7144 369.293 83.9447 369.864 101.304 359.863L266.814 263.657C274.717 259.09 279.071 252.914 279.066 246.267C279.066 239.033 273.778 231.844 264.569 226.536L253.115 219.933C243.418 214.344 230.809 211.516 218.507 211.516Z" fill="#EBF3F8"/>
<g style="mix-blend-mode:multiply" opacity="0.3">
<path d="M84.0808 350.147L249.555 253.962C257.429 249.425 256.445 241.494 247.351 236.256L235.897 229.653C226.803 224.415 213.049 223.843 205.175 228.38L39.7006 324.566C31.8268 329.103 32.811 337.033 41.905 342.272L53.3591 348.874C62.4531 354.113 76.2071 354.684 84.0808 350.147Z" fill="#DFE2F5"/>
</g>
<path d="M45.405 319.738C45.405 343.34 62.0012 352.905 82.4739 341.104L186.249 281.293L230.534 255.767V255.757C250.991 243.56 267.467 214.825 267.467 191.148C267.467 170.334 254.742 160.288 237.77 165.893C232.226 135.839 206.867 125.342 176.407 142.898C161.719 151.365 148.211 164.99 137.545 180.922C131.439 190.04 126.262 199.916 122.325 210.007C122.094 210.133 121.863 210.263 121.632 210.393C106.11 219.342 92.4166 236.241 84.2666 254.664C83.6691 254.97 83.0715 255.301 82.4739 255.646C62.0012 267.442 45.405 296.142 45.405 319.738Z" fill="url(#paint2_linear_911_6078)"/>
<path d="M176.412 148.413C204.04 132.491 227.867 141.419 233.075 169.643L233.672 172.886L236.77 171.864C243.996 169.478 250.57 170.325 255.28 174.245C260.055 178.215 262.681 185.199 262.681 193.906C262.681 203.892 259.337 215.237 253.261 225.86C247.195 236.467 239.09 245.145 230.448 250.293L230.006 250.559L82.4689 335.596C64.6676 345.857 50.1855 337.51 50.1855 316.987C50.1855 296.464 64.6676 271.423 82.4689 261.162C82.9711 260.871 83.4983 260.585 84.0306 260.304L86.697 258.916L88.2035 255.507C95.7659 238.417 108.259 223.614 121.622 215.914C121.767 215.828 121.908 215.753 122.049 215.673L122.239 215.568L125.041 213.999L126.447 210.394C131.439 197.606 138.605 185.163 147.171 174.41C155.994 163.342 166.097 154.353 176.397 148.418L176.412 148.413ZM176.412 142.898C153.313 156.213 133.141 182.291 122.325 210.008C122.094 210.139 121.863 210.264 121.632 210.399C106.11 219.343 92.4216 236.242 84.2666 254.665C83.6741 254.975 83.0765 255.301 82.4739 255.647C62.0012 267.448 45.405 296.143 45.405 319.744C45.405 343.346 62.0012 352.911 82.4739 341.11L230.534 255.772V255.762C250.991 243.566 267.467 214.831 267.467 191.154C267.467 170.345 254.737 160.299 237.77 165.898C232.226 135.85 206.867 125.348 176.412 142.903V142.898Z" fill="#DEE6FF"/>
<path opacity="0.5" d="M182.709 201.093L200.932 190.591C203.001 189.398 204.678 186.2 204.678 183.447V163.776C204.678 161.024 203.001 159.756 200.932 160.949L182.709 171.451C180.64 172.644 178.963 175.843 178.963 178.595V198.266C178.963 201.018 180.64 202.286 182.709 201.093Z" fill="white"/>
<path opacity="0.3" d="M207.058 204.618L216.227 199.334C217.267 198.732 218.11 197.123 218.11 195.74V185.844C218.11 184.46 217.267 183.824 216.227 184.42L207.058 189.704C206.018 190.305 205.175 191.915 205.175 193.298V203.194C205.175 204.578 206.018 205.214 207.058 204.618Z" fill="white"/>
<path opacity="0.3" d="M169 228.59L183.819 220.048C185.501 219.08 186.867 216.479 186.867 214.238V198.241C186.867 196 185.501 194.973 183.819 195.94L169 204.482C167.318 205.45 165.952 208.052 165.952 210.292V226.289C165.952 228.53 167.318 229.558 169 228.59Z" fill="white"/>
<path opacity="0.4" d="M129.119 289.44L143.938 280.898C145.62 279.93 146.986 277.328 146.986 275.087V259.091C146.986 256.85 145.62 255.822 143.938 256.79L129.119 265.332C127.437 266.299 126.071 268.901 126.071 271.142V287.139C126.071 289.38 127.437 290.407 129.119 289.44Z" fill="white"/>
<path opacity="0.4" d="M111.353 262.444L118.242 258.473C119.025 258.022 119.658 256.814 119.658 255.771V248.332C119.658 247.289 119.025 246.813 118.242 247.264L111.353 251.234C110.569 251.686 109.937 252.894 109.937 253.936V261.376C109.937 262.418 110.569 262.895 111.353 262.444Z" fill="white"/>
<path opacity="0.4" d="M196.126 236.18L206.526 230.185C207.706 229.503 208.665 227.678 208.665 226.109V214.885C208.665 213.311 207.706 212.589 206.526 213.271L196.126 219.266C194.946 219.948 193.987 221.773 193.987 223.342V234.566C193.987 236.14 194.946 236.862 196.126 236.18Z" fill="white"/>
<path opacity="0.3" d="M188.248 267.262L201.113 259.847C202.574 259.005 203.759 256.744 203.759 254.804V240.918C203.759 238.973 202.574 238.08 201.113 238.923L188.248 246.337C186.787 247.179 185.602 249.44 185.602 251.38V265.266C185.602 267.211 186.787 268.104 188.248 267.262Z" fill="white"/>
<path opacity="0.3" d="M118.755 252.768L131.62 245.354C133.081 244.512 134.266 242.251 134.266 240.311V226.425C134.266 224.48 133.081 223.587 131.62 224.43L118.755 231.844C117.293 232.686 116.108 234.947 116.108 236.887V250.773C116.108 252.718 117.293 253.611 118.755 252.768Z" fill="white"/>
<path opacity="0.4" d="M92.0956 314.861L104.961 307.447C106.422 306.605 107.607 304.344 107.607 302.404V288.517C107.607 286.572 106.422 285.68 104.961 286.522L92.0956 293.937C90.6343 294.779 89.4492 297.04 89.4492 298.98V312.866C89.4492 314.811 90.6343 315.703 92.0956 314.861Z" fill="white"/>
<path opacity="0.2" d="M121.793 283.724L127.467 280.455C128.11 280.084 128.632 279.087 128.632 278.23V272.104C128.632 271.246 128.11 270.85 127.467 271.221L121.793 274.49C121.15 274.861 120.628 275.858 120.628 276.716V282.842C120.628 283.699 121.15 284.095 121.793 283.724Z" fill="white"/>
<path opacity="0.3" d="M223.328 220.796L233.727 214.8C234.908 214.118 235.867 212.293 235.867 210.724V199.5C235.867 197.926 234.908 197.204 233.727 197.886L223.328 203.881C222.148 204.563 221.189 206.388 221.189 207.957V219.181C221.189 220.755 222.148 221.477 223.328 220.796Z" fill="white"/>
<path opacity="0.3" d="M213.219 240.857L217.759 238.24C218.276 237.945 218.693 237.148 218.693 236.461V231.558C218.693 230.871 218.276 230.555 217.759 230.851L213.219 233.468C212.702 233.764 212.285 234.561 212.285 235.248V240.15C212.285 240.837 212.702 241.153 213.219 240.857Z" fill="white"/>
<path opacity="0.3" d="M175.453 243.599L179.992 240.983C180.509 240.687 180.926 239.89 180.926 239.203V234.3C180.926 233.613 180.509 233.298 179.992 233.593L175.453 236.21C174.935 236.506 174.519 237.303 174.519 237.99V242.893C174.519 243.579 174.935 243.895 175.453 243.599Z" fill="white"/>
<path opacity="0.2" d="M196.403 215.582L200.942 212.965C201.459 212.669 201.876 211.872 201.876 211.185V206.283C201.876 205.596 201.459 205.28 200.942 205.576L196.403 208.193C195.886 208.488 195.469 209.285 195.469 209.972V214.875C195.469 215.562 195.886 215.878 196.403 215.582Z" fill="white"/>
<path opacity="0.2" d="M93.4412 282.667L100.953 278.336C101.807 277.845 102.5 276.526 102.5 275.388V267.277C102.5 266.144 101.807 265.618 100.953 266.109L93.4412 270.44C92.5875 270.932 91.8945 272.25 91.8945 273.388V281.499C91.8945 282.632 92.5875 283.158 93.4412 282.667Z" fill="white"/>
<path opacity="0.2" d="M76.2571 301.887L85.7678 296.408C86.8475 295.786 87.7212 294.117 87.7212 292.678V282.411C87.7212 280.973 86.8475 280.316 85.7678 280.938L76.2571 286.417C75.1775 287.038 74.3037 288.708 74.3037 290.147V300.413C74.3037 301.852 75.1775 302.509 76.2571 301.887Z" fill="white"/>
<path opacity="0.2" d="M165.209 271.868L173.61 267.025C174.564 266.474 175.337 265 175.337 263.732V254.663C175.337 253.395 174.564 252.808 173.61 253.36L165.209 258.202C164.255 258.754 163.481 260.228 163.481 261.496V270.565C163.481 271.833 164.255 272.419 165.209 271.868Z" fill="white"/>
<path opacity="0.2" d="M103.951 314.063L112.352 309.221C113.306 308.669 114.079 307.195 114.079 305.927V296.858C114.079 295.59 113.306 295.004 112.352 295.555L103.951 300.398C102.997 300.949 102.224 302.423 102.224 303.691V312.76C102.224 314.028 102.997 314.615 103.951 314.063Z" fill="white"/>
<path opacity="0.2" d="M142.632 267.176L156.617 259.115C158.204 258.198 159.494 255.746 159.494 253.631V238.532C159.494 236.416 158.209 235.449 156.617 236.361L142.632 244.422C141.045 245.339 139.755 247.791 139.755 249.906V265.006C139.755 267.121 141.04 268.089 142.632 267.176Z" fill="white"/>
<path opacity="0.2" d="M160.685 219.602L170 214.233C171.059 213.621 171.913 211.987 171.913 210.578V200.522C171.913 199.113 171.054 198.467 170 199.078L160.685 204.447C159.625 205.059 158.771 206.693 158.771 208.102V218.158C158.771 219.567 159.63 220.213 160.685 219.602Z" fill="white"/>
<path opacity="0.2" d="M141.271 220.62L148.888 216.228C149.752 215.732 150.455 214.394 150.455 213.241V205.019C150.455 203.866 149.752 203.34 148.888 203.836L141.271 208.228C140.407 208.724 139.704 210.062 139.704 211.215V219.437C139.704 220.59 140.407 221.116 141.271 220.62Z" fill="white"/>
<path opacity="0.2" d="M158.6 193.855L163.139 191.238C163.657 190.943 164.073 190.146 164.073 189.459V184.556C164.073 183.869 163.657 183.553 163.139 183.849L158.6 186.466C158.083 186.762 157.666 187.559 157.666 188.246V193.148C157.666 193.835 158.083 194.151 158.6 193.855Z" fill="white"/>
<path opacity="0.4" d="M70.8793 293.615L75.4188 290.998C75.936 290.703 76.3528 289.905 76.3528 289.219V284.316C76.3528 283.629 75.936 283.313 75.4188 283.609L70.8793 286.226C70.3621 286.522 69.9453 287.319 69.9453 288.005V292.908C69.9453 293.595 70.3621 293.911 70.8793 293.615Z" fill="white"/>
<path opacity="0.3" d="M213.219 167.978L217.759 165.362C218.276 165.066 218.693 164.269 218.693 163.582V158.679C218.693 157.992 218.276 157.677 217.759 157.972L213.219 160.589C212.702 160.885 212.285 161.682 212.285 162.369V167.272C212.285 167.958 212.702 168.274 213.219 167.978Z" fill="white"/>
<path opacity="0.3" d="M72.8276 321.714L77.367 319.097C77.8842 318.801 78.301 318.004 78.301 317.317V312.414C78.301 311.728 77.8842 311.412 77.367 311.708L72.8276 314.324C72.3103 314.62 71.8936 315.417 71.8936 316.104V321.007C71.8936 321.694 72.3103 322.009 72.8276 321.714Z" fill="white"/>
<path opacity="0.4" d="M230.996 233.493L243.007 226.57C244.373 225.783 245.478 223.678 245.478 221.858V208.894C245.478 207.079 244.373 206.242 243.007 207.029L230.996 213.952C229.63 214.739 228.525 216.845 228.525 218.665V231.628C228.525 233.443 229.63 234.28 230.996 233.493Z" fill="white"/>
<path opacity="0.4" d="M240.491 194.421L244.594 192.055C245.061 191.784 245.437 191.067 245.437 190.446V186.014C245.437 185.393 245.061 185.107 244.594 185.378L240.491 187.744C240.024 188.014 239.647 188.731 239.647 189.353V193.785C239.647 194.406 240.024 194.692 240.491 194.421Z" fill="white"/>
<path d="M256.404 166.86C251.378 163.962 244.93 163.516 237.714 165.897C236.951 161.766 235.816 158.006 234.34 154.638L256.525 166.719L256.399 166.86H256.404Z" fill="white"/>
<path d="M190.979 122.218C179.711 116.012 164.295 117.06 147.287 126.866C124.188 140.18 104.016 166.258 93.2 193.975C92.969 194.106 92.738 194.231 92.507 194.367C76.9855 203.31 63.2968 220.209 55.1419 238.632C54.5493 238.943 53.9518 239.269 53.3492 239.614C40.8205 246.833 29.753 260.384 23.0443 275.217C18.786 284.627 16.2803 294.553 16.2803 303.711C16.2803 315.247 20.2473 323.428 26.6949 327.403L26.7502 327.433C27.2071 327.714 27.6791 327.97 28.1612 328.21L55.2925 343.134C49.1261 339.059 45.3499 330.998 45.3499 319.743C45.3499 310.76 47.7602 301.035 51.8728 291.785C58.5565 276.741 69.7445 262.955 82.4188 255.646C83.0214 255.3 83.6139 254.974 84.2115 254.664C92.3664 236.241 106.06 219.342 121.577 210.398C121.808 210.263 122.039 210.138 122.27 210.007C133.086 182.29 153.257 156.212 176.356 142.897C192.742 133.453 207.651 132.134 218.793 137.604L190.974 122.218H190.979Z" fill="url(#paint3_linear_911_6078)"/>
<path d="M57.8133 344.513L57.7979 344.503C57.7979 344.503 57.8081 344.508 57.8133 344.513Z" fill="#ACBCF5"/>
<path style="mix-blend-mode:soft-light" d="M137.545 180.922C142.532 216.439 155.728 254.609 186.249 281.293L230.534 255.767V255.757C250.991 243.56 267.467 214.825 267.467 191.148C267.467 170.334 254.743 160.288 237.77 165.893C232.226 135.839 206.867 125.342 176.407 142.898C161.719 151.365 148.211 164.99 137.545 180.922Z" fill="url(#paint4_linear_911_6078)"/>
<g style="mix-blend-mode:multiply" opacity="0.3">
<path d="M435.818 285.734L483.844 258.052L435.818 230.37L387.797 258.052L435.818 285.734Z" fill="#DFE2F5"/>
</g>
<path d="M435.818 262.529V182.149C435.818 174.449 431.128 165.506 425.343 162.172L398.267 146.566C396.153 145.348 392.753 145.719 391.111 146.205L439.388 118.363C441.231 117.275 443.647 117.36 446.293 118.884L473.369 134.49C479.154 137.824 483.844 146.767 483.844 154.467V248.788L435.818 276.47V262.529Z" fill="url(#paint5_linear_911_6078)"/>
<path d="M398.267 146.561L425.343 162.167C431.128 165.501 435.818 174.444 435.818 182.144V276.465L425.343 270.429L398.267 254.823L387.792 248.788V154.467C387.792 146.767 392.482 143.227 398.267 146.561Z" fill="url(#paint6_linear_911_6078)"/>
<g opacity="0.85">
<g opacity="0.3">
<path d="M392.196 162.573L430.435 184.611V180.224L392.196 158.182V162.573Z" fill="white"/>
</g>
<g opacity="0.3">
<path d="M392.196 170.374L430.435 192.416V188.025L392.196 165.987V170.374Z" fill="white"/>
</g>
<g opacity="0.3">
<path d="M392.196 178.179L430.435 200.221V195.83L392.196 173.787V178.179Z" fill="#3384BD"/>
</g>
<g opacity="0.3">
<path d="M392.196 191.584L430.435 213.626V209.235L392.196 187.192V191.584Z" fill="white"/>
</g>
<g opacity="0.3">
<path d="M392.196 199.389L430.435 221.427V217.04L392.196 194.998V199.389Z" fill="#3384BD"/>
</g>
<g opacity="0.3">
<path d="M392.196 207.189L430.435 229.232V224.84L392.196 202.803V207.189Z" fill="white"/>
</g>
<g opacity="0.3">
<path d="M392.196 220.594L430.435 242.637V238.245L392.196 216.208V220.594Z" fill="#3384BD"/>
</g>
<g opacity="0.3">
<path d="M392.196 228.399L430.435 250.442V246.05L392.196 224.008V228.399Z" fill="white"/>
</g>
<g opacity="0.3">
<path d="M392.196 236.205L430.435 258.242V253.856L392.196 231.813V236.205Z" fill="white"/>
</g>
<g opacity="0.8">
<path d="M422.501 178.51L427.739 181.528C428.06 181.713 428.316 181.563 428.316 181.192C428.316 180.821 428.055 180.375 427.739 180.189L422.501 177.171C422.18 176.986 421.924 177.136 421.924 177.507C421.924 177.878 422.185 178.324 422.501 178.51Z" fill="white"/>
<path d="M414.251 173.758L419.489 176.776C419.81 176.961 420.066 176.811 420.066 176.44C420.066 176.069 419.805 175.623 419.489 175.437L414.251 172.419C413.93 172.234 413.674 172.384 413.674 172.755C413.674 173.126 413.935 173.572 414.251 173.758Z" fill="white"/>
<path d="M394.998 162.658L407.552 169.892C407.874 170.078 408.13 169.927 408.13 169.556C408.13 169.185 407.869 168.739 407.552 168.554L394.998 161.32C394.677 161.134 394.421 161.285 394.421 161.656C394.421 162.027 394.682 162.473 394.998 162.658Z" fill="white"/>
</g>
<g opacity="0.8">
<path d="M422.501 186.315L427.739 189.333C428.06 189.519 428.316 189.368 428.316 188.997C428.316 188.626 428.055 188.18 427.739 187.995L422.501 184.977C422.18 184.791 421.924 184.942 421.924 185.313C421.924 185.684 422.185 186.13 422.501 186.315Z" fill="white"/>
<path d="M414.251 181.562L419.489 184.58C419.81 184.766 420.066 184.615 420.066 184.244C420.066 183.873 419.805 183.427 419.489 183.242L414.251 180.224C413.93 180.038 413.674 180.189 413.674 180.56C413.674 180.931 413.935 181.377 414.251 181.562Z" fill="white"/>
<path d="M394.998 170.464L407.552 177.698C407.874 177.883 408.13 177.733 408.13 177.362C408.13 176.991 407.869 176.545 407.552 176.359L394.998 169.125C394.677 168.94 394.421 169.09 394.421 169.461C394.421 169.832 394.682 170.278 394.998 170.464Z" fill="white"/>
</g>
<g opacity="0.8">
<path d="M422.501 194.12L427.739 197.138C428.06 197.323 428.316 197.173 428.316 196.802C428.316 196.431 428.055 195.985 427.739 195.799L422.501 192.782C422.18 192.596 421.924 192.746 421.924 193.117C421.924 193.488 422.185 193.935 422.501 194.12Z" fill="#EBF3F8"/>
<path d="M414.251 189.362L419.489 192.38C419.81 192.566 420.066 192.415 420.066 192.044C420.066 191.673 419.805 191.227 419.489 191.042L414.251 188.024C413.93 187.838 413.674 187.989 413.674 188.36C413.674 188.731 413.935 189.177 414.251 189.362Z" fill="#EBF3F8"/>
<path d="M394.998 178.269L407.552 185.502C407.874 185.688 408.13 185.537 408.13 185.166C408.13 184.796 407.869 184.349 407.552 184.164L394.998 176.93C394.677 176.745 394.421 176.895 394.421 177.266C394.421 177.637 394.682 178.083 394.998 178.269Z" fill="#EBF3F8"/>
</g>
<g opacity="0.8">
<path d="M422.501 207.525L427.739 210.543C428.06 210.729 428.316 210.578 428.316 210.207C428.316 209.836 428.055 209.39 427.739 209.205L422.501 206.187C422.18 206.001 421.924 206.152 421.924 206.523C421.924 206.894 422.185 207.34 422.501 207.525Z" fill="white"/>
<path d="M414.251 202.768L419.489 205.785C419.81 205.971 420.066 205.82 420.066 205.45C420.066 205.079 419.805 204.632 419.489 204.447L414.251 201.429C413.93 201.244 413.674 201.394 413.674 201.765C413.674 202.136 413.935 202.582 414.251 202.768Z" fill="white"/>
<path d="M394.998 191.674L407.552 198.908C407.874 199.093 408.13 198.943 408.13 198.572C408.13 198.201 407.869 197.755 407.552 197.569L394.998 190.335C394.677 190.15 394.421 190.3 394.421 190.671C394.421 191.042 394.682 191.488 394.998 191.674Z" fill="white"/>
</g>
<g opacity="0.8">
<path d="M422.501 215.331L427.739 218.349C428.06 218.534 428.316 218.384 428.316 218.013C428.316 217.642 428.055 217.196 427.739 217.01L422.501 213.993C422.18 213.807 421.924 213.957 421.924 214.328C421.924 214.699 422.185 215.146 422.501 215.331Z" fill="#EBF3F8"/>
<path d="M414.251 210.574L419.489 213.592C419.81 213.778 420.066 213.627 420.066 213.256C420.066 212.885 419.805 212.439 419.489 212.254L414.251 209.236C413.93 209.05 413.674 209.201 413.674 209.572C413.674 209.943 413.935 210.389 414.251 210.574Z" fill="#EBF3F8"/>
<path d="M394.998 199.475L407.552 206.708C407.874 206.894 408.13 206.744 408.13 206.373C408.13 206.002 407.869 205.555 407.552 205.37L394.998 198.136C394.677 197.951 394.421 198.101 394.421 198.472C394.421 198.843 394.682 199.289 394.998 199.475Z" fill="#EBF3F8"/>
</g>
<g opacity="0.8">
<path d="M422.501 223.131L427.739 226.149C428.06 226.334 428.316 226.184 428.316 225.813C428.316 225.442 428.055 224.996 427.739 224.81L422.501 221.792C422.18 221.607 421.924 221.757 421.924 222.128C421.924 222.499 422.185 222.945 422.501 223.131Z" fill="white"/>
<path d="M414.251 218.379L419.489 221.397C419.81 221.582 420.066 221.432 420.066 221.061C420.066 220.69 419.805 220.244 419.489 220.058L414.251 217.04C413.93 216.855 413.674 217.005 413.674 217.376C413.674 217.747 413.935 218.193 414.251 218.379Z" fill="white"/>
<path d="M394.998 207.279L407.552 214.513C407.874 214.699 408.13 214.548 408.13 214.177C408.13 213.806 407.869 213.36 407.552 213.175L394.998 205.941C394.677 205.755 394.421 205.906 394.421 206.277C394.421 206.648 394.682 207.094 394.998 207.279Z" fill="white"/>
</g>
<g opacity="0.8">
<path d="M422.501 236.541L427.739 239.559C428.06 239.744 428.316 239.594 428.316 239.223C428.316 238.852 428.055 238.406 427.739 238.22L422.501 235.202C422.18 235.017 421.924 235.167 421.924 235.538C421.924 235.909 422.185 236.355 422.501 236.541Z" fill="#EBF3F8"/>
<path d="M414.251 231.783L419.489 234.801C419.81 234.986 420.066 234.836 420.066 234.465C420.066 234.094 419.805 233.648 419.489 233.463L414.251 230.445C413.93 230.259 413.674 230.41 413.674 230.781C413.674 231.152 413.935 231.598 414.251 231.783Z" fill="#EBF3F8"/>
<path d="M394.998 220.689L407.552 227.923C407.874 228.109 408.13 227.958 408.13 227.587C408.13 227.216 407.869 226.77 407.552 226.585L394.998 219.351C394.677 219.165 394.421 219.316 394.421 219.687C394.421 220.058 394.682 220.504 394.998 220.689Z" fill="#EBF3F8"/>
</g>
<g opacity="0.8">
<path d="M422.501 244.342L427.739 247.36C428.06 247.545 428.316 247.395 428.316 247.024C428.316 246.653 428.055 246.207 427.739 246.021L422.501 243.003C422.18 242.818 421.924 242.968 421.924 243.339C421.924 243.71 422.185 244.156 422.501 244.342Z" fill="white"/>
<path d="M414.251 239.584L419.489 242.602C419.81 242.787 420.066 242.637 420.066 242.266C420.066 241.895 419.805 241.449 419.489 241.263L414.251 238.245C413.93 238.06 413.674 238.21 413.674 238.581C413.674 238.952 413.935 239.398 414.251 239.584Z" fill="white"/>
<path d="M394.998 228.49L407.552 235.724C407.874 235.91 408.13 235.759 408.13 235.388C408.13 235.017 407.869 234.571 407.552 234.386L394.998 227.152C394.677 226.966 394.421 227.117 394.421 227.488C394.421 227.859 394.682 228.305 394.998 228.49Z" fill="white"/>
</g>
<g opacity="0.8">
<path d="M422.501 252.142L427.739 255.159C428.06 255.345 428.316 255.194 428.316 254.824C428.316 254.453 428.055 254.006 427.739 253.821L422.501 250.803C422.18 250.618 421.924 250.768 421.924 251.139C421.924 251.51 422.185 251.956 422.501 252.142Z" fill="white"/>
<path d="M414.251 247.384L419.489 250.402C419.81 250.587 420.066 250.437 420.066 250.066C420.066 249.695 419.805 249.249 419.489 249.063L414.251 246.045C413.93 245.86 413.674 246.01 413.674 246.381C413.674 246.752 413.935 247.198 414.251 247.384Z" fill="white"/>
<path d="M394.998 236.29L407.552 243.524C407.874 243.709 408.13 243.559 408.13 243.188C408.13 242.817 407.869 242.371 407.552 242.185L394.998 234.952C394.677 234.766 394.421 234.916 394.421 235.287C394.421 235.658 394.682 236.105 394.998 236.29Z" fill="white"/>
</g>
</g>
<g style="mix-blend-mode:multiply">
<path d="M483.844 248.787L435.818 276.47L387.797 248.517V246.371L435.818 273.898L483.844 246.371V248.787Z" fill="#E8EDFA"/>
</g>
<g style="mix-blend-mode:multiply" opacity="0.3">
<path d="M502.409 324.029L550.435 296.347L502.409 268.665L454.383 296.347L502.409 324.029Z" fill="#DFE2F5"/>
</g>
<path d="M502.409 300.823V220.444C502.409 212.744 497.719 203.801 491.934 200.467L464.858 184.861C462.744 183.643 459.344 184.014 457.702 184.5L505.979 156.658C507.822 155.57 510.237 155.655 512.884 157.179L539.96 172.785C545.745 176.118 550.435 185.062 550.435 192.762V287.083L502.409 314.765V300.823Z" fill="url(#paint7_linear_911_6078)"/>
<path d="M464.858 184.856L491.934 200.462C497.719 203.795 502.409 212.739 502.409 220.439V314.76L491.934 308.724L464.858 293.118L454.383 287.082V192.762C454.383 185.062 459.073 181.522 464.858 184.856Z" fill="url(#paint8_linear_911_6078)"/>
<g opacity="0.85">
<g opacity="0.3">
<path d="M458.781 200.868L497.025 222.905V218.519L458.781 196.477V200.868Z" fill="white"/>
</g>
<g opacity="0.3">
<path d="M458.781 208.669L497.025 230.711V226.32L458.781 204.282V208.669Z" fill="white"/>
</g>
<g opacity="0.3">
<path d="M458.781 216.473L497.025 238.516V234.124L458.781 212.082V216.473Z" fill="#3384BD"/>
</g>
<g opacity="0.3">
<path d="M458.781 229.879L497.025 251.921V247.53L458.781 225.487V229.879Z" fill="white"/>
</g>
<g opacity="0.3">
<path d="M458.781 237.684L497.025 259.722V255.335L458.781 233.293V237.684Z" fill="#3384BD"/>
</g>
<g opacity="0.3">
<path d="M458.781 245.489L497.025 267.527V263.14L458.781 241.098V245.489Z" fill="white"/>
</g>
<g opacity="0.3">
<path d="M458.781 258.889L497.025 280.932V276.54L458.781 254.503V258.889Z" fill="#3384BD"/>
</g>
<g opacity="0.3">
<path d="M458.781 266.694L497.025 288.737V284.345L458.781 262.303V266.694Z" fill="white"/>
</g>
<g opacity="0.3">
<path d="M458.781 274.5L497.025 296.542V292.151L458.781 270.108V274.5Z" fill="white"/>
</g>
<g opacity="0.8">
<path d="M489.091 216.805L494.329 219.823C494.65 220.008 494.906 219.858 494.906 219.487C494.906 219.116 494.645 218.67 494.329 218.484L489.091 215.466C488.77 215.281 488.514 215.431 488.514 215.802C488.514 216.173 488.775 216.619 489.091 216.805Z" fill="white"/>
<path d="M480.841 212.053L486.079 215.071C486.4 215.256 486.656 215.106 486.656 214.735C486.656 214.364 486.395 213.918 486.079 213.732L480.841 210.714C480.52 210.529 480.264 210.679 480.264 211.05C480.264 211.421 480.525 211.867 480.841 212.053Z" fill="white"/>
<path d="M461.588 200.953L474.142 208.187C474.463 208.372 474.72 208.222 474.72 207.851C474.72 207.48 474.458 207.034 474.142 206.848L461.588 199.615C461.267 199.429 461.011 199.579 461.011 199.95C461.011 200.321 461.272 200.768 461.588 200.953Z" fill="white"/>
</g>
<g opacity="0.8">
<path d="M489.091 224.61L494.329 227.628C494.65 227.814 494.906 227.663 494.906 227.292C494.906 226.921 494.645 226.475 494.329 226.29L489.091 223.272C488.77 223.086 488.514 223.237 488.514 223.608C488.514 223.979 488.775 224.425 489.091 224.61Z" fill="white"/>
<path d="M480.841 219.857L486.079 222.875C486.4 223.061 486.656 222.91 486.656 222.539C486.656 222.168 486.395 221.722 486.079 221.537L480.841 218.519C480.52 218.333 480.264 218.484 480.264 218.855C480.264 219.226 480.525 219.672 480.841 219.857Z" fill="white"/>
<path d="M461.588 208.759L474.142 215.993C474.463 216.178 474.72 216.028 474.72 215.657C474.72 215.286 474.458 214.84 474.142 214.654L461.588 207.42C461.267 207.235 461.011 207.385 461.011 207.756C461.011 208.127 461.272 208.573 461.588 208.759Z" fill="white"/>
</g>
<g opacity="0.8">
<path d="M489.091 232.415L494.329 235.433C494.65 235.618 494.906 235.468 494.906 235.097C494.906 234.726 494.645 234.28 494.329 234.094L489.091 231.077C488.77 230.891 488.514 231.041 488.514 231.412C488.514 231.783 488.775 232.23 489.091 232.415Z" fill="#EBF3F8"/>
<path d="M480.841 227.657L486.079 230.675C486.4 230.861 486.656 230.71 486.656 230.339C486.656 229.968 486.395 229.522 486.079 229.337L480.841 226.319C480.52 226.133 480.264 226.284 480.264 226.655C480.264 227.026 480.525 227.472 480.841 227.657Z" fill="#EBF3F8"/>
<path d="M461.588 216.563L474.142 223.797C474.463 223.983 474.72 223.832 474.72 223.461C474.72 223.09 474.458 222.644 474.142 222.459L461.588 215.225C461.267 215.039 461.011 215.19 461.011 215.561C461.011 215.932 461.272 216.378 461.588 216.563Z" fill="#EBF3F8"/>
</g>
<g opacity="0.8">
<path d="M489.091 245.82L494.329 248.838C494.65 249.024 494.906 248.873 494.906 248.502C494.906 248.131 494.645 247.685 494.329 247.5L489.091 244.482C488.77 244.296 488.514 244.447 488.514 244.818C488.514 245.189 488.775 245.635 489.091 245.82Z" fill="white"/>
<path d="M480.841 241.062L486.079 244.08C486.4 244.266 486.656 244.115 486.656 243.744C486.656 243.373 486.395 242.927 486.079 242.742L480.841 239.724C480.52 239.538 480.264 239.689 480.264 240.06C480.264 240.431 480.525 240.877 480.841 241.062Z" fill="white"/>
<path d="M461.588 229.969L474.142 237.203C474.463 237.388 474.72 237.238 474.72 236.867C474.72 236.496 474.458 236.05 474.142 235.864L461.588 228.63C461.267 228.445 461.011 228.595 461.011 228.966C461.011 229.337 461.272 229.783 461.588 229.969Z" fill="white"/>
</g>
<g opacity="0.8">
<path d="M489.091 253.626L494.329 256.644C494.65 256.829 494.906 256.679 494.906 256.308C494.906 255.937 494.645 255.491 494.329 255.305L489.091 252.287C488.77 252.102 488.514 252.252 488.514 252.623C488.514 252.994 488.775 253.44 489.091 253.626Z" fill="#EBF3F8"/>
<path d="M480.841 248.869L486.079 251.887C486.4 252.072 486.656 251.922 486.656 251.551C486.656 251.18 486.395 250.734 486.079 250.548L480.841 247.531C480.52 247.345 480.264 247.496 480.264 247.866C480.264 248.237 480.525 248.684 480.841 248.869Z" fill="#EBF3F8"/>
<path d="M461.588 237.769L474.142 245.003C474.463 245.189 474.72 245.038 474.72 244.667C474.72 244.296 474.458 243.85 474.142 243.665L461.588 236.431C461.267 236.246 461.011 236.396 461.011 236.767C461.011 237.138 461.272 237.584 461.588 237.769Z" fill="#EBF3F8"/>
</g>
<g opacity="0.8">
<path d="M489.091 261.426L494.329 264.444C494.65 264.629 494.906 264.479 494.906 264.108C494.906 263.737 494.645 263.291 494.329 263.105L489.091 260.087C488.77 259.902 488.514 260.052 488.514 260.423C488.514 260.794 488.775 261.24 489.091 261.426Z" fill="white"/>
<path d="M480.841 256.674L486.079 259.692C486.4 259.877 486.656 259.727 486.656 259.356C486.656 258.985 486.395 258.539 486.079 258.353L480.841 255.335C480.52 255.15 480.264 255.3 480.264 255.671C480.264 256.042 480.525 256.488 480.841 256.674Z" fill="white"/>
<path d="M461.588 245.574L474.142 252.808C474.463 252.994 474.72 252.843 474.72 252.472C474.72 252.101 474.458 251.655 474.142 251.47L461.588 244.236C461.267 244.05 461.011 244.201 461.011 244.572C461.011 244.943 461.272 245.389 461.588 245.574Z" fill="white"/>
</g>
<g opacity="0.8">
<path d="M489.091 274.836L494.329 277.854C494.65 278.039 494.906 277.889 494.906 277.518C494.906 277.147 494.645 276.701 494.329 276.515L489.091 273.497C488.77 273.312 488.514 273.462 488.514 273.833C488.514 274.204 488.775 274.65 489.091 274.836Z" fill="#EBF3F8"/>
<path d="M480.841 270.078L486.079 273.096C486.4 273.281 486.656 273.131 486.656 272.76C486.656 272.389 486.395 271.943 486.079 271.757L480.841 268.74C480.52 268.554 480.264 268.704 480.264 269.075C480.264 269.446 480.525 269.893 480.841 270.078Z" fill="#EBF3F8"/>
<path d="M461.588 258.984L474.142 266.218C474.463 266.404 474.72 266.253 474.72 265.882C474.72 265.511 474.458 265.065 474.142 264.88L461.588 257.646C461.267 257.46 461.011 257.611 461.011 257.982C461.011 258.353 461.272 258.799 461.588 258.984Z" fill="#EBF3F8"/>
</g>
<g opacity="0.8">
<path d="M489.091 282.637L494.329 285.655C494.65 285.84 494.906 285.69 494.906 285.319C494.906 284.948 494.645 284.502 494.329 284.316L489.091 281.298C488.77 281.113 488.514 281.263 488.514 281.634C488.514 282.005 488.775 282.451 489.091 282.637Z" fill="white"/>
<path d="M480.841 277.879L486.079 280.897C486.4 281.082 486.656 280.932 486.656 280.561C486.656 280.19 486.395 279.744 486.079 279.558L480.841 276.54C480.52 276.355 480.264 276.505 480.264 276.876C480.264 277.247 480.525 277.693 480.841 277.879Z" fill="white"/>
<path d="M461.588 266.785L474.142 274.019C474.463 274.204 474.72 274.054 474.72 273.683C474.72 273.312 474.458 272.866 474.142 272.68L461.588 265.447C461.267 265.261 461.011 265.412 461.011 265.782C461.011 266.153 461.272 266.6 461.588 266.785Z" fill="white"/>
</g>
<g opacity="0.8">
<path d="M489.091 290.437L494.329 293.454C494.65 293.64 494.906 293.489 494.906 293.118C494.906 292.748 494.645 292.301 494.329 292.116L489.091 289.098C488.77 288.913 488.514 289.063 488.514 289.434C488.514 289.805 488.775 290.251 489.091 290.437Z" fill="white"/>
<path d="M480.841 285.679L486.079 288.697C486.4 288.882 486.656 288.732 486.656 288.361C486.656 287.99 486.395 287.544 486.079 287.358L480.841 284.34C480.52 284.155 480.264 284.305 480.264 284.676C480.264 285.047 480.525 285.493 480.841 285.679Z" fill="white"/>
<path d="M461.588 274.585L474.142 281.819C474.463 282.004 474.72 281.854 474.72 281.483C474.72 281.112 474.458 280.666 474.142 280.48L461.588 273.246C461.267 273.061 461.011 273.211 461.011 273.582C461.011 273.953 461.272 274.399 461.588 274.585Z" fill="white"/>
</g>
</g>
<g style="mix-blend-mode:multiply">
<path d="M550.435 287.082L502.409 314.764L454.383 286.812V284.666L502.409 312.193L550.435 284.666V287.082Z" fill="#E8EDFA"/>
</g>
<path d="M568.994 339.118V258.739C568.994 251.039 564.304 242.096 558.519 238.762L531.443 223.156C529.329 221.938 525.929 222.309 524.287 222.795L572.564 194.953C574.407 193.865 576.822 193.95 579.469 195.474L606.545 211.08C612.33 214.413 617.02 223.357 617.02 231.057V325.378L568.994 353.06V339.118Z" fill="url(#paint9_linear_911_6078)"/>
<path d="M531.443 223.151L558.519 238.757C564.304 242.09 568.994 251.034 568.994 258.734V353.055L558.519 347.019L531.443 331.413L520.968 325.377V231.057C520.968 223.357 525.658 219.817 531.443 223.151Z" fill="url(#paint10_linear_911_6078)"/>
<g opacity="0.85">
<g opacity="0.3">
<path d="M525.372 239.163L563.611 261.2V256.814L525.372 234.771V239.163Z" fill="white"/>
</g>
<g opacity="0.3">
<path d="M525.372 246.964L563.611 269.006V264.615L525.372 242.577V246.964Z" fill="white"/>
</g>
<g opacity="0.3">
<path d="M525.372 254.768L563.611 276.811V272.419L525.372 250.382V254.768Z" fill="#3384BD"/>
</g>
<g opacity="0.3">
<path d="M525.372 268.174L563.611 290.216V285.825L525.372 263.782V268.174Z" fill="white"/>
</g>
<g opacity="0.3">
<path d="M525.372 275.979L563.611 298.017V293.63L525.372 271.588V275.979Z" fill="#3384BD"/>
</g>
<g opacity="0.3">
<path d="M525.372 283.784L563.611 305.821V301.435L525.372 279.393V283.784Z" fill="white"/>
</g>
<g opacity="0.3">
<path d="M525.372 297.184L563.611 319.227V314.835L525.372 292.798V297.184Z" fill="#3384BD"/>
</g>
<g opacity="0.3">
<path d="M525.372 304.99L563.611 327.032V322.641L525.372 300.604V304.99Z" fill="white"/>
</g>
<g opacity="0.3">
<path d="M525.372 312.795L563.611 334.837V330.446L525.372 308.403V312.795Z" fill="white"/>
</g>
<g opacity="0.8">
<path d="M555.677 255.104L560.915 258.122C561.236 258.308 561.492 258.157 561.492 257.786C561.492 257.415 561.231 256.969 560.915 256.784L555.677 253.766C555.356 253.58 555.1 253.731 555.1 254.102C555.1 254.473 555.361 254.919 555.677 255.104Z" fill="white"/>
<path d="M547.427 250.348L552.665 253.365C552.986 253.551 553.242 253.401 553.242 253.03C553.242 252.659 552.981 252.212 552.665 252.027L547.427 249.009C547.106 248.824 546.85 248.974 546.85 249.345C546.85 249.716 547.111 250.162 547.427 250.348Z" fill="white"/>
<path d="M528.174 239.248L540.728 246.482C541.049 246.667 541.305 246.517 541.305 246.146C541.305 245.775 541.044 245.329 540.728 245.143L528.174 237.91C527.853 237.724 527.597 237.874 527.597 238.245C527.597 238.616 527.858 239.063 528.174 239.248Z" fill="white"/>
</g>
<g opacity="0.8">
<path d="M555.677 262.905L560.915 265.923C561.236 266.109 561.492 265.958 561.492 265.587C561.492 265.216 561.231 264.77 560.915 264.585L555.677 261.567C555.356 261.381 555.1 261.532 555.1 261.903C555.1 262.274 555.361 262.72 555.677 262.905Z" fill="white"/>
<path d="M547.427 258.152L552.665 261.17C552.986 261.356 553.242 261.205 553.242 260.834C553.242 260.463 552.981 260.017 552.665 259.832L547.427 256.814C547.106 256.628 546.85 256.779 546.85 257.15C546.85 257.521 547.111 257.967 547.427 258.152Z" fill="white"/>
<path d="M528.174 247.054L540.728 254.288C541.049 254.473 541.305 254.323 541.305 253.952C541.305 253.581 541.044 253.135 540.728 252.949L528.174 245.715C527.853 245.53 527.597 245.68 527.597 246.051C527.597 246.422 527.858 246.868 528.174 247.054Z" fill="white"/>
</g>
<g opacity="0.8">
<path d="M555.677 270.711L560.915 273.729C561.236 273.914 561.492 273.764 561.492 273.393C561.492 273.022 561.231 272.576 560.915 272.39L555.677 269.372C555.356 269.187 555.1 269.337 555.1 269.708C555.1 270.079 555.361 270.525 555.677 270.711Z" fill="#EBF3F8"/>
<path d="M547.427 265.953L552.665 268.971C552.986 269.156 553.242 269.006 553.242 268.635C553.242 268.264 552.981 267.818 552.665 267.632L547.427 264.615C547.106 264.429 546.85 264.579 546.85 264.95C546.85 265.321 547.111 265.768 547.427 265.953Z" fill="#EBF3F8"/>
<path d="M528.174 254.859L540.728 262.093C541.049 262.279 541.305 262.128 541.305 261.757C541.305 261.386 541.044 260.94 540.728 260.755L528.174 253.521C527.853 253.335 527.597 253.486 527.597 253.857C527.597 254.228 527.858 254.674 528.174 254.859Z" fill="#EBF3F8"/>
</g>
<g opacity="0.8">
<path d="M555.677 284.115L560.915 287.133C561.236 287.319 561.492 287.168 561.492 286.797C561.492 286.426 561.231 285.98 560.915 285.795L555.677 282.777C555.356 282.591 555.1 282.742 555.1 283.113C555.1 283.484 555.361 283.93 555.677 284.115Z" fill="white"/>
<path d="M547.427 279.357L552.665 282.375C552.986 282.561 553.242 282.41 553.242 282.039C553.242 281.668 552.981 281.222 552.665 281.037L547.427 278.019C547.106 277.833 546.85 277.984 546.85 278.355C546.85 278.726 547.111 279.172 547.427 279.357Z" fill="white"/>
<path d="M528.174 268.264L540.728 275.497C541.049 275.683 541.305 275.533 541.305 275.162C541.305 274.791 541.044 274.344 540.728 274.159L528.174 266.925C527.853 266.74 527.597 266.89 527.597 267.261C527.597 267.632 527.858 268.078 528.174 268.264Z" fill="white"/>
</g>
<g opacity="0.8">
<path d="M555.677 291.921L560.915 294.939C561.236 295.124 561.492 294.974 561.492 294.603C561.492 294.232 561.231 293.786 560.915 293.6L555.677 290.582C555.356 290.397 555.1 290.547 555.1 290.918C555.1 291.289 555.361 291.735 555.677 291.921Z" fill="#EBF3F8"/>
<path d="M547.427 287.164L552.665 290.182C552.986 290.367 553.242 290.217 553.242 289.846C553.242 289.475 552.981 289.029 552.665 288.843L547.427 285.826C547.106 285.64 546.85 285.79 546.85 286.161C546.85 286.532 547.111 286.979 547.427 287.164Z" fill="#EBF3F8"/>
<path d="M528.174 276.064L540.728 283.298C541.049 283.484 541.305 283.333 541.305 282.962C541.305 282.591 541.044 282.145 540.728 281.96L528.174 274.726C527.853 274.54 527.597 274.691 527.597 275.062C527.597 275.433 527.858 275.879 528.174 276.064Z" fill="#EBF3F8"/>
</g>
<g opacity="0.8">
<path d="M555.677 299.721L560.915 302.739C561.236 302.924 561.492 302.774 561.492 302.403C561.492 302.032 561.231 301.586 560.915 301.4L555.677 298.382C555.356 298.197 555.1 298.347 555.1 298.718C555.1 299.089 555.361 299.535 555.677 299.721Z" fill="white"/>
<path d="M547.427 294.969L552.665 297.987C552.986 298.172 553.242 298.022 553.242 297.651C553.242 297.28 552.981 296.834 552.665 296.648L547.427 293.63C547.106 293.445 546.85 293.595 546.85 293.966C546.85 294.337 547.111 294.783 547.427 294.969Z" fill="white"/>
<path d="M528.174 283.869L540.728 291.103C541.049 291.288 541.305 291.138 541.305 290.767C541.305 290.396 541.044 289.95 540.728 289.764L528.174 282.531C527.853 282.345 527.597 282.496 527.597 282.866C527.597 283.237 527.858 283.684 528.174 283.869Z" fill="white"/>
</g>
<g opacity="0.8">
<path d="M555.677 313.131L560.915 316.149C561.236 316.334 561.492 316.184 561.492 315.813C561.492 315.442 561.231 314.996 560.915 314.81L555.677 311.792C555.356 311.607 555.1 311.757 555.1 312.128C555.1 312.499 555.361 312.945 555.677 313.131Z" fill="#EBF3F8"/>
<path d="M547.427 308.373L552.665 311.391C552.986 311.576 553.242 311.426 553.242 311.055C553.242 310.684 552.981 310.238 552.665 310.052L547.427 307.035C547.106 306.849 546.85 306.999 546.85 307.37C546.85 307.741 547.111 308.188 547.427 308.373Z" fill="#EBF3F8"/>
<path d="M528.174 297.279L540.728 304.513C541.049 304.699 541.305 304.548 541.305 304.177C541.305 303.806 541.044 303.36 540.728 303.175L528.174 295.941C527.853 295.755 527.597 295.906 527.597 296.277C527.597 296.648 527.858 297.094 528.174 297.279Z" fill="#EBF3F8"/>
</g>
<g opacity="0.8">
<path d="M555.677 320.932L560.915 323.949C561.236 324.135 561.492 323.985 561.492 323.614C561.492 323.243 561.231 322.796 560.915 322.611L555.677 319.593C555.356 319.408 555.1 319.558 555.1 319.929C555.1 320.3 555.361 320.746 555.677 320.932Z" fill="white"/>
<path d="M547.427 316.174L552.665 319.192C552.986 319.377 553.242 319.227 553.242 318.856C553.242 318.485 552.981 318.039 552.665 317.853L547.427 314.835C547.106 314.65 546.85 314.8 546.85 315.171C546.85 315.542 547.111 315.988 547.427 316.174Z" fill="white"/>
<path d="M528.174 305.08L540.728 312.314C541.049 312.499 541.305 312.349 541.305 311.978C541.305 311.607 541.044 311.161 540.728 310.975L528.174 303.742C527.853 303.556 527.597 303.706 527.597 304.077C527.597 304.448 527.858 304.895 528.174 305.08Z" fill="white"/>
</g>
<g opacity="0.8">
<path d="M555.677 328.731L560.915 331.749C561.236 331.935 561.492 331.784 561.492 331.413C561.492 331.042 561.231 330.596 560.915 330.411L555.677 327.393C555.356 327.207 555.1 327.358 555.1 327.729C555.1 328.1 555.361 328.546 555.677 328.731Z" fill="white"/>
<path d="M547.427 323.974L552.665 326.991C552.986 327.177 553.242 327.027 553.242 326.656C553.242 326.285 552.981 325.838 552.665 325.653L547.427 322.635C547.106 322.45 546.85 322.6 546.85 322.971C546.85 323.342 547.111 323.788 547.427 323.974Z" fill="white"/>
<path d="M528.174 312.88L540.728 320.114C541.049 320.299 541.305 320.149 541.305 319.778C541.305 319.407 541.044 318.961 540.728 318.775L528.174 311.541C527.853 311.356 527.597 311.506 527.597 311.877C527.597 312.248 527.858 312.694 528.174 312.88Z" fill="white"/>
</g>
</g>
<g style="mix-blend-mode:multiply">
<path d="M617.02 325.377L568.994 353.059L520.968 325.107V322.961L568.994 350.488L617.02 322.961V325.377Z" fill="#E8EDFA"/>
</g>
<path d="M567.498 208.744L589.472 221.412C589.989 221.713 589.924 222.234 589.326 222.58C588.729 222.926 587.82 222.961 587.303 222.665L565.328 209.997C564.811 209.697 564.876 209.175 565.474 208.829C566.072 208.483 566.981 208.448 567.498 208.744Z" fill="#DEE6FF"/>
<path d="M563.36 211.131L585.334 223.799C585.852 224.1 585.786 224.621 585.189 224.967C584.591 225.313 583.682 225.348 583.165 225.052L561.191 212.384C560.674 212.083 560.739 211.562 561.336 211.216C561.934 210.87 562.843 210.835 563.36 211.131Z" fill="#DEE6FF"/>
<path d="M559.223 213.517L581.197 226.185C581.714 226.485 581.649 227.007 581.051 227.353C580.454 227.698 579.545 227.734 579.028 227.438L557.053 214.77C556.536 214.469 556.601 213.948 557.199 213.602C557.797 213.256 558.705 213.221 559.223 213.517Z" fill="#DEE6FF"/>
<path d="M555.08 215.902L577.054 228.57C577.571 228.871 577.506 229.392 576.908 229.738C576.311 230.084 575.402 230.119 574.885 229.824L552.91 217.156C552.393 216.855 552.459 216.333 553.056 215.987C553.654 215.642 554.563 215.607 555.08 215.902Z" fill="#DEE6FF"/>
<path d="M500.851 170.329L522.825 182.997C523.343 183.298 523.277 183.819 522.68 184.165C522.082 184.511 521.173 184.546 520.656 184.25L498.682 171.582C498.165 171.282 498.23 170.76 498.828 170.414C499.425 170.068 500.334 170.033 500.851 170.329Z" fill="#DEE6FF"/>
<path d="M496.714 172.716L518.688 185.384C519.205 185.685 519.14 186.206 518.542 186.552C517.945 186.898 517.036 186.933 516.518 186.637L494.544 173.969C494.027 173.668 494.092 173.147 494.69 172.801C495.287 172.455 496.196 172.42 496.714 172.716Z" fill="#DEE6FF"/>
<path d="M492.576 175.101L514.55 187.77C515.068 188.07 515.002 188.592 514.405 188.938C513.807 189.283 512.898 189.319 512.381 189.023L490.407 176.355C489.89 176.054 489.955 175.533 490.552 175.187C491.15 174.841 492.059 174.806 492.576 175.101Z" fill="#DEE6FF"/>
<path d="M488.433 177.487L510.407 190.155C510.925 190.456 510.859 190.977 510.262 191.323C509.664 191.669 508.755 191.704 508.238 191.409L486.264 178.741C485.747 178.44 485.812 177.918 486.41 177.572C487.007 177.227 487.916 177.191 488.433 177.487Z" fill="#DEE6FF"/>
<path d="M434.257 131.935L456.231 144.603C456.748 144.903 456.683 145.425 456.085 145.771C455.488 146.116 454.579 146.152 454.062 145.856L432.087 133.188C431.57 132.887 431.636 132.366 432.233 132.02C432.831 131.674 433.74 131.639 434.257 131.935Z" fill="#DEE6FF"/>
<path d="M430.119 134.321L452.093 146.989C452.61 147.29 452.545 147.811 451.947 148.157C451.35 148.503 450.441 148.538 449.924 148.242L427.95 135.574C427.432 135.274 427.498 134.752 428.095 134.406C428.693 134.061 429.602 134.025 430.119 134.321Z" fill="#DEE6FF"/>
<path d="M425.981 136.707L447.956 149.375C448.473 149.676 448.408 150.197 447.81 150.543C447.212 150.889 446.304 150.924 445.786 150.628L423.812 137.96C423.295 137.659 423.36 137.138 423.958 136.792C424.555 136.446 425.464 136.411 425.981 136.707Z" fill="#DEE6FF"/>
<path d="M421.839 139.088L443.813 151.756C444.33 152.057 444.265 152.578 443.667 152.924C443.07 153.27 442.161 153.305 441.643 153.009L419.669 140.341C419.152 140.04 419.217 139.519 419.815 139.173C420.412 138.827 421.321 138.792 421.839 139.088Z" fill="#DEE6FF"/>
<path d="M601.714 263.231L587.031 271.693C585.821 272.39 584.837 271.648 584.837 270.039C584.837 268.425 585.821 266.55 587.031 265.853L601.714 257.391C602.925 256.694 603.909 257.436 603.909 259.045C603.909 260.659 602.925 262.534 601.714 263.231Z" fill="url(#paint11_linear_911_6078)"/>
<path d="M601.539 355.892C601.173 355.892 600.876 355.597 600.876 355.231V284.978C600.876 279.368 596.919 272.525 592.053 269.718L589.497 268.244C589.181 268.064 589.071 267.657 589.256 267.342C589.437 267.026 589.844 266.915 590.16 267.101L592.716 268.575C597.949 271.588 602.202 278.947 602.202 284.978V355.231C602.202 355.597 601.906 355.892 601.539 355.892Z" fill="#A3B5E8"/>
<path d="M604.702 354.057C604.336 354.057 604.039 353.762 604.039 353.396V283.143C604.039 277.533 600.082 270.69 595.216 267.883L592.661 266.409C592.344 266.229 592.234 265.822 592.419 265.507C592.6 265.191 593.007 265.081 593.323 265.266L595.879 266.74C601.112 269.753 605.365 277.112 605.365 283.143V353.396C605.365 353.762 605.069 354.057 604.702 354.057Z" fill="#A3B5E8"/>
<path d="M607.866 352.223C607.5 352.223 607.203 351.928 607.203 351.562V281.309C607.203 275.699 603.246 268.856 598.381 266.049L595.825 264.575C595.508 264.395 595.398 263.989 595.584 263.673C595.769 263.357 596.171 263.247 596.487 263.432L599.043 264.906C604.276 267.919 608.529 275.278 608.529 281.309V351.562C608.529 351.928 608.233 352.223 607.866 352.223Z" fill="#A3B5E8"/>
<path d="M611.029 350.393C610.663 350.393 610.366 350.098 610.366 349.732V279.479C610.366 273.869 606.41 267.026 601.544 264.219L598.988 262.745C598.671 262.564 598.561 262.158 598.747 261.843C598.932 261.527 599.334 261.416 599.651 261.602L602.206 263.076C607.439 266.089 611.692 273.448 611.692 279.479V349.732C611.692 350.098 611.396 350.393 611.029 350.393Z" fill="#A3B5E8"/>
<path d="M300.112 378.808C299.986 378.808 299.871 378.742 299.806 378.632C299.705 378.462 299.765 378.246 299.936 378.146L432.735 301.601C432.906 301.501 433.122 301.561 433.222 301.732C433.323 301.902 433.263 302.118 433.092 302.218L300.293 378.762C300.237 378.793 300.177 378.813 300.117 378.813L300.112 378.808Z" fill="#EBF3F8"/>
<path d="M327.861 394.835C327.735 394.835 327.62 394.769 327.555 394.659C327.454 394.489 327.514 394.273 327.685 394.173L460.484 317.628C460.655 317.533 460.871 317.588 460.972 317.759C461.072 317.929 461.012 318.145 460.841 318.245L328.042 394.79C327.986 394.82 327.926 394.84 327.866 394.84L327.861 394.835Z" fill="#EBF3F8"/>
<path d="M355.604 410.86C355.479 410.86 355.363 410.795 355.298 410.685C355.197 410.514 355.258 410.299 355.428 410.199L488.228 333.654C488.398 333.554 488.614 333.614 488.715 333.784C488.815 333.955 488.755 334.17 488.584 334.271L355.785 410.815C355.73 410.845 355.669 410.865 355.609 410.865L355.604 410.86Z" fill="#EBF3F8"/>
<path d="M355.604 410.86C355.544 410.86 355.484 410.845 355.429 410.81L184.491 312.118C184.32 312.018 184.26 311.802 184.36 311.632C184.461 311.461 184.677 311.406 184.847 311.502L355.785 410.194C355.956 410.294 356.016 410.51 355.916 410.68C355.85 410.795 355.73 410.855 355.609 410.855L355.604 410.86Z" fill="#EBF3F8"/>
<path d="M326.444 484.753C311.56 484.753 297.475 481.49 287.271 475.609L215.925 434.487C204.687 428.01 198.928 418.806 200.123 409.231C201.233 400.323 208.112 391.806 219.486 385.244L283.716 348.222C295.045 341.695 309.718 337.75 325.038 337.113C341.454 336.432 357.271 339.735 368.439 346.167L439.785 387.289C451.023 393.766 456.783 402.97 455.588 412.545C454.478 421.453 447.599 429.975 436.225 436.533L371.995 473.554C360.666 480.081 345.993 484.026 330.672 484.663C329.256 484.723 327.85 484.748 326.444 484.748V484.753ZM329.261 337.745C327.865 337.745 326.464 337.775 325.058 337.83C309.853 338.457 295.296 342.372 284.063 348.844L219.832 385.865C208.654 392.307 201.9 400.639 200.821 409.322C199.666 418.596 205.3 427.549 216.277 433.876L287.623 474.998C298.67 481.364 314.357 484.633 330.637 483.961C345.842 483.334 360.4 479.419 371.633 472.947L435.863 435.926C447.041 429.484 453.795 421.152 454.875 412.47C456.03 403.196 450.396 394.247 439.419 387.916L368.073 346.794C357.974 340.973 344.02 337.745 329.261 337.745Z" fill="#EBF3F8"/>
<g style="mix-blend-mode:multiply" opacity="0.3">
<path d="M304.847 465.278L233.501 424.156C220.797 416.832 222.388 404.038 237.061 395.581L301.287 358.56C315.959 350.103 338.155 349.185 350.859 356.509L422.205 397.632C434.909 404.956 433.318 417.749 418.645 426.206L354.419 463.228C339.746 471.685 317.551 472.602 304.847 465.278Z" fill="#DFE2F5"/>
</g>
<path d="M430.751 394.393C430.786 393.886 430.786 393.38 430.751 392.879V322.561H224.924V394.483H224.964C224.602 399.441 227.394 404.223 233.501 407.743L304.846 448.865C317.551 456.189 339.746 455.271 354.419 446.814L418.649 409.793C426.272 405.401 430.354 399.837 430.746 394.478H430.756V394.388L430.751 394.393Z" fill="#DEE6FF"/>
<g style="mix-blend-mode:multiply">
<path d="M430.751 390.974H430.741C430.35 396.333 426.267 401.892 418.644 406.289L354.414 443.31C339.741 451.767 317.546 452.684 304.842 445.36L233.496 404.238C227.39 400.719 224.593 395.937 224.959 390.979H224.919V394.488H224.959C224.598 399.446 227.39 404.228 233.496 407.747L304.842 448.87C317.546 456.194 339.741 455.276 354.414 446.819L418.644 409.798C426.267 405.406 430.35 399.842 430.741 394.483H430.751V394.393C430.786 393.886 430.786 393.38 430.751 392.879V390.974Z" fill="#E8EDFA"/>
</g>
<path d="M304.847 376.004L233.501 334.882C220.797 327.558 222.388 314.765 237.061 306.308L301.292 269.286C315.964 260.829 338.16 259.912 350.864 267.236L422.21 308.358C434.914 315.682 433.323 328.476 418.65 336.933L354.419 373.954C339.746 382.411 317.551 383.329 304.847 376.004Z" fill="white"/>
<path d="M242.193 329.87C234.305 325.323 235.902 317.001 245.754 311.321L309.979 274.3C319.831 268.62 334.268 267.703 342.157 272.25L413.503 313.372C421.392 317.919 419.795 326.24 409.943 331.92L345.717 368.942C335.865 374.621 321.428 375.539 313.539 370.992L242.193 329.87Z" fill="url(#paint12_linear_911_6078)"/>
<g opacity="0.8">
<path d="M326.836 287.204L318.952 282.657L326.836 278.115L334.72 282.657L326.836 287.204Z" fill="white"/>
<path d="M338.712 294.047L330.828 289.505L338.712 284.958L346.596 289.505L338.712 294.047Z" fill="white"/>
<path d="M350.588 300.889L342.704 296.347L350.588 291.806L358.472 296.347L350.588 300.889Z" fill="white"/>
<path d="M362.464 307.737L354.58 303.195L362.464 298.648L370.348 303.195L362.464 307.737Z" fill="white"/>
<path d="M374.34 314.58L366.456 310.038L374.34 305.496L382.224 310.038L374.34 314.58Z" fill="white"/>
<path d="M386.216 321.429L378.332 316.887L386.216 312.34L394.1 316.887L386.216 321.429Z" fill="white"/>
<path d="M398.092 328.271L390.208 323.729L398.092 319.188L405.976 323.729L398.092 328.271Z" fill="white"/>
<path d="M313.996 294.603L306.112 290.056L313.996 285.515L321.88 290.056L313.996 294.603Z" fill="white"/>
<path d="M325.872 301.446L317.988 296.904L325.872 292.357L333.756 296.904L325.872 301.446Z" fill="white"/>
<path d="M337.748 308.294L329.864 303.747L337.748 299.205L345.632 303.747L337.748 308.294Z" fill="white"/>
<path d="M349.624 315.137L341.74 310.595L349.624 306.048L357.508 310.595L349.624 315.137Z" fill="white"/>
<path d="M361.5 321.985L353.616 317.438L361.5 312.896L369.384 317.438L361.5 321.985Z" fill="white"/>
<path d="M373.376 328.827L365.492 324.285L373.376 319.738L381.26 324.285L373.376 328.827Z" fill="white"/>
<path d="M385.252 335.676L377.373 331.129L385.252 326.587L393.135 331.129L385.252 335.676Z" fill="white"/>
<path d="M301.156 302.003L293.272 297.461L301.156 292.914L309.04 297.461L301.156 302.003Z" fill="white"/>
<path d="M313.032 308.845L305.148 304.304L313.032 299.762L320.916 304.304L313.032 308.845Z" fill="white"/>
<path d="M324.908 315.693L317.024 311.151L324.908 306.604L332.792 311.151L324.908 315.693Z" fill="white"/>
<path d="M336.784 322.536L328.9 317.994L336.784 313.452L344.668 317.994L336.784 322.536Z" fill="white"/>
<path d="M348.66 329.384L340.776 324.842L348.66 320.295L356.544 324.842L348.66 329.384Z" fill="white"/>
<path d="M360.536 336.227L352.657 331.685L360.536 327.144L368.42 331.685L360.536 336.227Z" fill="white"/>
<path d="M372.417 343.075L364.533 338.528L372.417 333.986L380.296 338.533L372.417 343.075Z" fill="white"/>
<path d="M288.315 309.401L280.432 304.859L288.315 300.312L296.199 304.859L288.315 309.401Z" fill="white"/>
<path d="M300.191 316.249L292.308 311.702L300.191 307.16L308.075 311.702L300.191 316.249Z" fill="white"/>
<path d="M312.067 323.092L304.184 318.55L312.067 314.003L319.951 318.55L312.067 323.092Z" fill="white"/>
<path d="M323.943 329.939L316.06 325.392L323.943 320.851L331.827 325.392L323.943 329.939Z" fill="white"/>
<path d="M335.819 336.783L327.94 332.241L335.819 327.694L343.703 332.241L335.819 336.783Z" fill="white"/>
<path d="M347.7 343.631L339.816 339.084L347.7 334.542L355.579 339.084L347.7 343.631Z" fill="white"/>
<path d="M359.576 350.473L351.692 345.932L359.576 341.385L367.455 345.932L359.576 350.473Z" fill="white"/>
<path d="M275.476 316.801L267.592 312.26L275.476 307.718L283.359 312.26L275.476 316.801Z" fill="white"/>
<path d="M287.352 323.649L279.468 319.107L287.352 314.561L295.235 319.107L287.352 323.649Z" fill="white"/>
<path d="M299.228 330.492L291.344 325.95L299.228 321.408L307.111 325.95L299.228 330.492Z" fill="white"/>
<path d="M311.103 337.34L303.225 332.798L311.103 328.251L318.987 332.798L311.103 337.34Z" fill="white"/>
<path d="M322.979 344.183L315.101 339.641L322.979 335.1L330.863 339.641L322.979 344.183Z" fill="white"/>
<path d="M334.86 351.031L326.977 346.489L334.86 341.942L342.739 346.489L334.86 351.031Z" fill="white"/>
<path d="M346.736 357.874L338.853 353.332L346.736 348.79L354.62 353.332L346.736 357.874Z" fill="white"/>
<path d="M262.636 324.205L254.752 319.658L262.636 315.116L270.52 319.658L262.636 324.205Z" fill="white"/>
<path d="M274.512 331.048L266.628 326.506L274.512 321.959L282.396 326.506L274.512 331.048Z" fill="white"/>
<path d="M286.388 337.895L278.504 333.348L286.388 328.807L294.272 333.348L286.388 337.895Z" fill="white"/>
<path d="M298.264 344.738L290.385 340.196L298.264 335.649L306.147 340.196L298.264 344.738Z" fill="white"/>
<path d="M310.145 351.587L302.261 347.04L310.145 342.498L318.023 347.04L310.145 351.587Z" fill="white"/>
<path d="M322.021 358.429L314.137 353.888L322.021 349.341L329.904 353.888L322.021 358.429Z" fill="white"/>
<path d="M333.896 365.277L326.013 360.73L333.896 356.188L341.78 360.73L333.896 365.277Z" fill="white"/>
</g>
<g style="mix-blend-mode:multiply">
<path d="M430.752 356.654H430.741C430.35 362.013 426.267 367.573 418.645 371.969L354.414 408.991C339.741 417.448 317.546 418.365 304.842 411.041L233.496 369.919C227.39 366.4 224.593 361.617 224.959 356.659H224.919V360.394H224.959C224.598 365.352 227.39 370.134 233.496 373.654L304.842 414.776C317.546 422.1 339.741 421.182 354.414 412.725L418.645 375.704C426.267 371.312 430.35 365.748 430.741 360.389H430.752V360.299C430.787 359.792 430.787 359.286 430.752 358.785V356.654Z" fill="#E8EDFA"/>
</g>
<path d="M416.841 356.174C416.841 358.56 415.164 361.462 413.09 362.655C411.021 363.849 409.339 362.881 409.339 360.495C409.339 358.109 411.016 355.206 413.09 354.013C415.159 352.82 416.841 353.787 416.841 356.174Z" fill="white"/>
<path d="M403.702 366.803C405.166 364.271 405.166 361.534 403.701 360.69C402.236 359.846 399.861 361.214 398.396 363.746C396.932 366.278 396.933 369.015 398.398 369.859C399.863 370.703 402.238 369.335 403.702 366.803Z" fill="white"/>
<path d="M392.753 370.054C392.753 372.441 391.076 375.343 389.002 376.536C386.933 377.729 385.251 376.762 385.251 374.376C385.251 371.989 386.928 369.087 389.002 367.894C391.071 366.701 392.753 367.668 392.753 370.054Z" fill="white"/>
<path d="M415.742 396.223C417.206 393.691 417.206 390.954 415.741 390.11C414.276 389.265 411.901 390.633 410.437 393.165C408.972 395.697 408.973 398.435 410.438 399.279C411.903 400.123 414.278 398.755 415.742 396.223Z" fill="white"/>
<path d="M404.795 399.476C404.795 401.863 403.118 404.765 401.044 405.958C398.97 407.151 397.293 406.184 397.293 403.798C397.293 401.411 398.97 398.509 401.044 397.316C403.113 396.123 404.795 397.09 404.795 399.476Z" fill="white"/>
<path d="M392.753 406.419C392.753 408.805 391.076 411.707 389.002 412.901C386.933 414.094 385.251 413.126 385.251 410.74C385.251 408.354 386.928 405.451 389.002 404.258C391.071 403.065 392.753 404.032 392.753 406.419Z" fill="white"/>
<path d="M415.035 357.347C415.035 358.58 414.166 360.084 413.097 360.7C412.027 361.317 411.158 360.816 411.158 359.582C411.158 358.349 412.027 356.845 413.097 356.229C414.166 355.612 415.035 356.113 415.035 357.347Z" fill="#EBF3F8"/>
<path d="M402.988 400.518C402.988 401.752 402.119 403.256 401.05 403.872C399.98 404.489 399.111 403.987 399.111 402.754C399.111 401.521 399.98 400.017 401.05 399.401C402.119 398.784 402.988 399.285 402.988 400.518Z" fill="#EBF3F8"/>
<g style="mix-blend-mode:multiply">
<path d="M288.135 396.077L285.84 394.758V372.295L288.135 373.618V396.077Z" fill="#E8EDFA"/>
</g>
<g style="mix-blend-mode:multiply">
<path d="M282.381 392.719L280.086 391.4V368.937L282.381 370.26V392.719Z" fill="#E8EDFA"/>
</g>
<g style="mix-blend-mode:multiply">
<path d="M276.621 389.365L274.331 388.042V365.578L276.621 366.902V389.365Z" fill="#E8EDFA"/>
</g>
<g style="mix-blend-mode:multiply">
<path d="M270.866 386.006L268.576 384.682V362.219L270.866 363.542V386.006Z" fill="#E8EDFA"/>
</g>
<g style="mix-blend-mode:multiply">
<path d="M265.111 382.647L262.821 381.324V358.86L265.111 360.184V382.647Z" fill="#E8EDFA"/>
</g>
<g style="mix-blend-mode:multiply">
<path d="M288.135 431.916L285.84 430.592V408.129L288.135 409.452V431.916Z" fill="#E8EDFA"/>
</g>
<g style="mix-blend-mode:multiply">
<path d="M282.381 428.557L280.086 427.233V404.77L282.381 406.093V428.557Z" fill="#E8EDFA"/>
</g>
<g style="mix-blend-mode:multiply">
<path d="M276.621 425.198L274.331 423.875V401.411L276.621 402.735V425.198Z" fill="#E8EDFA"/>
</g>
<g style="mix-blend-mode:multiply">
<path d="M270.866 421.84L268.576 420.516V398.058L270.866 399.376V421.84Z" fill="#E8EDFA"/>
</g>
<g style="mix-blend-mode:multiply">
<path d="M265.111 418.481L262.821 417.163V394.699L265.111 396.018V418.481Z" fill="#E8EDFA"/>
</g>
<path d="M345.2 88.696L324.908 73.4112L304.616 88.696V80.4245L324.908 65.1396L345.2 80.4245V88.696Z" fill="white"/>
<path d="M345.2 105.796L324.908 90.5108L304.616 105.796V97.5241L324.908 82.2393L345.2 97.5241V105.796Z" fill="white"/>
<path d="M345.2 122.895L324.908 107.606L304.616 122.895V114.619L324.908 99.334L345.2 114.619V122.895Z" fill="white"/>
<path d="M345.2 139.99L324.908 124.705L304.616 139.99V131.718L324.908 116.434L345.2 131.718V139.99Z" fill="white"/>
<path d="M345.2 157.09L324.908 141.805L304.616 157.09V148.813L324.908 133.528L345.2 148.813V157.09Z" fill="white"/>
<path d="M345.2 174.184L324.908 158.899L304.616 174.184V165.913L324.908 150.628L345.2 165.913V174.184Z" fill="white"/>
<path d="M345.2 191.283L324.908 175.998L304.616 191.283V183.007L324.908 167.722L345.2 183.007V191.283Z" fill="white"/>
<path d="M345.2 208.378L324.908 193.093L304.616 208.378V200.106L324.908 184.821L345.2 200.106V208.378Z" fill="white"/>
<path d="M345.2 225.477L324.908 210.193L304.616 225.477V217.201L324.908 201.916L345.2 217.201V225.477Z" fill="white"/>
<path d="M390.318 17.7212L375.053 6.22121L359.787 17.7212V11.495L375.053 0L390.318 11.495V17.7212Z" fill="white"/>
<path d="M390.318 30.5796L375.053 19.0846L359.787 30.5796V24.3584L375.053 12.8584L390.318 24.3584V30.5796Z" fill="white"/>
<path d="M390.318 43.4429L375.053 31.9429L359.787 43.4429V37.2166L375.053 25.7217L390.318 37.2166V43.4429Z" fill="white"/>
<path d="M390.318 56.3013L375.053 44.8063L359.787 56.3013V50.08L375.053 38.5801L390.318 50.08V56.3013Z" fill="white"/>
<path d="M390.318 69.1655L375.053 57.6655L359.787 69.1655V62.9393L375.053 51.4443L390.318 62.9393V69.1655Z" fill="white"/>
<path d="M390.318 82.0239L375.053 70.529L359.787 82.0239V75.8027L375.053 64.3027L390.318 75.8027V82.0239Z" fill="white"/>
<path d="M390.318 94.8872L375.053 83.3872L359.787 94.8872V88.661L375.053 77.166L390.318 88.661V94.8872Z" fill="white"/>
<path d="M390.318 107.746L375.053 96.2506L359.787 107.746V101.524L375.053 90.0244L390.318 101.524V107.746Z" fill="white"/>
<path d="M390.318 120.609L375.053 109.109L359.787 120.609V114.383L375.053 102.888L390.318 114.383V120.609Z" fill="white"/>
<path d="M289.249 54.8374L275.244 44.29L261.244 54.8374V49.1276L275.244 38.5801L289.249 49.1276V54.8374Z" fill="white"/>
<path d="M289.249 66.6332L275.244 56.0857L261.244 66.6332V60.9233L275.244 50.3809L289.249 60.9233V66.6332Z" fill="white"/>
<path d="M289.249 78.4291L275.244 67.8816L261.244 78.4291V72.7192L275.244 62.1768L289.249 72.7192V78.4291Z" fill="white"/>
<path d="M289.249 90.225L275.244 79.6775L261.244 90.225V84.5201L275.244 73.9727L289.249 84.5201V90.225Z" fill="white"/>
<path d="M289.249 102.02L275.244 91.4775L261.244 102.02V96.3151L275.244 85.7676L289.249 96.3151V102.02Z" fill="white"/>
<path d="M289.249 113.821L275.244 103.273L261.244 113.821V108.111L275.244 97.5635L289.249 108.111V113.821Z" fill="white"/>
<path d="M289.249 125.617L275.244 115.069L261.244 125.617V119.907L275.244 109.359L289.249 119.907V125.617Z" fill="white"/>
<path d="M289.249 137.413L275.244 126.865L261.244 137.413V131.703L275.244 121.16L289.249 131.703V137.413Z" fill="white"/>
<path d="M289.249 149.208L275.244 138.661L261.244 149.208V143.499L275.244 132.956L289.249 143.499V149.208Z" fill="white"/>
<defs>
<linearGradient id="paint0_linear_911_6078" x1="595.473" y1="356.004" x2="616.855" y2="356.004" gradientUnits="userSpaceOnUse">
<stop stop-color="white"/>
<stop offset="0.06" stop-color="white"/>
<stop offset="0.28" stop-color="#DEE6FF"/>
<stop offset="1" stop-color="#DEE6FF"/>
</linearGradient>
<linearGradient id="paint1_linear_911_6078" x1="606.164" y1="347.921" x2="595.954" y2="364.896" gradientUnits="userSpaceOnUse">
<stop stop-color="#3384BD"/>
<stop offset="1" stop-color="#304FAF"/>
</linearGradient>
<linearGradient id="paint2_linear_911_6078" x1="156.436" y1="134.377" x2="-83.4443" y2="375.404" gradientUnits="userSpaceOnUse">
<stop stop-color="#3384BD"/>
<stop offset="1" stop-color="#304FAF"/>
</linearGradient>
<linearGradient id="paint3_linear_911_6078" x1="47.6045" y1="338.923" x2="170.574" y2="115.431" gradientUnits="userSpaceOnUse">
<stop stop-color="#DEE6FF"/>
<stop offset="0.35" stop-color="white"/>
<stop offset="0.36" stop-color="#EBF0FF"/>
<stop offset="0.57" stop-color="white"/>
<stop offset="0.6" stop-color="#EBF0FF"/>
<stop offset="0.8" stop-color="white"/>
<stop offset="1" stop-color="white"/>
</linearGradient>
<linearGradient id="paint4_linear_911_6078" x1="259.433" y1="166.148" x2="143.267" y2="235.26" gradientUnits="userSpaceOnUse">
<stop stop-color="white"/>
<stop offset="1" stop-color="#8F8F8F"/>
</linearGradient>
<linearGradient id="paint5_linear_911_6078" x1="482.438" y1="250.247" x2="414.941" y2="136.255" gradientUnits="userSpaceOnUse">
<stop stop-color="#DEE6FF"/>
<stop offset="0.6" stop-color="#DEE6FF"/>
<stop offset="0.8" stop-color="white"/>
<stop offset="1" stop-color="white"/>
</linearGradient>
<linearGradient id="paint6_linear_911_6078" x1="411.805" y1="145.307" x2="318.978" y2="177.878" gradientUnits="userSpaceOnUse">
<stop stop-color="#3384BD"/>
<stop offset="1" stop-color="#304FAF"/>
</linearGradient>
<linearGradient id="paint7_linear_911_6078" x1="549.029" y1="288.541" x2="481.527" y2="174.55" gradientUnits="userSpaceOnUse">
<stop stop-color="#DEE6FF"/>
<stop offset="0.6" stop-color="#DEE6FF"/>
<stop offset="0.8" stop-color="white"/>
<stop offset="1" stop-color="white"/>
</linearGradient>
<linearGradient id="paint8_linear_911_6078" x1="478.396" y1="183.602" x2="385.569" y2="216.173" gradientUnits="userSpaceOnUse">
<stop stop-color="#3384BD"/>
<stop offset="1" stop-color="#304FAF"/>
</linearGradient>
<linearGradient id="paint9_linear_911_6078" x1="615.614" y1="326.836" x2="548.112" y2="212.845" gradientUnits="userSpaceOnUse">
<stop stop-color="#DEE6FF"/>
<stop offset="0.6" stop-color="#DEE6FF"/>
<stop offset="0.8" stop-color="white"/>
<stop offset="1" stop-color="white"/>
</linearGradient>
<linearGradient id="paint10_linear_911_6078" x1="544.981" y1="221.896" x2="452.154" y2="254.468" gradientUnits="userSpaceOnUse">
<stop stop-color="#3384BD"/>
<stop offset="1" stop-color="#304FAF"/>
</linearGradient>
<linearGradient id="paint11_linear_911_6078" x1="594.373" y1="257.129" x2="577.94" y2="277.385" gradientUnits="userSpaceOnUse">
<stop stop-color="#3384BD"/>
<stop offset="1" stop-color="#304FAF"/>
</linearGradient>
<linearGradient id="paint12_linear_911_6078" x1="327.848" y1="269.359" x2="223.261" y2="443.233" gradientUnits="userSpaceOnUse">
<stop stop-color="#3384BD"/>
<stop offset="1" stop-color="#304FAF"/>
</linearGradient>
</defs>
</svg>
