<svg width="168" height="225" viewBox="0 0 168 225" fill="none" xmlns="http://www.w3.org/2000/svg">
<path d="M0.5 23.9842L9.50296 18.7998L18.5102 23.9842L9.50714 29.1728L0.5 23.9842Z" fill="#E7EBEE" stroke="#19374E" stroke-linecap="round" stroke-linejoin="round"/>
<path d="M10.7202 0.932129V24.1164C10.7202 24.3536 10.178 24.5492 9.50667 24.5492C8.8353 24.5492 8.28906 24.3536 8.28906 24.1164V0.932129H10.7202Z" fill="#E7EBEE" stroke="#19374E" stroke-linecap="round" stroke-linejoin="round"/>
<path d="M9.50276 1.36544C10.1752 1.36544 10.7205 1.17171 10.7205 0.932721C10.7205 0.693731 10.1752 0.5 9.50276 0.5C8.83028 0.5 8.28516 0.693731 8.28516 0.932721C8.28516 1.17171 8.83028 1.36544 9.50276 1.36544Z" fill="#E7EBEE" stroke="#19374E" stroke-linecap="round" stroke-linejoin="round"/>
<path d="M10.7202 64.7886V87.9729C10.7202 88.2101 10.178 88.4056 9.50667 88.4056C8.8353 88.4056 8.28906 88.2101 8.28906 87.9729V64.7886H10.7202Z" fill="#E7EBEE" stroke="#19374E" stroke-linecap="round" stroke-linejoin="round"/>
<path d="M9.50276 65.2219C10.1752 65.2219 10.7205 65.0282 10.7205 64.7892C10.7205 64.5502 10.1752 64.3564 9.50276 64.3564C8.83028 64.3564 8.28516 64.5502 8.28516 64.7892C8.28516 65.0282 8.83028 65.2219 9.50276 65.2219Z" fill="#E7EBEE" stroke="#19374E" stroke-linecap="round" stroke-linejoin="round"/>
<path d="M0.5 23.9839V65.4885L9.50714 70.6771V29.1725L0.5 23.9839Z" fill="#E7EBEE" stroke="#19374E" stroke-linecap="round" stroke-linejoin="round"/>
<path d="M9.50684 29.1725L18.5099 23.9839V65.4885L9.50684 70.6771V29.1725Z" fill="#E7EBEE" stroke="#19374E" stroke-linecap="round" stroke-linejoin="round"/>
<path d="M17.293 53.297L26.3001 48.1084L35.3073 53.297L26.3001 58.4814L17.293 53.297Z" fill="#3D84BB" stroke="#19374E" stroke-linecap="round" stroke-linejoin="round"/>
<path d="M27.5171 30.2412V53.4255C27.5171 53.6627 26.9749 53.8583 26.3035 53.8583C25.6322 53.8583 25.0859 53.6627 25.0859 53.4255V30.2412H27.5171Z" fill="#3D84BB" stroke="#19374E" stroke-linecap="round" stroke-linejoin="round"/>
<path d="M26.2996 30.6745C26.9721 30.6745 27.5173 30.4808 27.5173 30.2418C27.5173 30.0028 26.9721 29.8091 26.2996 29.8091C25.6272 29.8091 25.082 30.0028 25.082 30.2418C25.082 30.4808 25.6272 30.6745 26.2996 30.6745Z" fill="#3D84BB" stroke="#19374E" stroke-linecap="round" stroke-linejoin="round"/>
<path d="M27.5171 88.8716V112.056C27.5171 112.293 26.9749 112.489 26.3035 112.489C25.6322 112.489 25.0859 112.293 25.0859 112.056V88.8716H27.5171Z" fill="#3D84BB" stroke="#19374E" stroke-linecap="round" stroke-linejoin="round"/>
<path d="M26.2996 89.3049C26.9721 89.3049 27.5173 89.1112 27.5173 88.8722C27.5173 88.6332 26.9721 88.4395 26.2996 88.4395C25.6272 88.4395 25.082 88.6332 25.082 88.8722C25.082 89.1112 25.6272 89.3049 26.2996 89.3049Z" fill="#3D84BB" stroke="#19374E" stroke-linecap="round" stroke-linejoin="round"/>
<path d="M17.293 53.2969V99.47L26.3001 104.659V58.4813L17.293 53.2969Z" fill="#3D84BB" stroke="#19374E" stroke-linecap="round" stroke-linejoin="round"/>
<path d="M26.2998 58.4813L35.307 53.2969V99.47L26.2998 104.659V58.4813Z" fill="#3D84BB" stroke="#19374E" stroke-linecap="round" stroke-linejoin="round"/>
<path d="M60.435 70.1025V186.519C60.435 186.756 59.893 186.952 59.2216 186.952C58.5502 186.952 58.0039 186.756 58.0039 186.519V70.1025H60.435Z" fill="#3D84BB" stroke="#19374E" stroke-linecap="round" stroke-linejoin="round"/>
<path d="M59.2177 70.5359C59.8902 70.5359 60.4353 70.3421 60.4353 70.1031C60.4353 69.8641 59.8902 69.6704 59.2177 69.6704C58.5452 69.6704 58 69.8641 58 70.1031C58 70.3421 58.5452 70.5359 59.2177 70.5359Z" fill="#3D84BB" stroke="#19374E" stroke-linecap="round" stroke-linejoin="round"/>
<path d="M125.224 184.713V213.552C125.224 213.789 124.682 213.985 124.011 213.985C123.339 213.985 122.793 213.789 122.793 213.552V184.713H125.224Z" fill="#3D84BB" stroke="#19374E" stroke-linecap="round" stroke-linejoin="round"/>
<path d="M124.007 185.146C124.679 185.146 125.224 184.952 125.224 184.713C125.224 184.475 124.679 184.281 124.007 184.281C123.334 184.281 122.789 184.475 122.789 184.713C122.789 184.952 123.334 185.146 124.007 185.146Z" fill="#3D84BB" stroke="#19374E" stroke-linecap="round" stroke-linejoin="round"/>
<path d="M33.2969 88.0987L42.3041 82.9102L51.3112 88.0987L42.3041 93.2873L33.2969 88.0987Z" fill="#E7EBEE" stroke="#19374E" stroke-linecap="round" stroke-linejoin="round"/>
<path d="M43.5175 36.9648V88.2308C43.5175 88.468 42.9754 88.6636 42.304 88.6636C41.6327 88.6636 41.0864 88.468 41.0864 88.2308V36.9648H43.5175Z" fill="#E7EBEE" stroke="#19374E" stroke-linecap="round" stroke-linejoin="round"/>
<path d="M42.304 37.3982C42.9765 37.3982 43.5216 37.2044 43.5216 36.9654C43.5216 36.7264 42.9765 36.5327 42.304 36.5327C41.6315 36.5327 41.0864 36.7264 41.0864 36.9654C41.0864 37.2044 41.6315 37.3982 42.304 37.3982Z" fill="#E7EBEE" stroke="#19374E" stroke-linecap="round" stroke-linejoin="round"/>
<path d="M43.5175 107.454V157.859C43.5175 158.096 42.9754 158.292 42.304 158.292C41.6327 158.292 41.0864 158.096 41.0864 157.859V107.454H43.5175Z" fill="#E7EBEE" stroke="#19374E" stroke-linecap="round" stroke-linejoin="round"/>
<path d="M42.304 107.887C42.9765 107.887 43.5216 107.694 43.5216 107.455C43.5216 107.216 42.9765 107.022 42.304 107.022C41.6315 107.022 41.0864 107.216 41.0864 107.455C41.0864 107.694 41.6315 107.887 42.304 107.887Z" fill="#E7EBEE" stroke="#19374E" stroke-linecap="round" stroke-linejoin="round"/>
<path d="M33.2969 88.0981V105.174L42.3041 110.363V93.2868L33.2969 88.0981Z" fill="#E7EBEE" stroke="#19374E" stroke-linecap="round" stroke-linejoin="round"/>
<path d="M42.3042 93.2868L51.3113 88.0981V105.174L42.3042 110.363V93.2868Z" fill="#E7EBEE" stroke="#19374E" stroke-linecap="round" stroke-linejoin="round"/>
<path d="M50.2104 34.5279L59.2177 29.3394L68.2248 34.5279L59.2219 39.7165L50.2104 34.5279Z" fill="#3D84BB" stroke="#19374E" stroke-linecap="round" stroke-linejoin="round"/>
<path d="M60.435 20.2671V34.6595C60.435 34.8967 59.893 35.0922 59.2216 35.0922C58.5502 35.0922 58.0039 34.8967 58.0039 34.6595V20.2671H60.435Z" fill="#3D84BB" stroke="#19374E" stroke-linecap="round" stroke-linejoin="round"/>
<path d="M59.2177 20.7004C59.8902 20.7004 60.4353 20.5067 60.4353 20.2677C60.4353 20.0287 59.8902 19.835 59.2177 19.835C58.5452 19.835 58 20.0287 58 20.2677C58 20.5067 58.5452 20.7004 59.2177 20.7004Z" fill="#3D84BB" stroke="#19374E" stroke-linecap="round" stroke-linejoin="round"/>
<path d="M50.2104 34.5273V173.933L59.2177 179.121V39.716L50.2104 34.5273Z" fill="#3D84BB" stroke="#19374E" stroke-linecap="round" stroke-linejoin="round"/>
<path d="M59.2219 39.716L68.2249 34.5273V173.933L59.2178 179.121L59.2219 39.716Z" fill="#3D84BB" stroke="#19374E" stroke-linecap="round" stroke-linejoin="round"/>
<path d="M65.8813 106.303L74.8885 101.114L83.8915 106.303L74.8885 111.491L65.8813 106.303Z" fill="#E7EBEE" stroke="#19374E" stroke-linecap="round" stroke-linejoin="round"/>
<path d="M76.102 174.939V198.123C76.102 198.36 75.5599 198.556 74.8885 198.556C74.2171 198.556 73.6709 198.36 73.6709 198.123V174.939H76.102Z" fill="#E7EBEE" stroke="#19374E" stroke-linecap="round" stroke-linejoin="round"/>
<path d="M74.8885 175.372C75.561 175.372 76.1062 175.179 76.1062 174.94C76.1062 174.701 75.561 174.507 74.8885 174.507C74.216 174.507 73.6709 174.701 73.6709 174.94C73.6709 175.179 74.216 175.372 74.8885 175.372Z" fill="#E7EBEE" stroke="#19374E" stroke-linecap="round" stroke-linejoin="round"/>
<path d="M65.8813 106.302V170.791L74.8885 175.976V111.491L65.8813 106.302Z" fill="#E7EBEE" stroke="#19374E" stroke-linecap="round" stroke-linejoin="round"/>
<path d="M74.8887 111.491L83.8917 106.302V170.791L74.8887 175.976V111.491Z" fill="#E7EBEE" stroke="#19374E" stroke-linecap="round" stroke-linejoin="round"/>
<path d="M116.034 163.089L125.041 157.901L134.044 163.089L125.041 168.278L116.034 163.089Z" fill="#3D84BB" stroke="#19374E" stroke-linecap="round" stroke-linejoin="round"/>
<path d="M116.034 163.09V201.153L125.041 206.342V168.278L116.034 163.09Z" fill="#3D84BB" stroke="#19374E" stroke-linecap="round" stroke-linejoin="round"/>
<path d="M125.041 168.278L134.044 163.09V201.153L125.041 206.342V168.278Z" fill="#3D84BB" stroke="#19374E" stroke-linecap="round" stroke-linejoin="round"/>
<path d="M82.0527 132.158L91.0599 126.969L100.063 132.158L91.0599 137.346L82.0527 132.158Z" fill="#3D84BB" stroke="#19374E" stroke-linecap="round" stroke-linejoin="round"/>
<path d="M92.2734 101.114V132.291C92.2734 132.528 91.7313 132.724 91.0599 132.724C90.3885 132.724 89.8423 132.528 89.8423 132.291V101.114H92.2734Z" fill="#3D84BB" stroke="#19374E" stroke-linecap="round" stroke-linejoin="round"/>
<path d="M91.0599 101.546C91.7324 101.546 92.2775 101.352 92.2775 101.113C92.2775 100.874 91.7324 100.681 91.0599 100.681C90.3874 100.681 89.8423 100.874 89.8423 101.113C89.8423 101.352 90.3874 101.546 91.0599 101.546Z" fill="#3D84BB" stroke="#19374E" stroke-linecap="round" stroke-linejoin="round"/>
<path d="M82.0527 132.158V165.399L91.0599 170.588V137.347L82.0527 132.158Z" fill="#3D84BB" stroke="#19374E" stroke-linecap="round" stroke-linejoin="round"/>
<path d="M91.0601 137.347L100.063 132.158V165.399L91.0601 170.588V137.347Z" fill="#3D84BB" stroke="#19374E" stroke-linecap="round" stroke-linejoin="round"/>
<path d="M98.3447 148.834L107.352 143.65L116.359 148.834L107.352 154.023L98.3447 148.834Z" fill="#E7EBEE" stroke="#19374E" stroke-linecap="round" stroke-linejoin="round"/>
<path d="M108.566 118.148V148.972C108.566 149.209 108.024 149.404 107.352 149.404C106.681 149.404 106.135 149.209 106.135 148.972V118.148H108.566Z" fill="#E7EBEE" stroke="#19374E" stroke-linecap="round" stroke-linejoin="round"/>
<path d="M107.352 118.576C108.025 118.576 108.57 118.383 108.57 118.144C108.57 117.905 108.025 117.711 107.352 117.711C106.68 117.711 106.135 117.905 106.135 118.144C106.135 118.383 106.68 118.576 107.352 118.576Z" fill="#E7EBEE" stroke="#19374E" stroke-linecap="round" stroke-linejoin="round"/>
<path d="M108.566 159.169V190.305C108.566 190.542 108.024 190.738 107.352 190.738C106.681 190.738 106.135 190.542 106.135 190.305V159.169H108.566Z" fill="#E7EBEE" stroke="#19374E" stroke-linecap="round" stroke-linejoin="round"/>
<path d="M107.352 159.603C108.025 159.603 108.57 159.409 108.57 159.17C108.57 158.931 108.025 158.737 107.352 158.737C106.68 158.737 106.135 158.931 106.135 159.17C106.135 159.409 106.68 159.603 107.352 159.603Z" fill="#E7EBEE" stroke="#19374E" stroke-linecap="round" stroke-linejoin="round"/>
<path d="M98.3447 148.835V156.666L107.352 161.854V154.024L98.3447 148.835Z" fill="#E7EBEE" stroke="#19374E" stroke-linecap="round" stroke-linejoin="round"/>
<path d="M107.352 154.024L116.359 148.835V156.666L107.352 161.854V154.024Z" fill="#E7EBEE" stroke="#19374E" stroke-linecap="round" stroke-linejoin="round"/>
<path d="M131.601 181.672L140.608 176.483L149.611 181.672L140.608 186.861L131.601 181.672Z" fill="#E7EBEE" stroke="#19374E" stroke-linecap="round" stroke-linejoin="round"/>
<path d="M141.821 140.188V181.805C141.821 182.042 141.279 182.238 140.608 182.238C139.936 182.238 139.39 182.042 139.39 181.805V140.188H141.821Z" fill="#E7EBEE" stroke="#19374E" stroke-linecap="round" stroke-linejoin="round"/>
<path d="M140.608 140.621C141.28 140.621 141.825 140.428 141.825 140.189C141.825 139.95 141.28 139.756 140.608 139.756C139.935 139.756 139.39 139.95 139.39 140.189C139.39 140.428 139.935 140.621 140.608 140.621Z" fill="#E7EBEE" stroke="#19374E" stroke-linecap="round" stroke-linejoin="round"/>
<path d="M131.601 181.672V219.312L140.608 224.5V186.861L131.601 181.672Z" fill="#E7EBEE" stroke="#19374E" stroke-linecap="round" stroke-linejoin="round"/>
<path d="M140.608 186.861L149.611 181.672V219.312L140.608 224.5V186.861Z" fill="#E7EBEE" stroke="#19374E" stroke-linecap="round" stroke-linejoin="round"/>
<path d="M149.853 54.3253C146.166 48.808 146.492 44.1603 146.492 44.1603L110.83 23.8262C110.83 23.8262 108.57 32.6056 100.588 30.8039V58.715C100.588 66.5832 102.019 74.4014 104.942 81.7079C105.784 83.8216 106.756 85.9062 107.852 87.7536C119.433 107.293 129.803 116.63 129.803 116.63L137.013 114.982C138.122 114.729 139.215 114.408 140.278 114.021C140.278 114.021 140.278 114.021 140.283 114.021C142.922 113.06 145.395 111.687 147.584 109.91C151.475 106.756 155.39 101.734 155.491 94.2446V60.8246C155.491 60.8246 153.539 59.8509 149.857 54.3336L149.853 54.3253ZM151.738 94.2113C151.667 99.2501 149.469 103.552 145.22 107.002C142.668 109.066 139.54 110.563 136.175 111.329L130.958 112.523C127.843 109.361 119.791 100.54 111.08 85.848C110.171 84.3126 109.279 82.4527 108.424 80.3223C105.713 73.5401 104.341 66.2711 104.341 58.7192V34.686C108.219 34.1368 110.88 31.7027 112.54 29.1229L142.86 46.4113C143.147 48.7331 144.048 52.3947 146.734 56.414C148.844 59.568 150.516 61.4736 151.738 62.6179V94.2155V94.2113Z" fill="white" stroke="#19374E" stroke-linecap="round" stroke-linejoin="round"/>
<path d="M151.737 62.6089V94.2065C151.667 99.2453 149.469 103.548 145.22 106.997C142.668 109.061 139.54 110.559 136.175 111.324L130.958 112.518C127.843 109.356 119.791 100.535 111.08 85.8432C110.171 84.3079 109.279 82.4479 108.424 80.3176C105.713 73.5354 104.341 66.2663 104.341 58.7144V34.6812C108.219 34.132 110.88 31.6979 112.539 29.1182L142.86 46.4065C143.147 48.7283 144.048 52.3899 146.733 56.4093C148.844 59.5632 150.516 61.4689 151.737 62.6131V62.6089Z" fill="white" stroke="#19374E" stroke-linecap="round" stroke-linejoin="round"/>
<path d="M167.5 53.5508V87.7489C167.5 107.259 140.699 113.908 140.278 114.012C142.918 113.051 145.391 111.678 147.58 109.901C151.471 106.747 155.386 101.725 155.486 94.2357V60.8156L167.5 53.5508Z" fill="#3D84BB" stroke="#19374E" stroke-linecap="round" stroke-linejoin="round"/>
<path d="M167.5 53.5511L155.486 60.8159C155.486 60.8159 153.535 59.8423 149.853 54.325C146.166 48.8077 146.492 44.16 146.492 44.16L159.156 36.4624C158.18 48.6829 167.5 53.5511 167.5 53.5511Z" fill="#3D84BB" stroke="#19374E" stroke-linecap="round" stroke-linejoin="round"/>
<path d="M159.156 36.4623L146.492 44.1599L110.83 23.8258L123.82 16.2363L159.156 36.4623Z" fill="#E7EBEE" stroke="#19374E" stroke-linecap="round" stroke-linejoin="round"/>
<path d="M121.417 48.9157C127.21 49.0905 132.856 53.8172 136.367 58.0821C141.346 64.1278 145.32 73.0404 144.761 81.0043C144.457 85.369 142.413 89.8627 137.776 90.903C131.934 92.2136 125.625 87.6076 121.893 83.5715C116.096 77.3094 111.226 67.1236 112.164 58.4274C112.702 53.4344 115.425 49.1237 120.871 48.9115C121.046 48.9032 121.242 48.9074 121.417 48.9115V48.9157ZM122.481 51.1543C120.225 50.9504 117.915 51.7576 116.388 53.4344L119.608 55.286C120.058 54.0585 120.729 52.9018 121.605 51.9282L122.481 51.1543ZM127.51 52.673C127.197 52.5897 126.893 52.4899 126.572 52.4483C124.032 52.1237 122.331 54.2583 121.413 56.3304L127.51 59.8172V52.673ZM129.236 53.6757V60.8033L135.362 64.3026C134.695 62.0765 133.827 59.8546 132.664 57.8449C131.767 56.2929 130.658 54.7867 129.236 53.6757ZM113.774 60.6743L118.152 63.175C118.181 63.1583 118.19 63.1375 118.198 63.1042C118.227 62.942 118.19 62.6798 118.198 62.5009C118.277 60.8907 118.49 59.2679 118.845 57.6951C118.874 57.5703 119.057 56.9836 119.02 56.9212L115.325 54.8283C115.137 55.2319 114.908 55.6189 114.737 56.0349C114.128 57.4912 113.853 59.1057 113.778 60.6785L113.774 60.6743ZM127.51 68.5675V61.8102L120.825 57.9531C120.788 57.9531 120.667 58.4191 120.646 58.4899C120.133 60.3331 119.95 62.2554 119.87 64.1653L127.51 68.5675ZM140.42 67.2485C139.307 64.7561 137.893 62.3886 136.233 60.2208C135.654 59.4635 135.041 58.7229 134.382 58.0363C134.932 59.1639 135.47 60.2998 135.929 61.4732C136.429 62.7547 136.859 64.0737 137.209 65.4052L140.424 67.2485H140.42ZM118.19 65.1555L113.782 62.6258C113.899 65.2388 114.512 67.8143 115.383 70.2693L119.061 72.4121C118.578 70.0238 118.244 67.598 118.194 65.1597L118.19 65.1555ZM129.236 62.8005V69.5577L136.896 73.9891C136.917 73.806 136.917 73.6146 136.913 73.4273C136.88 72.4329 136.776 71.3511 136.65 70.3608C136.496 69.1208 136.267 67.8851 135.979 66.6701L129.24 62.7963L129.236 62.8005ZM127.51 77.2886V70.5605L119.904 66.1583C119.887 66.7825 119.925 67.4149 119.975 68.039C120.121 69.8573 120.438 71.659 120.813 73.4398L127.506 77.2886H127.51ZM143.064 77.5175C142.951 74.892 142.347 72.3122 141.479 69.8448L137.772 67.7062C138.01 68.9086 138.227 70.1195 138.373 71.3386C138.519 72.5577 138.581 73.7727 138.648 74.9918L143.06 77.5175H143.064ZM129.236 71.5508V78.2789L135.887 82.1443L135.996 82.1651C136.4 80.7088 136.692 79.2151 136.83 77.7047C136.871 77.2637 136.959 76.4856 136.917 76.0695C136.917 76.0362 136.917 76.0029 136.901 75.9696L129.24 71.5508H129.236ZM122.481 82.0528L121.555 80.1513C120.775 78.3871 120.137 76.5688 119.62 74.7131L116.447 72.874C117.373 74.9377 118.511 76.9141 119.816 78.7657C120.629 79.9183 121.513 81.0334 122.485 82.057L122.481 82.0528ZM127.51 79.2401L121.522 75.7907L121.442 75.7824C122.293 78.5036 123.386 81.229 125.012 83.5798C125.717 84.5993 126.53 85.5604 127.51 86.326V79.2401ZM143.06 79.5022L138.64 76.9724C138.564 79.082 138.302 81.1874 137.751 83.222L141.454 85.3482C142.48 83.5757 142.972 81.541 143.06 79.5022ZM129.236 80.272V87.3163C129.503 87.4411 129.832 87.5368 130.12 87.5784C132.681 87.9779 134.386 85.885 135.354 83.8129L129.236 80.272ZM134.294 88.9057C136.542 89.1263 138.831 88.3482 140.387 86.713L137.168 84.8614C136.555 86.4092 135.641 87.8988 134.29 88.9057H134.294Z" fill="#3D84BB"/>
</svg>
