<svg width="60" height="66" viewBox="0 0 60 66" fill="none" xmlns="http://www.w3.org/2000/svg">
<path d="M60 30.3052V20.725C60 15.313 60 12.607 58.653 10.8415C57.306 9.076 54.2603 8.21886 48.169 6.50464C44.0073 5.33347 40.3387 3.92248 37.4077 2.63436C33.4113 0.878131 31.4133 0 30 0C28.5867 0 26.5887 0.878131 22.5924 2.63436C19.6613 3.92248 15.9928 5.33347 11.8311 6.50464C5.73977 8.21886 2.69407 9.076 1.34703 10.8415C-1.98682e-07 12.607 0 15.313 0 20.725V30.3052C0 48.868 16.8759 60.0056 25.3133 64.414C27.337 65.4713 28.3487 66 30 66C31.6513 66 32.663 65.4713 34.6867 64.414C43.124 60.0056 60 48.868 60 30.3052Z" fill="white"/>
<path d="M43.8975 18.4785C43.8401 18.066 43.5432 17.7266 43.1419 17.615L30.2806 14.0383C30.0972 13.9872 29.9035 13.9872 29.72 14.0383L16.8587 17.615C16.4574 17.7266 16.1606 18.0658 16.1031 18.4785C16.0285 19.0149 14.3267 31.6889 18.6917 37.9938C23.0515 44.2912 29.4831 45.905 29.7548 45.9706C29.8355 45.9902 29.9178 45.9998 30.0003 45.9998C30.0829 45.9998 30.1651 45.99 30.2458 45.9706C30.5176 45.905 36.9493 44.2912 41.3089 37.9938C45.6739 31.689 43.9721 19.0151 43.8975 18.4785ZM38.2942 25.8777L29.5215 34.6505C29.3174 34.8546 29.0496 34.9568 28.7821 34.9568C28.5145 34.9568 28.2468 34.8547 28.0427 34.6505L22.6186 29.2264C22.4224 29.0303 22.3122 28.7643 22.3122 28.4869C22.3122 28.2096 22.4225 27.9436 22.6186 27.7475L23.6955 26.6705C24.1039 26.2623 24.7661 26.2621 25.1744 26.6705L28.7821 30.2782L35.7384 23.3218C35.9345 23.1256 36.2005 23.0154 36.4778 23.0154C36.7552 23.0154 37.0212 23.1256 37.2172 23.3218L38.2942 24.3987C38.7026 24.8071 38.7026 25.4693 38.2942 25.8777Z" fill="#3384BD"/>
</svg>
