<svg width="98" height="98" viewBox="0 0 98 98" fill="none" xmlns="http://www.w3.org/2000/svg">
<path d="M64.7663 44.5262C64.7663 35.584 57.5171 28.335 48.575 28.335C39.6329 28.335 32.3838 35.584 32.3838 44.5262C32.3838 53.4682 39.6329 60.7175 48.575 60.7175C57.5171 60.7175 64.7663 53.4682 64.7663 44.5262Z" stroke="white" stroke-width="2.60216" stroke-linecap="round" stroke-linejoin="round"/>
<path d="M20.5202 60.7178C17.7649 55.9547 16.188 50.4246 16.188 44.5265C16.188 26.6422 30.6861 12.144 48.5705 12.144C66.4549 12.144 80.953 26.6422 80.953 44.5265C80.953 50.4246 79.376 55.9547 76.6206 60.7178" stroke="white" stroke-width="2.60216" stroke-linecap="round" stroke-linejoin="round"/>
<path d="M72.8604 85.0046C72.8604 71.5914 61.9867 60.7178 48.5735 60.7178C35.1602 60.7178 24.2866 71.5914 24.2866 85.0046" stroke="white" stroke-width="2.60216" stroke-linecap="round" stroke-linejoin="round"/>
</svg>
