<svg width="236" height="195" viewBox="0 0 236 195" fill="none" xmlns="http://www.w3.org/2000/svg">
<path d="M182.035 98.6888L126.724 130.611L71.418 98.6888L80.3743 93.5176L125.203 119.389L126.674 118.736L128.289 119.366L173.078 93.5176L182.035 98.6888Z" fill="#8B9BA6"/>
<path d="M72.8664 31.1394L125.316 0.870626C126.172 0.376458 127.227 0.376458 128.083 0.870626L180.533 31.1394C181.191 31.5168 181.191 32.4662 180.533 32.8437L127.418 63.5015C126.974 63.7584 126.429 63.7584 125.985 63.5015L72.8703 32.8437C72.2125 32.4662 72.2125 31.5168 72.8703 31.1394H72.8664Z" fill="white" stroke="#19374E" stroke-linecap="round" stroke-linejoin="round"/>
<path d="M88.3566 28.7349L124.82 7.69188C125.984 7.01872 127.416 7.01872 128.58 7.69188L165.044 28.7349C167.55 30.1824 167.55 33.8011 165.044 35.2447L128.58 56.2915C127.416 56.9647 125.984 56.9647 124.82 56.2915L88.3566 35.2447C85.8499 33.7972 85.8499 30.1785 88.3566 28.7349Z" fill="#E7EBEE"/>
<path d="M126.701 65.0035V118.28C126.701 119.082 127.565 119.584 128.262 119.187L181.062 89.0621C181.65 88.7275 182.015 88.101 182.015 87.424V33.4507C182.015 32.8009 181.311 32.3962 180.75 32.7231L127.651 63.3693C127.067 63.7078 126.705 64.3304 126.705 65.0035H126.701Z" fill="white" stroke="#19374E" stroke-linecap="round" stroke-linejoin="round"/>
<path d="M126.701 64.7426V118.35C126.701 119.121 125.868 119.603 125.202 119.222L71.8967 88.809C71.5853 88.63 71.3906 88.2993 71.3906 87.9374V33.7268C71.3906 32.9563 72.2314 32.4738 72.897 32.8591L125.985 63.4975C126.429 63.7543 126.705 64.229 126.705 64.7426H126.701Z" fill="white" stroke="#19374E" stroke-linecap="round" stroke-linejoin="round"/>
<path d="M126.701 84.1627L182.004 52.2246" stroke="#19374E" stroke-linecap="round" stroke-linejoin="round"/>
<path d="M126.725 102.553L182.004 70.646" stroke="#19374E" stroke-linecap="round" stroke-linejoin="round"/>
<path d="M71.3945 52.2446L126.685 84.1515" stroke="#19374E" stroke-linecap="round" stroke-linejoin="round"/>
<path d="M71.3906 70.6104L110.766 93.3382L126.701 102.537H126.705L126.724 102.552" fill="white"/>
<path d="M71.3906 70.6104L110.766 93.3382L126.701 102.537H126.705L126.724 102.552" stroke="#19374E" stroke-linecap="round" stroke-linejoin="round"/>
<path d="M120.307 71.4084L95.1973 56.9141" stroke="black" stroke-linecap="round" stroke-linejoin="round"/>
<path d="M120.307 89.8595L95.1973 75.3652" stroke="black" stroke-linecap="round" stroke-linejoin="round"/>
<path d="M120.307 108.588L95.1973 94.0972" stroke="black" stroke-linecap="round" stroke-linejoin="round"/>
<path d="M80.9304 50.9591C81.8891 50.4057 81.8682 48.5751 80.8836 46.8704C79.8991 45.1657 78.3237 44.2323 77.365 44.7856C76.4062 45.339 76.427 47.1696 77.4116 48.8743C78.3962 50.5791 79.9716 51.5124 80.9304 50.9591Z" stroke="black" stroke-linecap="round" stroke-linejoin="round"/>
<path d="M89.5046 73.4605C90.4633 72.9072 90.4424 71.0766 89.4578 69.3719C88.4733 67.6671 86.8979 66.7337 85.9392 67.2871C84.9804 67.8404 85.0013 69.671 85.9858 71.3758C86.9704 73.0805 88.5458 74.0139 89.5046 73.4605Z" stroke="black" stroke-linecap="round" stroke-linejoin="round"/>
<path d="M89.5046 91.9215C90.4633 91.3681 90.4424 89.5375 89.4578 87.8328C88.4733 86.1281 86.8979 85.1947 85.9392 85.748C84.9804 86.3014 85.0013 88.132 85.9858 89.8367C86.9704 91.5415 88.5458 92.4748 89.5046 91.9215Z" stroke="black" stroke-linecap="round" stroke-linejoin="round"/>
<path d="M89.7566 55.5238C90.8177 54.9113 90.7683 52.8397 89.6461 50.8968C88.524 48.9538 86.7541 47.8752 85.693 48.4877C84.6318 49.1001 84.6812 51.1718 85.8033 53.1147C86.9254 55.0577 88.6954 56.1362 89.7566 55.5238Z" fill="#3272B9"/>
<path d="M81.1803 88.4325C82.2415 87.8201 82.192 85.7485 81.0699 83.8055C79.9478 81.8626 78.1779 80.784 77.1167 81.3964C76.0555 82.0089 76.105 84.0805 77.2271 86.0234C78.3493 87.9664 80.1192 89.045 81.1803 88.4325Z" fill="#3272B9"/>
<path d="M80.9304 69.2549C81.8891 68.7016 81.8682 66.871 80.8836 65.1663C79.8991 63.4615 78.3237 62.5281 77.365 63.0815C76.4062 63.6349 76.427 65.4655 77.4116 67.1702C78.3962 68.875 79.9716 69.8083 80.9304 69.2549Z" stroke="black" stroke-linecap="round" stroke-linejoin="round"/>
<path d="M111.148 141.63L55.8377 173.557L0.527344 141.63L9.48756 136.463L54.3158 162.335L55.7871 161.681L57.3985 162.311L102.188 136.463L111.148 141.63Z" fill="#8B9BA6"/>
<path d="M1.97969 74.0852L54.4292 43.8164C55.2855 43.3223 56.3403 43.3223 57.1966 43.8164L109.646 74.0852C110.304 74.4626 110.304 75.412 109.646 75.7895L56.531 106.447C56.0873 106.704 55.5424 106.704 55.0987 106.447L1.98359 75.7895C1.32578 75.412 1.32578 74.4626 1.98359 74.0852H1.97969Z" fill="white" stroke="#19374E" stroke-linecap="round" stroke-linejoin="round"/>
<path d="M17.4659 71.6807L53.9295 50.6377C55.0933 49.9645 56.5257 49.9645 57.6895 50.6377L94.1532 71.6807C96.6598 73.1282 96.6598 76.7469 94.1532 78.1905L57.6895 99.2373C56.5257 99.9105 55.0933 99.9105 53.9295 99.2373L17.4659 78.1905C14.9593 76.743 14.9593 73.1243 17.4659 71.6807Z" fill="#E7EBEE"/>
<path d="M55.8105 107.949V161.226C55.8105 162.028 56.6747 162.53 57.3714 162.133L110.171 132.008C110.759 131.673 111.125 131.047 111.125 130.37V76.3965C111.125 75.7467 110.42 75.342 109.86 75.6689L56.7603 106.315C56.1764 106.654 55.8144 107.276 55.8144 107.949H55.8105Z" fill="white" stroke="#19374E" stroke-linecap="round" stroke-linejoin="round"/>
<path d="M55.8143 107.688V161.296C55.8143 162.066 54.9813 162.549 54.3157 162.168L1.00993 131.755C0.698543 131.576 0.503906 131.245 0.503906 130.883V76.6726C0.503906 75.9021 1.34461 75.4197 2.0102 75.8049L55.0981 106.443C55.5418 106.7 55.8181 107.175 55.8181 107.688H55.8143Z" fill="white" stroke="#19374E" stroke-linecap="round" stroke-linejoin="round"/>
<path d="M55.8105 127.109L111.113 95.1714" stroke="#19374E" stroke-linecap="round" stroke-linejoin="round"/>
<path d="M55.8379 145.498L111.113 113.591" stroke="#19374E" stroke-linecap="round" stroke-linejoin="round"/>
<path d="M0.503906 95.1904L55.7948 127.097" stroke="#19374E" stroke-linecap="round" stroke-linejoin="round"/>
<path d="M0.5 113.557L39.8789 136.284L55.8104 145.483H55.8143L55.8376 145.499" fill="white"/>
<path d="M0.5 113.557L39.8789 136.284L55.8104 145.483H55.8143L55.8376 145.499" stroke="#19374E" stroke-linecap="round" stroke-linejoin="round"/>
<path d="M49.4182 114.354L24.3086 99.8594" stroke="black" stroke-linecap="round" stroke-linejoin="round"/>
<path d="M49.4182 132.806L24.3086 118.312" stroke="black" stroke-linecap="round" stroke-linejoin="round"/>
<path d="M49.4182 151.533L24.3086 137.043" stroke="black" stroke-linecap="round" stroke-linejoin="round"/>
<path d="M10.0416 93.9078C11.0004 93.3545 10.9795 91.5239 9.99496 89.8191C9.0104 88.1144 7.43497 87.181 6.4762 87.7344C5.51744 88.2878 5.53838 90.1183 6.52293 91.823C7.50749 93.5278 9.08284 94.4612 10.0416 93.9078Z" stroke="black" stroke-linecap="round" stroke-linejoin="round"/>
<path d="M18.6197 116.408C19.5785 115.854 19.5576 114.024 18.573 112.319C17.5884 110.614 16.0131 109.681 15.0543 110.234C14.0956 110.788 14.1165 112.618 15.1011 114.323C16.0856 116.028 17.661 116.961 18.6197 116.408Z" stroke="black" stroke-linecap="round" stroke-linejoin="round"/>
<path d="M18.6197 134.865C19.5785 134.311 19.5576 132.481 18.573 130.776C17.5884 129.071 16.0131 128.138 15.0543 128.691C14.0956 129.245 14.1165 131.075 15.1011 132.78C16.0856 134.485 17.661 135.418 18.6197 134.865Z" stroke="black" stroke-linecap="round" stroke-linejoin="round"/>
<path d="M18.8659 98.4672C19.927 97.8547 19.8776 95.7832 18.7554 93.8402C17.6333 91.8972 15.8634 90.8186 14.8022 91.4311C13.7411 92.0436 13.7905 94.1151 14.9127 96.0581C16.0348 98.0011 17.8047 99.0797 18.8659 98.4672Z" fill="#3272B9"/>
<path d="M10.2897 131.377C11.3509 130.765 11.3014 128.693 10.1793 126.75C9.05713 124.807 7.28723 123.729 6.22607 124.341C5.16491 124.954 5.21436 127.025 6.3365 128.968C7.45864 130.911 9.22853 131.99 10.2897 131.377Z" fill="#3272B9"/>
<path d="M10.0416 112.204C11.0004 111.651 10.9795 109.82 9.99495 108.116C9.01039 106.411 7.43497 105.477 6.4762 106.031C5.51744 106.584 5.53837 108.415 6.52293 110.119C7.50749 111.824 9.08284 112.758 10.0416 112.204Z" stroke="black" stroke-linecap="round" stroke-linejoin="round"/>
<path d="M106.47 127.335L127.688 139.709C128.676 140.284 128.672 141.713 127.68 142.285L85.6579 166.542C84.4318 167.25 84.4318 169.02 85.6579 169.728L127.427 193.838C128.956 194.721 130.84 194.721 132.37 193.838L173.971 169.822" stroke="#19374E" stroke-linecap="round" stroke-linejoin="round"/>
<path d="M131.252 111.942L152.426 124.164C153.921 125.027 155.758 125.024 157.253 124.16L187.493 107.366C189.166 106.397 191.233 106.397 192.911 107.366L234.691 131.572C235.77 132.195 235.77 133.751 234.691 134.374L205.658 150.382" stroke="#19374E" stroke-linecap="round" stroke-linejoin="round"/>
<path d="M232.317 163.884C232.317 170.183 227.895 175.907 220.679 180.141C212.968 184.678 202.058 187.495 189.964 187.495C189.532 187.495 189.096 187.487 188.668 187.483L188.66 187.261C172.324 186.993 158.308 181.545 151.687 173.782L151.531 173.825C149.005 170.802 147.607 167.432 147.607 163.884C147.607 157.957 151.519 152.541 157.988 148.397C165.754 143.413 177.201 140.265 189.964 140.265C213.357 140.265 232.321 150.837 232.321 163.88L232.317 163.884Z" fill="#E7EBEE"/>
<path d="M226.817 77.2137C226.817 97.568 225.14 118.21 215.253 136.444C204.833 155.619 196.352 162.907 196.352 162.907C196.352 162.907 191.401 163.121 185.523 161.187C185.523 161.187 185.504 161.187 185.477 161.179C185.457 161.172 185.438 161.172 185.41 161.16C179.922 159.335 173.652 155.615 169.872 148.113C169.872 148.113 164.688 139.568 164.688 128.677V112.521C164.688 112.521 178.634 104.28 180.693 84.5406L206.028 69.9685L210.283 67.521C210.602 68.8323 211.003 69.988 211.466 70.9957C212.602 73.4899 214.128 75.132 215.779 76.1787C220.741 79.3538 226.821 77.2059 226.821 77.2059L226.817 77.2137Z" fill="white" stroke="#19374E" stroke-linecap="round" stroke-linejoin="round"/>
<path d="M226.816 77.2138C226.816 77.2138 220.736 79.3578 215.774 76.1865C214.123 75.1398 212.598 73.4978 211.461 71.0036C213.936 70.9569 215.774 70.3032 215.774 70.3032L226.816 77.2138Z" fill="#3D84BB" stroke="#19374E" stroke-linecap="round" stroke-linejoin="round"/>
<path d="M194.078 157.984C189.513 157.642 179.159 155.763 174.212 145.93L174.126 145.759L174.025 145.591C173.99 145.529 169.541 137.988 169.541 128.673V115.023C173.881 111.626 182.791 102.941 185.196 87.5518L207.83 74.5361C210.804 79.7852 215.728 82.7152 221.959 82.7775L221.161 93.7075C220.904 96.5519 220.558 100.957 220.087 104.723C218.842 114.638 215.72 124.229 210.89 133.385C204.354 145.766 197.862 153.969 194.082 157.984H194.078Z" fill="white" stroke="#19374E" stroke-linecap="round" stroke-linejoin="round"/>
<path d="M180.689 84.5443C178.63 104.28 164.683 112.525 164.683 112.525L153.641 105.615C153.641 105.615 167.587 97.3616 169.646 77.6338L180.689 84.5443Z" fill="#3D84BB" stroke="#19374E" stroke-linecap="round" stroke-linejoin="round"/>
<path d="M185.41 161.16C183.787 160.751 166.318 156.082 158.829 141.199C158.829 141.199 153.645 132.654 153.645 121.755V105.611L164.687 112.521V128.677C164.687 139.568 169.872 148.113 169.872 148.113C173.651 155.619 179.922 159.335 185.41 161.16Z" fill="#3D84BB" stroke="#19374E" stroke-linecap="round" stroke-linejoin="round"/>
<path d="M210.279 67.5248L206.028 69.9723L180.689 84.5444L169.646 77.63L199.24 60.6143L210.279 67.5248Z" fill="#E7EBEE" stroke="#19374E" stroke-linecap="round" stroke-linejoin="round"/>
<path d="M205.264 98.7358C205.681 98.8876 205.973 98.9148 206.327 99.2028C208.043 100.604 207.35 104.825 207.514 106.837C207.561 107.386 207.755 108.226 208.281 108.51C209.009 108.903 210.149 108.179 210.826 107.872V113.16C209.188 114.164 207.927 115.32 207.588 117.308C207.238 119.382 207.623 121.561 207.312 123.666C206.611 128.394 203.295 130.977 199.375 133.16V128.748C200.796 127.826 202.002 126.97 202.423 125.222C202.972 122.934 202.267 120.464 202.925 118.152C203.462 116.261 204.762 114.81 206.132 113.471C206.335 113.277 206.37 113.359 206.319 112.942C205.307 113.117 204.143 113.405 203.322 112.592C201.999 111.281 203.03 107.312 202.469 105.495C201.971 103.884 200.36 105.039 199.375 105.428V101.016C200.765 100.113 202.287 99.3623 203.878 98.8876L204.754 98.7319H205.256L205.264 98.7358Z" fill="#3D84BB"/>
<path d="M195.881 103.055V107.468C194.802 108.168 193.681 108.876 193.117 110.086C192.198 112.059 192.833 114.81 192.556 116.974C192.237 119.46 190.809 121.164 189.092 122.838C188.878 123.048 188.812 122.958 188.87 123.398C190.011 123.063 191.63 122.908 192.261 124.168C193.14 125.927 192.047 130.153 193.094 131.285C193.786 132.036 195.141 131.087 195.881 130.783V135.196C194.472 135.97 192.895 136.974 191.315 137.324C186.375 138.417 188.224 131.491 187.605 128.83C187.169 126.958 185.507 127.865 184.371 128.468L184.305 123.363L184.398 123.083C186.329 122.028 187.535 120.487 187.687 118.238C187.925 114.725 187.236 112.227 189.049 108.9C190.237 106.721 193.323 104.188 195.565 103.149C195.67 103.102 195.756 103.036 195.881 103.055Z" fill="#3D84BB"/>
</svg>
