<svg width="203" height="195" viewBox="0 0 203 195" fill="none" xmlns="http://www.w3.org/2000/svg">
<g opacity="0.2">
<path d="M201.162 5.4401C201.162 8.02075 198.629 10.1068 195.482 10.1068H157.612C154.465 10.1068 151.932 8.02075 151.932 5.4401C151.932 2.85946 154.465 0.773438 157.612 0.773438H195.482C198.629 0.773437 201.162 2.85946 201.162 5.4401Z" fill="#E7E7E7"/>
<path d="M202.061 28.6874C202.061 31.5691 199.207 33.9132 195.714 33.9132H153.39C149.87 33.9132 147.043 31.5691 147.043 28.6874C147.043 25.8057 149.897 23.4615 153.39 23.4615H195.74C199.234 23.4615 202.061 25.8057 202.061 28.6874Z" fill="#E7E7E7"/>
<path d="M178.003 51.5688C178.003 54.4506 175.15 56.7946 171.656 56.7946H129.306C125.786 56.7946 122.959 54.4506 122.959 51.5688C122.959 48.6871 125.813 46.343 129.306 46.343H171.656C175.15 46.343 178.003 48.6871 178.003 51.5688Z" fill="#E7E7E7"/>
<path d="M140.116 28.6873C140.116 31.569 137.262 33.913 133.768 33.913H116.38C112.86 33.913 110.033 31.569 110.033 28.6873C110.033 25.8055 112.887 23.4614 116.38 23.4614H133.768C137.262 23.4614 140.116 25.8055 140.116 28.6873Z" fill="#E7E7E7"/>
<path d="M114.054 51.5686C114.054 54.4503 111.2 56.7944 107.707 56.7944H95.6792C92.1589 56.7944 89.332 54.4503 89.332 51.5686C89.332 48.6869 92.1856 46.3428 95.6792 46.3428H107.707C111.2 46.3428 114.054 48.6869 114.054 51.5686Z" fill="#E7E7E7"/>
<path d="M151.9 74.3437C151.9 76.8814 149.393 78.9244 146.326 78.9244H116.697C113.63 78.9244 111.123 76.8814 111.123 74.3437C111.123 71.8061 113.63 69.7631 116.697 69.7631H146.326C149.42 69.7631 151.9 71.8276 151.9 74.3437Z" fill="#E7E7E7"/>
<path d="M132.984 96.86C132.984 99.6987 130.184 101.978 126.744 101.978H95.5413C92.101 101.978 89.3008 99.6772 89.3008 96.86C89.3008 94.0213 92.101 91.7417 95.5413 91.7417H126.744C130.211 91.7417 132.984 94.0213 132.984 96.86Z" fill="#E7E7E7"/>
<path d="M153.495 119.29C153.495 122.171 150.642 124.516 147.148 124.516H129.334C125.813 124.516 122.986 122.171 122.986 119.29C122.986 116.408 125.84 114.064 129.334 114.064H147.148C150.642 114.064 153.495 116.408 153.495 119.29Z" fill="#E7E7E7"/>
<path d="M179.33 142.708C179.33 145.59 176.476 147.934 172.983 147.934H162.289C158.768 147.934 155.941 145.59 155.941 142.708C155.941 139.826 158.795 137.482 162.289 137.482H172.983C176.503 137.504 179.33 139.826 179.33 142.708Z" fill="#E7E7E7"/>
<path d="M146.375 142.708C146.375 145.59 143.521 147.934 140.028 147.934H123.306C119.786 147.934 116.959 145.59 116.959 142.708C116.959 139.826 119.813 137.482 123.306 137.482H140.028C143.521 137.504 146.375 139.826 146.375 142.708Z" fill="#E7E7E7"/>
<path d="M201.174 165.31C201.174 168.149 198.374 170.429 194.934 170.429H101.78C98.3393 170.429 95.5391 168.128 95.5391 165.31C95.5391 162.472 98.3393 160.192 101.78 160.192H194.934C198.374 160.192 201.174 162.493 201.174 165.31Z" fill="#E7E7E7"/>
<path d="M201.17 188.28C201.17 191.161 198.317 193.505 194.823 193.505H135.992C132.471 193.505 129.645 191.161 129.645 188.28C129.645 185.398 132.498 183.054 135.992 183.054H194.823C198.317 183.075 201.17 185.398 201.17 188.28Z" fill="#E7E7E7"/>
<path d="M90.1894 79.8056C90.1894 79.8056 102.27 80.7303 101.71 74.7948C101.15 68.8594 95.5498 67.7411 88.6959 69.268C81.8421 70.7949 66.8008 80.3002 66.8008 97.5691C66.8008 108.601 76.1349 125.677 92.0562 125.677C107.977 125.677 107.097 125.677 107.097 125.677C107.097 125.677 115.551 126.3 115.551 120.365C115.551 114.429 111.684 114.064 106.831 114.064C101.977 114.064 91.1494 114.064 91.1494 114.064C91.1494 114.064 76.8549 110.15 77.4683 96.3433C77.495 85.2035 86.3224 79.8271 90.1894 79.8056Z" fill="#E7E7E7"/>
<path d="M66.7834 55.4183C66.7834 55.4183 67.7168 54.2785 69.7703 53.8914C71.8238 53.5043 79.5311 57.2463 73.664 63.6334C67.7968 70.0205 56.4359 78.9667 56.4359 100.515C56.4359 122.063 76.2775 137.504 97.6926 137.504C109.107 137.504 107.64 141.182 107.64 143.956C107.64 146.73 106.36 147.934 92.6255 147.934C78.8644 147.934 45.875 131.956 45.875 99.6549C45.8484 67.3108 66.7834 55.4183 66.7834 55.4183Z" fill="#E7E7E7"/>
<path d="M89.3326 33.8921C89.3326 33.8921 101.494 34.7738 101.707 28.6663C101.894 22.5587 96.7199 22.5373 86.6657 23.4405C76.6116 24.3652 50.3428 27.7846 32.5547 56.7523C19.0069 78.9459 21.9671 95.5265 21.9671 105.311C21.9671 115.075 23.5672 114.946 27.1942 114.817C30.8478 114.688 31.0079 113.376 31.3279 107.268C31.6479 101.139 28.1544 84.3222 40.6887 60.8813C44.7957 53.2039 59.5969 35.1824 89.3326 33.8921Z" fill="#E7E7E7"/>
<path d="M131.547 0.493695C131.547 0.493695 144.001 -0.603082 144.215 6.17112C144.215 11.3754 140.188 12.0851 130.054 12.0851C119.893 12.0851 82.663 12.0851 82.663 12.0851C82.663 12.0851 37.8061 16.3432 17.5111 60.6443C8.63039 82.7948 8.41704 118.064 17.5111 133.01C20.6847 137.354 20.898 141.311 16.6577 142.73C12.4173 144.15 7.13687 140.644 3.10987 125.72C-0.917118 110.795 -4.91739 72.7303 17.9111 39.2034C32.9257 18.8808 53.8607 2.36466 82.6363 0.794769C111.439 -0.79663 131.547 0.493695 131.547 0.493695Z" fill="#E7E7E7"/>
<path d="M29.6114 133.074C29.6114 133.074 25.3711 127.139 30.7316 124.494C36.092 121.848 38.6789 125.956 41.0791 130.494C43.4793 135.053 55.8536 151.117 73.375 156.881C86.4694 160.816 86.6561 163.397 86.4694 167.504C86.2827 171.612 77.6687 172.214 72.0949 169.784C66.5478 167.354 39.3989 154.924 29.6114 133.074Z" fill="#E7E7E7"/>
<path d="M44.2006 177.978C44.2006 177.978 41.9871 175.698 44.2006 172.967C46.4141 170.236 50.4678 170.838 54.3614 173.87C58.2284 176.902 77.67 184.236 95.5648 183.075C113.086 181.913 118.233 182.687 118.047 188.3C117.86 193.913 110.793 194.365 101.699 194.515C92.5778 194.644 58.7884 192.537 44.2006 177.978Z" fill="#E7E7E7"/>
<path d="M20.4883 157.806C20.4883 157.806 16.9946 153.139 20.4883 150.451C23.9819 147.763 29.0489 151.763 31.0491 154.129C33.0493 156.494 43.6901 163.526 38.5163 169.569C36.3295 171.526 32.4892 170.387 29.449 167.526C26.3554 164.688 20.4883 157.806 20.4883 157.806Z" fill="#E7E7E7"/>
</g>
</svg>
