<svg width="91" height="48" viewBox="0 0 91 48" fill="none" xmlns="http://www.w3.org/2000/svg">
<path d="M33.1982 39.7658H14.7065H8.50269C8.50269 39.7447 8.50269 39.7288 8.50269 39.7077V28.5263H14.7065H30.7894C32.0607 28.5263 33.0931 26.6882 33.0931 24.4171C33.0931 22.146 32.0607 20.3079 30.7894 20.3079H14.7065H8.50269V8.34482H14.7017H33.1982C35.2152 8.34482 36.8498 6.50678 36.8498 4.23564C36.8498 1.9645 35.2152 0.126465 33.1982 0.126465H7.35561C3.31218 0.126465 0.033461 3.80254 0.00478414 8.3501H0V39.7183C0 39.7394 0 39.7552 0 39.7763C0.0286769 44.3239 3.3074 48 7.35084 48H33.1982C35.2152 48 36.8498 46.1619 36.8498 43.8908C36.8498 41.6197 35.2152 39.7658 33.1982 39.7658Z" fill="#37BCDB"/>
<path d="M50.549 46.891C50.549 47.4931 50.1045 47.9843 49.5596 47.9843H42.7823C42.2375 47.9843 41.793 47.4931 41.793 46.891V1.21465C41.793 0.612534 42.2375 0.121338 42.7823 0.121338H49.5596C50.1045 0.121338 50.549 0.612534 50.549 1.21465V46.891Z" fill="#3384BD"/>
<path d="M89.987 1.33607C89.987 1.96988 89.5329 2.48221 88.969 2.48221H82.1821C81.6181 2.48221 81.1641 1.96988 81.1641 1.33607C81.1641 0.702267 81.6181 0.189941 82.1821 0.189941H88.969C89.5329 0.189941 89.987 0.702267 89.987 1.33607Z" fill="#33B3D4"/>
<path d="M90.1472 7.04561C90.1472 7.75336 89.6358 8.32906 89.0097 8.32906H81.4246C80.7937 8.32906 80.2871 7.75336 80.2871 7.04561C80.2871 6.33786 80.7985 5.76215 81.4246 5.76215H89.0144C89.6405 5.76215 90.1472 6.33786 90.1472 7.04561Z" fill="#0897D2"/>
<path d="M85.8355 12.6653C85.8355 13.373 85.3241 13.9488 84.698 13.9488H77.1082C76.4773 13.9488 75.9707 13.373 75.9707 12.6653C75.9707 11.9575 76.4821 11.3818 77.1082 11.3818H84.698C85.3241 11.3818 85.8355 11.9575 85.8355 12.6653Z" fill="#30B3D3"/>
<path d="M79.0455 7.04561C79.0455 7.75336 78.5341 8.32906 77.908 8.32906H74.7918C74.1609 8.32906 73.6543 7.75336 73.6543 7.04561C73.6543 6.33786 74.1657 5.76215 74.7918 5.76215H77.908C78.5341 5.76215 79.0455 6.33786 79.0455 7.04561Z" fill="#1BACE3"/>
<path d="M74.3759 12.6653C74.3759 13.373 73.8645 13.9488 73.2384 13.9488H71.0828C70.4519 13.9488 69.9453 13.373 69.9453 12.6653C69.9453 11.9575 70.4567 11.3818 71.0828 11.3818H73.2384C73.8645 11.3818 74.3759 11.9575 74.3759 12.6653Z" fill="#075DAA"/>
<path d="M81.1574 18.2587C81.1574 18.882 80.7082 19.3837 80.1585 19.3837H74.8485C74.2989 19.3837 73.8496 18.882 73.8496 18.2587C73.8496 17.6355 74.2989 17.1337 74.8485 17.1337H80.1585C80.7129 17.1337 81.1574 17.6408 81.1574 18.2587Z" fill="#055CA9"/>
<path d="M77.7663 23.7885C77.7663 24.4857 77.2644 25.0456 76.6479 25.0456H71.0559C70.4393 25.0456 69.9375 24.4805 69.9375 23.7885C69.9375 23.0914 70.4393 22.5315 71.0559 22.5315H76.6479C77.2692 22.5315 77.7663 23.0914 77.7663 23.7885Z" fill="#317FB8"/>
<path d="M81.4443 29.2974C81.4443 30.0051 80.9329 30.5808 80.3068 30.5808H77.1141C76.4832 30.5808 75.9766 30.0051 75.9766 29.2974C75.9766 28.5896 76.488 28.0139 77.1141 28.0139H80.3068C80.9329 28.0139 81.4443 28.5896 81.4443 29.2974Z" fill="#26ADE4"/>
<path d="M86.0744 35.0492C86.0744 35.757 85.563 36.3327 84.9369 36.3327H83.0203C82.3894 36.3327 81.8828 35.757 81.8828 35.0492C81.8828 34.3415 82.3942 33.7657 83.0203 33.7657H84.9369C85.5678 33.771 86.0744 34.3415 86.0744 35.0492Z" fill="#34B3D1"/>
<path d="M80.1682 35.0492C80.1682 35.757 79.6569 36.3327 79.0307 36.3327H76.034C75.4031 36.3327 74.8965 35.757 74.8965 35.0492C74.8965 34.3415 75.4079 33.7657 76.034 33.7657H79.0307C79.6569 33.771 80.1682 34.3415 80.1682 35.0492Z" fill="#0897D2"/>
<path d="M89.9882 40.6003C89.9882 41.2975 89.4863 41.8574 88.8698 41.8574H72.175C71.5585 41.8574 71.0566 41.2922 71.0566 40.6003C71.0566 39.9031 71.5585 39.3433 72.175 39.3433H88.8698C89.4863 39.3433 89.9882 39.9084 89.9882 40.6003Z" fill="#125FAD"/>
<path d="M89.9865 46.2413C89.9865 46.9491 89.4751 47.5248 88.849 47.5248H78.3055C77.6746 47.5248 77.168 46.9491 77.168 46.2413C77.168 45.5336 77.6794 44.9579 78.3055 44.9579H88.849C89.4751 44.9632 89.9865 45.5336 89.9865 46.2413Z" fill="#0897D2"/>
<path d="M70.0979 19.6003C70.0979 19.6003 72.263 19.8274 72.1626 18.3696C72.0622 16.9119 71.0585 16.6372 69.8302 17.0122C68.6019 17.3872 65.9062 19.7217 65.9062 23.963C65.9062 26.6725 67.5791 30.8662 70.4324 30.8662C73.2858 30.8662 73.128 30.8662 73.128 30.8662C73.128 30.8662 74.6431 31.0193 74.6431 29.5616C74.6431 28.1038 73.9501 28.014 73.0802 28.014C72.2104 28.014 70.2699 28.014 70.2699 28.014C70.2699 28.014 67.7081 27.0528 67.818 23.6619C67.8228 20.926 69.4048 19.6055 70.0979 19.6003Z" fill="#1D94D2"/>
<path d="M65.9034 13.6108C65.9034 13.6108 66.0706 13.3309 66.4387 13.2358C66.8067 13.1407 68.188 14.0597 67.1365 15.6284C66.085 17.1971 64.0489 19.3943 64.0489 24.6866C64.0489 29.9789 67.6049 33.7711 71.4428 33.7711C73.4884 33.7711 73.2255 34.6743 73.2255 35.3556C73.2255 36.037 72.9961 36.3328 70.5347 36.3328C68.0685 36.3328 62.1563 32.4084 62.1563 24.4753C62.1515 16.5316 65.9034 13.6108 65.9034 13.6108Z" fill="#33B3D4"/>
<path d="M69.9443 8.32377C69.9443 8.32377 72.1237 8.54032 72.162 7.04031C72.1954 5.5403 71.2682 5.53503 69.4663 5.75686C67.6645 5.98397 62.9567 6.82376 59.7688 13.9382C57.3408 19.389 57.8713 23.4612 57.8713 25.8644C57.8713 28.2623 58.1581 28.2306 58.8081 28.1989C59.4629 28.1672 59.4916 27.845 59.5489 26.345C59.6063 24.8397 58.9802 20.7094 61.2265 14.9523C61.9626 13.0668 64.6152 8.64068 69.9443 8.32377Z" fill="#347FB9"/>
<path d="M77.5108 0.121251C77.5108 0.121251 79.7429 -0.148117 79.7811 1.51563C79.7811 2.7938 79.0594 2.9681 77.2432 2.9681C75.4222 2.9681 68.7501 2.9681 68.7501 2.9681C68.7501 2.9681 60.711 4.01388 57.0738 14.8942C55.4822 20.3344 55.444 28.9964 57.0738 32.6672C57.6426 33.7341 57.6808 34.706 56.9209 35.0546C56.1609 35.4031 55.2146 34.5422 54.4929 30.8767C53.7712 27.2112 53.0543 17.8626 57.1455 9.62835C59.8363 4.63712 63.5882 0.580761 68.7453 0.195195C73.9071 -0.195652 77.5108 0.121251 77.5108 0.121251Z" fill="#0897D2"/>
<path d="M59.2423 32.683C59.2423 32.683 58.4824 31.2253 59.4431 30.5756C60.4037 29.926 60.8674 30.9348 61.2975 32.0492C61.7277 33.1689 63.9453 37.1144 67.0854 38.5299C69.4322 39.4964 69.4656 40.1302 69.4322 41.139C69.3987 42.1479 67.855 42.2957 66.856 41.6989C65.8619 41.1021 60.9964 38.0492 59.2423 32.683Z" fill="#1BACE3"/>
<path d="M61.856 43.7113C61.856 43.7113 61.4593 43.1514 61.856 42.4806C62.2527 41.8099 62.9792 41.9578 63.677 42.7025C64.37 43.4472 67.8542 45.2483 71.0613 44.9631C74.2014 44.6778 75.1238 44.868 75.0904 46.2465C75.0569 47.625 73.7903 47.736 72.1605 47.7729C70.526 47.8046 64.4704 47.287 61.856 43.7113Z" fill="#317FB8"/>
<path d="M57.6064 38.7571C57.6064 38.7571 56.9803 37.611 57.6064 36.9508C58.2325 36.2906 59.1406 37.273 59.4991 37.854C59.8575 38.435 61.7645 40.1621 60.8373 41.6462C60.4454 42.1269 59.7572 41.847 59.2123 41.1445C58.6579 40.4473 57.6064 38.7571 57.6064 38.7571Z" fill="#31B3D6"/>
</svg>
